<svg width="144" height="20" viewBox="0 0 144 20" fill="none" xmlns="http://www.w3.org/2000/svg">
<path d="M80.182 12.236C82.436 10.822 83.374 8.862 83.374 5.908V4.074H85.208V5.908C85.208 8.862 86.146 10.584 88.442 11.998L87.336 13.258C85.95 12.418 84.718 10.836 84.34 9.758C84.018 10.822 82.758 12.572 81.33 13.454L80.182 12.236ZM90.584 16.184H88.806V3.262H90.584V8.022H92.474V9.59H90.584V16.184ZM102.041 3.262H103.819V16.184H102.041V3.262ZM97.0015 4.074C98.9615 4.074 100.459 5.698 100.459 8.722C100.459 11.746 98.9615 13.384 97.0015 13.384C94.9855 13.384 93.5295 11.746 93.5295 8.722C93.5295 5.698 94.9855 4.074 97.0015 4.074ZM97.0015 5.656C96.0775 5.656 95.2935 6.622 95.2935 8.722C95.2935 10.822 96.0775 11.816 97.0015 11.816C97.8695 11.816 98.6815 10.822 98.6815 8.722C98.6815 6.622 97.8695 5.656 97.0015 5.656ZM106.205 4.172H107.997V7.098H110.685V4.172H112.477V7.868H114.815V3.262H116.579V16.184H114.815V9.422H112.477V13.146H106.205V4.172ZM107.997 8.68V11.578H110.685V8.68H107.997ZM119.664 4.032H121.442V6.09H126.776V4.032H128.54V10.92H124.998V12.936H130.08V14.462H118.152V12.936H123.234V10.92H119.664V4.032ZM121.442 7.616V9.394H126.776V7.616H121.442ZM133.306 11.886H141.79V16.184H133.306V11.886ZM135.07 13.328V14.756H140.054V13.328H135.07ZM140.04 8.806H138.22V7.252H140.04V3.262H141.79V11.284H140.04V8.806ZM133.04 3.276H136.708V4.634H133.04V3.276ZM131.122 5.11H138.57V6.454H131.122V5.11ZM134.86 6.748C136.736 6.748 137.954 7.686 137.954 8.988C137.954 10.262 136.736 11.228 134.86 11.228C132.956 11.228 131.766 10.262 131.766 8.988C131.766 7.686 132.956 6.748 134.86 6.748ZM134.86 8.106C133.908 8.106 133.446 8.512 133.446 8.988C133.446 9.45 133.908 9.856 134.86 9.856C135.77 9.856 136.26 9.45 136.26 8.988C136.26 8.498 135.77 8.106 134.86 8.106Z" fill="#2C67F6"/>
<g clip-path="url(#clip0_521_495)">
<path d="M5.91504 6.20005C5.55963 7.00047 4.97447 7.84203 4.24332 8.60249C3.49063 9.40291 2.5704 10.1011 1.62984 10.6559L0 8.78702C1.17032 8.13 2.27842 7.22614 3.11488 6.07663C3.95134 4.94711 4.47308 3.63305 4.47308 2.15562V0.431359H7.19067V2.11448C7.19067 3.57193 7.73395 4.80371 8.54886 5.80983C9.36378 6.85708 10.4719 7.63752 11.5584 8.15115L10.0949 10.1011C8.08815 9.03385 6.77064 7.76093 5.91384 6.20005H5.91504ZM4.47308 11.5797H15.4475V19.4429H4.47308V11.5797ZM7.04468 13.7353V17.3072H12.8556V13.7353H7.04468ZM15.4475 10.8404H12.8556V0H15.4475V4.31124H18.4787V6.46685H15.4475V10.8404Z" fill="#004599"/>
<path d="M25.8233 8.58251C25.0922 7.9055 24.5273 7.18618 24.1935 6.52915C23.8799 7.26845 23.3151 8.06888 22.584 8.82816C21.8313 9.58745 20.9326 10.3679 19.9298 10.9638L18.3203 9.05383C19.5959 8.23225 20.7447 7.28843 21.519 6.20005C22.292 5.13282 22.773 3.90103 22.773 2.5047V0.431359H25.5325V2.46356C25.5325 4.00329 26.0339 5.19394 26.8488 6.15891C27.6219 7.14504 28.73 7.88317 29.8381 8.43794L28.3746 10.4302C27.4543 9.93771 26.5557 9.30066 25.8245 8.58251H25.8233ZM32.8046 18.7882C31.8843 19.5475 30.6099 20 29.1045 20C27.5991 20 26.345 19.5487 25.4464 18.7882C24.5261 17.9878 24.0044 16.8782 24.0044 15.5031C24.0044 14.1279 24.5273 13.0806 25.4464 12.2802C26.345 11.4798 27.5991 11.0073 29.1045 11.0073C30.6099 11.0073 31.8843 11.4798 32.8046 12.2802C33.7032 13.0806 34.2465 14.1902 34.2465 15.5031C34.2465 16.8159 33.7032 17.9878 32.8046 18.7882ZM30.9653 13.8199C30.4843 13.4097 29.8572 13.1629 29.1045 13.1629C27.5991 13.1629 26.5545 14.1079 26.5545 15.5042C26.5545 16.9006 27.5991 17.8655 29.1045 17.8655C30.6099 17.8655 31.6965 16.9205 31.6965 15.5042C31.6965 14.826 31.4033 14.2313 30.9653 13.8211V13.8199ZM31.9693 5.66643H28.3111V3.40738H31.9693V0H34.5612V10.9426H31.9693V5.66643Z" fill="#004599"/>
<path d="M41.6868 12.4624V11.1072C39.7015 10.6758 38.6138 9.30066 38.6138 7.6575C38.6138 6.75364 39.0733 5.87094 39.826 5.23507H37.2963V3.20287H48.5424V5.23507H46.0964C46.8491 5.8921 47.2883 6.7748 47.2883 7.69864C47.2883 9.32064 46.2855 10.6547 44.2991 11.086V12.339C46.0761 12.2367 47.8531 12.1133 49.6086 11.9288V0H52.1802V6.48801H55.1072V8.64363H52.1802V17.2261H49.6086V13.9821C45.5328 14.4335 41.3517 14.7414 37.0665 14.8648L36.8164 12.5658C38.4462 12.5658 40.0557 12.5247 41.6868 12.4636V12.4624ZM40.3489 0.0822755H45.4706V2.21791H40.3489V0.0822755ZM41.0801 7.65867C41.0801 8.54137 41.7909 9.23954 42.9409 9.23954C44.0908 9.23954 44.8016 8.54137 44.8016 7.65867C44.8016 6.77598 44.1124 6.05665 42.9409 6.05665C41.7693 6.05665 41.0801 6.7748 41.0801 7.65867Z" fill="#004599"/>
<path d="M62.4913 7.96662C63.1387 9.17842 64.0804 10.0611 65.2292 10.8204L63.682 12.7715C62.9508 12.279 62.1766 11.5597 61.5711 10.8204C60.9237 10.0811 60.4211 9.30066 60.2332 8.66479C59.648 10.4713 58.394 11.9299 56.8048 13.1617L55.1953 11.2929C56.4494 10.2257 57.39 9.28068 57.9967 8.0489C58.5818 6.8371 58.875 5.35966 58.875 3.24401H55.8236V1.10837H64.4562V3.24401H61.467C61.467 5.23507 61.8224 6.75482 62.4913 7.96662ZM69.4737 7.53526H67.8846V16.508H65.3764V0.246827H67.8846V5.37964H69.4737V0H72.0034V17.205H69.4737V7.53526Z" fill="#004599"/>
</g>
<defs>
<clipPath id="clip0_521_495">
<rect width="72" height="20" fill="white"/>
</clipPath>
</defs>
</svg>
