<svg width="120" height="61" viewBox="0 0 120 61" fill="none" xmlns="http://www.w3.org/2000/svg">
<g clip-path="url(#clip0_337_2304)">
<path d="M9.8584 9.92007C9.26606 11.2008 8.29079 12.5472 7.0722 13.764C5.81771 15.0447 4.28401 16.1617 2.71639 17.0494L0 14.0592C1.95054 13.008 3.79737 11.5618 5.19146 9.72261C6.58556 7.91537 7.45513 5.81288 7.45513 3.44899V0.690174H11.9844V3.38317C11.9844 5.71509 12.8899 7.68594 14.2481 9.29572C15.6063 10.9713 17.4531 12.22 19.2641 13.0418L16.8249 16.1617C13.4803 14.4542 11.2844 12.4175 9.8564 9.92007H9.8584ZM7.45513 18.5275H25.7459V31.1086H7.45513V18.5275ZM11.7411 21.9765V27.6916H21.426V21.9765H11.7411ZM25.7459 17.3446H21.426V0H25.7459V6.89798H30.7978V10.347H25.7459V17.3446Z" fill="#004599"/>
<path d="M43.0431 13.732C41.8245 12.6488 40.8831 11.4979 40.3267 10.4466C39.8041 11.6295 38.8628 12.9102 37.6442 14.1251C36.3897 15.3399 34.8919 16.5886 33.2206 17.5421L30.5381 14.4861C32.6641 13.1716 34.5788 11.6615 35.8692 9.92007C37.1576 8.21251 37.9593 6.24165 37.9593 4.00752V0.690174H42.5584V3.9417C42.5584 6.40527 43.3941 8.3103 44.7523 9.85425C46.0407 11.4321 47.8875 12.6131 49.7343 13.5007L47.2952 16.6883C45.7615 15.9003 44.2637 14.8811 43.0451 13.732H43.0431ZM54.6785 30.0611C53.1448 31.276 51.0207 32 48.5118 32C46.0028 32 43.9126 31.2779 42.4148 30.0611C40.8811 28.7804 40.0116 27.0052 40.0116 24.8049C40.0116 22.6046 40.8831 20.929 42.4148 19.6483C43.9126 18.3677 46.0028 17.6117 48.5118 17.6117C51.0207 17.6117 53.1448 18.3677 54.6785 19.6483C56.1763 20.929 57.0818 22.7043 57.0818 24.8049C57.0818 26.9055 56.1763 28.7804 54.6785 30.0611ZM51.6131 22.1119C50.8113 21.4556 49.7662 21.0606 48.5118 21.0606C46.0028 21.0606 44.2617 22.5726 44.2617 24.8068C44.2617 27.0409 46.0028 28.5849 48.5118 28.5849C51.0207 28.5849 52.8317 27.0729 52.8317 24.8068C52.8317 23.7217 52.343 22.7701 51.6131 22.1138V22.1119ZM53.2864 9.06629H47.1895V5.45181H53.2864V0H57.6063V17.5082H53.2864V9.06629Z" fill="#004599"/>
<path d="M69.4796 19.9398V17.7715C66.1708 17.0813 64.3579 14.8811 64.3579 12.252C64.3579 10.8058 65.1238 9.39351 66.3783 8.37612H62.1621V5.12459H80.9056V8.37612H76.829C78.0835 9.42736 78.8154 10.8397 78.8154 12.3178C78.8154 14.913 77.1441 17.0475 73.8334 17.7377V19.7424C76.7951 19.5787 79.7568 19.3813 82.6826 19.086V0H86.9686V10.3808H91.8469V13.8298H86.9686V27.5618H82.6826V22.3714C75.8896 23.0936 68.9211 23.5863 61.7791 23.7837L61.3623 20.1053C64.0787 20.1053 66.7612 20.0395 69.4796 19.9417V19.9398ZM67.2498 0.131641H75.7859V3.54866H67.2498V0.131641ZM68.4684 12.2539C68.4684 13.6662 69.6531 14.7833 71.5697 14.7833C73.4864 14.7833 74.671 13.6662 74.671 12.2539C74.671 10.8416 73.5223 9.69064 71.5697 9.69064C69.6172 9.69064 68.4684 10.8397 68.4684 12.2539Z" fill="#004599"/>
<path d="M104.148 12.7466C105.227 14.6855 106.797 16.0978 108.711 17.3127L106.133 20.4344C104.914 19.6465 103.624 18.4956 102.615 17.3127C101.536 16.1298 100.698 14.8811 100.385 13.8637C99.4095 16.7541 97.3194 19.0879 94.6708 21.0588L91.9883 18.0687C94.0784 16.3611 95.646 14.8491 96.6572 12.8783C97.6325 10.9394 98.1211 8.57548 98.1211 5.19043H93.0353V1.77341H107.423V5.19043H102.441C102.441 8.37613 103.033 10.8077 104.148 12.7466ZM115.786 12.0564H113.137V26.4128H108.957V0.394938H113.137V8.60744H115.786V1.52588e-05H120.002V27.528H115.786V12.0564Z" fill="#004599"/>
</g>
<path d="M24.6924 53.984C27.2684 52.368 28.3404 50.128 28.3404 46.752V44.656H30.4364V46.752C30.4364 50.128 31.5084 52.096 34.1324 53.712L32.8684 55.152C31.2844 54.192 29.8764 52.384 29.4444 51.152C29.0764 52.368 27.6364 54.368 26.0044 55.376L24.6924 53.984ZM36.5804 58.496H34.5484V43.728H36.5804V49.168H38.7404V50.96H36.5804V58.496ZM49.6746 43.728H51.7066V58.496H49.6746V43.728ZM43.9146 44.656C46.1546 44.656 47.8666 46.512 47.8666 49.968C47.8666 53.424 46.1546 55.296 43.9146 55.296C41.6106 55.296 39.9466 53.424 39.9466 49.968C39.9466 46.512 41.6106 44.656 43.9146 44.656ZM43.9146 46.464C42.8586 46.464 41.9626 47.568 41.9626 49.968C41.9626 52.368 42.8586 53.504 43.9146 53.504C44.9066 53.504 45.8346 52.368 45.8346 49.968C45.8346 47.568 44.9066 46.464 43.9146 46.464ZM54.4329 44.768H56.4809V48.112H59.5529V44.768H61.6009V48.992H64.2729V43.728H66.2889V58.496H64.2729V50.768H61.6009V55.024H54.4329V44.768ZM56.4809 49.92V53.232H59.5529V49.92H56.4809ZM69.8151 44.608H71.8471V46.96H77.9431V44.608H79.9591V52.48H75.9111V54.784H81.7191V56.528H68.0871V54.784H73.8951V52.48H69.8151V44.608ZM71.8471 48.704V50.736H77.9431V48.704H71.8471ZM85.4054 53.584H95.1014V58.496H85.4054V53.584ZM87.4214 55.232V56.864H93.1174V55.232H87.4214ZM93.1014 50.064H91.0214V48.288H93.1014V43.728H95.1014V52.896H93.1014V50.064ZM85.1014 43.744H89.2934V45.296H85.1014V43.744ZM82.9094 45.84H91.4214V47.376H82.9094V45.84ZM87.1814 47.712C89.3254 47.712 90.7174 48.784 90.7174 50.272C90.7174 51.728 89.3254 52.832 87.1814 52.832C85.0054 52.832 83.6454 51.728 83.6454 50.272C83.6454 48.784 85.0054 47.712 87.1814 47.712ZM87.1814 49.264C86.0934 49.264 85.5654 49.728 85.5654 50.272C85.5654 50.8 86.0934 51.264 87.1814 51.264C88.2214 51.264 88.7814 50.8 88.7814 50.272C88.7814 49.712 88.2214 49.264 87.1814 49.264Z" fill="#004599"/>
<defs>
<clipPath id="clip0_337_2304">
<rect width="120" height="32" fill="white"/>
</clipPath>
</defs>
</svg>
