<svg width="126" height="64" viewBox="0 0 126 64" fill="none" xmlns="http://www.w3.org/2000/svg">
<g clip-path="url(#clip0_337_2041)">
<path d="M10.3513 10.5401C9.72936 11.9008 8.70533 13.3315 7.42581 14.6242C6.1086 15.985 4.49821 17.1718 2.85221 18.115L0 14.9379C2.04807 13.821 3.98724 12.2844 5.45104 10.3303C6.91484 8.41008 7.82788 6.17619 7.82788 3.66455V0.73331H12.5837V3.59462C12.5837 6.07228 13.5344 8.16631 14.9605 9.8767C16.3866 11.657 18.3258 12.9838 20.2273 13.857L17.6661 17.1718C14.1543 15.3575 11.8486 13.1936 10.3492 10.5401H10.3513ZM7.82788 19.6855H27.0332V33.0529H7.82788V19.6855ZM12.3282 23.35V29.4223H22.4973V23.35H12.3282ZM27.0332 18.4287H22.4973V0H27.0332V7.3291H32.3377V10.9937H27.0332V18.4287Z" fill="white"/>
<path d="M45.1957 14.5903C43.9162 13.4394 42.9277 12.2165 42.3435 11.0996C41.7948 12.3564 40.8064 13.7171 39.5268 15.0079C38.2096 16.2987 36.6369 17.6254 34.882 18.6385L32.0654 15.3915C34.2978 13.9948 36.3082 12.3903 37.6631 10.5401C39.0159 8.72579 39.8577 6.63176 39.8577 4.25799V0.73331H44.6868V4.18806C44.6868 6.80559 45.5642 8.82969 46.9903 10.4701C48.3432 12.1466 50.2823 13.4014 52.2215 14.3445L49.6604 17.7313C48.05 16.8941 46.4773 15.8111 45.1978 14.5903H45.1957ZM57.4129 31.9399C55.8025 33.2307 53.5722 34 50.9378 34C48.3034 34 46.1087 33.2327 44.536 31.9399C42.9256 30.5792 42.0126 28.693 42.0126 26.3552C42.0126 24.0174 42.9277 22.2371 44.536 20.8764C46.1087 19.5156 48.3034 18.7124 50.9378 18.7124C53.5722 18.7124 55.8025 19.5156 57.4129 20.8764C58.9856 22.2371 59.9363 24.1233 59.9363 26.3552C59.9363 28.5871 58.9856 30.5792 57.4129 31.9399ZM54.1942 23.4939C53.3523 22.7965 52.255 22.3769 50.9378 22.3769C48.3034 22.3769 46.4752 23.9834 46.4752 26.3572C46.4752 28.731 48.3034 30.3714 50.9378 30.3714C53.5722 30.3714 55.4737 28.7649 55.4737 26.3572C55.4737 25.2043 54.9606 24.1932 54.1942 23.4959V23.4939ZM55.9512 9.63293H49.5494V5.79255H55.9512V0H60.4871V18.6025H55.9512V9.63293Z" fill="white"/>
<path d="M72.9538 21.1861V18.8822C69.4796 18.1489 67.5761 15.8111 67.5761 13.0177C67.5761 11.4812 68.3802 9.98061 69.6974 8.89962H65.2704V5.44488H84.9511V8.89962H80.6707C81.9879 10.0166 82.7564 11.5172 82.7564 13.0877C82.7564 15.8451 81.0016 18.113 77.5253 18.8463V20.9763C80.6351 20.8024 83.7449 20.5926 86.817 20.2789V0H91.3173V11.0296H96.4395V14.6942H91.3173V29.2844H86.817V23.7696C79.6844 24.5369 72.3674 25.0604 64.8683 25.2702L64.4307 21.3619C67.2829 21.3619 70.0995 21.292 72.9538 21.1881V21.1861ZM70.6126 0.139868H79.5755V3.77045H70.6126V0.139868ZM71.8921 13.0197C71.8921 14.5203 73.136 15.7072 75.1485 15.7072C77.1609 15.7072 78.4048 14.5203 78.4048 13.0197C78.4048 11.5192 77.1986 10.2963 75.1485 10.2963C73.0983 10.2963 71.8921 11.5172 71.8921 13.0197Z" fill="white"/>
<path d="M109.356 13.5433C110.489 15.6033 112.137 17.1039 114.147 18.3947L111.44 21.7116C110.16 20.8744 108.805 19.6515 107.745 18.3947C106.613 17.1379 105.733 15.8111 105.404 14.7301C104.38 17.8012 102.186 20.2809 99.4045 22.3749L96.5879 19.1979C98.7825 17.3836 100.429 15.7772 101.49 13.6831C102.514 11.6231 103.027 9.11143 103.027 5.51481H97.6873V1.88423H112.794V5.51481H107.563C107.563 8.89962 108.185 11.4832 109.356 13.5433ZM121.575 12.8099H118.794V28.0636H114.405V0.419605H118.794V9.14539H121.575V0H126.002V29.2485H121.575V12.8099Z" fill="white"/>
</g>
<path d="M39.5649 51.458V53.15H37.0809V61.808H35.1729V45.194H37.0809V51.458H39.5649ZM23.7789 57.056C26.6589 55.184 28.0989 52.394 28.0989 48.704V46.256H29.9889V48.704C29.9889 52.358 31.3569 54.896 34.3629 56.768L33.2469 58.046C31.4109 56.912 29.6469 54.86 29.0709 53.096C28.5309 54.824 26.8749 57.038 24.9309 58.298L23.7789 57.056ZM45.404 46.31C48.068 46.31 49.814 48.632 49.814 52.214C49.814 55.724 48.068 58.1 45.404 58.1C42.668 58.1 40.958 55.724 40.958 52.214C40.958 48.632 42.668 46.31 45.404 46.31ZM45.404 48.002C43.946 48.002 42.902 49.46 42.902 52.214C42.902 54.914 43.946 56.408 45.404 56.408C46.826 56.408 47.888 54.914 47.888 52.214C47.888 49.46 46.826 48.002 45.404 48.002ZM52.136 45.194H54.062V61.808H52.136V45.194ZM57.435 46.472H59.343V50.378H63.375V46.364H65.229V51.224H68.469V45.194H70.377V61.808H68.469V52.934H65.229V57.776H57.435V46.472ZM59.343 52.052V56.084H63.375V52.052H59.343ZM74.632 46.238H76.54V49.046H83.938V46.184H85.846V54.968H81.202V57.848H87.934V59.504H72.598V57.848H79.276V54.968H74.632V46.238ZM76.54 50.702V53.312H83.938V50.702H76.54ZM100.883 52.106H98.417V50.414H100.883V45.194H102.809V55.508H100.883V52.106ZM92.027 56.228H102.809V61.754H92.027V56.228ZM93.935 57.812V60.17H100.901V57.812H93.935ZM91.739 45.248H96.455V46.742H91.739V45.248ZM89.273 47.642H98.849V49.136H89.273V47.642ZM94.043 49.712C96.419 49.712 97.895 50.846 97.895 52.556C97.895 54.23 96.419 55.382 94.043 55.382C91.595 55.382 90.119 54.23 90.119 52.556C90.119 50.846 91.595 49.712 94.043 49.712ZM94.043 51.17C92.621 51.17 91.811 51.746 91.811 52.556C91.811 53.366 92.621 53.906 94.043 53.906C95.411 53.906 96.203 53.366 96.203 52.556C96.203 51.746 95.411 51.17 94.043 51.17Z" fill="white"/>
<defs>
<clipPath id="clip0_337_2041">
<rect width="126" height="34" fill="white"/>
</clipPath>
</defs>
</svg>
