<svg width="92" height="32" viewBox="0 0 92 32" fill="none" xmlns="http://www.w3.org/2000/svg">
<g clip-path="url(#clip0_337_2080)">
<path d="M39.626 2.70709C37.4654 2.70709 36.1483 3.77772 35.5804 4.40302C34.8013 3.1936 33.5112 2.70709 31.9963 2.70709C30.4815 2.70709 29.3412 3.35984 28.7164 3.89973V2.99686H25.9189V15.0148H28.7164V8.14718C28.7164 6.45278 29.4926 4.95511 31.2322 4.88038C32.9193 4.8087 33.5472 6.12183 33.5472 7.37547V15.0148H36.3446V8.14718C36.3461 6.45278 37.1238 4.95511 38.8619 4.88038C40.5236 4.81023 41.1559 6.08218 41.1739 7.31752V15.0148H43.9713V7.07045C43.9728 4.03852 41.9335 2.70709 39.6246 2.70709H39.626Z" fill="#004599"/>
<path d="M64.1456 9.27729C64.1456 10.6606 63.8309 13.1648 61.6388 13.1648C59.7628 13.1648 59.3822 11.5695 59.3822 10.4837V2.99686H56.5713V10.9336C56.5713 13.7566 58.2734 15.3061 60.7802 15.3061C62.2321 15.3061 63.3874 14.7586 64.1441 13.9213V15.0163H66.955V2.99686H64.1441V9.27729H64.1456Z" fill="#004599"/>
<path d="M75.157 2.70709C73.5298 2.70709 72.5004 3.36137 71.8756 3.96989V2.99686H69.0781V15.0148H71.8756V8.14718C71.8771 6.45278 72.7072 4.95206 74.4468 4.87886C76.1055 4.8087 76.6869 6.12183 76.7063 7.35717V15.0163H79.5038V6.98962C79.5053 4.20781 77.466 2.70862 75.157 2.70862V2.70709Z" fill="#004599"/>
<path d="M51.4613 7.93977C49.1823 7.3587 48.3267 6.94081 48.3267 6.12488C48.3267 5.20676 49.3501 4.69127 50.405 4.75532C51.6666 4.83158 52.3559 5.47975 52.5237 6.38415H55.1848C54.99 4.23373 53.1455 2.58051 50.2626 2.58051C47.6 2.58051 45.351 4.02022 45.3914 6.29264C45.4199 7.88791 46.5092 8.88534 48.1035 9.49386C49.8461 10.1588 52.1955 10.4028 52.4008 11.5406C52.6061 12.6783 51.4479 13.3097 50.1338 13.1648C48.998 13.0398 48.3522 12.4724 48.051 11.507H45.0498C45.5503 14.0387 47.5356 15.4327 50.3555 15.4327C53.3283 15.4327 55.435 13.7123 55.3841 11.4765C55.3271 9.00887 52.663 8.24784 51.4583 7.94129L51.4613 7.93977Z" fill="#004599"/>
<path d="M5.87511 6.26823C4.60899 5.8778 3.55114 5.36231 3.4972 4.22152C3.43577 2.94958 4.51309 2.25565 5.66234 2.30293C7.15173 2.36393 7.7316 3.35068 7.89791 4.07664H10.7628C10.3193 0.757983 7.34951 0 5.4286 0C3.50769 0 0.389576 1.05081 0.389576 4.29778C0.389576 6.46802 1.83251 7.67896 4.19094 8.47965C6.47296 9.25441 7.88743 9.64484 8.06423 10.8299C8.24853 12.0713 7.2641 13.0825 5.68932 13.0504C4.1445 13.0199 3.19003 12.0286 3.01472 11.0617H0C0.251726 13.0306 1.89544 15.4327 5.54547 15.4327C9.1955 15.4327 11.1868 13.0519 11.0999 10.8329C10.9786 7.72472 8.52723 7.08569 5.87511 6.2667V6.26823Z" fill="#004599"/>
<path d="M89.1924 2.99686V3.93023C88.3938 3.09905 87.3179 2.58051 85.9499 2.58051C82.5966 2.58051 80.7461 4.96579 80.7461 8.61692C80.7461 12.268 82.5981 14.6533 85.9499 14.6533C87.3344 14.6533 88.4207 14.1226 89.2254 13.2716V13.8115C89.2254 15.4449 88.617 16.8922 86.6961 17.002C84.6179 17.1225 84.0125 15.7301 83.9316 15.4296H81.1656C81.5267 17.3147 83.1165 19.3354 86.5028 19.3354C90.1079 19.3354 92.0004 16.79 92.0004 13.4012V2.99686H89.1924ZM86.3095 12.4038C84.4995 12.3702 83.554 10.8085 83.554 8.61692C83.554 6.42532 84.519 4.827 86.3665 4.827C88.214 4.827 89.1505 6.41922 89.1505 8.60167C89.1505 10.7841 88.1211 12.3718 86.3095 12.4053V12.4038Z" fill="#004599"/>
<path d="M21.0292 3.91041V3.93786C20.2261 3.1021 19.0603 2.58051 17.6863 2.58051C14.3165 2.58051 12.0869 5.21286 12.0869 9.00582C12.0869 12.7988 14.3165 15.4311 17.6863 15.4311C19.0603 15.4311 20.2276 14.9095 21.0322 14.0738V14.1012L21.0307 15.0117H23.8536V2.99839H21.0307V3.90888L21.0292 3.91041ZM17.9905 13.1755C16.134 13.1755 14.9083 11.507 14.9083 9.00582C14.9083 6.50463 16.1325 4.83615 17.9905 4.83615C19.8485 4.83615 20.9872 6.7029 20.9872 9.00582C20.9872 11.3087 19.8485 13.1755 17.9905 13.1755Z" fill="#004599"/>
<path d="M79.5246 19.5993H0.389648V21.2967H79.5246V19.5993Z" fill="#004599"/>
<path d="M6.7462 25.1507C6.38209 25.1507 6.08691 25.4511 6.08691 25.8217C6.08691 26.1923 6.38209 26.4928 6.7462 26.4928C7.1103 26.4928 7.40548 26.1923 7.40548 25.8217C7.40548 25.4511 7.1103 25.1507 6.7462 25.1507Z" fill="#004599"/>
<path d="M0.84375 31.8261H2.00948V29.0031H5.07965V28.0759H2.00948V26.3906H5.24746V25.4633H0.84375V31.8261Z" fill="#004599"/>
<path d="M7.3064 27.0357H6.18262V31.8261H7.3064V27.0357Z" fill="#004599"/>
<path d="M29.1554 25.1507C28.7913 25.1507 28.4961 25.4511 28.4961 25.8217C28.4961 26.1923 28.7913 26.4928 29.1554 26.4928C29.5195 26.4928 29.8147 26.1923 29.8147 25.8217C29.8147 25.4511 29.5195 25.1507 29.1554 25.1507Z" fill="#004599"/>
<path d="M29.7175 27.0357H28.5938V31.8261H29.7175V27.0357Z" fill="#004599"/>
<path d="M37.1775 25.4633H36.0537V31.8261H37.1775V25.4633Z" fill="#004599"/>
<path d="M60.3844 30.4139L59.4314 27.0357H58.1623L57.1089 30.4871L56.1635 27.0357H54.9902L56.4646 31.8261H57.6768L58.7511 28.3168L59.7206 31.8261H60.9028L62.4821 27.0357H61.3508L60.3844 30.4139Z" fill="#004599"/>
<path d="M75.3535 27.0357H74.0319L72.4421 28.6707V25.4633H71.3184V31.8261H72.4421V29.572L74.2102 31.8261H75.4898L73.3502 29.0657L75.3535 27.0357Z" fill="#004599"/>
<path d="M64.9816 26.8695C63.6196 26.8695 62.5752 27.8166 62.5752 29.4317C62.5752 31.0468 63.6196 31.9939 64.9816 31.9939C66.3436 31.9939 67.388 31.0468 67.388 29.4317C67.388 27.8166 66.3436 26.8695 64.9816 26.8695ZM64.9816 31.1353C64.3373 31.1353 63.7155 30.6259 63.7155 29.4317C63.7155 28.2375 64.3388 27.7281 64.9816 27.7281C65.6244 27.7281 66.2477 28.2375 66.2477 29.4317C66.2477 30.6259 65.6244 31.1353 64.9816 31.1353Z" fill="#004599"/>
<path d="M53.3709 27.9569V30.4855C53.3709 30.6899 53.4174 30.8363 53.5118 30.9263C53.6062 31.0148 53.7665 31.0605 53.9928 31.0605H54.5771V32.0015H53.798C53.299 32.0015 52.9154 31.8826 52.6502 31.6446C52.385 31.4067 52.2516 31.0209 52.2516 30.4871V27.9584H51.5234V27.0373H52.2516V25.6814H53.3709V27.0373H54.5771V27.9584H53.3709V27.9569Z" fill="#004599"/>
<path d="M70.7068 27.9432C70.1269 27.9264 69.5305 28.2269 69.2698 28.7759C69.111 29.1114 69.1335 29.4774 69.138 29.8389C69.141 30.1134 69.1365 31.8261 69.1365 31.8261H68.0127V27.0357H69.1365V27.6321C69.2698 27.4307 69.4691 27.2706 69.7343 27.1516C69.9905 27.0327 70.2588 26.9732 70.536 26.9732C70.5944 26.9732 70.6513 26.9763 70.7068 26.9824V27.9432Z" fill="#004599"/>
<path d="M21.1348 26.9198C20.486 26.9198 20.0754 27.1806 19.8267 27.4231V27.0357H18.7119V31.8261H19.8267V29.0885C19.8267 28.4129 20.1578 27.8151 20.8516 27.7861C21.5139 27.7586 21.7446 28.2818 21.7521 28.7744V31.8277H22.8669V28.628C22.8669 27.5192 22.0548 26.9214 21.1333 26.9214L21.1348 26.9198Z" fill="#004599"/>
<path d="M10.8154 26.9198C10.1666 26.9198 9.7561 27.1806 9.50737 27.4231V27.0357H8.39258V31.8261H9.50737V29.0885C9.50737 28.4129 9.83851 27.8151 10.5323 27.7861C11.1945 27.7586 11.4253 28.2818 11.4328 28.7744V31.8277H12.5476V28.628C12.5476 27.5192 11.7354 26.9214 10.8139 26.9214L10.8154 26.9198Z" fill="#004599"/>
<path d="M16.7507 27.0357V27.4094C16.43 27.0754 15.9655 26.868 15.4171 26.868C14.0731 26.868 13.1846 27.9173 13.1846 29.4302C13.1846 30.9431 14.0731 31.9924 15.4171 31.9924C15.9655 31.9924 16.43 31.785 16.7507 31.451V31.4616V31.8246H17.876V27.0342H16.7507V27.0357ZM15.5385 31.0926C14.7983 31.0926 14.3098 30.4276 14.3098 29.4302C14.3098 28.4328 14.7983 27.7678 15.5385 27.7678C16.2787 27.7678 16.7327 28.5121 16.7327 29.4302C16.7327 30.3483 16.2787 31.0926 15.5385 31.0926Z" fill="#004599"/>
<path d="M33.9304 27.0357V27.4094C33.6097 27.0754 33.1452 26.868 32.5968 26.868C31.2528 26.868 30.3643 27.9173 30.3643 29.4302C30.3643 30.9431 31.2528 31.9924 32.5968 31.9924C33.1452 31.9924 33.6097 31.785 33.9304 31.451V31.4616V31.8246H35.0557V27.0342H33.9304V27.0357ZM32.7182 31.0926C31.978 31.0926 31.4895 30.4276 31.4895 29.4302C31.4895 28.4328 31.978 27.7678 32.7182 27.7678C33.4584 27.7678 33.9124 28.5121 33.9124 29.4302C33.9124 30.3483 33.4584 31.0926 32.7182 31.0926Z" fill="#004599"/>
<path d="M77.9409 29.0062C77.0329 28.7744 76.6913 28.6081 76.6913 28.2833C76.6913 27.9173 77.0988 27.7114 77.5199 27.7373C78.0233 27.7678 78.2975 28.0255 78.365 28.387H79.4258C79.3479 27.5299 78.6122 26.871 77.4644 26.871C76.4036 26.871 75.5061 27.4445 75.5225 28.3504C75.5345 28.9864 75.9676 29.3844 76.6044 29.6269C77.2996 29.8923 78.2361 29.9899 78.3185 30.4429C78.4009 30.8958 77.9379 31.1475 77.415 31.0895C76.9625 31.0392 76.7048 30.8135 76.5849 30.4276H75.3877C75.587 31.4372 76.3781 31.9924 77.5034 31.9924C78.6886 31.9924 79.5292 31.3061 79.5082 30.4154C79.4857 29.4317 78.4234 29.1282 77.9439 29.0062H77.9409Z" fill="#004599"/>
<path d="M44.5438 25.4633V30.1668L42.1224 25.4633H40.5566V31.8261H41.7224V26.8848L44.2561 31.8261H45.7095V25.4633H44.5438Z" fill="#004599"/>
<path d="M25.8076 31.0956C25.054 31.0956 24.591 30.42 24.591 29.4317C24.591 28.4434 25.054 27.7678 25.8076 27.7678C26.3336 27.7678 26.6887 28.1445 26.8265 28.6707H27.9428C27.748 27.5772 26.8565 26.8695 25.7597 26.8695C24.3917 26.8695 23.4717 27.8944 23.4717 29.4317C23.4717 30.969 24.3932 31.9939 25.7597 31.9939C26.8565 31.9939 27.748 31.2862 27.9428 30.1927H26.8265C26.6887 30.7189 26.3336 31.0956 25.8076 31.0956Z" fill="#004599"/>
<path d="M51.2339 29.6986C51.2399 29.6117 51.2444 29.5232 51.2444 29.4317C51.2444 27.8181 50.2 26.8695 48.838 26.8695C47.476 26.8695 46.4316 27.8166 46.4316 29.4317C46.4316 31.0468 47.476 31.9939 48.838 31.9939C49.9378 31.9939 50.8309 31.3747 51.1335 30.2873H49.9663C49.7475 30.8729 49.2995 31.1353 48.838 31.1353C48.2447 31.1353 47.6708 30.7006 47.5839 29.6986H51.2339ZM48.8395 27.7281C49.3699 27.7281 49.8869 28.0759 50.0517 28.8674H47.6288C47.7937 28.0759 48.3091 27.7281 48.841 27.7281H48.8395Z" fill="#004599"/>
</g>
<defs>
<clipPath id="clip0_337_2080">
<rect width="92" height="32" fill="white"/>
</clipPath>
</defs>
</svg>
