<svg width="120" height="61" viewBox="0 0 120 61" fill="none" xmlns="http://www.w3.org/2000/svg">
<g clip-path="url(#clip0_569_1926)">
<path d="M9.8584 9.92007C9.26606 11.2008 8.29079 12.5472 7.0722 13.764C5.81771 15.0447 4.28401 16.1617 2.71639 17.0494L0 14.0592C1.95054 13.008 3.79737 11.5618 5.19146 9.72261C6.58556 7.91537 7.45513 5.81288 7.45513 3.44899V0.690174H11.9844V3.38317C11.9844 5.71509 12.8899 7.68594 14.2481 9.29572C15.6063 10.9713 17.4531 12.22 19.2641 13.0418L16.8249 16.1617C13.4803 14.4542 11.2844 12.4175 9.8564 9.92007H9.8584ZM7.45513 18.5275H25.7459V31.1086H7.45513V18.5275ZM11.7411 21.9765V27.6916H21.426V21.9765H11.7411ZM25.7459 17.3446H21.426V0H25.7459V6.89798H30.7978V10.347H25.7459V17.3446Z" fill="#003BDB"/>
<path d="M43.0441 13.732C41.8255 12.6488 40.8841 11.4979 40.3277 10.4466C39.8051 11.6295 38.8638 12.9102 37.6452 14.1251C36.3907 15.3399 34.8929 16.5886 33.2216 17.5421L30.5391 14.4861C32.6651 13.1716 34.5798 11.6615 35.8701 9.92007C37.1585 8.21251 37.9603 6.24165 37.9603 4.00752V0.690174H42.5594V3.9417C42.5594 6.40527 43.3951 8.3103 44.7533 9.85425C46.0417 11.4321 47.8885 12.6131 49.7353 13.5007L47.2961 16.6883C45.7624 15.9003 44.2646 14.8811 43.046 13.732H43.0441ZM54.6795 30.0611C53.1458 31.276 51.0217 32 48.5127 32C46.0038 32 43.9136 31.2779 42.4158 30.0611C40.8821 28.7804 40.0125 27.0052 40.0125 24.8049C40.0125 22.6046 40.8841 20.929 42.4158 19.6483C43.9136 18.3677 46.0038 17.6117 48.5127 17.6117C51.0217 17.6117 53.1458 18.3677 54.6795 19.6483C56.1773 20.929 57.0827 22.7043 57.0827 24.8049C57.0827 26.9055 56.1773 28.7804 54.6795 30.0611ZM51.6141 22.1119C50.8123 21.4556 49.7672 21.0606 48.5127 21.0606C46.0038 21.0606 44.2626 22.5726 44.2626 24.8068C44.2626 27.0409 46.0038 28.5849 48.5127 28.5849C51.0217 28.5849 52.8326 27.0729 52.8326 24.8068C52.8326 23.7217 52.344 22.7701 51.6141 22.1138V22.1119ZM53.2874 9.06629H47.1904V5.45181H53.2874V0H57.6073V17.5082H53.2874V9.06629Z" fill="#003BDB"/>
<path d="M69.4805 19.9398V17.7715C66.1718 17.0813 64.3589 14.8811 64.3589 12.252C64.3589 10.8058 65.1247 9.39351 66.3792 8.37612H62.163V5.12459H80.9066V8.37612H76.83C78.0845 9.42736 78.8164 10.8397 78.8164 12.3178C78.8164 14.913 77.1451 17.0475 73.8344 17.7377V19.7424C76.7961 19.5787 79.7578 19.3813 82.6836 19.086V0H86.9696V10.3808H91.8479V13.8298H86.9696V27.5618H82.6836V22.3714C75.8906 23.0936 68.9221 23.5863 61.7801 23.7837L61.3633 20.1053C64.0797 20.1053 66.7622 20.0395 69.4805 19.9417V19.9398ZM67.2508 0.131641H75.7869V3.54866H67.2508V0.131641ZM68.4694 12.2539C68.4694 13.6662 69.6541 14.7833 71.5707 14.7833C73.4873 14.7833 74.672 13.6662 74.672 12.2539C74.672 10.8416 73.5232 9.69064 71.5707 9.69064C69.6182 9.69064 68.4694 10.8397 68.4694 12.2539Z" fill="#003BDB"/>
<path d="M104.148 12.7466C105.227 14.6855 106.797 16.0978 108.711 17.3126L106.133 20.4344C104.914 19.6465 103.624 18.4955 102.615 17.3126C101.536 16.1298 100.698 14.8811 100.385 13.8637C99.4095 16.7541 97.3194 19.0879 94.6708 21.0588L91.9883 18.0686C94.0784 16.3611 95.646 14.8491 96.6572 12.8782C97.6325 10.9394 98.1211 8.57546 98.1211 5.19041H93.0353V1.77339H107.423V5.19041H102.441C102.441 8.37612 103.033 10.8077 104.148 12.7466ZM115.786 12.0564H113.137V26.4128H108.957V0.394922H113.137V8.60743H115.786V0H120.002V27.528H115.786V12.0564Z" fill="#003BDB"/>
</g>
<path d="M38.7244 49.296V50.8H36.5164V58.496H34.8204V43.728H36.5164V49.296H38.7244ZM24.6924 54.272C27.2524 52.608 28.5324 50.128 28.5324 46.848V44.672H30.2124V46.848C30.2124 50.096 31.4284 52.352 34.1004 54.016L33.1084 55.152C31.4764 54.144 29.9084 52.32 29.3964 50.752C28.9164 52.288 27.4444 54.256 25.7164 55.376L24.6924 54.272ZM43.9146 44.72C46.2826 44.72 47.8346 46.784 47.8346 49.968C47.8346 53.088 46.2826 55.2 43.9146 55.2C41.4826 55.2 39.9626 53.088 39.9626 49.968C39.9626 46.784 41.4826 44.72 43.9146 44.72ZM43.9146 46.224C42.6186 46.224 41.6906 47.52 41.6906 49.968C41.6906 52.368 42.6186 53.696 43.9146 53.696C45.1786 53.696 46.1226 52.368 46.1226 49.968C46.1226 47.52 45.1786 46.224 43.9146 46.224ZM49.8986 43.728H51.6106V58.496H49.8986V43.728ZM54.6089 44.864H56.3049V48.336H59.8889V44.768H61.5369V49.088H64.4169V43.728H66.1129V58.496H64.4169V50.608H61.5369V54.912H54.6089V44.864ZM56.3049 49.824V53.408H59.8889V49.824H56.3049ZM69.8951 44.656H71.5911V47.152H78.1671V44.608H79.8631V52.416H75.7351V54.976H81.7191V56.448H68.0871V54.976H74.0231V52.416H69.8951V44.656ZM71.5911 48.624V50.944H78.1671V48.624H71.5911ZM93.2294 49.872H91.0374V48.368H93.2294V43.728H94.9414V52.896H93.2294V49.872ZM85.3574 53.536H94.9414V58.448H85.3574V53.536ZM87.0534 54.944V57.04H93.2454V54.944H87.0534ZM85.1014 43.776H89.2934V45.104H85.1014V43.776ZM82.9094 45.904H91.4214V47.232H82.9094V45.904ZM87.1494 47.744C89.2614 47.744 90.5734 48.752 90.5734 50.272C90.5734 51.76 89.2614 52.784 87.1494 52.784C84.9734 52.784 83.6614 51.76 83.6614 50.272C83.6614 48.752 84.9734 47.744 87.1494 47.744ZM87.1494 49.04C85.8854 49.04 85.1654 49.552 85.1654 50.272C85.1654 50.992 85.8854 51.472 87.1494 51.472C88.3654 51.472 89.0694 50.992 89.0694 50.272C89.0694 49.552 88.3654 49.04 87.1494 49.04Z" fill="#0068FF"/>
<defs>
<clipPath id="clip0_569_1926">
<rect width="120" height="32" fill="white"/>
</clipPath>
</defs>
</svg>
