<svg width="302" height="128" viewBox="0 0 302 128" fill="none" xmlns="http://www.w3.org/2000/svg">
<path d="M7.184 6.488C9.952 6.488 11.632 7.144 11.632 8.584C11.632 9.88 10.288 10.536 8.016 10.648V11.4H14V12.744H0.384V11.4H6.352V10.648C4.048 10.536 2.72 9.88 2.72 8.584C2.72 7.144 4.384 6.488 7.184 6.488ZM2.256 13.592H12.08V17.528H2.256V13.592ZM1.648 4.712H12.704V6.008H1.648V4.712ZM3.872 14.888V16.232H10.48V14.888H3.872ZM7.184 7.752C5.04 7.752 4.32 8.072 4.32 8.584C4.32 9.048 5.04 9.432 7.184 9.432C9.312 9.432 10.032 9.048 10.032 8.584C10.032 8.072 9.312 7.752 7.184 7.752ZM4.512 2.744H9.84V4.056H4.512V2.744ZM22.1823 13.72C20.3263 14.008 17.2543 14.184 15.1423 14.184L14.8703 12.68H16.4062L16.0063 6.248L17.6863 6.088L17.8623 12.648L19.0623 12.6L19.3343 6.04L20.9503 6.248L20.5343 12.536C21.0623 12.504 21.5903 12.456 22.0863 12.392L22.1823 13.72ZM21.3503 8.136H22.9663V2.952H24.5503V17.16H22.9663V9.64H21.3503V8.136ZM25.8783 2.728H27.5103V17.56H25.8783V2.728ZM15.0783 4.024H21.7183V5.48H15.0783V4.024ZM33.8365 3.72C36.2045 3.72 37.7565 5.784 37.7565 8.968C37.7565 12.088 36.2045 14.2 33.8365 14.2C31.4045 14.2 29.8845 12.088 29.8845 8.968C29.8845 5.784 31.4045 3.72 33.8365 3.72ZM33.8365 5.224C32.5405 5.224 31.6125 6.52 31.6125 8.968C31.6125 11.368 32.5405 12.696 33.8365 12.696C35.1005 12.696 36.0445 11.368 36.0445 8.968C36.0445 6.52 35.1005 5.224 33.8365 5.224ZM39.8205 2.728H41.5325V17.496H39.8205V2.728ZM54.2268 2.728H55.9388V17.496H54.2268V2.728ZM43.7467 13.384C46.0028 12.024 47.6668 9.592 47.6668 6.168V5.496H44.5468V4.008H52.4828V5.496H49.3468V6.168C49.3468 9.448 50.6588 11.576 53.2508 13.16L52.2908 14.312C50.7708 13.464 48.9468 11.48 48.5148 9.96C48.0668 11.464 46.3868 13.576 44.7868 14.504L43.7467 13.384ZM66.0373 8.28C67.8613 8.28 69.1573 9.544 69.1573 11.336C69.1573 13.144 67.8613 14.392 66.0373 14.392C64.1973 14.392 62.8853 13.144 62.8853 11.336C62.8853 9.544 64.1973 8.28 66.0373 8.28ZM66.0213 9.656C65.1093 9.656 64.4213 10.28 64.4213 11.336C64.4213 12.408 65.1093 13.016 66.0213 13.016C66.9013 13.016 67.5893 12.408 67.5893 11.336C67.5893 10.28 66.9013 9.656 66.0213 9.656ZM63.9893 3.512H67.9573V4.968H63.9893V3.512ZM62.3733 6.024H69.3333V7.48H62.3733V6.024ZM73.2853 9.816H71.7173V17.16H70.1013V2.952H71.7173V8.312H73.2853V2.728H74.9173V17.56H73.2853V9.816ZM84.0435 11.656C87.0835 11.656 88.9395 12.744 88.9395 14.616C88.9395 16.552 87.0835 17.592 84.0435 17.592C81.0355 17.592 79.1635 16.552 79.1635 14.616C79.1635 12.744 81.0355 11.656 84.0435 11.656ZM77.2115 10.744C79.0835 10.232 80.6835 9.112 81.7235 7.768L77.6115 8.152L77.2275 6.664L82.5395 6.408C82.7475 5.928 82.8915 5.416 82.9395 4.92H77.9635V3.432H84.8915C84.6835 7.896 81.7875 10.728 78.1715 12.184L77.2115 10.744ZM84.0435 13.08C81.9795 13.08 80.8755 13.656 80.8755 14.616C80.8755 15.576 81.9795 16.184 84.0435 16.184C86.0915 16.184 87.2275 15.576 87.2275 14.616C87.2275 13.656 86.0915 13.08 84.0435 13.08ZM87.1155 2.728H88.8275V11.656H87.1155V2.728ZM94.1778 11.128H92.3378V9.224H94.1778V11.128ZM97.2983 3.96H103.09C103.09 8.536 101.202 12.04 97.7143 14.616L96.5623 13.416C99.2663 11.608 101.218 8.488 101.394 5.432H97.2983V3.96ZM107.41 9.848H105.762V17.16H104.162V2.952H105.762V8.328H107.41V2.728H109.042V17.56H107.41V9.848ZM115.321 3.448C117.641 3.448 119.337 5.112 119.337 7.32C119.337 9.512 117.641 11.176 115.321 11.176C113.033 11.176 111.337 9.512 111.337 7.32C111.337 5.096 113.033 3.448 115.321 3.448ZM115.337 4.936C114.041 4.936 113.033 5.944 113.033 7.32C113.033 8.696 114.041 9.688 115.337 9.688C116.601 9.688 117.641 8.696 117.641 7.32C117.641 5.928 116.601 4.936 115.337 4.936ZM121.257 2.728H122.969V13.624H121.257V2.728ZM113.385 12.36H115.097V15.784H123.337V17.256H113.385V12.36ZM132.703 11.64C135.823 11.64 137.615 12.76 137.615 14.616C137.615 16.52 135.823 17.608 132.703 17.592C129.599 17.576 127.807 16.52 127.807 14.616C127.807 12.76 129.647 11.64 132.703 11.64ZM133.439 10.92C131.775 10.328 130.351 9.176 129.791 7.928C129.231 9.176 127.887 10.472 126.271 11.224L125.311 10.024C127.327 9.16 128.943 7.624 128.943 5.304V4.904H125.903V3.448H133.679V4.904H130.639V5.304C130.639 7.576 132.143 8.968 134.271 9.72L133.439 10.92ZM135.839 7.608H132.895V6.136H135.839V2.728H137.551V11.544H135.839V7.608ZM132.703 13.064C130.607 13.064 129.535 13.704 129.535 14.616C129.535 15.56 130.607 16.184 132.703 16.184C134.815 16.184 135.919 15.56 135.919 14.616C135.919 13.704 134.799 13.064 132.703 13.064ZM141.317 3.656H143.013V6.152H149.589V3.608H151.285V11.416H147.157V13.976H153.141V15.448H139.509V13.976H145.445V11.416H141.317V3.656ZM143.013 7.624V9.944H149.589V7.624H143.013ZM168.392 17.496H166.696V12.344H163.064V17.496H161.368V12.344H158.072V10.856H171.704V12.344H168.392V17.496ZM164.888 3.16C168.44 3.16 170.072 4.68 170.072 6.456C170.072 8.232 168.44 9.736 164.888 9.736C161.32 9.736 159.704 8.232 159.704 6.456C159.704 4.68 161.32 3.16 164.888 3.16ZM164.888 4.584C162.312 4.584 161.336 5.496 161.336 6.456C161.336 7.432 162.312 8.312 164.888 8.312C167.416 8.312 168.44 7.432 168.44 6.456C168.44 5.464 167.416 4.584 164.888 4.584ZM174.222 13.976H182.638V13.08H174.222V11.784H178.446V10.792H172.478V9.448H186.094V10.792H180.11V11.784H184.27V15.224H175.854V16.216H184.542V17.48H174.222V13.976ZM184.446 8.904C182.302 8.648 180.302 8.104 179.262 6.92C178.222 8.12 176.27 8.632 174.126 8.904L173.55 7.704C175.934 7.448 177.614 7 178.19 5.992H174.126V4.68H184.382V5.992H180.318C180.91 7.016 182.638 7.432 185.006 7.704L184.446 8.904ZM176.83 2.6H181.678V3.992H176.83V2.6Z" fill="#222222"/>
<path d="M10.514 42.358H12.488V43.422H10.514V50.184H9.296V37.262H10.514V42.358ZM1.022 47.356L0.154 46.572C2.366 45.144 3.71 42.918 3.71 40.104V38.13H4.956V40.104C4.956 42.708 6.076 44.92 8.456 46.404L7.616 47.202C6.104 46.166 4.83 44.682 4.34 43.142C3.85 44.696 2.604 46.222 1.022 47.356ZM14.4955 39.544V38.48H23.2035C23.1755 40.538 22.9235 43.702 22.5455 45.564L21.3975 45.354C21.6915 43.842 21.9575 41.336 21.9855 39.544H14.4955ZM12.8995 48.294V47.23H17.4215V42.862H18.6535V47.23H24.9115V48.294H12.8995ZM35.7249 41.21V44.038H34.5209V37.262H35.7249V40.132H37.6709V41.21H35.7249ZM27.6609 50.1V46.838H34.5209V45.634H27.6609V44.64H35.7249V47.804H28.8789V49.12H35.9629V50.1H27.6609ZM26.2889 43.45V37.71H27.5069V39.614H31.0209V37.654H32.2389V43.45H26.2889ZM31.0209 40.636H27.5069V42.428H31.0209V40.636ZM48.1344 45.088V41.616H46.5804V44.64H45.4464V37.402H46.5804V40.552H48.1344V37.262H49.2824V45.088H48.1344ZM44.9144 43.464C44.6484 43.744 44.3544 43.968 44.0744 44.234C43.0384 43.618 41.9604 42.47 41.5964 41.49C41.2044 42.554 40.0704 43.926 39.0064 44.556L38.1244 43.786C39.8184 42.778 40.9804 41.084 40.9804 39.082V37.794H42.1984V39.054C42.1984 41.098 43.2344 42.526 44.9144 43.464ZM44.9424 45.284C47.9104 45.284 49.3804 46.25 49.3804 47.79C49.3804 49.33 47.9104 50.296 44.9424 50.296C41.9884 50.296 40.5604 49.33 40.5604 47.79C40.5604 46.25 41.9884 45.284 44.9424 45.284ZM44.9424 46.292C42.8144 46.292 41.7504 46.95 41.7504 47.79C41.7504 48.63 42.8004 49.288 44.9424 49.288C47.1124 49.288 48.1624 48.63 48.1624 47.79C48.1624 46.95 47.1124 46.292 44.9424 46.292ZM60.2639 43.926V37.262H61.4679V43.926H60.2639ZM53.2779 50.086V46.796H60.2639V45.564H53.2779V44.556H61.4679V47.762H54.4539V49.078H61.7899V50.086H53.2779ZM54.7199 37.584C56.5819 37.584 57.8979 38.816 57.8979 40.552C57.8979 42.288 56.5819 43.534 54.7199 43.534C52.8299 43.534 51.5419 42.274 51.5419 40.552C51.5419 38.816 52.8439 37.584 54.7199 37.584ZM54.7199 38.592C53.5019 38.592 52.7179 39.488 52.7179 40.552C52.7179 41.63 53.5019 42.526 54.7199 42.526C55.9379 42.526 56.7219 41.63 56.7219 40.552C56.7219 39.474 55.9379 38.592 54.7199 38.592Z" fill="#666666"/>
<path d="M245.566 48.658H239.308V47.608L242.514 43.996C243.802 42.554 244.152 41.966 244.152 40.86C244.152 39.866 243.2 39.11 242.22 39.11C241.492 39.11 240.75 39.432 239.854 39.95L239.518 38.9C240.428 38.382 241.338 38.074 242.15 38.074C243.956 38.074 245.328 39.026 245.328 40.86C245.328 42.036 244.922 42.946 243.452 44.57L240.694 47.636H245.566V48.658ZM250.113 38.074C252.325 38.074 253.543 39.852 253.543 43.436C253.543 47.02 252.325 48.798 250.113 48.798C247.915 48.798 246.683 47.02 246.683 43.436C246.683 39.852 247.901 38.074 250.113 38.074ZM250.113 39.208C248.181 39.208 247.901 41.63 247.901 43.436C247.901 45.256 248.181 47.678 250.113 47.678C252.059 47.678 252.339 45.228 252.339 43.436C252.339 41.644 252.059 39.208 250.113 39.208ZM260.673 48.658H254.415V47.608L257.621 43.996C258.909 42.554 259.259 41.966 259.259 40.86C259.259 39.866 258.307 39.11 257.327 39.11C256.599 39.11 255.857 39.432 254.961 39.95L254.625 38.9C255.535 38.382 256.445 38.074 257.257 38.074C259.063 38.074 260.435 39.026 260.435 40.86C260.435 42.036 260.029 42.946 258.559 44.57L255.801 47.636H260.673V48.658ZM263.498 39.278L263.344 42.568C263.876 42.358 264.38 42.274 264.828 42.274C266.788 42.274 268.104 43.506 268.104 45.466C268.104 47.608 266.536 48.798 264.282 48.798C263.386 48.798 262.462 48.546 261.846 48.238V47.09C262.546 47.482 263.428 47.748 264.282 47.748C265.682 47.748 266.942 47.006 266.942 45.466C266.942 44.15 266.088 43.254 264.394 43.254C263.652 43.254 262.868 43.492 262.112 43.716L262.364 38.214H267.572V39.278H263.498ZM271.384 49.414H269.914V47.874H271.384V49.414ZM276.707 48.658H275.503V39.684L273.837 41.14L273.151 40.398L275.671 38.214H276.707V48.658ZM281.314 48.658H280.11V39.684L278.444 41.14L277.758 40.398L280.278 38.214H281.314V48.658ZM285.466 49.414H283.996V47.874H285.466V49.414ZM293.281 48.658H287.023V47.608L290.229 43.996C291.517 42.554 291.867 41.966 291.867 40.86C291.867 39.866 290.915 39.11 289.935 39.11C289.207 39.11 288.465 39.432 287.569 39.95L287.233 38.9C288.143 38.382 289.053 38.074 289.865 38.074C291.671 38.074 293.043 39.026 293.043 40.86C293.043 42.036 292.637 42.946 291.167 44.57L288.409 47.636H293.281V48.658ZM301.678 46.236H300.152V48.686H298.976V46.236H294.104V45.116L298.71 38.186H300.152V45.172H301.678V46.236ZM298.99 45.2V39.488L295.308 45.2H298.99Z" fill="#222222"/>
<path d="M10.514 70.358H12.488V71.422H10.514V78.184H9.296V65.262H10.514V70.358ZM1.022 75.356L0.154 74.572C2.366 73.144 3.71 70.918 3.71 68.104V66.13H4.956V68.104C4.956 70.708 6.076 72.92 8.456 74.404L7.616 75.202C6.104 74.166 4.83 72.682 4.34 71.142C3.85 72.696 2.604 74.222 1.022 75.356ZM14.4955 67.544V66.48H23.2035C23.1755 68.538 22.9235 71.702 22.5455 73.564L21.3975 73.354C21.6915 71.842 21.9575 69.336 21.9855 67.544H14.4955ZM12.8995 76.294V75.23H17.4215V70.862H18.6535V75.23H24.9115V76.294H12.8995ZM35.0529 78.17V65.262H36.2569V78.17H35.0529ZM26.5969 75.314H26.5689L25.7009 74.544C27.9409 73.116 29.2709 70.89 29.2709 68.09V66.13H30.4889V68.09C30.4889 70.694 31.6369 72.892 34.0309 74.376L33.1629 75.174C31.6649 74.166 30.3769 72.654 29.8869 71.114C29.4109 72.668 28.1509 74.194 26.5969 75.314ZM38.1104 76.182V75.118H50.1224V76.182H38.1104ZM49.6744 71.422L49.0584 72.402C47.0844 71.884 45.0124 70.554 44.1164 68.986C43.2064 70.596 41.2044 71.842 39.1884 72.402C39.0764 72.234 38.9784 72.094 38.5444 71.422C41.2884 70.778 43.4864 68.972 43.4864 66.928V66.074H44.7464V66.928C44.7464 68.986 46.9864 70.82 49.6744 71.422ZM60.7399 73.018V65.262H61.8879V73.018H60.7399ZM58.2899 72.906V69.504H56.4559V68.468H58.2899V65.43H59.4239V72.906H58.2899ZM53.2779 78.1V73.564H61.8879V78.1H53.2779ZM60.7119 74.586H54.4679V77.092H60.7119V74.586ZM51.5699 65.962H56.4559V66.998H52.7599V68.594H55.6579V69.602H52.7599V71.282C54.2019 71.282 55.9099 71.212 57.0299 71.002L57.1559 72.024C55.7699 72.262 53.7399 72.346 51.5699 72.346V65.962Z" fill="#666666"/>
<path d="M151.3 68.328C153.904 68.328 155.276 68.93 155.276 70.12C155.276 71.212 154.114 71.786 151.888 71.87V72.85H157.306V73.844H145.294V72.85H150.698V71.87C148.458 71.786 147.31 71.226 147.31 70.12C147.31 68.93 148.668 68.328 151.3 68.328ZM147.016 78.1V74.684H155.556V78.1H147.016ZM154.394 75.622H148.192V77.162H154.394V75.622ZM146.526 67.866V66.914H156.06V67.866H146.526ZM151.3 69.28C149.48 69.28 148.472 69.504 148.472 70.12C148.472 70.75 149.48 70.96 151.3 70.96C153.092 70.96 154.114 70.75 154.114 70.12C154.114 69.504 153.078 69.28 151.3 69.28ZM148.892 66.284V65.318H153.694V66.284H148.892ZM158.305 75.118L158.081 74.012C158.571 74.012 159.075 74.026 159.579 74.012L159.173 68.3L160.377 68.174L160.629 73.998C161.063 73.984 161.497 73.97 161.917 73.942L162.267 68.146L163.443 68.3L162.967 73.886C163.499 73.858 164.031 73.802 164.563 73.746L164.633 74.712C162.981 74.95 160.041 75.104 158.305 75.118ZM165.557 77.89V71.128H163.821V70.05H165.557V65.458H166.705V77.89H165.557ZM167.923 78.24V65.262H169.071V78.24H167.923ZM158.403 67.544V66.48H164.311V67.544H158.403ZM180.039 78.184V65.262H181.257V78.184H180.039ZM174.621 66.172C176.833 66.172 177.897 68.118 177.897 70.666C177.897 73.2 176.833 75.132 174.621 75.132C172.437 75.132 171.331 73.2 171.331 70.666C171.331 68.118 172.423 66.172 174.621 66.172ZM174.621 67.222C173.319 67.222 172.535 68.496 172.535 70.666C172.535 72.808 173.319 74.082 174.621 74.082C175.937 74.082 176.721 72.808 176.721 70.666C176.721 68.496 175.937 67.222 174.621 67.222ZM192.658 78.184V65.262H193.862V78.184H192.658ZM184.104 75.384L183.278 74.502C184.818 73.592 186.834 71.646 186.834 68.496V67.474H183.936V66.41H190.95V67.474H188.066V68.496C188.066 71.324 189.452 73.032 191.594 74.39L190.768 75.244C189.466 74.376 187.954 72.78 187.436 71.338C186.918 72.864 185.336 74.572 184.104 75.384ZM198.264 75.748L197.13 78.464H196.192L196.892 75.748H198.264ZM210.354 77.904V71.072H207.386V70.008H210.354V65.458H211.502V77.904H210.354ZM203.942 74.978V66.41H208.73V67.488H205.146V73.872C206.308 73.858 208.338 73.76 209.304 73.662L209.43 74.712C208.254 74.852 205.524 74.978 203.942 74.978ZM213 78.254V65.262H214.148V78.254H213ZM225.115 78.184V65.262H226.333V78.184H225.115ZM219.697 66.172C221.909 66.172 222.973 68.118 222.973 70.666C222.973 73.2 221.909 75.132 219.697 75.132C217.513 75.132 216.407 73.2 216.407 70.666C216.407 68.118 217.499 66.172 219.697 66.172ZM219.697 67.222C218.395 67.222 217.611 68.496 217.611 70.666C217.611 72.808 218.395 74.082 219.697 74.082C221.013 74.082 221.797 72.808 221.797 70.666C221.797 68.496 221.013 67.222 219.697 67.222ZM237.721 78.184V70.862H235.397V69.784H237.721V65.262H238.939V78.184H237.721ZM229.251 75.132V66.368H235.145V67.432H230.441V70.036H234.431V71.086H230.441V74.012C231.981 74.026 234.277 73.942 235.915 73.634L236.041 74.67C234.305 75.02 231.729 75.132 229.251 75.132ZM248.324 77.974V71.114H246.784V74.88H241.632V66.312H242.822V69.476H245.622V66.228H246.784V70.036H248.324V65.458H249.472V77.974H248.324ZM245.622 70.512H242.822V73.816H245.622V70.512ZM250.816 78.324V65.262H251.964V78.324H250.816ZM262.932 78.184V65.262H264.15V78.184H262.932ZM257.514 66.172C259.726 66.172 260.79 68.118 260.79 70.666C260.79 73.2 259.726 75.132 257.514 75.132C255.33 75.132 254.224 73.2 254.224 70.666C254.224 68.118 255.316 66.172 257.514 66.172ZM257.514 67.222C256.212 67.222 255.428 68.496 255.428 70.666C255.428 72.808 256.212 74.082 257.514 74.082C258.83 74.082 259.614 72.808 259.614 70.666C259.614 68.496 258.83 67.222 257.514 67.222ZM266.003 76.182V75.118H278.015V76.182H266.003ZM277.567 71.422L276.951 72.402C274.977 71.884 272.905 70.554 272.009 68.986C271.099 70.596 269.097 71.842 267.081 72.402C266.969 72.234 266.871 72.094 266.437 71.422C269.181 70.778 271.379 68.972 271.379 66.928V66.074H272.639V66.928C272.639 68.986 274.879 70.82 277.567 71.422ZM281.156 75.748L280.022 78.464H279.084L279.784 75.748H281.156ZM286.694 66.214H289.382C291.174 66.214 292.686 67.376 292.686 69.266C292.686 71.184 291.174 72.332 289.382 72.332H287.926V76.658H286.694V66.214ZM287.912 71.226H288.948C290.502 71.226 291.468 70.554 291.468 69.266C291.468 67.992 290.502 67.32 288.948 67.32H287.912V71.226ZM300.937 76.224C300.405 76.504 299.621 76.798 298.319 76.798C295.085 76.798 293.391 74.362 293.391 71.436C293.391 68.286 295.309 66.074 298.319 66.074C299.565 66.074 300.223 66.34 300.853 66.634L300.545 67.712C299.887 67.362 299.215 67.152 298.319 67.152C295.953 67.152 294.609 69.154 294.609 71.436C294.609 73.802 295.813 75.692 298.319 75.692C299.257 75.692 300.041 75.44 300.643 75.062L300.937 76.224Z" fill="#222222"/>
<path d="M3.324 100.756C4.704 100.756 5.652 101.836 5.652 103.18C5.652 104.548 4.704 105.616 3.324 105.616C1.944 105.616 0.984 104.548 0.984 103.18C0.984 101.836 1.944 100.756 3.324 100.756ZM3.324 101.62C2.532 101.62 1.956 102.268 1.956 103.18C1.956 104.116 2.532 104.752 3.324 104.752C4.092 104.752 4.68 104.116 4.68 103.18C4.68 102.268 4.092 101.62 3.324 101.62ZM8.844 107.92V102.028H7.584V107.62H6.6V96.964H7.584V101.104H8.844V96.796H9.828V107.92H8.844ZM1.716 98.26V97.36H4.932V98.26H1.716ZM0.564 100.024V99.148H6.06V100.024H0.564ZM16.7207 103.576C18.9047 103.576 20.3687 104.32 20.3687 105.772C20.3687 107.236 18.9047 107.98 16.7207 107.98C14.5607 107.98 13.0847 107.236 13.0847 105.772C13.0847 104.32 14.5367 103.576 16.7207 103.576ZM11.4767 102.976C13.0487 102.52 14.3927 101.644 15.2207 100.48L11.8727 100.744L11.6447 99.832L15.6887 99.676C15.8927 99.244 16.0367 98.788 16.0967 98.296H11.9447V97.456H17.1767C17.0087 100.78 14.8607 102.76 12.0407 103.768L11.4767 102.976ZM16.7207 104.44C15.0527 104.44 14.1287 104.944 14.1287 105.772C14.1287 106.576 15.0527 107.116 16.7207 107.116C18.3887 107.116 19.3247 106.612 19.3247 105.772C19.3247 104.944 18.3887 104.44 16.7207 104.44ZM19.2407 103.468V96.796H20.2727V103.468H19.2407ZM21.8614 106.156V105.256H32.1574V106.156H21.8614ZM27.0094 97.66C29.5054 97.66 30.8734 98.896 30.8734 100.372C30.8734 101.86 29.5054 103.072 27.0094 103.072C24.4894 103.072 23.1454 101.86 23.1454 100.372C23.1454 98.896 24.4894 97.66 27.0094 97.66ZM27.0094 98.56C25.1254 98.56 24.1774 99.388 24.1774 100.372C24.1774 101.32 25.1254 102.172 27.0094 102.172C28.8814 102.172 29.8414 101.344 29.8414 100.372C29.8414 99.4 28.8814 98.56 27.0094 98.56ZM34.1301 103.396V99.964H40.4661V98.428H34.1301V97.528H41.4981V100.84H35.1621V102.508H41.6661V103.396H38.3181V105.352H42.9621V106.264H32.6661V105.352H37.2861V103.396H34.1301ZM54.7599 105.052V96.796H55.8039V105.052H54.7599ZM48.8199 107.668V104.152H49.8279V106.756H56.0919V107.668H48.8199ZM50.0199 97.384C51.6639 97.384 52.8039 98.56 52.8039 100.216C52.8039 101.86 51.6639 103.024 50.0199 103.024C48.3879 103.024 47.2599 101.848 47.2599 100.216C47.2599 98.548 48.3879 97.384 50.0199 97.384ZM50.0199 98.272C48.9519 98.272 48.2679 99.136 48.2679 100.216C48.2679 101.296 48.9519 102.136 50.0199 102.136C51.0759 102.136 51.7959 101.284 51.7959 100.216C51.7959 99.124 51.0759 98.272 50.0199 98.272ZM60.4646 100.756C61.8446 100.756 62.7926 101.836 62.7926 103.18C62.7926 104.548 61.8446 105.616 60.4646 105.616C59.0846 105.616 58.1246 104.548 58.1246 103.18C58.1246 101.836 59.0846 100.756 60.4646 100.756ZM60.4646 101.62C59.6726 101.62 59.0966 102.268 59.0966 103.18C59.0966 104.116 59.6726 104.752 60.4646 104.752C61.2326 104.752 61.8206 104.116 61.8206 103.18C61.8206 102.268 61.2326 101.62 60.4646 101.62ZM65.9846 107.92V102.028H64.7246V107.62H63.7406V96.964H64.7246V101.104H65.9846V96.796H66.9686V107.92H65.9846ZM58.8566 98.26V97.36H62.0726V98.26H58.8566ZM57.7046 100.024V99.148H63.2006V100.024H57.7046ZM76.4625 99.424C78.6945 99.424 79.8705 99.94 79.8705 100.96C79.8705 101.896 78.8745 102.388 76.9665 102.46V103.3H81.6105V104.152H71.3145V103.3H75.9465V102.46C74.0265 102.388 73.0425 101.908 73.0425 100.96C73.0425 99.94 74.2065 99.424 76.4625 99.424ZM72.7905 107.8V104.872H80.1105V107.8H72.7905ZM79.1145 105.676H73.7985V106.996H79.1145V105.676ZM72.3705 99.028V98.212H80.5425V99.028H72.3705ZM76.4625 100.24C74.9025 100.24 74.0385 100.432 74.0385 100.96C74.0385 101.5 74.9025 101.68 76.4625 101.68C77.9985 101.68 78.8745 101.5 78.8745 100.96C78.8745 100.432 77.9865 100.24 76.4625 100.24ZM74.3985 97.672V96.844H78.5145V97.672H74.3985ZM82.4672 105.244L82.2752 104.296C82.6952 104.296 83.1272 104.308 83.5592 104.296L83.2112 99.4L84.2432 99.292L84.4592 104.284C84.8312 104.272 85.2032 104.26 85.5632 104.236L85.8632 99.268L86.8712 99.4L86.4632 104.188C86.9192 104.164 87.3752 104.116 87.8312 104.068L87.8912 104.896C86.4752 105.1 83.9552 105.232 82.4672 105.244ZM88.6832 107.62V101.824H87.1952V100.9H88.6832V96.964H89.6672V107.62H88.6832ZM90.7112 107.92V96.796H91.6952V107.92H90.7112ZM82.5512 98.752V97.84H87.6152V98.752H82.5512ZM101.096 107.872V96.796H102.14V107.872H101.096ZM96.4519 97.576C98.3479 97.576 99.2599 99.244 99.2599 101.428C99.2599 103.6 98.3479 105.256 96.4519 105.256C94.5799 105.256 93.6319 103.6 93.6319 101.428C93.6319 99.244 94.5679 97.576 96.4519 97.576ZM96.4519 98.476C95.3359 98.476 94.6639 99.568 94.6639 101.428C94.6639 103.264 95.3359 104.356 96.4519 104.356C97.5799 104.356 98.2519 103.264 98.2519 101.428C98.2519 99.568 97.5799 98.476 96.4519 98.476ZM111.913 107.872V96.796H112.945V107.872H111.913ZM104.581 105.472L103.873 104.716C105.193 103.936 106.921 102.268 106.921 99.568V98.692H104.437V97.78H110.449V98.692H107.977V99.568C107.977 101.992 109.165 103.456 111.001 104.62L110.293 105.352C109.177 104.608 107.881 103.24 107.437 102.004C106.993 103.312 105.637 104.776 104.581 105.472ZM125.474 98.14H119.066V97.252H126.506C126.506 98.74 126.362 100.036 126.134 101.26L125.138 101.068C125.294 100.372 125.45 98.956 125.474 98.14ZM127.946 101.824V102.712H117.65V101.824H121.742V99.46H122.786V101.824H127.946ZM122.798 103.54C125.426 103.54 126.65 104.404 126.65 105.748C126.65 107.08 125.414 107.92 122.798 107.92C120.182 107.92 118.946 107.08 118.946 105.748C118.946 104.404 120.182 103.54 122.798 103.54ZM122.798 104.416C120.854 104.416 119.966 104.956 119.966 105.748C119.966 106.528 120.854 107.056 122.798 107.056C124.742 107.056 125.63 106.528 125.63 105.748C125.63 104.932 124.742 104.416 122.798 104.416ZM134.467 99.748V98.884H136.747V96.796H137.791V103.396H136.747V102.136H134.227V101.26H136.747V99.748H134.467ZM136.747 107.932V104.836H130.567V103.936H137.791V107.932H136.747ZM129.583 103.456L128.995 102.64C131.215 101.896 132.931 100.42 133.447 98.356H129.559V97.444H134.611C134.263 100.648 132.199 102.364 129.583 103.456ZM151.137 100.444V103.42H150.105V96.796H151.137V99.532H152.805V100.444H151.137ZM149.025 101.356L149.097 102.256C147.609 102.448 145.029 102.544 143.169 102.544V97.396H148.341V98.284H144.189V101.62C145.437 101.608 147.657 101.512 149.025 101.356ZM147.669 103.552C149.829 103.552 151.269 104.32 151.269 105.748C151.269 107.224 149.829 107.968 147.669 107.968C145.521 107.968 144.057 107.224 144.057 105.748C144.057 104.32 145.497 103.552 147.669 103.552ZM147.669 104.416C146.001 104.416 145.065 104.956 145.065 105.76C145.065 106.552 146.013 107.104 147.669 107.104C149.325 107.104 150.261 106.576 150.261 105.76C150.261 104.956 149.325 104.416 147.669 104.416ZM161.762 103.528V100.732H160.502V103.468H159.506V96.868H160.502V99.808H161.762V96.796H162.758V103.528H161.762ZM158.93 106.528L158.246 107.128C157.706 106.828 157.094 106.324 156.89 105.892C156.626 106.552 155.642 107.476 154.754 107.932L154.034 107.332C155.486 106.636 156.362 105.52 156.362 104.428V104.152H157.406V104.428C157.406 105.58 158.078 106.144 158.93 106.528ZM154.682 97.876V97.012H157.79V97.876H154.682ZM153.494 99.256V98.44H158.966V99.256H153.494ZM156.242 99.688C157.61 99.688 158.534 100.456 158.534 101.572C158.534 102.688 157.61 103.456 156.242 103.456C154.862 103.456 153.938 102.688 153.938 101.572C153.938 100.468 154.862 99.688 156.242 99.688ZM156.242 100.504C155.438 100.504 154.898 100.972 154.898 101.572C154.898 102.172 155.438 102.628 156.242 102.628C157.046 102.628 157.574 102.172 157.574 101.572C157.574 100.972 157.046 100.504 156.242 100.504ZM163.79 107.284H163.802L163.118 107.92C162.23 107.5 161.282 106.528 161.018 105.868C160.742 106.552 159.794 107.644 158.798 108.148C158.57 107.944 158.342 107.74 158.114 107.524C159.482 106.804 160.478 105.508 160.478 104.248V103.972H161.51V104.248C161.51 105.52 162.458 106.6 163.79 107.284ZM163.986 106.156V105.256H174.282V106.156H163.986ZM169.134 97.66C171.63 97.66 172.998 98.896 172.998 100.372C172.998 101.86 171.63 103.072 169.134 103.072C166.614 103.072 165.27 101.86 165.27 100.372C165.27 98.896 166.614 97.66 169.134 97.66ZM169.134 98.56C167.25 98.56 166.302 99.388 166.302 100.372C166.302 101.32 167.25 102.172 169.134 102.172C171.006 102.172 171.966 101.344 171.966 100.372C171.966 99.4 171.006 98.56 169.134 98.56ZM175.583 105.076V97.768H180.575V99.244H182.975V96.796H184.007V107.992H182.975V103.504H180.575V105.076H175.583ZM179.531 98.692H176.615V104.152H179.531V98.692ZM182.975 100.132H180.575V102.628H182.975V100.132ZM187.78 105.784L186.808 108.112H186.004L186.604 105.784H187.78ZM192.238 106.024L192.082 105.112C193.078 105.112 194.11 105.1 195.142 105.064V103.852C193.978 103.72 192.958 103.096 192.958 101.992C192.958 100.744 194.266 100.084 195.634 100.084C196.99 100.084 198.31 100.744 198.31 101.992C198.31 103.072 197.29 103.708 196.162 103.84V105.028C197.278 104.968 198.382 104.884 199.438 104.764L199.51 105.604C197.266 105.844 194.602 106.024 192.238 106.024ZM201.034 96.796V107.872H200.002V96.796H201.034ZM197.302 101.992C197.302 101.272 196.498 100.924 195.634 100.924C194.782 100.924 193.954 101.272 193.954 101.992C193.954 102.712 194.782 103.06 195.634 103.06C196.498 103.06 197.302 102.712 197.302 101.992ZM198.874 98.692V99.556H192.394V98.692H198.874ZM197.386 97.072V97.936H193.966V97.072H197.386ZM203.571 99.256C203.571 97.9 204.819 97.156 206.415 97.156C207.999 97.156 209.259 97.9 209.259 99.256C209.259 100.612 207.999 101.344 206.415 101.344C204.819 101.344 203.571 100.624 203.571 99.256ZM210.795 96.796H211.839V105.412H210.795V104.332H208.503V103.48H210.795V96.796ZM204.567 104.728H205.599V106.852H212.139V107.752H204.567V104.728ZM202.947 102.94L202.803 102.052C205.287 102.052 207.723 101.968 210.135 101.8L210.195 102.568C209.139 102.676 208.083 102.76 207.003 102.82V104.8H205.983V102.868C204.975 102.904 203.967 102.928 202.947 102.94ZM204.579 99.256C204.579 100.024 205.371 100.504 206.415 100.504C207.459 100.504 208.251 100.024 208.251 99.256C208.251 98.488 207.459 97.996 206.415 97.996C205.371 97.996 204.579 98.488 204.579 99.256ZM214.232 98.632V97.72H219.296C219.032 101.56 217.328 103.936 214.436 105.772L213.74 105.028C216.26 103.66 217.868 101.32 218.216 98.632H214.232ZM222.092 102.112V107.872H221.072V96.796H222.092V101.2H223.856V102.112H222.092ZM232.416 102.724V96.796H233.448V102.724H232.416ZM226.44 107.788V103.312H227.46V104.656H232.416V103.264H233.448V107.788H226.44ZM232.428 105.52H227.46V106.924H232.428V105.52ZM227.664 97.132C229.272 97.132 230.412 98.2 230.412 99.784C230.412 101.392 229.272 102.4 227.664 102.4C226.056 102.4 224.928 101.368 224.928 99.772C224.928 98.188 226.056 97.132 227.664 97.132ZM227.664 98.008C226.596 98.008 225.936 98.788 225.936 99.772C225.936 100.756 226.596 101.536 227.664 101.536C228.744 101.536 229.404 100.756 229.404 99.772C229.404 98.788 228.744 98.008 227.664 98.008ZM243.797 101.5V105.184H242.765V96.796H243.797V100.588H245.465V101.5H243.797ZM236.777 97.888V97.024H240.341V97.888H236.777ZM235.313 99.46V98.596H241.805V99.46H235.313ZM238.565 99.964C240.113 99.964 241.253 100.756 241.253 102.004C241.253 103.24 240.113 104.032 238.565 104.032C236.981 104.032 235.865 103.24 235.865 102.004C235.865 100.756 236.993 99.964 238.565 99.964ZM238.565 100.816C237.521 100.816 236.873 101.308 236.873 102.004C236.873 102.688 237.521 103.18 238.565 103.18C239.585 103.18 240.245 102.688 240.245 102.004C240.245 101.308 239.585 100.816 238.565 100.816ZM236.909 107.68V104.644H237.929V106.78H244.217V107.68H236.909ZM250.327 98.752V97.84H257.791C257.767 99.604 257.551 102.316 257.227 103.912L256.243 103.732C256.495 102.436 256.723 100.288 256.747 98.752H250.327ZM248.959 106.252V105.34H252.835V101.596H253.891V105.34H259.255V106.252H248.959ZM268.356 103.348V100.564H267.012V103.252H266.052V96.964H267.012V99.64H268.356V96.796H269.34V103.348H268.356ZM268.32 107.932V104.8H261.996V103.912H269.34V107.932H268.32ZM260.748 103.432H260.736L260.064 102.712C262.176 101.764 263.544 100.024 263.892 98.308H260.64V97.396H264.996C264.744 100.252 263.316 102.1 260.748 103.432ZM1.104 115.644V114.732H5.508C5.4 117.996 3.888 120.876 1.212 122.808L0.528 122.112C2.676 120.708 4.176 118.152 4.5 115.644H1.104ZM8.844 124.92V119.208H7.428V124.62H6.444V113.964H7.428V118.284H8.844V113.796H9.828V124.92H8.844ZM19.2287 122.052V113.796H20.2727V122.052H19.2287ZM13.2887 124.668V121.152H14.2967V123.756H20.5607V124.668H13.2887ZM14.4887 114.384C16.1327 114.384 17.2727 115.56 17.2727 117.216C17.2727 118.86 16.1327 120.024 14.4887 120.024C12.8567 120.024 11.7287 118.848 11.7287 117.216C11.7287 115.548 12.8567 114.384 14.4887 114.384ZM14.4887 115.272C13.4207 115.272 12.7367 116.136 12.7367 117.216C12.7367 118.296 13.4207 119.136 14.4887 119.136C15.5447 119.136 16.2647 118.284 16.2647 117.216C16.2647 116.124 15.5447 115.272 14.4887 115.272ZM30.0454 120.492V117.348H27.8734V116.472H30.0454V113.796H31.0774V120.492H30.0454ZM28.7494 119.136L28.1254 119.892C27.1534 119.484 25.8814 118.368 25.4734 117.468C25.0534 118.368 23.9374 119.508 22.7374 120.06L22.0894 119.304C23.6854 118.68 24.9334 117.264 24.9334 115.8V115.284H22.5574V114.396H28.3774V115.284H26.0014V115.8C26.0014 117.324 27.2734 118.536 28.7494 119.136ZM27.4654 120.576C29.7094 120.576 31.1734 121.32 31.1734 122.736C31.1734 124.176 29.7094 124.908 27.4654 124.908C25.2334 124.908 23.7694 124.176 23.7694 122.736C23.7694 121.32 25.2334 120.576 27.4654 120.576ZM27.4774 121.452C25.7974 121.452 24.8014 121.992 24.8014 122.736C24.8014 123.48 25.7974 124.032 27.4774 124.032C29.1454 124.032 30.1294 123.48 30.1294 122.736C30.1294 121.992 29.1454 121.452 27.4774 121.452ZM34.1301 120.144V114.444H35.1621V116.388H40.4661V114.42H41.4981V120.144H38.3301V122.34H42.9621V123.252H32.6661V122.34H37.2861V120.144H34.1301ZM40.4661 117.3H35.1621V119.244H40.4661V117.3ZM44.2748 115.632V114.72H49.3388C49.0748 118.56 47.3708 120.936 44.4788 122.772L43.7828 122.028C46.3027 120.66 47.9108 118.32 48.2588 115.632H44.2748ZM52.1348 119.112V124.872H51.1148V113.796H52.1348V118.2H53.8988V119.112H52.1348ZM65.0366 120.876V124.872H64.0046V120.876H61.0646V124.872H60.0326V120.876H57.3926V119.976H67.6886V120.876H65.0366ZM62.5406 114.156C65.1686 114.156 66.3926 115.164 66.3926 116.484C66.3926 117.816 65.1686 118.824 62.5406 118.824C59.9006 118.824 58.6886 117.804 58.6886 116.484C58.6886 115.164 59.9006 114.156 62.5406 114.156ZM62.5406 115.056C60.5726 115.056 59.7206 115.692 59.7206 116.484C59.7206 117.288 60.5726 117.912 62.5406 117.912C64.4966 117.912 65.3606 117.288 65.3606 116.484C65.3606 115.68 64.4966 115.056 62.5406 115.056ZM69.5893 124.812V122.304H76.0933V121.464H69.5893V120.66H72.8293V119.748H68.1973V118.908H78.4933V119.748H73.8613V120.66H77.0893V123.072H70.5733V124.02H77.2693V124.812H69.5893ZM71.4253 114.66V113.832H75.2533V114.66H71.4253ZM77.7613 117.636H77.7733L77.3053 118.404C75.8413 118.236 74.1373 117.684 73.3453 116.736C72.5413 117.636 70.8733 118.224 69.3733 118.404L68.9053 117.636C70.6813 117.48 72.1933 116.892 72.6973 116.076H69.4093V115.272H77.2693V116.076H73.9933C74.4613 116.868 75.9493 117.456 77.7613 117.636ZM79.422 120.732L79.254 119.856C80.31 119.856 81.342 119.832 82.374 119.784V118.32H80.094V114.456H85.614V115.344H81.126V117.444H85.758V118.32H83.382V119.736C84.414 119.676 85.434 119.592 86.43 119.472L86.55 120.252C84.21 120.564 81.834 120.672 79.422 120.732ZM88.53 123.792V124.704H80.994V121.608H82.026V123.792H88.53ZM88.218 113.796V122.184H87.186V113.796H88.218ZM101.228 121.44V118.02H98.7799V117.108H101.228V113.796H102.26V121.44H101.228ZM103.028 123.996L102.476 124.848C101 124.536 99.3679 123.54 98.6839 122.436C97.9639 123.588 96.3679 124.524 94.8679 124.836L94.3039 123.996C96.3439 123.672 98.1559 122.28 98.1559 120.888V120.468H99.2119V120.888C99.2119 122.256 100.976 123.648 103.028 123.996ZM94.0639 120.816H94.0519L93.4639 119.988C95.6839 119.244 97.3999 117.66 97.9159 115.5H93.9679V114.576H99.0799C98.7319 117.924 96.6679 119.688 94.0639 120.816ZM103.729 123.156V122.256H114.025V123.156H103.729ZM108.877 114.66C111.373 114.66 112.741 115.896 112.741 117.372C112.741 118.86 111.373 120.072 108.877 120.072C106.357 120.072 105.013 118.86 105.013 117.372C105.013 115.896 106.357 114.66 108.877 114.66ZM108.877 115.56C106.993 115.56 106.045 116.388 106.045 117.372C106.045 118.32 106.993 119.172 108.877 119.172C110.749 119.172 111.709 118.344 111.709 117.372C111.709 116.4 110.749 115.56 108.877 115.56ZM115.997 120.396V116.964H122.333V115.428H115.997V114.528H123.365V117.84H117.029V119.508H123.533V120.396H120.185V122.352H124.829V123.264H114.533V122.352H119.153V120.396H115.997ZM134.107 121.212V124.944H133.075V121.212H128.455V120.312H138.751V121.212H134.107ZM131.683 114.828V113.964H135.511V114.828H131.683ZM138.115 118.68L137.611 119.544C136.027 119.268 134.299 118.332 133.603 117.348C132.919 118.332 131.215 119.268 129.583 119.556L129.079 118.692C130.783 118.476 132.607 117.552 132.931 116.532H129.715V115.644H137.491V116.532H134.263C134.623 117.54 136.471 118.476 138.115 118.68ZM147.444 120.492V117.348H145.272V116.472H147.444V113.796H148.476V120.492H147.444ZM146.148 119.136L145.524 119.892C144.552 119.484 143.28 118.368 142.872 117.468C142.452 118.368 141.336 119.508 140.136 120.06L139.488 119.304C141.084 118.68 142.332 117.264 142.332 115.8V115.284H139.956V114.396H145.776V115.284H143.4V115.8C143.4 117.324 144.672 118.536 146.148 119.136ZM144.864 120.576C147.108 120.576 148.572 121.32 148.572 122.736C148.572 124.176 147.108 124.908 144.864 124.908C142.632 124.908 141.168 124.176 141.168 122.736C141.168 121.32 142.632 120.576 144.864 120.576ZM144.876 121.452C143.196 121.452 142.2 121.992 142.2 122.736C142.2 123.48 143.196 124.032 144.876 124.032C146.544 124.032 147.528 123.48 147.528 122.736C147.528 121.992 146.544 121.452 144.876 121.452Z" fill="#999999"/>
</svg>
