<svg width="330" height="163" viewBox="0 0 330 163" fill="none" xmlns="http://www.w3.org/2000/svg">
<rect x="0.5" y="0.5" width="329" height="162" rx="5.5" fill="white"/>
<rect x="0.5" y="0.5" width="329" height="162" rx="5.5" stroke="#E0E0E0"/>
<path d="M19.184 21.488C20.5707 21.488 21.6587 21.6587 22.448 22C23.2373 22.3413 23.632 22.8693 23.632 23.584C23.632 24.2347 23.312 24.7307 22.672 25.072C22.0427 25.4027 21.1573 25.5947 20.016 25.648V26.4H26V27.744H12.384V26.4H18.352V25.648C17.1893 25.5947 16.2933 25.4027 15.664 25.072C15.0347 24.7307 14.72 24.2347 14.72 23.584C14.72 22.8587 15.1093 22.3307 15.888 22C16.6773 21.6587 17.776 21.488 19.184 21.488ZM14.256 28.592H24.08V32.528H14.256V28.592ZM13.648 19.712H24.704V21.008H13.648V19.712ZM15.872 29.888V31.232H22.48V29.888H15.872ZM19.184 22.752C18.6507 22.752 18.1973 22.7733 17.824 22.816C17.4613 22.848 17.168 22.9013 16.944 22.976C16.72 23.0507 16.56 23.1413 16.464 23.248C16.368 23.344 16.32 23.456 16.32 23.584C16.32 23.7013 16.368 23.8133 16.464 23.92C16.56 24.016 16.72 24.1067 16.944 24.192C17.168 24.2667 17.4613 24.3253 17.824 24.368C18.1973 24.4107 18.6507 24.432 19.184 24.432C19.7173 24.432 20.1653 24.4107 20.528 24.368C20.8907 24.3253 21.184 24.2667 21.408 24.192C21.632 24.1067 21.792 24.016 21.888 23.92C21.984 23.8133 22.032 23.7013 22.032 23.584C22.032 23.456 21.984 23.344 21.888 23.248C21.792 23.1413 21.632 23.0507 21.408 22.976C21.184 22.9013 20.8907 22.848 20.528 22.816C20.1653 22.7733 19.7173 22.752 19.184 22.752ZM16.512 17.744H21.84V19.056H16.512V17.744ZM33.3823 28.72C32.9129 28.7947 32.3796 28.864 31.7822 28.928C31.1956 28.9813 30.5876 29.0293 29.9583 29.072C29.3289 29.104 28.6996 29.1307 28.0703 29.152C27.4409 29.1733 26.8649 29.184 26.3422 29.184L26.0702 27.68H27.6062L27.2062 21.248L28.8863 21.088L29.0622 27.648L30.2622 27.6L30.5343 21.04L32.1502 21.248L31.7343 27.536C32.2783 27.504 32.7956 27.456 33.2863 27.392L33.3823 28.72ZM32.5503 23.136H34.1663V17.952H35.7502V32.16H34.1663V24.64H32.5503V23.136ZM37.0782 17.728H38.7103V32.56H37.0782V17.728ZM26.2782 19.024H32.9183V20.48H26.2782V19.024ZM44.2365 18.72C44.8232 18.72 45.3565 18.848 45.8365 19.104C46.3272 19.3493 46.7432 19.7013 47.0845 20.16C47.4258 20.608 47.6872 21.1573 47.8685 21.808C48.0605 22.448 48.1565 23.168 48.1565 23.968C48.1565 24.7467 48.0605 25.4613 47.8685 26.112C47.6872 26.752 47.4258 27.3013 47.0845 27.76C46.7432 28.2187 46.3272 28.576 45.8365 28.832C45.3565 29.0773 44.8232 29.2 44.2365 29.2C43.6285 29.2 43.0792 29.0773 42.5885 28.832C42.1085 28.576 41.6925 28.2187 41.3405 27.76C40.9992 27.3013 40.7378 26.752 40.5565 26.112C40.3752 25.4613 40.2845 24.7467 40.2845 23.968C40.2845 23.168 40.3752 22.448 40.5565 21.808C40.7378 21.1573 40.9992 20.608 41.3405 20.16C41.6925 19.7013 42.1085 19.3493 42.5885 19.104C43.0792 18.848 43.6285 18.72 44.2365 18.72ZM44.2365 20.224C43.5858 20.224 43.0525 20.544 42.6365 21.184C42.2205 21.8133 42.0125 22.7413 42.0125 23.968C42.0125 25.1733 42.2205 26.096 42.6365 26.736C43.0525 27.376 43.5858 27.696 44.2365 27.696C44.8765 27.696 45.4045 27.376 45.8205 26.736C46.2365 26.096 46.4445 25.1733 46.4445 23.968C46.4445 22.7413 46.2365 21.8133 45.8205 21.184C45.4045 20.544 44.8765 20.224 44.2365 20.224ZM50.2205 17.728H51.9325V32.496H50.2205V17.728ZM63.8267 17.728H65.5387V32.496H63.8267V17.728ZM53.3467 28.384C53.9121 28.0427 54.4347 27.6373 54.9147 27.168C55.3947 26.688 55.8054 26.1493 56.1467 25.552C56.4987 24.944 56.7707 24.2773 56.9627 23.552C57.1654 22.816 57.2667 22.0213 57.2667 21.168V20.496H54.1467V19.008H62.0827V20.496H58.9467V21.168C58.9467 21.9893 59.0267 22.7413 59.1867 23.424C59.3574 24.1067 59.6027 24.736 59.9227 25.312C60.2534 25.8773 60.6587 26.3947 61.1387 26.864C61.6294 27.3333 62.2001 27.7653 62.8507 28.16L61.8907 29.312C61.5067 29.0987 61.1121 28.8267 60.7067 28.496C60.3121 28.1547 59.9387 27.7867 59.5867 27.392C59.2454 26.9973 58.9414 26.592 58.6747 26.176C58.4081 25.7493 58.2214 25.344 58.1147 24.96C57.9974 25.3333 57.8107 25.7387 57.5547 26.176C57.3094 26.6133 57.0161 27.04 56.6747 27.456C56.3441 27.872 55.9761 28.2613 55.5707 28.624C55.1761 28.976 54.7814 29.2693 54.3867 29.504L53.3467 28.384ZM74.0373 23.28C74.4959 23.28 74.9119 23.3547 75.2853 23.504C75.6693 23.6533 75.9999 23.8667 76.2773 24.144C76.5546 24.4107 76.7679 24.7307 76.9173 25.104C77.0773 25.4773 77.1573 25.888 77.1573 26.336C77.1573 26.784 77.0773 27.2 76.9173 27.584C76.7679 27.9573 76.5546 28.2773 76.2773 28.544C75.9999 28.8107 75.6693 29.0187 75.2853 29.168C74.9119 29.3173 74.4959 29.392 74.0373 29.392C73.5786 29.392 73.1573 29.3173 72.7733 29.168C72.3893 29.0187 72.0533 28.8107 71.7653 28.544C71.4879 28.2773 71.2693 27.9573 71.1093 27.584C70.9599 27.2 70.8853 26.784 70.8853 26.336C70.8853 25.888 70.9599 25.4773 71.1093 25.104C71.2693 24.7307 71.4879 24.4107 71.7653 24.144C72.0533 23.8667 72.3893 23.6533 72.7733 23.504C73.1573 23.3547 73.5786 23.28 74.0373 23.28ZM74.0213 24.656C73.5626 24.656 73.1786 24.8053 72.8693 25.104C72.5706 25.392 72.4213 25.8027 72.4213 26.336C72.4213 26.88 72.5706 27.296 72.8693 27.584C73.1786 27.872 73.5626 28.016 74.0213 28.016C74.4693 28.016 74.8426 27.872 75.1413 27.584C75.4399 27.296 75.5893 26.88 75.5893 26.336C75.5893 25.8027 75.4399 25.392 75.1413 25.104C74.8426 24.8053 74.4693 24.656 74.0213 24.656ZM71.9893 18.512H75.9573V19.968H71.9893V18.512ZM70.3733 21.024H77.3333V22.48H70.3733V21.024ZM81.2853 24.816H79.7173V32.16H78.1013V17.952H79.7173V23.312H81.2853V17.728H82.9173V32.56H81.2853V24.816ZM91.2435 26.656C92.0008 26.656 92.6835 26.7253 93.2915 26.864C93.8995 26.992 94.4115 27.184 94.8275 27.44C95.2542 27.6853 95.5795 27.9947 95.8035 28.368C96.0275 28.7307 96.1395 29.1467 96.1395 29.616C96.1395 30.096 96.0275 30.5227 95.8035 30.896C95.5795 31.2693 95.2542 31.5787 94.8275 31.824C94.4115 32.08 93.8995 32.272 93.2915 32.4C92.6835 32.528 92.0008 32.592 91.2435 32.592C90.4862 32.592 89.8088 32.528 89.2115 32.4C88.6142 32.272 88.1022 32.08 87.6755 31.824C87.2488 31.5787 86.9235 31.2693 86.6995 30.896C86.4755 30.5227 86.3635 30.096 86.3635 29.616C86.3635 29.1467 86.4755 28.7307 86.6995 28.368C86.9235 27.9947 87.2488 27.6853 87.6755 27.44C88.1022 27.184 88.6142 26.992 89.2115 26.864C89.8088 26.7253 90.4862 26.656 91.2435 26.656ZM84.4115 25.744C85.3502 25.488 86.2035 25.0987 86.9715 24.576C87.7502 24.0427 88.4008 23.44 88.9235 22.768L84.8115 23.152L84.4275 21.664L89.7395 21.408C89.8462 21.1627 89.9315 20.9173 89.9955 20.672C90.0702 20.416 90.1182 20.1653 90.1395 19.92H85.1635V18.432H92.0915C92.0382 19.552 91.8248 20.5707 91.4515 21.488C91.0888 22.3947 90.6088 23.2107 90.0115 23.936C89.4142 24.6613 88.7155 25.296 87.9155 25.84C87.1262 26.3733 86.2782 26.8213 85.3715 27.184L84.4115 25.744ZM91.2435 28.08C90.2088 28.08 89.4195 28.2187 88.8755 28.496C88.3422 28.7627 88.0755 29.136 88.0755 29.616C88.0755 30.096 88.3422 30.4747 88.8755 30.752C89.4195 31.04 90.2088 31.184 91.2435 31.184C92.2782 31.184 93.0675 31.04 93.6115 30.752C94.1555 30.4747 94.4275 30.096 94.4275 29.616C94.4275 29.136 94.1555 28.7627 93.6115 28.496C93.0675 28.2187 92.2782 28.08 91.2435 28.08ZM94.3155 17.728H96.0275V26.656H94.3155V17.728Z" fill="#444444"/>
<line x1="12" y1="46.5" x2="318" y2="46.5" stroke="#E0E0E0"/>
<path d="M25.575 72V72.87H23.205V80.49H22.215V66.495H23.205V72H25.575ZM12.3 76.5C12.89 76.11 13.42 75.67 13.89 75.18C14.37 74.69 14.78 74.16 15.12 73.59C15.46 73.01 15.72 72.39 15.9 71.73C16.08 71.06 16.17 70.355 16.17 69.615V67.455H17.16V69.615C17.16 70.265 17.235 70.905 17.385 71.535C17.545 72.165 17.785 72.77 18.105 73.35C18.425 73.92 18.82 74.46 19.29 74.97C19.77 75.47 20.335 75.925 20.985 76.335L20.325 77.025C19.505 76.425 18.77 75.735 18.12 74.955C17.47 74.165 16.99 73.25 16.68 72.21C16.38 73.25 15.905 74.17 15.255 74.97C14.615 75.77 13.855 76.505 12.975 77.175L12.3 76.5ZM25.0559 77.385H30.1409V72.375H31.1459V77.385H37.9409V78.27H25.0559V77.385ZM36.0059 67.845C35.9959 68.505 35.9659 69.2 35.9159 69.93C35.8659 70.66 35.8059 71.37 35.7359 72.06C35.6759 72.74 35.6059 73.375 35.5259 73.965C35.4459 74.555 35.3659 75.04 35.2859 75.42L34.3559 75.225C34.4459 74.775 34.5309 74.28 34.6109 73.74C34.7009 73.2 34.7759 72.645 34.8359 72.075C34.8959 71.495 34.9409 70.92 34.9709 70.35C35.0109 69.77 35.0309 69.23 35.0309 68.73H26.8109V67.845H36.0059ZM48.7167 73.785H47.7267V66.495H48.7167V69.675H51.0117V70.545H48.7167V73.785ZM40.1967 76.86H47.7267V75.3H40.1967V74.46H48.7167V77.7H41.1717V79.38H48.9417V80.235H40.1967V76.86ZM38.7117 67.02H39.7017V69.195H43.9617V66.96H44.9517V73.05H38.7117V67.02ZM39.7017 70.05V72.18H43.9617V70.05H39.7017ZM61.5326 71.1H59.6126V74.355H58.6676V66.63H59.6126V70.215H61.5326V66.495H62.4776V74.88H61.5326V71.1ZM57.9326 75.15C58.7126 75.15 59.3926 75.215 59.9726 75.345C60.5626 75.475 61.0526 75.66 61.4426 75.9C61.8326 76.13 62.1226 76.405 62.3126 76.725C62.5126 77.045 62.6126 77.4 62.6126 77.79C62.6126 78.17 62.5126 78.52 62.3126 78.84C62.1226 79.16 61.8326 79.435 61.4426 79.665C61.0526 79.905 60.5626 80.09 59.9726 80.22C59.3926 80.36 58.7126 80.43 57.9326 80.43C57.1526 80.43 56.4726 80.36 55.8926 80.22C55.3126 80.09 54.8276 79.905 54.4376 79.665C54.0476 79.435 53.7576 79.16 53.5676 78.84C53.3776 78.52 53.2826 78.17 53.2826 77.79C53.2826 77.4 53.3776 77.045 53.5676 76.725C53.7576 76.405 54.0476 76.13 54.4376 75.9C54.8276 75.66 55.3126 75.475 55.8926 75.345C56.4726 75.215 57.1526 75.15 57.9326 75.15ZM57.9326 75.975C57.3426 75.975 56.8176 76.025 56.3576 76.125C55.8976 76.215 55.5076 76.345 55.1876 76.515C54.8776 76.675 54.6426 76.865 54.4826 77.085C54.3226 77.305 54.2426 77.54 54.2426 77.79C54.2426 78.3 54.5576 78.73 55.1876 79.08C55.8176 79.43 56.7326 79.605 57.9326 79.605C59.1426 79.605 60.0576 79.43 60.6776 79.08C61.2976 78.73 61.6076 78.3 61.6076 77.79C61.6076 77.54 61.5276 77.305 61.3676 77.085C61.2076 76.865 60.9726 76.675 60.6626 76.515C60.3526 76.345 59.9676 76.215 59.5076 76.125C59.0576 76.025 58.5326 75.975 57.9326 75.975ZM57.1376 73.875C56.8676 73.715 56.5876 73.515 56.2976 73.275C56.0176 73.035 55.7526 72.775 55.5026 72.495C55.2526 72.205 55.0276 71.91 54.8276 71.61C54.6376 71.3 54.4976 71 54.4076 70.71C54.2676 71.03 54.0876 71.36 53.8676 71.7C53.6576 72.04 53.4226 72.37 53.1626 72.69C52.9126 73 52.6426 73.29 52.3526 73.56C52.0626 73.83 51.7776 74.05 51.4976 74.22L50.8226 73.59C51.2626 73.31 51.6676 72.99 52.0376 72.63C52.4176 72.26 52.7426 71.86 53.0126 71.43C53.2926 70.99 53.5076 70.52 53.6576 70.02C53.8176 69.52 53.8976 68.99 53.8976 68.43V66.975H54.8876V68.4C54.8876 69.52 55.1476 70.48 55.6676 71.28C56.1876 72.08 56.9026 72.735 57.8126 73.245L57.1376 73.875ZM73.7784 66.495H74.7684V73.65H73.7784V66.495ZM66.1134 76.8H73.7784V75.225H66.1134V74.37H74.7684V77.64H67.1034V79.335H75.1134V80.19H66.1134V76.8ZM67.5684 66.885C68.0484 66.885 68.4934 66.965 68.9034 67.125C69.3234 67.275 69.6834 67.49 69.9834 67.77C70.2934 68.05 70.5334 68.385 70.7034 68.775C70.8834 69.155 70.9734 69.575 70.9734 70.035C70.9734 70.495 70.8834 70.92 70.7034 71.31C70.5334 71.7 70.2934 72.035 69.9834 72.315C69.6834 72.595 69.3234 72.815 68.9034 72.975C68.4934 73.135 68.0484 73.215 67.5684 73.215C67.0784 73.215 66.6234 73.135 66.2034 72.975C65.7934 72.815 65.4384 72.595 65.1384 72.315C64.8384 72.025 64.6034 71.69 64.4334 71.31C64.2634 70.92 64.1784 70.495 64.1784 70.035C64.1784 69.575 64.2634 69.155 64.4334 68.775C64.6134 68.385 64.8534 68.05 65.1534 67.77C65.4534 67.49 65.8084 67.275 66.2184 67.125C66.6384 66.965 67.0884 66.885 67.5684 66.885ZM67.5684 67.755C67.1984 67.755 66.8684 67.815 66.5784 67.935C66.2884 68.055 66.0384 68.22 65.8284 68.43C65.6284 68.64 65.4734 68.885 65.3634 69.165C65.2634 69.435 65.2134 69.725 65.2134 70.035C65.2134 70.345 65.2634 70.64 65.3634 70.92C65.4734 71.2 65.6284 71.445 65.8284 71.655C66.0384 71.865 66.2884 72.035 66.5784 72.165C66.8684 72.285 67.1984 72.345 67.5684 72.345C67.9384 72.345 68.2684 72.285 68.5584 72.165C68.8484 72.035 69.0934 71.865 69.2934 71.655C69.5034 71.445 69.6584 71.2 69.7584 70.92C69.8684 70.64 69.9234 70.345 69.9234 70.035C69.9234 69.725 69.8684 69.43 69.7584 69.15C69.6584 68.87 69.5034 68.63 69.2934 68.43C69.0934 68.22 68.8484 68.055 68.5584 67.935C68.2684 67.815 67.9384 67.755 67.5684 67.755Z" fill="#222222"/>
<path d="M257.639 78.705H250.874V77.745L250.859 77.76L254.459 73.83C254.829 73.42 255.139 73.06 255.389 72.75C255.639 72.43 255.834 72.14 255.974 71.88C256.124 71.62 256.229 71.37 256.289 71.13C256.349 70.88 256.379 70.615 256.379 70.335C256.379 69.995 256.304 69.695 256.154 69.435C256.004 69.165 255.809 68.94 255.569 68.76C255.339 68.58 255.079 68.445 254.789 68.355C254.499 68.265 254.209 68.22 253.919 68.22C253.489 68.22 253.079 68.3 252.689 68.46C252.309 68.62 251.879 68.875 251.399 69.225L251.129 68.37C251.609 68.03 252.089 67.78 252.569 67.62C253.049 67.45 253.499 67.365 253.919 67.365C254.369 67.365 254.799 67.43 255.209 67.56C255.629 67.68 255.994 67.865 256.304 68.115C256.624 68.365 256.879 68.675 257.069 69.045C257.259 69.415 257.354 69.845 257.354 70.335C257.354 70.655 257.319 70.96 257.249 71.25C257.179 71.54 257.059 71.84 256.889 72.15C256.729 72.46 256.514 72.79 256.244 73.14C255.974 73.49 255.639 73.885 255.239 74.325L252.044 77.85H257.639V78.705ZM262.495 67.365C263.675 67.365 264.58 67.845 265.21 68.805C265.84 69.765 266.155 71.19 266.155 73.08C266.155 74.97 265.84 76.405 265.21 77.385C264.58 78.365 263.675 78.855 262.495 78.855C261.305 78.855 260.395 78.365 259.765 77.385C259.135 76.405 258.82 74.97 258.82 73.08C258.82 71.19 259.13 69.765 259.75 68.805C260.38 67.845 261.295 67.365 262.495 67.365ZM262.495 68.22C261.955 68.22 261.51 68.375 261.16 68.685C260.81 68.995 260.53 69.39 260.32 69.87C260.11 70.35 259.965 70.875 259.885 71.445C259.805 72.015 259.765 72.56 259.765 73.08C259.765 73.61 259.805 74.165 259.885 74.745C259.965 75.315 260.11 75.845 260.32 76.335C260.53 76.815 260.81 77.215 261.16 77.535C261.51 77.845 261.955 78 262.495 78C263.035 78 263.48 77.84 263.83 77.52C264.18 77.2 264.455 76.8 264.655 76.32C264.865 75.83 265.01 75.295 265.09 74.715C265.17 74.135 265.21 73.59 265.21 73.08C265.21 72.57 265.17 72.03 265.09 71.46C265.01 70.89 264.865 70.365 264.655 69.885C264.455 69.405 264.18 69.01 263.83 68.7C263.48 68.38 263.035 68.22 262.495 68.22ZM273.825 78.705H267.06V77.745L267.045 77.76L270.645 73.83C271.015 73.42 271.325 73.06 271.575 72.75C271.825 72.43 272.02 72.14 272.16 71.88C272.31 71.62 272.415 71.37 272.475 71.13C272.535 70.88 272.565 70.615 272.565 70.335C272.565 69.995 272.49 69.695 272.34 69.435C272.19 69.165 271.995 68.94 271.755 68.76C271.525 68.58 271.265 68.445 270.975 68.355C270.685 68.265 270.395 68.22 270.105 68.22C269.675 68.22 269.265 68.3 268.875 68.46C268.495 68.62 268.065 68.875 267.585 69.225L267.315 68.37C267.795 68.03 268.275 67.78 268.755 67.62C269.235 67.45 269.685 67.365 270.105 67.365C270.555 67.365 270.985 67.43 271.395 67.56C271.815 67.68 272.18 67.865 272.49 68.115C272.81 68.365 273.065 68.675 273.255 69.045C273.445 69.415 273.54 69.845 273.54 70.335C273.54 70.655 273.505 70.96 273.435 71.25C273.365 71.54 273.245 71.84 273.075 72.15C272.915 72.46 272.7 72.79 272.43 73.14C272.16 73.49 271.825 73.885 271.425 74.325L268.23 77.85H273.825V78.705ZM276.507 68.385L276.297 72.135C276.937 71.865 277.582 71.73 278.232 71.73C278.752 71.73 279.227 71.815 279.657 71.985C280.087 72.145 280.452 72.38 280.752 72.69C281.062 72.99 281.302 73.355 281.472 73.785C281.642 74.205 281.727 74.675 281.727 75.195C281.727 75.755 281.627 76.26 281.427 76.71C281.227 77.16 280.947 77.545 280.587 77.865C280.227 78.175 279.792 78.415 279.282 78.585C278.782 78.765 278.232 78.855 277.632 78.855C277.142 78.855 276.677 78.795 276.237 78.675C275.797 78.555 275.402 78.395 275.052 78.195V77.235C275.452 77.475 275.867 77.66 276.297 77.79C276.727 77.92 277.172 77.985 277.632 77.985C278.032 77.985 278.417 77.925 278.787 77.805C279.167 77.685 279.502 77.505 279.792 77.265C280.092 77.025 280.327 76.735 280.497 76.395C280.677 76.045 280.767 75.645 280.767 75.195C280.767 74.365 280.512 73.715 280.002 73.245C279.492 72.775 278.737 72.54 277.737 72.54C277.337 72.54 276.932 72.6 276.522 72.72C276.122 72.84 275.727 72.99 275.337 73.17L275.637 67.515H281.127V68.385H276.507ZM285.136 79.485H283.771V78.015H285.136V79.485ZM290.749 78.705H289.759V68.7L287.824 70.41L287.239 69.78L289.864 67.515H290.749V78.705ZM295.685 78.705H294.695V68.7L292.76 70.41L292.175 69.78L294.8 67.515H295.685V78.705ZM300.224 79.485H298.859V78.015H300.224V79.485ZM308.762 78.705H301.997V77.745L301.982 77.76L305.582 73.83C305.952 73.42 306.262 73.06 306.512 72.75C306.762 72.43 306.957 72.14 307.097 71.88C307.247 71.62 307.352 71.37 307.412 71.13C307.472 70.88 307.502 70.615 307.502 70.335C307.502 69.995 307.427 69.695 307.277 69.435C307.127 69.165 306.932 68.94 306.692 68.76C306.462 68.58 306.202 68.445 305.912 68.355C305.622 68.265 305.332 68.22 305.042 68.22C304.612 68.22 304.202 68.3 303.812 68.46C303.432 68.62 303.002 68.875 302.522 69.225L302.252 68.37C302.732 68.03 303.212 67.78 303.692 67.62C304.172 67.45 304.622 67.365 305.042 67.365C305.492 67.365 305.922 67.43 306.332 67.56C306.752 67.68 307.117 67.865 307.427 68.115C307.747 68.365 308.002 68.675 308.192 69.045C308.382 69.415 308.477 69.845 308.477 70.335C308.477 70.655 308.442 70.96 308.372 71.25C308.302 71.54 308.182 71.84 308.012 72.15C307.852 72.46 307.637 72.79 307.367 73.14C307.097 73.49 306.762 73.885 306.362 74.325L303.167 77.85H308.762V78.705ZM317.728 75.96H315.883V78.705H314.908V75.96H309.613V74.895L314.533 67.515H315.883V75.09H317.728V75.96ZM314.923 75.105V68.475L310.558 75.105H314.923Z" fill="#222222"/>
<path d="M25.575 104V104.87H23.205V112.49H22.215V98.495H23.205V104H25.575ZM12.3 108.5C12.89 108.11 13.42 107.67 13.89 107.18C14.37 106.69 14.78 106.16 15.12 105.59C15.46 105.01 15.72 104.39 15.9 103.73C16.08 103.06 16.17 102.355 16.17 101.615V99.455H17.16V101.615C17.16 102.265 17.235 102.905 17.385 103.535C17.545 104.165 17.785 104.77 18.105 105.35C18.425 105.92 18.82 106.46 19.29 106.97C19.77 107.47 20.335 107.925 20.985 108.335L20.325 109.025C19.505 108.425 18.77 107.735 18.12 106.955C17.47 106.165 16.99 105.25 16.68 104.21C16.38 105.25 15.905 106.17 15.255 106.97C14.615 107.77 13.855 108.505 12.975 109.175L12.3 108.5ZM25.0559 109.385H30.1409V104.375H31.1459V109.385H37.9409V110.27H25.0559V109.385ZM36.0059 99.845C35.9959 100.505 35.9659 101.2 35.9159 101.93C35.8659 102.66 35.8059 103.37 35.7359 104.06C35.6759 104.74 35.6059 105.375 35.5259 105.965C35.4459 106.555 35.3659 107.04 35.2859 107.42L34.3559 107.225C34.4459 106.775 34.5309 106.28 34.6109 105.74C34.7009 105.2 34.7759 104.645 34.8359 104.075C34.8959 103.495 34.9409 102.92 34.9709 102.35C35.0109 101.77 35.0309 101.23 35.0309 100.73H26.8109V99.845H36.0059ZM38.9817 99.74H39.9867V107.66C40.2967 107.65 40.6617 107.635 41.0817 107.615C41.5117 107.595 41.9567 107.57 42.4167 107.54C42.8767 107.51 43.3317 107.475 43.7817 107.435C44.2317 107.395 44.6367 107.345 44.9967 107.285L45.1017 108.11C44.7117 108.17 44.2767 108.225 43.7967 108.275C43.3167 108.315 42.8117 108.355 42.2817 108.395C41.7517 108.435 41.2067 108.47 40.6467 108.5C40.0867 108.52 39.5317 108.54 38.9817 108.56V99.74ZM48.7767 104.75H46.8567V112.115H45.9117V98.705H46.8567V103.895H48.7767V98.495H49.7217V112.49H48.7767V104.75ZM57.0026 98.78C57.8226 98.78 58.5276 98.84 59.1176 98.96C59.7176 99.08 60.2126 99.25 60.6026 99.47C60.9926 99.69 61.2776 99.96 61.4576 100.28C61.6476 100.59 61.7426 100.935 61.7426 101.315C61.7426 101.805 61.5976 102.235 61.3076 102.605C61.0176 102.975 60.5576 103.265 59.9276 103.475V105.5H63.4526V106.37H50.5676V105.5H54.0776V103.475C53.4476 103.245 52.9876 102.95 52.6976 102.59C52.4076 102.22 52.2626 101.795 52.2626 101.315C52.2626 100.935 52.3526 100.59 52.5326 100.28C52.7226 99.96 53.0126 99.69 53.4026 99.47C53.7926 99.25 54.2826 99.08 54.8726 98.96C55.4726 98.84 56.1826 98.78 57.0026 98.78ZM57.0026 107.57C60.1926 107.57 61.7876 108.38 61.7876 110C61.7876 111.61 60.1926 112.415 57.0026 112.415C53.8126 112.415 52.2176 111.61 52.2176 110C52.2176 108.38 53.8126 107.57 57.0026 107.57ZM57.0026 99.65C55.7626 99.65 54.8326 99.795 54.2126 100.085C53.5926 100.365 53.2826 100.775 53.2826 101.315C53.2826 101.855 53.5926 102.27 54.2126 102.56C54.8326 102.85 55.7626 102.995 57.0026 102.995C58.2426 102.995 59.1726 102.85 59.7926 102.56C60.4226 102.27 60.7376 101.855 60.7376 101.315C60.7376 100.775 60.4226 100.365 59.7926 100.085C59.1726 99.795 58.2426 99.65 57.0026 99.65ZM57.0026 108.41C55.7726 108.41 54.8326 108.555 54.1826 108.845C53.5426 109.135 53.2226 109.52 53.2226 110C53.2226 110.48 53.5426 110.86 54.1826 111.14C54.8326 111.42 55.7726 111.56 57.0026 111.56C58.2426 111.56 59.1826 111.42 59.8226 111.14C60.4626 110.86 60.7826 110.48 60.7826 110C60.7826 109.52 60.4626 109.135 59.8226 108.845C59.1826 108.555 58.2426 108.41 57.0026 108.41ZM58.9376 105.5V103.715C58.4376 103.815 57.7926 103.865 57.0026 103.865C56.2126 103.865 55.5676 103.815 55.0676 103.715V105.5H58.9376Z" fill="#222222"/>
<path d="M178.772 99.695H184.247C184.207 100.645 184.062 101.575 183.812 102.485C183.562 103.395 183.202 104.27 182.732 105.11C182.272 105.95 181.702 106.75 181.022 107.51C180.342 108.27 179.552 108.97 178.652 109.61L177.932 108.875C179.442 107.885 180.652 106.685 181.562 105.275C182.482 103.855 183.052 102.29 183.272 100.58H178.772V99.695ZM188.567 105.125H186.722V112.115H185.762V98.705H186.722V104.255H188.567V98.495H189.512V112.49H188.567V105.125ZM201.563 98.495H202.553V108.815H201.563V98.495ZM193.988 107.75H194.963V111.185H202.928V112.055H193.988V107.75ZM195.338 99.245C195.828 99.245 196.283 99.33 196.703 99.5C197.123 99.67 197.483 99.91 197.783 100.22C198.093 100.53 198.333 100.9 198.503 101.33C198.673 101.76 198.758 102.235 198.758 102.755C198.758 103.265 198.673 103.735 198.503 104.165C198.333 104.585 198.093 104.95 197.783 105.26C197.483 105.56 197.123 105.8 196.703 105.98C196.283 106.15 195.828 106.235 195.338 106.235C194.848 106.235 194.393 106.15 193.973 105.98C193.563 105.8 193.203 105.555 192.893 105.245C192.593 104.935 192.358 104.57 192.188 104.15C192.018 103.72 191.933 103.255 191.933 102.755C191.933 102.235 192.018 101.76 192.188 101.33C192.358 100.9 192.593 100.53 192.893 100.22C193.203 99.91 193.563 99.67 193.973 99.5C194.393 99.33 194.848 99.245 195.338 99.245ZM195.338 100.13C194.968 100.13 194.633 100.2 194.333 100.34C194.043 100.47 193.798 100.655 193.598 100.895C193.398 101.135 193.243 101.415 193.133 101.735C193.023 102.055 192.968 102.4 192.968 102.77C192.968 103.13 193.023 103.47 193.133 103.79C193.243 104.1 193.398 104.37 193.598 104.6C193.798 104.83 194.043 105.015 194.333 105.155C194.633 105.285 194.968 105.35 195.338 105.35C195.708 105.35 196.038 105.285 196.328 105.155C196.628 105.015 196.883 104.83 197.093 104.6C197.303 104.36 197.463 104.085 197.573 103.775C197.683 103.455 197.738 103.115 197.738 102.755C197.738 102.385 197.683 102.04 197.573 101.72C197.463 101.4 197.303 101.125 197.093 100.895C196.883 100.655 196.628 100.47 196.328 100.34C196.038 100.2 195.708 100.13 195.338 100.13ZM211.588 107.195C212.248 107.195 212.858 107.255 213.418 107.375C213.988 107.485 214.478 107.65 214.888 107.87C215.298 108.09 215.618 108.365 215.848 108.695C216.088 109.015 216.208 109.39 216.208 109.82C216.208 110.24 216.088 110.61 215.848 110.93C215.618 111.25 215.293 111.52 214.873 111.74C214.463 111.97 213.978 112.14 213.418 112.25C212.858 112.37 212.248 112.43 211.588 112.43C210.908 112.43 210.283 112.37 209.713 112.25C209.153 112.14 208.668 111.97 208.258 111.74C207.858 111.52 207.543 111.25 207.313 110.93C207.093 110.61 206.983 110.24 206.983 109.82C206.983 109.39 207.093 109.015 207.313 108.695C207.543 108.365 207.858 108.09 208.258 107.87C208.668 107.65 209.153 107.485 209.713 107.375C210.283 107.255 210.908 107.195 211.588 107.195ZM211.573 108.035C211.023 108.035 210.523 108.08 210.073 108.17C209.633 108.25 209.258 108.37 208.948 108.53C208.638 108.68 208.398 108.865 208.228 109.085C208.058 109.305 207.973 109.55 207.973 109.82C207.973 110.08 208.058 110.315 208.228 110.525C208.398 110.745 208.638 110.93 208.948 111.08C209.258 111.24 209.633 111.36 210.073 111.44C210.523 111.53 211.023 111.575 211.573 111.575C212.693 111.575 213.578 111.41 214.228 111.08C214.878 110.76 215.203 110.34 215.203 109.82C215.203 109.28 214.878 108.85 214.228 108.53C213.578 108.2 212.693 108.035 211.573 108.035ZM205.438 100.175V99.305H212.773V100.175H209.593V100.865C209.593 101.375 209.683 101.855 209.863 102.305C210.053 102.755 210.303 103.175 210.613 103.565C210.933 103.945 211.298 104.29 211.708 104.6C212.128 104.91 212.573 105.18 213.043 105.41L212.473 106.07C212.193 105.95 211.888 105.775 211.558 105.545C211.228 105.315 210.908 105.05 210.598 104.75C210.288 104.45 209.998 104.125 209.728 103.775C209.468 103.415 209.268 103.05 209.128 102.68C208.978 103.06 208.778 103.425 208.528 103.775C208.288 104.125 208.013 104.46 207.703 104.78C207.403 105.09 207.073 105.375 206.713 105.635C206.363 105.895 206.003 106.12 205.633 106.31L205.033 105.635C205.553 105.385 206.033 105.09 206.473 104.75C206.913 104.4 207.288 104.02 207.598 103.61C207.918 103.2 208.163 102.765 208.333 102.305C208.513 101.835 208.603 101.355 208.603 100.865V100.175H205.438ZM215.068 102.905H212.173V102.05H215.068V98.495H216.058V106.94H215.068V102.905ZM220.024 99.335H221.014V101.87H228.094V99.32H229.084V106.31H225.049V109.325H231.019V110.195H218.104V109.325H224.059V106.31H220.024V99.335ZM221.014 102.755V105.425H228.094V102.755H221.014ZM241.045 112.415H240.055V107.195H236.08V112.415H235.105V107.195H231.625V106.295H244.525V107.195H241.045V112.415ZM238.075 98.93C238.885 98.93 239.585 99.005 240.175 99.155C240.775 99.295 241.27 99.495 241.66 99.755C242.05 100.005 242.34 100.305 242.53 100.655C242.72 101.005 242.815 101.38 242.815 101.78C242.815 102.19 242.72 102.57 242.53 102.92C242.34 103.26 242.05 103.56 241.66 103.82C241.27 104.07 240.775 104.27 240.175 104.42C239.585 104.56 238.885 104.63 238.075 104.63C237.275 104.63 236.575 104.56 235.975 104.42C235.385 104.27 234.89 104.07 234.49 103.82C234.1 103.56 233.805 103.26 233.605 102.92C233.415 102.57 233.32 102.19 233.32 101.78C233.32 101.38 233.415 101.005 233.605 100.655C233.805 100.305 234.1 100.005 234.49 99.755C234.89 99.495 235.385 99.295 235.975 99.155C236.575 99.005 237.275 98.93 238.075 98.93ZM238.075 99.8C237.435 99.8 236.88 99.85 236.41 99.95C235.94 100.05 235.55 100.19 235.24 100.37C234.93 100.55 234.7 100.76 234.55 101C234.4 101.24 234.325 101.5 234.325 101.78C234.325 102.06 234.4 102.32 234.55 102.56C234.7 102.8 234.93 103.01 235.24 103.19C235.55 103.36 235.94 103.495 236.41 103.595C236.88 103.695 237.435 103.745 238.075 103.745C238.715 103.745 239.27 103.695 239.74 103.595C240.21 103.495 240.595 103.36 240.895 103.19C241.205 103.01 241.435 102.8 241.585 102.56C241.735 102.32 241.81 102.06 241.81 101.78C241.81 101.5 241.735 101.24 241.585 101C241.435 100.76 241.205 100.55 240.895 100.37C240.595 100.19 240.21 100.05 239.74 99.95C239.27 99.85 238.715 99.8 238.075 99.8ZM246.946 109.22H255.286V107.96H246.946V107.165H251.071V105.83H245.131V104.99H258.031V105.83H252.076V107.165H256.201V109.985H247.876V111.41H256.441V112.19H246.946V109.22ZM256.546 104.255C255.546 104.075 254.631 103.81 253.801 103.46C252.981 103.11 252.241 102.6 251.581 101.93C251.021 102.54 250.336 103.03 249.526 103.4C248.716 103.77 247.736 104.055 246.586 104.255L246.091 103.475C246.641 103.425 247.186 103.325 247.726 103.175C248.276 103.015 248.771 102.825 249.211 102.605C249.661 102.385 250.041 102.15 250.351 101.9C250.661 101.64 250.861 101.385 250.951 101.135H246.706V100.325H256.456V101.135H252.181C252.271 101.375 252.461 101.62 252.751 101.87C253.051 102.12 253.421 102.355 253.861 102.575C254.301 102.785 254.796 102.975 255.346 103.145C255.896 103.305 256.471 103.415 257.071 103.475L256.546 104.255ZM249.181 98.63H253.981V99.455H249.181V98.63ZM262.552 112.67C262.072 112.04 261.667 111.42 261.337 110.81C261.007 110.21 260.742 109.615 260.542 109.025C260.342 108.435 260.197 107.85 260.107 107.27C260.017 106.68 259.972 106.085 259.972 105.485C259.972 104.885 260.017 104.29 260.107 103.7C260.197 103.1 260.342 102.505 260.542 101.915C260.752 101.315 261.022 100.72 261.352 100.13C261.682 99.53 262.082 98.92 262.552 98.3H263.182C262.782 98.95 262.437 99.57 262.147 100.16C261.857 100.75 261.617 101.335 261.427 101.915C261.247 102.485 261.112 103.065 261.022 103.655C260.942 104.235 260.902 104.845 260.902 105.485C260.902 106.125 260.942 106.74 261.022 107.33C261.112 107.91 261.247 108.49 261.427 109.07C261.617 109.64 261.857 110.22 262.147 110.81C262.437 111.4 262.782 112.02 263.182 112.67H262.552ZM267.78 110.705H266.79V100.7L264.855 102.41L264.27 101.78L266.895 99.515H267.78V110.705ZM276.594 110.705H269.829V109.745L269.814 109.76L273.414 105.83C273.784 105.42 274.094 105.06 274.344 104.75C274.594 104.43 274.789 104.14 274.929 103.88C275.079 103.62 275.184 103.37 275.244 103.13C275.304 102.88 275.334 102.615 275.334 102.335C275.334 101.995 275.259 101.695 275.109 101.435C274.959 101.165 274.764 100.94 274.524 100.76C274.294 100.58 274.034 100.445 273.744 100.355C273.454 100.265 273.164 100.22 272.874 100.22C272.444 100.22 272.034 100.3 271.644 100.46C271.264 100.62 270.834 100.875 270.354 101.225L270.084 100.37C270.564 100.03 271.044 99.78 271.524 99.62C272.004 99.45 272.454 99.365 272.874 99.365C273.324 99.365 273.754 99.43 274.164 99.56C274.584 99.68 274.949 99.865 275.259 100.115C275.579 100.365 275.834 100.675 276.024 101.045C276.214 101.415 276.309 101.845 276.309 102.335C276.309 102.655 276.274 102.96 276.204 103.25C276.134 103.54 276.014 103.84 275.844 104.15C275.684 104.46 275.469 104.79 275.199 105.14C274.929 105.49 274.594 105.885 274.194 106.325L270.999 109.85H276.594V110.705ZM281.451 99.365C282.631 99.365 283.536 99.845 284.166 100.805C284.796 101.765 285.111 103.19 285.111 105.08C285.111 106.97 284.796 108.405 284.166 109.385C283.536 110.365 282.631 110.855 281.451 110.855C280.261 110.855 279.351 110.365 278.721 109.385C278.091 108.405 277.776 106.97 277.776 105.08C277.776 103.19 278.086 101.765 278.706 100.805C279.336 99.845 280.251 99.365 281.451 99.365ZM281.451 100.22C280.911 100.22 280.466 100.375 280.116 100.685C279.766 100.995 279.486 101.39 279.276 101.87C279.066 102.35 278.921 102.875 278.841 103.445C278.761 104.015 278.721 104.56 278.721 105.08C278.721 105.61 278.761 106.165 278.841 106.745C278.921 107.315 279.066 107.845 279.276 108.335C279.486 108.815 279.766 109.215 280.116 109.535C280.466 109.845 280.911 110 281.451 110C281.991 110 282.436 109.84 282.786 109.52C283.136 109.2 283.411 108.8 283.611 108.32C283.821 107.83 283.966 107.295 284.046 106.715C284.126 106.135 284.166 105.59 284.166 105.08C284.166 104.57 284.126 104.03 284.046 103.46C283.966 102.89 283.821 102.365 283.611 101.885C283.411 101.405 283.136 101.01 282.786 100.7C282.436 100.38 281.991 100.22 281.451 100.22ZM296.905 108.815H295.915V98.495H296.905V102.725H299.2V103.58H296.905V108.815ZM286.915 99.44H293.08V106.13H286.915V99.44ZM287.905 100.325V105.26H292.09V100.325H287.905ZM288.385 107.78H289.36V111.185H297.445V112.055H288.385V107.78ZM309.961 104.06H306.676V103.19H309.961V98.495H310.951V108.83H309.961V104.06ZM302.386 107.75H303.376V111.17H311.341V112.055H302.386V107.75ZM300.016 106.355C300.726 106.095 301.391 105.775 302.011 105.395C302.631 105.005 303.186 104.56 303.676 104.06C304.176 103.55 304.596 102.99 304.936 102.38C305.286 101.76 305.541 101.09 305.701 100.37H300.631V99.485H306.811C306.691 100.485 306.456 101.375 306.106 102.155C305.756 102.935 305.311 103.635 304.771 104.255C304.231 104.865 303.606 105.405 302.896 105.875C302.196 106.345 301.431 106.765 300.601 107.135L300.016 106.355ZM313.162 112.67C313.562 112.02 313.907 111.4 314.197 110.81C314.487 110.22 314.722 109.64 314.902 109.07C315.092 108.49 315.227 107.91 315.307 107.33C315.397 106.74 315.442 106.125 315.442 105.485C315.442 104.845 315.397 104.235 315.307 103.655C315.227 103.065 315.092 102.485 314.902 101.915C314.722 101.335 314.487 100.75 314.197 100.16C313.907 99.57 313.562 98.95 313.162 98.3H313.792C314.732 99.53 315.397 100.735 315.787 101.915C316.177 103.085 316.372 104.275 316.372 105.485C316.372 106.085 316.327 106.68 316.237 107.27C316.147 107.85 316.002 108.435 315.802 109.025C315.602 109.615 315.337 110.21 315.007 110.81C314.677 111.42 314.272 112.04 313.792 112.67H313.162Z" fill="#222222"/>
<path d="M14.205 131.335H15.195V133.87H22.275V131.32H23.265V138.31H19.23V141.325H25.2V142.195H12.285V141.325H18.24V138.31H14.205V131.335ZM15.195 134.755V137.425H22.275V134.755H15.195ZM35.9609 138.835H34.9709V130.495H35.9609V134.05H38.2559V134.935H35.9609V138.835ZM31.7009 139.075C32.3109 139.075 32.8859 139.125 33.4259 139.225C33.9759 139.325 34.4559 139.485 34.8659 139.705C35.2759 139.915 35.5959 140.19 35.8259 140.53C36.0659 140.86 36.1859 141.26 36.1859 141.73C36.1859 142.21 36.0659 142.62 35.8259 142.96C35.5959 143.31 35.2759 143.59 34.8659 143.8C34.4559 144.02 33.9759 144.18 33.4259 144.28C32.8859 144.38 32.3109 144.43 31.7009 144.43C31.1009 144.43 30.5309 144.38 29.9909 144.28C29.4509 144.18 28.9759 144.02 28.5659 143.8C28.1559 143.59 27.8309 143.31 27.5909 142.96C27.3509 142.62 27.2309 142.21 27.2309 141.73C27.2309 141.26 27.3509 140.86 27.5909 140.53C27.8309 140.19 28.1509 139.915 28.5509 139.705C28.9609 139.485 29.4359 139.325 29.9759 139.225C30.5159 139.125 31.0909 139.075 31.7009 139.075ZM31.7009 139.9C31.1809 139.9 30.7059 139.945 30.2759 140.035C29.8459 140.115 29.4759 140.235 29.1659 140.395C28.8659 140.545 28.6309 140.735 28.4609 140.965C28.2909 141.195 28.2059 141.45 28.2059 141.73C28.2059 142.02 28.2909 142.28 28.4609 142.51C28.6309 142.74 28.8659 142.935 29.1659 143.095C29.4759 143.255 29.8459 143.375 30.2759 143.455C30.7059 143.545 31.1809 143.59 31.7009 143.59C32.2209 143.59 32.6959 143.55 33.1259 143.47C33.5659 143.39 33.9359 143.27 34.2359 143.11C34.5459 142.96 34.7859 142.765 34.9559 142.525C35.1259 142.295 35.2109 142.03 35.2109 141.73C35.2109 141.45 35.1259 141.195 34.9559 140.965C34.7859 140.735 34.5459 140.545 34.2359 140.395C33.9359 140.235 33.5659 140.115 33.1259 140.035C32.6959 139.945 32.2209 139.9 31.7009 139.9ZM32.5709 137.935C32.1909 137.725 31.8309 137.485 31.4909 137.215C31.1509 136.935 30.8359 136.63 30.5459 136.3C30.2659 135.97 30.0159 135.625 29.7959 135.265C29.5759 134.905 29.4009 134.54 29.2709 134.17C29.1309 134.58 28.9409 134.98 28.7009 135.37C28.4709 135.76 28.2059 136.13 27.9059 136.48C27.6059 136.82 27.2759 137.135 26.9159 137.425C26.5659 137.705 26.2009 137.95 25.8209 138.16L25.2359 137.5C25.6159 137.29 26.0109 137.02 26.4209 136.69C26.8409 136.36 27.2209 135.97 27.5609 135.52C27.9109 135.07 28.1959 134.555 28.4159 133.975C28.6459 133.395 28.7609 132.745 28.7609 132.025V130.96H29.7509V132.025C29.7509 132.715 29.8659 133.345 30.0959 133.915C30.3259 134.485 30.6109 134.99 30.9509 135.43C31.2909 135.86 31.6609 136.23 32.0609 136.54C32.4609 136.85 32.8309 137.095 33.1709 137.275L32.5709 137.935ZM39.7017 139.15H48.7917V144.13H39.7017V139.15ZM40.7067 139.975V143.29H47.8017V139.975H40.7067ZM37.8117 136.255H47.3367C47.3967 135.975 47.4467 135.645 47.4867 135.265C47.5367 134.875 47.5817 134.48 47.6217 134.08C47.6617 133.68 47.6917 133.3 47.7117 132.94C47.7417 132.58 47.7667 132.28 47.7867 132.04H39.6117V131.17H48.7617C48.7417 131.5 48.7167 131.895 48.6867 132.355C48.6567 132.815 48.6217 133.285 48.5817 133.765C48.5417 134.235 48.4967 134.695 48.4467 135.145C48.4067 135.585 48.3667 135.955 48.3267 136.255H50.7117V137.125H37.8117V136.255ZM61.5326 134.995H59.6126V138.595H58.6676V130.645H59.6126V134.125H61.5326V130.495H62.4776V138.685H61.5326V134.995ZM61.4876 140.29H53.3126V139.405H62.4776V144.415H61.4876V140.29ZM54.1826 131.17C54.6426 131.17 55.0576 131.255 55.4276 131.425C55.8076 131.585 56.1276 131.815 56.3876 132.115C56.6576 132.415 56.8626 132.775 57.0026 133.195C57.1526 133.605 57.2276 134.055 57.2276 134.545C57.2276 135.055 57.1526 135.52 57.0026 135.94C56.8626 136.35 56.6576 136.705 56.3876 137.005C56.1276 137.295 55.8076 137.525 55.4276 137.695C55.0576 137.855 54.6426 137.935 54.1826 137.935C53.7326 137.935 53.3176 137.855 52.9376 137.695C52.5676 137.525 52.2476 137.295 51.9776 137.005C51.7076 136.705 51.4976 136.35 51.3476 135.94C51.1976 135.52 51.1226 135.055 51.1226 134.545C51.1226 134.055 51.1976 133.605 51.3476 133.195C51.4976 132.775 51.7076 132.415 51.9776 132.115C52.2476 131.815 52.5676 131.585 52.9376 131.425C53.3176 131.255 53.7326 131.17 54.1826 131.17ZM54.1826 132.055C53.8526 132.055 53.5626 132.12 53.3126 132.25C53.0626 132.38 52.8476 132.56 52.6676 132.79C52.4976 133.01 52.3676 133.275 52.2776 133.585C52.1876 133.885 52.1426 134.205 52.1426 134.545C52.1426 134.905 52.1876 135.24 52.2776 135.55C52.3676 135.85 52.4976 136.115 52.6676 136.345C52.8476 136.565 53.0626 136.74 53.3126 136.87C53.5626 136.99 53.8526 137.05 54.1826 137.05C54.5126 137.05 54.8026 136.99 55.0526 136.87C55.3126 136.74 55.5276 136.565 55.6976 136.345C55.8676 136.115 55.9976 135.85 56.0876 135.55C56.1776 135.24 56.2226 134.905 56.2226 134.545C56.2226 134.205 56.1776 133.885 56.0876 133.585C55.9976 133.275 55.8676 133.01 55.6976 132.79C55.5276 132.56 55.3126 132.38 55.0526 132.25C54.8026 132.12 54.5126 132.055 54.1826 132.055Z" fill="#222222"/>
<path d="M210.226 142.705H209.236V132.7L207.301 134.41L206.716 133.78L209.341 131.515H210.226V142.705ZM214.885 141.73L213.7 144.85H212.815L213.655 141.73H214.885ZM220.147 131.365C221.327 131.365 222.232 131.845 222.862 132.805C223.492 133.765 223.807 135.19 223.807 137.08C223.807 138.97 223.492 140.405 222.862 141.385C222.232 142.365 221.327 142.855 220.147 142.855C218.957 142.855 218.047 142.365 217.417 141.385C216.787 140.405 216.472 138.97 216.472 137.08C216.472 135.19 216.782 133.765 217.402 132.805C218.032 131.845 218.947 131.365 220.147 131.365ZM220.147 132.22C219.607 132.22 219.162 132.375 218.812 132.685C218.462 132.995 218.182 133.39 217.972 133.87C217.762 134.35 217.617 134.875 217.537 135.445C217.457 136.015 217.417 136.56 217.417 137.08C217.417 137.61 217.457 138.165 217.537 138.745C217.617 139.315 217.762 139.845 217.972 140.335C218.182 140.815 218.462 141.215 218.812 141.535C219.162 141.845 219.607 142 220.147 142C220.687 142 221.132 141.84 221.482 141.52C221.832 141.2 222.107 140.8 222.307 140.32C222.517 139.83 222.662 139.295 222.742 138.715C222.822 138.135 222.862 137.59 222.862 137.08C222.862 136.57 222.822 136.03 222.742 135.46C222.662 134.89 222.517 134.365 222.307 133.885C222.107 133.405 221.832 133.01 221.482 132.7C221.132 132.38 220.687 132.22 220.147 132.22ZM228.701 131.365C229.881 131.365 230.786 131.845 231.416 132.805C232.046 133.765 232.361 135.19 232.361 137.08C232.361 138.97 232.046 140.405 231.416 141.385C230.786 142.365 229.881 142.855 228.701 142.855C227.511 142.855 226.601 142.365 225.971 141.385C225.341 140.405 225.026 138.97 225.026 137.08C225.026 135.19 225.336 133.765 225.956 132.805C226.586 131.845 227.501 131.365 228.701 131.365ZM228.701 132.22C228.161 132.22 227.716 132.375 227.366 132.685C227.016 132.995 226.736 133.39 226.526 133.87C226.316 134.35 226.171 134.875 226.091 135.445C226.011 136.015 225.971 136.56 225.971 137.08C225.971 137.61 226.011 138.165 226.091 138.745C226.171 139.315 226.316 139.845 226.526 140.335C226.736 140.815 227.016 141.215 227.366 141.535C227.716 141.845 228.161 142 228.701 142C229.241 142 229.686 141.84 230.036 141.52C230.386 141.2 230.661 140.8 230.861 140.32C231.071 139.83 231.216 139.295 231.296 138.715C231.376 138.135 231.416 137.59 231.416 137.08C231.416 136.57 231.376 136.03 231.296 135.46C231.216 134.89 231.071 134.365 230.861 133.885C230.661 133.405 230.386 133.01 230.036 132.7C229.686 132.38 229.241 132.22 228.701 132.22ZM237.256 131.365C238.436 131.365 239.341 131.845 239.971 132.805C240.601 133.765 240.916 135.19 240.916 137.08C240.916 138.97 240.601 140.405 239.971 141.385C239.341 142.365 238.436 142.855 237.256 142.855C236.066 142.855 235.156 142.365 234.526 141.385C233.896 140.405 233.581 138.97 233.581 137.08C233.581 135.19 233.891 133.765 234.511 132.805C235.141 131.845 236.056 131.365 237.256 131.365ZM237.256 132.22C236.716 132.22 236.271 132.375 235.921 132.685C235.571 132.995 235.291 133.39 235.081 133.87C234.871 134.35 234.726 134.875 234.646 135.445C234.566 136.015 234.526 136.56 234.526 137.08C234.526 137.61 234.566 138.165 234.646 138.745C234.726 139.315 234.871 139.845 235.081 140.335C235.291 140.815 235.571 141.215 235.921 141.535C236.271 141.845 236.716 142 237.256 142C237.796 142 238.241 141.84 238.591 141.52C238.941 141.2 239.216 140.8 239.416 140.32C239.626 139.83 239.771 139.295 239.851 138.715C239.931 138.135 239.971 137.59 239.971 137.08C239.971 136.57 239.931 136.03 239.851 135.46C239.771 134.89 239.626 134.365 239.416 133.885C239.216 133.405 238.941 133.01 238.591 132.7C238.241 132.38 237.796 132.22 237.256 132.22ZM244.431 141.73L243.246 144.85H242.361L243.201 141.73H244.431ZM249.693 131.365C250.873 131.365 251.778 131.845 252.408 132.805C253.038 133.765 253.353 135.19 253.353 137.08C253.353 138.97 253.038 140.405 252.408 141.385C251.778 142.365 250.873 142.855 249.693 142.855C248.503 142.855 247.593 142.365 246.963 141.385C246.333 140.405 246.018 138.97 246.018 137.08C246.018 135.19 246.328 133.765 246.948 132.805C247.578 131.845 248.493 131.365 249.693 131.365ZM249.693 132.22C249.153 132.22 248.708 132.375 248.358 132.685C248.008 132.995 247.728 133.39 247.518 133.87C247.308 134.35 247.163 134.875 247.083 135.445C247.003 136.015 246.963 136.56 246.963 137.08C246.963 137.61 247.003 138.165 247.083 138.745C247.163 139.315 247.308 139.845 247.518 140.335C247.728 140.815 248.008 141.215 248.358 141.535C248.708 141.845 249.153 142 249.693 142C250.233 142 250.678 141.84 251.028 141.52C251.378 141.2 251.653 140.8 251.853 140.32C252.063 139.83 252.208 139.295 252.288 138.715C252.368 138.135 252.408 137.59 252.408 137.08C252.408 136.57 252.368 136.03 252.288 135.46C252.208 134.89 252.063 134.365 251.853 133.885C251.653 133.405 251.378 133.01 251.028 132.7C250.678 132.38 250.233 132.22 249.693 132.22ZM258.247 131.365C259.427 131.365 260.332 131.845 260.962 132.805C261.592 133.765 261.907 135.19 261.907 137.08C261.907 138.97 261.592 140.405 260.962 141.385C260.332 142.365 259.427 142.855 258.247 142.855C257.057 142.855 256.147 142.365 255.517 141.385C254.887 140.405 254.572 138.97 254.572 137.08C254.572 135.19 254.882 133.765 255.502 132.805C256.132 131.845 257.047 131.365 258.247 131.365ZM258.247 132.22C257.707 132.22 257.262 132.375 256.912 132.685C256.562 132.995 256.282 133.39 256.072 133.87C255.862 134.35 255.717 134.875 255.637 135.445C255.557 136.015 255.517 136.56 255.517 137.08C255.517 137.61 255.557 138.165 255.637 138.745C255.717 139.315 255.862 139.845 256.072 140.335C256.282 140.815 256.562 141.215 256.912 141.535C257.262 141.845 257.707 142 258.247 142C258.787 142 259.232 141.84 259.582 141.52C259.932 141.2 260.207 140.8 260.407 140.32C260.617 139.83 260.762 139.295 260.842 138.715C260.922 138.135 260.962 137.59 260.962 137.08C260.962 136.57 260.922 136.03 260.842 135.46C260.762 134.89 260.617 134.365 260.407 133.885C260.207 133.405 259.932 133.01 259.582 132.7C259.232 132.38 258.787 132.22 258.247 132.22ZM266.802 131.365C267.982 131.365 268.887 131.845 269.517 132.805C270.147 133.765 270.462 135.19 270.462 137.08C270.462 138.97 270.147 140.405 269.517 141.385C268.887 142.365 267.982 142.855 266.802 142.855C265.612 142.855 264.702 142.365 264.072 141.385C263.442 140.405 263.127 138.97 263.127 137.08C263.127 135.19 263.437 133.765 264.057 132.805C264.687 131.845 265.602 131.365 266.802 131.365ZM266.802 132.22C266.262 132.22 265.817 132.375 265.467 132.685C265.117 132.995 264.837 133.39 264.627 133.87C264.417 134.35 264.272 134.875 264.192 135.445C264.112 136.015 264.072 136.56 264.072 137.08C264.072 137.61 264.112 138.165 264.192 138.745C264.272 139.315 264.417 139.845 264.627 140.335C264.837 140.815 265.117 141.215 265.467 141.535C265.817 141.845 266.262 142 266.802 142C267.342 142 267.787 141.84 268.137 141.52C268.487 141.2 268.762 140.8 268.962 140.32C269.172 139.83 269.317 139.295 269.397 138.715C269.477 138.135 269.517 137.59 269.517 137.08C269.517 136.57 269.477 136.03 269.397 135.46C269.317 134.89 269.172 134.365 268.962 133.885C268.762 133.405 268.487 133.01 268.137 132.7C267.787 132.38 267.342 132.22 266.802 132.22ZM273.977 141.73L272.792 144.85H271.907L272.747 141.73H273.977ZM279.239 131.365C280.419 131.365 281.324 131.845 281.954 132.805C282.584 133.765 282.899 135.19 282.899 137.08C282.899 138.97 282.584 140.405 281.954 141.385C281.324 142.365 280.419 142.855 279.239 142.855C278.049 142.855 277.139 142.365 276.509 141.385C275.879 140.405 275.564 138.97 275.564 137.08C275.564 135.19 275.874 133.765 276.494 132.805C277.124 131.845 278.039 131.365 279.239 131.365ZM279.239 132.22C278.699 132.22 278.254 132.375 277.904 132.685C277.554 132.995 277.274 133.39 277.064 133.87C276.854 134.35 276.709 134.875 276.629 135.445C276.549 136.015 276.509 136.56 276.509 137.08C276.509 137.61 276.549 138.165 276.629 138.745C276.709 139.315 276.854 139.845 277.064 140.335C277.274 140.815 277.554 141.215 277.904 141.535C278.254 141.845 278.699 142 279.239 142C279.779 142 280.224 141.84 280.574 141.52C280.924 141.2 281.199 140.8 281.399 140.32C281.609 139.83 281.754 139.295 281.834 138.715C281.914 138.135 281.954 137.59 281.954 137.08C281.954 136.57 281.914 136.03 281.834 135.46C281.754 134.89 281.609 134.365 281.399 133.885C281.199 133.405 280.924 133.01 280.574 132.7C280.224 132.38 279.779 132.22 279.239 132.22ZM287.793 131.365C288.973 131.365 289.878 131.845 290.508 132.805C291.138 133.765 291.453 135.19 291.453 137.08C291.453 138.97 291.138 140.405 290.508 141.385C289.878 142.365 288.973 142.855 287.793 142.855C286.603 142.855 285.693 142.365 285.063 141.385C284.433 140.405 284.118 138.97 284.118 137.08C284.118 135.19 284.428 133.765 285.048 132.805C285.678 131.845 286.593 131.365 287.793 131.365ZM287.793 132.22C287.253 132.22 286.808 132.375 286.458 132.685C286.108 132.995 285.828 133.39 285.618 133.87C285.408 134.35 285.263 134.875 285.183 135.445C285.103 136.015 285.063 136.56 285.063 137.08C285.063 137.61 285.103 138.165 285.183 138.745C285.263 139.315 285.408 139.845 285.618 140.335C285.828 140.815 286.108 141.215 286.458 141.535C286.808 141.845 287.253 142 287.793 142C288.333 142 288.778 141.84 289.128 141.52C289.478 141.2 289.753 140.8 289.953 140.32C290.163 139.83 290.308 139.295 290.388 138.715C290.468 138.135 290.508 137.59 290.508 137.08C290.508 136.57 290.468 136.03 290.388 135.46C290.308 134.89 290.163 134.365 289.953 133.885C289.753 133.405 289.478 133.01 289.128 132.7C288.778 132.38 288.333 132.22 287.793 132.22ZM296.348 131.365C297.528 131.365 298.433 131.845 299.063 132.805C299.693 133.765 300.008 135.19 300.008 137.08C300.008 138.97 299.693 140.405 299.063 141.385C298.433 142.365 297.528 142.855 296.348 142.855C295.158 142.855 294.248 142.365 293.618 141.385C292.988 140.405 292.673 138.97 292.673 137.08C292.673 135.19 292.983 133.765 293.603 132.805C294.233 131.845 295.148 131.365 296.348 131.365ZM296.348 132.22C295.808 132.22 295.363 132.375 295.013 132.685C294.663 132.995 294.383 133.39 294.173 133.87C293.963 134.35 293.818 134.875 293.738 135.445C293.658 136.015 293.618 136.56 293.618 137.08C293.618 137.61 293.658 138.165 293.738 138.745C293.818 139.315 293.963 139.845 294.173 140.335C294.383 140.815 294.663 141.215 295.013 141.535C295.363 141.845 295.808 142 296.348 142C296.888 142 297.333 141.84 297.683 141.52C298.033 141.2 298.308 140.8 298.508 140.32C298.718 139.83 298.863 139.295 298.943 138.715C299.023 138.135 299.063 137.59 299.063 137.08C299.063 136.57 299.023 136.03 298.943 135.46C298.863 134.89 298.718 134.365 298.508 133.885C298.308 133.405 298.033 133.01 297.683 132.7C297.333 132.38 296.888 132.22 296.348 132.22ZM309.564 130.96C310.034 130.96 310.484 131.02 310.914 131.14C311.344 131.25 311.724 131.415 312.054 131.635C312.384 131.855 312.644 132.13 312.834 132.46C313.034 132.78 313.134 133.155 313.134 133.585C313.134 134.025 313.034 134.41 312.834 134.74C312.644 135.06 312.384 135.33 312.054 135.55C311.724 135.77 311.344 135.935 310.914 136.045C310.484 136.155 310.034 136.21 309.564 136.21C309.084 136.21 308.629 136.155 308.199 136.045C307.769 135.935 307.389 135.77 307.059 135.55C306.739 135.33 306.479 135.06 306.279 134.74C306.089 134.41 305.994 134.025 305.994 133.585C305.994 133.155 306.089 132.78 306.279 132.46C306.479 132.13 306.739 131.855 307.059 131.635C307.389 131.415 307.769 131.25 308.199 131.14C308.629 131.02 309.084 130.96 309.564 130.96ZM309.564 131.8C309.234 131.8 308.914 131.84 308.604 131.92C308.294 132 308.019 132.115 307.779 132.265C307.539 132.415 307.349 132.605 307.209 132.835C307.069 133.055 306.999 133.305 306.999 133.585C306.999 133.875 307.069 134.13 307.209 134.35C307.349 134.57 307.534 134.755 307.764 134.905C308.004 135.055 308.279 135.17 308.589 135.25C308.899 135.33 309.224 135.37 309.564 135.37C309.904 135.37 310.229 135.33 310.539 135.25C310.849 135.17 311.119 135.055 311.349 134.905C311.589 134.755 311.779 134.57 311.919 134.35C312.059 134.13 312.129 133.875 312.129 133.585C312.129 133.305 312.059 133.055 311.919 132.835C311.779 132.605 311.589 132.415 311.349 132.265C311.119 132.115 310.849 132 310.539 131.92C310.229 131.84 309.904 131.8 309.564 131.8ZM315.249 139.765H312.144V138.88H315.249V130.495H316.239V141.415H315.249V139.765ZM307.314 140.305H308.334V143.305H316.629V144.19H307.314V140.305ZM309.219 140.545V138.01C308.579 138.05 307.929 138.08 307.269 138.1C306.609 138.12 305.924 138.14 305.214 138.16L305.094 137.245C306.794 137.235 308.389 137.19 309.879 137.11C311.379 137.03 312.819 136.93 314.199 136.81L314.289 137.62C313.639 137.68 312.974 137.74 312.294 137.8C311.614 137.85 310.914 137.9 310.194 137.95V140.545H309.219Z" fill="#222222"/>
</svg>
