<svg width="330" height="163" viewBox="0 0 330 163" fill="none" xmlns="http://www.w3.org/2000/svg">
<rect x="0.5" y="0.5" width="329" height="162" rx="5.5" fill="white"/>
<rect x="0.5" y="0.5" width="329" height="162" rx="5.5" stroke="#E0E0E0"/>
<path d="M23.488 23.424H22.08V28.416H20.448V17.952H22.08V21.904H23.488V17.728H25.12V28.816H23.488V23.424ZM15.28 27.792H16.96V30.8H25.36V32.24H15.28V27.792ZM13.104 21.84H17.216V20.096H13.104V18.64H18.848V23.264H14.752V25.216C15.7227 25.216 16.6453 25.1947 17.52 25.152C18.3947 25.0987 19.1413 25.0293 19.76 24.944L19.904 26.352C19.0507 26.4693 18.0427 26.5547 16.88 26.608C15.728 26.6507 14.4693 26.672 13.104 26.672V21.84ZM36.7263 21.984H33.6862V20.48H36.7263V17.728H38.4383V26.352H36.7263V21.984ZM28.8542 27.008H38.4383V32.416H28.8542V27.008ZM30.5503 28.48V30.976H36.7423V28.48H30.5503ZM34.4062 25.776C33.9903 25.616 33.5849 25.4133 33.1903 25.168C32.8063 24.912 32.4489 24.6347 32.1182 24.336C31.7982 24.0267 31.5156 23.7067 31.2702 23.376C31.0249 23.0453 30.8436 22.72 30.7263 22.4C30.6196 22.72 30.4436 23.0613 30.1982 23.424C29.9529 23.776 29.6596 24.1227 29.3182 24.464C28.9876 24.8053 28.6249 25.1253 28.2302 25.424C27.8356 25.712 27.4302 25.952 27.0142 26.144L26.0542 24.912C26.5556 24.688 27.0356 24.4 27.4942 24.048C27.9636 23.696 28.3742 23.296 28.7262 22.848C29.0783 22.3893 29.3556 21.8827 29.5582 21.328C29.7716 20.7733 29.8783 20.1813 29.8783 19.552V18.176H31.5903V19.552C31.5903 20.1707 31.6809 20.736 31.8623 21.248C32.0436 21.76 32.2943 22.224 32.6143 22.64C32.9449 23.056 33.3396 23.424 33.7983 23.744C34.2569 24.0533 34.7636 24.32 35.3183 24.544L34.4062 25.776ZM43.5325 18.432C44.0232 18.432 44.4712 18.5067 44.8765 18.656C45.2818 18.8053 45.6338 19.0133 45.9325 19.28C46.2312 19.5467 46.4605 19.872 46.6205 20.256C46.7912 20.6293 46.8765 21.04 46.8765 21.488C46.8765 21.9893 46.7805 22.432 46.5885 22.816C46.3965 23.1893 46.1405 23.504 45.8205 23.76C45.5112 24.016 45.1538 24.208 44.7485 24.336C44.3538 24.464 43.9485 24.528 43.5325 24.528C43.1165 24.528 42.7058 24.464 42.3005 24.336C41.8952 24.208 41.5378 24.0213 41.2285 23.776C40.9192 23.52 40.6685 23.2053 40.4765 22.832C40.2845 22.448 40.1885 22 40.1885 21.488C40.1885 21.04 40.2685 20.6293 40.4285 20.256C40.5992 19.872 40.8285 19.5467 41.1165 19.28C41.4152 19.0133 41.7672 18.8053 42.1725 18.656C42.5885 18.5067 43.0418 18.432 43.5325 18.432ZM48.0925 29.184H45.4685V27.744H48.0925V17.952H49.6605V32.16H48.0925V29.184ZM50.7645 17.728H52.3485V32.56H50.7645V17.728ZM39.7085 25.216C40.3058 25.2267 40.9565 25.2267 41.6605 25.216C42.3752 25.2053 43.0845 25.184 43.7885 25.152C44.4925 25.12 45.1592 25.0827 45.7885 25.04C46.4285 24.9973 46.9778 24.944 47.4365 24.88L47.5325 26.256C47.0205 26.32 46.5032 26.3787 45.9805 26.432C45.4685 26.4747 44.9405 26.5173 44.3965 26.56V31.872H42.7805V26.64C41.8525 26.672 40.9085 26.688 39.9485 26.688L39.7085 25.216ZM43.5325 19.872C43.0525 19.872 42.6472 20.0213 42.3165 20.32C41.9965 20.6187 41.8365 21.008 41.8365 21.488C41.8365 21.9787 41.9965 22.3787 42.3165 22.688C42.6472 22.9867 43.0525 23.136 43.5325 23.136C44.0125 23.136 44.4125 22.9867 44.7325 22.688C45.0525 22.3787 45.2125 21.9787 45.2125 21.488C45.2125 21.008 45.0525 20.6187 44.7325 20.32C44.4125 20.0213 44.0125 19.872 43.5325 19.872ZM63.9227 23.136V17.728H65.6347V32.496H63.9227V24.656H61.5227C61.4694 25.3493 61.3414 25.9787 61.1387 26.544C60.9467 27.0987 60.6854 27.5733 60.3547 27.968C60.0347 28.3627 59.6454 28.6667 59.1867 28.88C58.7387 29.0933 58.2427 29.2 57.6987 29.2C57.1014 29.2 56.5627 29.0773 56.0827 28.832C55.6134 28.576 55.2081 28.224 54.8667 27.776C54.5254 27.3173 54.2641 26.768 54.0827 26.128C53.9014 25.4773 53.8107 24.7573 53.8107 23.968C53.8107 23.168 53.9014 22.448 54.0827 21.808C54.2641 21.1573 54.5254 20.6027 54.8667 20.144C55.2081 19.6853 55.6134 19.3333 56.0827 19.088C56.5627 18.8427 57.1014 18.72 57.6987 18.72C58.2427 18.72 58.7334 18.8213 59.1707 19.024C59.6081 19.2267 59.9921 19.52 60.3227 19.904C60.6534 20.288 60.9147 20.752 61.1067 21.296C61.3094 21.84 61.4427 22.4533 61.5067 23.136H63.9227ZM57.6987 20.224C57.0694 20.224 56.5467 20.5387 56.1307 21.168C55.7147 21.7973 55.5067 22.7307 55.5067 23.968C55.5067 25.1947 55.7147 26.1227 56.1307 26.752C56.5467 27.3707 57.0694 27.68 57.6987 27.68C58.3174 27.68 58.8347 27.3707 59.2507 26.752C59.6774 26.1227 59.8907 25.1947 59.8907 23.968C59.8907 23.3493 59.8321 22.8107 59.7147 22.352C59.6081 21.8827 59.4534 21.4933 59.2507 21.184C59.0587 20.864 58.8294 20.624 58.5627 20.464C58.2961 20.304 58.0081 20.224 57.6987 20.224ZM81.8133 26.32H80.1013V17.728H81.8133V21.408H84.0213V22.896H81.8133V26.32ZM70.5493 25.12C71.2853 24.9067 71.9679 24.64 72.5973 24.32C73.2373 23.9893 73.8026 23.6107 74.2933 23.184C74.7839 22.7467 75.1893 22.2667 75.5093 21.744C75.8399 21.2107 76.0693 20.64 76.1973 20.032H71.2373V18.528H78.2292C78.1333 19.6693 77.8879 20.672 77.4933 21.536C77.0986 22.4 76.5973 23.152 75.9893 23.792C75.3919 24.432 74.7093 24.9813 73.9413 25.44C73.1733 25.888 72.3679 26.2613 71.5253 26.56L70.5493 25.12ZM72.5493 26.992H81.8133V32.416H72.5493V26.992ZM74.2453 28.448V30.976H80.1173V28.448H74.2453ZM88.2515 18.304C88.8595 18.304 89.4088 18.4053 89.8995 18.608C90.3902 18.8 90.8062 19.0773 91.1475 19.44H94.5075V17.728H96.2195V26.352H94.5075V24.32H91.2435C90.9022 24.7147 90.4755 25.024 89.9635 25.248C89.4515 25.4613 88.8808 25.568 88.2515 25.568C87.6968 25.568 87.1848 25.4773 86.7155 25.296C86.2568 25.1147 85.8568 24.864 85.5155 24.544C85.1848 24.224 84.9235 23.8453 84.7315 23.408C84.5395 22.96 84.4435 22.4693 84.4435 21.936C84.4435 21.4027 84.5395 20.912 84.7315 20.464C84.9235 20.016 85.1848 19.632 85.5155 19.312C85.8568 18.992 86.2568 18.7467 86.7155 18.576C87.1848 18.3947 87.6968 18.304 88.2515 18.304ZM86.6355 27.008H96.2195V32.416H86.6355V27.008ZM88.3315 28.48V30.976H94.5235V28.48H88.3315ZM88.2515 19.776C87.9422 19.776 87.6542 19.8347 87.3875 19.952C87.1315 20.0587 86.9075 20.208 86.7155 20.4C86.5342 20.592 86.3902 20.8213 86.2835 21.088C86.1768 21.344 86.1235 21.6267 86.1235 21.936C86.1235 22.2453 86.1768 22.5333 86.2835 22.8C86.3902 23.0667 86.5342 23.296 86.7155 23.488C86.9075 23.68 87.1315 23.8347 87.3875 23.952C87.6542 24.0587 87.9422 24.112 88.2515 24.112C88.5715 24.112 88.8595 24.0587 89.1155 23.952C89.3822 23.8347 89.6115 23.68 89.8035 23.488C89.9955 23.2853 90.1395 23.056 90.2355 22.8C90.3422 22.5333 90.3955 22.2453 90.3955 21.936C90.3955 21.6267 90.3422 21.344 90.2355 21.088C90.1395 20.8213 89.9955 20.592 89.8035 20.4C89.6115 20.208 89.3822 20.0587 89.1155 19.952C88.8595 19.8347 88.5715 19.776 88.2515 19.776ZM92.1075 21.936C92.1075 22.1173 92.0915 22.2987 92.0595 22.48C92.0382 22.6507 92.0062 22.816 91.9635 22.976H94.5075V20.8H91.9315C92.0488 21.1733 92.1075 21.552 92.1075 21.936Z" fill="#444444"/>
<line x1="12" y1="46.5" x2="318" y2="46.5" stroke="#E0E0E0"/>
<path d="M25.575 72V72.87H23.205V80.49H22.215V66.495H23.205V72H25.575ZM12.3 76.5C12.89 76.11 13.42 75.67 13.89 75.18C14.37 74.69 14.78 74.16 15.12 73.59C15.46 73.01 15.72 72.39 15.9 71.73C16.08 71.06 16.17 70.355 16.17 69.615V67.455H17.16V69.615C17.16 70.265 17.235 70.905 17.385 71.535C17.545 72.165 17.785 72.77 18.105 73.35C18.425 73.92 18.82 74.46 19.29 74.97C19.77 75.47 20.335 75.925 20.985 76.335L20.325 77.025C19.505 76.425 18.77 75.735 18.12 74.955C17.47 74.165 16.99 73.25 16.68 72.21C16.38 73.25 15.905 74.17 15.255 74.97C14.615 75.77 13.855 76.505 12.975 77.175L12.3 76.5ZM25.0559 77.385H30.1409V72.375H31.1459V77.385H37.9409V78.27H25.0559V77.385ZM36.0059 67.845C35.9959 68.505 35.9659 69.2 35.9159 69.93C35.8659 70.66 35.8059 71.37 35.7359 72.06C35.6759 72.74 35.6059 73.375 35.5259 73.965C35.4459 74.555 35.3659 75.04 35.2859 75.42L34.3559 75.225C34.4459 74.775 34.5309 74.28 34.6109 73.74C34.7009 73.2 34.7759 72.645 34.8359 72.075C34.8959 71.495 34.9409 70.92 34.9709 70.35C35.0109 69.77 35.0309 69.23 35.0309 68.73H26.8109V67.845H36.0059ZM48.7167 73.785H47.7267V66.495H48.7167V69.675H51.0117V70.545H48.7167V73.785ZM40.1967 76.86H47.7267V75.3H40.1967V74.46H48.7167V77.7H41.1717V79.38H48.9417V80.235H40.1967V76.86ZM38.7117 67.02H39.7017V69.195H43.9617V66.96H44.9517V73.05H38.7117V67.02ZM39.7017 70.05V72.18H43.9617V70.05H39.7017ZM61.5326 71.1H59.6126V74.355H58.6676V66.63H59.6126V70.215H61.5326V66.495H62.4776V74.88H61.5326V71.1ZM57.9326 75.15C58.7126 75.15 59.3926 75.215 59.9726 75.345C60.5626 75.475 61.0526 75.66 61.4426 75.9C61.8326 76.13 62.1226 76.405 62.3126 76.725C62.5126 77.045 62.6126 77.4 62.6126 77.79C62.6126 78.17 62.5126 78.52 62.3126 78.84C62.1226 79.16 61.8326 79.435 61.4426 79.665C61.0526 79.905 60.5626 80.09 59.9726 80.22C59.3926 80.36 58.7126 80.43 57.9326 80.43C57.1526 80.43 56.4726 80.36 55.8926 80.22C55.3126 80.09 54.8276 79.905 54.4376 79.665C54.0476 79.435 53.7576 79.16 53.5676 78.84C53.3776 78.52 53.2826 78.17 53.2826 77.79C53.2826 77.4 53.3776 77.045 53.5676 76.725C53.7576 76.405 54.0476 76.13 54.4376 75.9C54.8276 75.66 55.3126 75.475 55.8926 75.345C56.4726 75.215 57.1526 75.15 57.9326 75.15ZM57.9326 75.975C57.3426 75.975 56.8176 76.025 56.3576 76.125C55.8976 76.215 55.5076 76.345 55.1876 76.515C54.8776 76.675 54.6426 76.865 54.4826 77.085C54.3226 77.305 54.2426 77.54 54.2426 77.79C54.2426 78.3 54.5576 78.73 55.1876 79.08C55.8176 79.43 56.7326 79.605 57.9326 79.605C59.1426 79.605 60.0576 79.43 60.6776 79.08C61.2976 78.73 61.6076 78.3 61.6076 77.79C61.6076 77.54 61.5276 77.305 61.3676 77.085C61.2076 76.865 60.9726 76.675 60.6626 76.515C60.3526 76.345 59.9676 76.215 59.5076 76.125C59.0576 76.025 58.5326 75.975 57.9326 75.975ZM57.1376 73.875C56.8676 73.715 56.5876 73.515 56.2976 73.275C56.0176 73.035 55.7526 72.775 55.5026 72.495C55.2526 72.205 55.0276 71.91 54.8276 71.61C54.6376 71.3 54.4976 71 54.4076 70.71C54.2676 71.03 54.0876 71.36 53.8676 71.7C53.6576 72.04 53.4226 72.37 53.1626 72.69C52.9126 73 52.6426 73.29 52.3526 73.56C52.0626 73.83 51.7776 74.05 51.4976 74.22L50.8226 73.59C51.2626 73.31 51.6676 72.99 52.0376 72.63C52.4176 72.26 52.7426 71.86 53.0126 71.43C53.2926 70.99 53.5076 70.52 53.6576 70.02C53.8176 69.52 53.8976 68.99 53.8976 68.43V66.975H54.8876V68.4C54.8876 69.52 55.1476 70.48 55.6676 71.28C56.1876 72.08 56.9026 72.735 57.8126 73.245L57.1376 73.875ZM73.7784 66.495H74.7684V73.65H73.7784V66.495ZM66.1134 76.8H73.7784V75.225H66.1134V74.37H74.7684V77.64H67.1034V79.335H75.1134V80.19H66.1134V76.8ZM67.5684 66.885C68.0484 66.885 68.4934 66.965 68.9034 67.125C69.3234 67.275 69.6834 67.49 69.9834 67.77C70.2934 68.05 70.5334 68.385 70.7034 68.775C70.8834 69.155 70.9734 69.575 70.9734 70.035C70.9734 70.495 70.8834 70.92 70.7034 71.31C70.5334 71.7 70.2934 72.035 69.9834 72.315C69.6834 72.595 69.3234 72.815 68.9034 72.975C68.4934 73.135 68.0484 73.215 67.5684 73.215C67.0784 73.215 66.6234 73.135 66.2034 72.975C65.7934 72.815 65.4384 72.595 65.1384 72.315C64.8384 72.025 64.6034 71.69 64.4334 71.31C64.2634 70.92 64.1784 70.495 64.1784 70.035C64.1784 69.575 64.2634 69.155 64.4334 68.775C64.6134 68.385 64.8534 68.05 65.1534 67.77C65.4534 67.49 65.8084 67.275 66.2184 67.125C66.6384 66.965 67.0884 66.885 67.5684 66.885ZM67.5684 67.755C67.1984 67.755 66.8684 67.815 66.5784 67.935C66.2884 68.055 66.0384 68.22 65.8284 68.43C65.6284 68.64 65.4734 68.885 65.3634 69.165C65.2634 69.435 65.2134 69.725 65.2134 70.035C65.2134 70.345 65.2634 70.64 65.3634 70.92C65.4734 71.2 65.6284 71.445 65.8284 71.655C66.0384 71.865 66.2884 72.035 66.5784 72.165C66.8684 72.285 67.1984 72.345 67.5684 72.345C67.9384 72.345 68.2684 72.285 68.5584 72.165C68.8484 72.035 69.0934 71.865 69.2934 71.655C69.5034 71.445 69.6584 71.2 69.7584 70.92C69.8684 70.64 69.9234 70.345 69.9234 70.035C69.9234 69.725 69.8684 69.43 69.7584 69.15C69.6584 68.87 69.5034 68.63 69.2934 68.43C69.0934 68.22 68.8484 68.055 68.5584 67.935C68.2684 67.815 67.9384 67.755 67.5684 67.755Z" fill="#222222"/>
<path d="M251.765 78.705H245V77.745L244.985 77.76L248.585 73.83C248.955 73.42 249.265 73.06 249.515 72.75C249.765 72.43 249.96 72.14 250.1 71.88C250.25 71.62 250.355 71.37 250.415 71.13C250.475 70.88 250.505 70.615 250.505 70.335C250.505 69.995 250.43 69.695 250.28 69.435C250.13 69.165 249.935 68.94 249.695 68.76C249.465 68.58 249.205 68.445 248.915 68.355C248.625 68.265 248.335 68.22 248.045 68.22C247.615 68.22 247.205 68.3 246.815 68.46C246.435 68.62 246.005 68.875 245.525 69.225L245.255 68.37C245.735 68.03 246.215 67.78 246.695 67.62C247.175 67.45 247.625 67.365 248.045 67.365C248.495 67.365 248.925 67.43 249.335 67.56C249.755 67.68 250.12 67.865 250.43 68.115C250.75 68.365 251.005 68.675 251.195 69.045C251.385 69.415 251.48 69.845 251.48 70.335C251.48 70.655 251.445 70.96 251.375 71.25C251.305 71.54 251.185 71.84 251.015 72.15C250.855 72.46 250.64 72.79 250.37 73.14C250.1 73.49 249.765 73.885 249.365 74.325L246.17 77.85H251.765V78.705ZM256.621 67.365C257.801 67.365 258.706 67.845 259.336 68.805C259.966 69.765 260.281 71.19 260.281 73.08C260.281 74.97 259.966 76.405 259.336 77.385C258.706 78.365 257.801 78.855 256.621 78.855C255.431 78.855 254.521 78.365 253.891 77.385C253.261 76.405 252.946 74.97 252.946 73.08C252.946 71.19 253.256 69.765 253.876 68.805C254.506 67.845 255.421 67.365 256.621 67.365ZM256.621 68.22C256.081 68.22 255.636 68.375 255.286 68.685C254.936 68.995 254.656 69.39 254.446 69.87C254.236 70.35 254.091 70.875 254.011 71.445C253.931 72.015 253.891 72.56 253.891 73.08C253.891 73.61 253.931 74.165 254.011 74.745C254.091 75.315 254.236 75.845 254.446 76.335C254.656 76.815 254.936 77.215 255.286 77.535C255.636 77.845 256.081 78 256.621 78C257.161 78 257.606 77.84 257.956 77.52C258.306 77.2 258.581 76.8 258.781 76.32C258.991 75.83 259.136 75.295 259.216 74.715C259.296 74.135 259.336 73.59 259.336 73.08C259.336 72.57 259.296 72.03 259.216 71.46C259.136 70.89 258.991 70.365 258.781 69.885C258.581 69.405 258.306 69.01 257.956 68.7C257.606 68.38 257.161 68.22 256.621 68.22ZM267.951 78.705H261.186V77.745L261.171 77.76L264.771 73.83C265.141 73.42 265.451 73.06 265.701 72.75C265.951 72.43 266.146 72.14 266.286 71.88C266.436 71.62 266.541 71.37 266.601 71.13C266.661 70.88 266.691 70.615 266.691 70.335C266.691 69.995 266.616 69.695 266.466 69.435C266.316 69.165 266.121 68.94 265.881 68.76C265.651 68.58 265.391 68.445 265.101 68.355C264.811 68.265 264.521 68.22 264.231 68.22C263.801 68.22 263.391 68.3 263.001 68.46C262.621 68.62 262.191 68.875 261.711 69.225L261.441 68.37C261.921 68.03 262.401 67.78 262.881 67.62C263.361 67.45 263.811 67.365 264.231 67.365C264.681 67.365 265.111 67.43 265.521 67.56C265.941 67.68 266.306 67.865 266.616 68.115C266.936 68.365 267.191 68.675 267.381 69.045C267.571 69.415 267.666 69.845 267.666 70.335C267.666 70.655 267.631 70.96 267.561 71.25C267.491 71.54 267.371 71.84 267.201 72.15C267.041 72.46 266.826 72.79 266.556 73.14C266.286 73.49 265.951 73.885 265.551 74.325L262.356 77.85H267.951V78.705ZM270.633 68.385L270.423 72.135C271.063 71.865 271.708 71.73 272.358 71.73C272.878 71.73 273.353 71.815 273.783 71.985C274.213 72.145 274.578 72.38 274.878 72.69C275.188 72.99 275.428 73.355 275.598 73.785C275.768 74.205 275.853 74.675 275.853 75.195C275.853 75.755 275.753 76.26 275.553 76.71C275.353 77.16 275.073 77.545 274.713 77.865C274.353 78.175 273.918 78.415 273.408 78.585C272.908 78.765 272.358 78.855 271.758 78.855C271.268 78.855 270.803 78.795 270.363 78.675C269.923 78.555 269.528 78.395 269.178 78.195V77.235C269.578 77.475 269.993 77.66 270.423 77.79C270.853 77.92 271.298 77.985 271.758 77.985C272.158 77.985 272.543 77.925 272.913 77.805C273.293 77.685 273.628 77.505 273.918 77.265C274.218 77.025 274.453 76.735 274.623 76.395C274.803 76.045 274.893 75.645 274.893 75.195C274.893 74.365 274.638 73.715 274.128 73.245C273.618 72.775 272.863 72.54 271.863 72.54C271.463 72.54 271.058 72.6 270.648 72.72C270.248 72.84 269.853 72.99 269.463 73.17L269.763 67.515H275.253V68.385H270.633ZM279.262 79.485H277.897V78.015H279.262V79.485ZM285.025 67.365C286.205 67.365 287.11 67.845 287.74 68.805C288.37 69.765 288.685 71.19 288.685 73.08C288.685 74.97 288.37 76.405 287.74 77.385C287.11 78.365 286.205 78.855 285.025 78.855C283.835 78.855 282.925 78.365 282.295 77.385C281.665 76.405 281.35 74.97 281.35 73.08C281.35 71.19 281.66 69.765 282.28 68.805C282.91 67.845 283.825 67.365 285.025 67.365ZM285.025 68.22C284.485 68.22 284.04 68.375 283.69 68.685C283.34 68.995 283.06 69.39 282.85 69.87C282.64 70.35 282.495 70.875 282.415 71.445C282.335 72.015 282.295 72.56 282.295 73.08C282.295 73.61 282.335 74.165 282.415 74.745C282.495 75.315 282.64 75.845 282.85 76.335C283.06 76.815 283.34 77.215 283.69 77.535C284.04 77.845 284.485 78 285.025 78C285.565 78 286.01 77.84 286.36 77.52C286.71 77.2 286.985 76.8 287.185 76.32C287.395 75.83 287.54 75.295 287.62 74.715C287.7 74.135 287.74 73.59 287.74 73.08C287.74 72.57 287.7 72.03 287.62 71.46C287.54 70.89 287.395 70.365 287.185 69.885C286.985 69.405 286.71 69.01 286.36 68.7C286.01 68.38 285.565 68.22 285.025 68.22ZM291.404 68.385L291.194 72.135C291.834 71.865 292.479 71.73 293.129 71.73C293.649 71.73 294.124 71.815 294.554 71.985C294.984 72.145 295.349 72.38 295.649 72.69C295.959 72.99 296.199 73.355 296.369 73.785C296.539 74.205 296.624 74.675 296.624 75.195C296.624 75.755 296.524 76.26 296.324 76.71C296.124 77.16 295.844 77.545 295.484 77.865C295.124 78.175 294.689 78.415 294.179 78.585C293.679 78.765 293.129 78.855 292.529 78.855C292.039 78.855 291.574 78.795 291.134 78.675C290.694 78.555 290.299 78.395 289.949 78.195V77.235C290.349 77.475 290.764 77.66 291.194 77.79C291.624 77.92 292.069 77.985 292.529 77.985C292.929 77.985 293.314 77.925 293.684 77.805C294.064 77.685 294.399 77.505 294.689 77.265C294.989 77.025 295.224 76.735 295.394 76.395C295.574 76.045 295.664 75.645 295.664 75.195C295.664 74.365 295.409 73.715 294.899 73.245C294.389 72.775 293.634 72.54 292.634 72.54C292.234 72.54 291.829 72.6 291.419 72.72C291.019 72.84 290.624 72.99 290.234 73.17L290.534 67.515H296.024V68.385H291.404ZM300.034 79.485H298.669V78.015H300.034V79.485ZM305.796 67.365C306.976 67.365 307.881 67.845 308.511 68.805C309.141 69.765 309.456 71.19 309.456 73.08C309.456 74.97 309.141 76.405 308.511 77.385C307.881 78.365 306.976 78.855 305.796 78.855C304.606 78.855 303.696 78.365 303.066 77.385C302.436 76.405 302.121 74.97 302.121 73.08C302.121 71.19 302.431 69.765 303.051 68.805C303.681 67.845 304.596 67.365 305.796 67.365ZM305.796 68.22C305.256 68.22 304.811 68.375 304.461 68.685C304.111 68.995 303.831 69.39 303.621 69.87C303.411 70.35 303.266 70.875 303.186 71.445C303.106 72.015 303.066 72.56 303.066 73.08C303.066 73.61 303.106 74.165 303.186 74.745C303.266 75.315 303.411 75.845 303.621 76.335C303.831 76.815 304.111 77.215 304.461 77.535C304.811 77.845 305.256 78 305.796 78C306.336 78 306.781 77.84 307.131 77.52C307.481 77.2 307.756 76.8 307.956 76.32C308.166 75.83 308.311 75.295 308.391 74.715C308.471 74.135 308.511 73.59 308.511 73.08C308.511 72.57 308.471 72.03 308.391 71.46C308.311 70.89 308.166 70.365 307.956 69.885C307.756 69.405 307.481 69.01 307.131 68.7C306.781 68.38 306.336 68.22 305.796 68.22ZM312.176 68.385L311.966 72.135C312.606 71.865 313.251 71.73 313.901 71.73C314.421 71.73 314.896 71.815 315.326 71.985C315.756 72.145 316.121 72.38 316.421 72.69C316.731 72.99 316.971 73.355 317.141 73.785C317.311 74.205 317.396 74.675 317.396 75.195C317.396 75.755 317.296 76.26 317.096 76.71C316.896 77.16 316.616 77.545 316.256 77.865C315.896 78.175 315.461 78.415 314.951 78.585C314.451 78.765 313.901 78.855 313.301 78.855C312.811 78.855 312.346 78.795 311.906 78.675C311.466 78.555 311.071 78.395 310.721 78.195V77.235C311.121 77.475 311.536 77.66 311.966 77.79C312.396 77.92 312.841 77.985 313.301 77.985C313.701 77.985 314.086 77.925 314.456 77.805C314.836 77.685 315.171 77.505 315.461 77.265C315.761 77.025 315.996 76.735 316.166 76.395C316.346 76.045 316.436 75.645 316.436 75.195C316.436 74.365 316.181 73.715 315.671 73.245C315.161 72.775 314.406 72.54 313.406 72.54C313.006 72.54 312.601 72.6 312.191 72.72C311.791 72.84 311.396 72.99 311.006 73.17L311.306 67.515H316.796V68.385H312.176Z" fill="#222222"/>
<path d="M25.575 104V104.87H23.205V112.49H22.215V98.495H23.205V104H25.575ZM12.3 108.5C12.89 108.11 13.42 107.67 13.89 107.18C14.37 106.69 14.78 106.16 15.12 105.59C15.46 105.01 15.72 104.39 15.9 103.73C16.08 103.06 16.17 102.355 16.17 101.615V99.455H17.16V101.615C17.16 102.265 17.235 102.905 17.385 103.535C17.545 104.165 17.785 104.77 18.105 105.35C18.425 105.92 18.82 106.46 19.29 106.97C19.77 107.47 20.335 107.925 20.985 108.335L20.325 109.025C19.505 108.425 18.77 107.735 18.12 106.955C17.47 106.165 16.99 105.25 16.68 104.21C16.38 105.25 15.905 106.17 15.255 106.97C14.615 107.77 13.855 108.505 12.975 109.175L12.3 108.5ZM25.0559 109.385H30.1409V104.375H31.1459V109.385H37.9409V110.27H25.0559V109.385ZM36.0059 99.845C35.9959 100.505 35.9659 101.2 35.9159 101.93C35.8659 102.66 35.8059 103.37 35.7359 104.06C35.6759 104.74 35.6059 105.375 35.5259 105.965C35.4459 106.555 35.3659 107.04 35.2859 107.42L34.3559 107.225C34.4459 106.775 34.5309 106.28 34.6109 105.74C34.7009 105.2 34.7759 104.645 34.8359 104.075C34.8959 103.495 34.9409 102.92 34.9709 102.35C35.0109 101.77 35.0309 101.23 35.0309 100.73H26.8109V99.845H36.0059ZM38.9817 99.74H39.9867V107.66C40.2967 107.65 40.6617 107.635 41.0817 107.615C41.5117 107.595 41.9567 107.57 42.4167 107.54C42.8767 107.51 43.3317 107.475 43.7817 107.435C44.2317 107.395 44.6367 107.345 44.9967 107.285L45.1017 108.11C44.7117 108.17 44.2767 108.225 43.7967 108.275C43.3167 108.315 42.8117 108.355 42.2817 108.395C41.7517 108.435 41.2067 108.47 40.6467 108.5C40.0867 108.52 39.5317 108.54 38.9817 108.56V99.74ZM48.7767 104.75H46.8567V112.115H45.9117V98.705H46.8567V103.895H48.7767V98.495H49.7217V112.49H48.7767V104.75ZM57.0026 98.78C57.8226 98.78 58.5276 98.84 59.1176 98.96C59.7176 99.08 60.2126 99.25 60.6026 99.47C60.9926 99.69 61.2776 99.96 61.4576 100.28C61.6476 100.59 61.7426 100.935 61.7426 101.315C61.7426 101.805 61.5976 102.235 61.3076 102.605C61.0176 102.975 60.5576 103.265 59.9276 103.475V105.5H63.4526V106.37H50.5676V105.5H54.0776V103.475C53.4476 103.245 52.9876 102.95 52.6976 102.59C52.4076 102.22 52.2626 101.795 52.2626 101.315C52.2626 100.935 52.3526 100.59 52.5326 100.28C52.7226 99.96 53.0126 99.69 53.4026 99.47C53.7926 99.25 54.2826 99.08 54.8726 98.96C55.4726 98.84 56.1826 98.78 57.0026 98.78ZM57.0026 107.57C60.1926 107.57 61.7876 108.38 61.7876 110C61.7876 111.61 60.1926 112.415 57.0026 112.415C53.8126 112.415 52.2176 111.61 52.2176 110C52.2176 108.38 53.8126 107.57 57.0026 107.57ZM57.0026 99.65C55.7626 99.65 54.8326 99.795 54.2126 100.085C53.5926 100.365 53.2826 100.775 53.2826 101.315C53.2826 101.855 53.5926 102.27 54.2126 102.56C54.8326 102.85 55.7626 102.995 57.0026 102.995C58.2426 102.995 59.1726 102.85 59.7926 102.56C60.4226 102.27 60.7376 101.855 60.7376 101.315C60.7376 100.775 60.4226 100.365 59.7926 100.085C59.1726 99.795 58.2426 99.65 57.0026 99.65ZM57.0026 108.41C55.7726 108.41 54.8326 108.555 54.1826 108.845C53.5426 109.135 53.2226 109.52 53.2226 110C53.2226 110.48 53.5426 110.86 54.1826 111.14C54.8326 111.42 55.7726 111.56 57.0026 111.56C58.2426 111.56 59.1826 111.42 59.8226 111.14C60.4626 110.86 60.7826 110.48 60.7826 110C60.7826 109.52 60.4626 109.135 59.8226 108.845C59.1826 108.555 58.2426 108.41 57.0026 108.41ZM58.9376 105.5V103.715C58.4376 103.815 57.7926 103.865 57.0026 103.865C56.2126 103.865 55.5676 103.815 55.0676 103.715V105.5H58.9376Z" fill="#222222"/>
<path d="M206.221 104.06H203.071V103.19H206.221V98.495H207.211V112.49H206.221V104.06ZM195.766 108.5C196.356 108.11 196.886 107.67 197.356 107.18C197.836 106.69 198.246 106.16 198.586 105.59C198.926 105.01 199.186 104.39 199.366 103.73C199.546 103.06 199.636 102.355 199.636 101.615V99.455H200.626V101.615C200.626 102.265 200.701 102.905 200.851 103.535C201.011 104.165 201.251 104.77 201.571 105.35C201.891 105.92 202.286 106.46 202.756 106.97C203.236 107.47 203.801 107.925 204.451 108.335L203.791 109.025C202.971 108.425 202.236 107.735 201.586 106.955C200.936 106.165 200.456 105.25 200.146 104.21C199.846 105.25 199.371 106.17 198.721 106.97C198.081 107.77 197.321 108.505 196.441 109.175L195.766 108.5ZM219.727 98.495H220.717V112.475H219.727V98.495ZM210.412 99.56H211.417V103.16H215.737V99.47H216.712V108.695H210.412V99.56ZM211.417 104.03V107.825H215.737V104.03H211.417ZM222.763 109.22H235.678V110.09H222.763V109.22ZM234.598 105.755C234.028 105.605 233.468 105.405 232.918 105.155C232.368 104.895 231.853 104.6 231.373 104.27C230.903 103.94 230.483 103.585 230.113 103.205C229.743 102.815 229.448 102.42 229.228 102.02C229.008 102.43 228.718 102.83 228.358 103.22C227.998 103.6 227.583 103.95 227.113 104.27C226.653 104.59 226.148 104.88 225.598 105.14C225.058 105.39 224.488 105.595 223.888 105.755L223.348 104.975C224.178 104.775 224.923 104.505 225.583 104.165C226.253 103.815 226.818 103.425 227.278 102.995C227.748 102.555 228.103 102.095 228.343 101.615C228.593 101.125 228.718 100.635 228.718 100.145V99.275H229.753V100.145C229.753 100.635 229.878 101.125 230.128 101.615C230.378 102.105 230.733 102.57 231.193 103.01C231.663 103.44 232.228 103.83 232.888 104.18C233.548 104.52 234.288 104.785 235.108 104.975L234.598 105.755ZM247.11 107.525C248.65 107.585 249.76 107.825 250.44 108.245C251.12 108.665 251.46 109.25 251.46 110C251.46 110.38 251.37 110.72 251.19 111.02C251.01 111.33 250.725 111.59 250.335 111.8C249.945 112.01 249.445 112.17 248.835 112.28C248.225 112.39 247.49 112.445 246.63 112.445C245.77 112.445 245.035 112.39 244.425 112.28C243.815 112.17 243.315 112.01 242.925 111.8C242.535 111.59 242.25 111.33 242.07 111.02C241.89 110.72 241.8 110.38 241.8 110C241.8 109.25 242.14 108.665 242.82 108.245C243.5 107.825 244.605 107.585 246.135 107.525V105.785H240.18V104.915H253.08V105.785H247.11V107.525ZM246.63 108.38C245.97 108.38 245.4 108.42 244.92 108.5C244.45 108.58 244.06 108.695 243.75 108.845C243.44 108.985 243.21 109.155 243.06 109.355C242.91 109.555 242.835 109.77 242.835 110C242.835 110.46 243.14 110.84 243.75 111.14C244.36 111.45 245.32 111.605 246.63 111.605C247.94 111.605 248.895 111.45 249.495 111.14C250.105 110.84 250.41 110.46 250.41 110C250.41 109.54 250.105 109.155 249.495 108.845C248.885 108.535 247.93 108.38 246.63 108.38ZM241.755 99.83V98.975H251.49V99.83H247.185C247.225 100.2 247.4 100.57 247.71 100.94C248.03 101.3 248.42 101.63 248.88 101.93C249.35 102.23 249.87 102.485 250.44 102.695C251.02 102.905 251.595 103.04 252.165 103.1L251.685 103.85C251.145 103.76 250.615 103.62 250.095 103.43C249.585 103.23 249.105 103 248.655 102.74C248.215 102.48 247.82 102.195 247.47 101.885C247.12 101.565 246.835 101.24 246.615 100.91C246.425 101.24 246.155 101.565 245.805 101.885C245.455 102.205 245.05 102.5 244.59 102.77C244.14 103.03 243.655 103.255 243.135 103.445C242.615 103.635 242.085 103.77 241.545 103.85L241.08 103.1C241.66 103.03 242.235 102.895 242.805 102.695C243.385 102.485 243.905 102.23 244.365 101.93C244.835 101.63 245.22 101.3 245.52 100.94C245.82 100.58 245.995 100.21 246.045 99.83H241.755ZM264.591 108.815H263.601V98.495H264.591V102.635H266.736V103.505H264.591V108.815ZM256.191 107.705H257.181V111.17H265.131V112.055H256.191V107.705ZM262.101 105.71C261.601 105.78 261.046 105.84 260.436 105.89C259.836 105.94 259.211 105.98 258.561 106.01C257.921 106.04 257.271 106.06 256.611 106.07C255.961 106.08 255.336 106.085 254.736 106.085V99.47H261.186V100.34H255.711V105.17C256.141 105.17 256.626 105.165 257.166 105.155C257.716 105.135 258.276 105.11 258.846 105.08C259.416 105.05 259.976 105.02 260.526 104.99C261.076 104.95 261.571 104.91 262.011 104.87L262.101 105.71ZM271.107 112.67C270.627 112.04 270.222 111.42 269.892 110.81C269.562 110.21 269.297 109.615 269.097 109.025C268.897 108.435 268.752 107.85 268.662 107.27C268.572 106.68 268.527 106.085 268.527 105.485C268.527 104.885 268.572 104.29 268.662 103.7C268.752 103.1 268.897 102.505 269.097 101.915C269.307 101.315 269.577 100.72 269.907 100.13C270.237 99.53 270.637 98.92 271.107 98.3H271.737C271.337 98.95 270.992 99.57 270.702 100.16C270.412 100.75 270.172 101.335 269.982 101.915C269.802 102.485 269.667 103.065 269.577 103.655C269.497 104.235 269.457 104.845 269.457 105.485C269.457 106.125 269.497 106.74 269.577 107.33C269.667 107.91 269.802 108.49 269.982 109.07C270.172 109.64 270.412 110.22 270.702 110.81C270.992 111.4 271.337 112.02 271.737 112.67H271.107ZM276.335 110.705H275.345V100.7L273.41 102.41L272.825 101.78L275.45 99.515H276.335V110.705ZM285.148 110.705H278.383V109.745L278.368 109.76L281.968 105.83C282.338 105.42 282.648 105.06 282.898 104.75C283.148 104.43 283.343 104.14 283.483 103.88C283.633 103.62 283.738 103.37 283.798 103.13C283.858 102.88 283.888 102.615 283.888 102.335C283.888 101.995 283.813 101.695 283.663 101.435C283.513 101.165 283.318 100.94 283.078 100.76C282.848 100.58 282.588 100.445 282.298 100.355C282.008 100.265 281.718 100.22 281.428 100.22C280.998 100.22 280.588 100.3 280.198 100.46C279.818 100.62 279.388 100.875 278.908 101.225L278.638 100.37C279.118 100.03 279.598 99.78 280.078 99.62C280.558 99.45 281.008 99.365 281.428 99.365C281.878 99.365 282.308 99.43 282.718 99.56C283.138 99.68 283.503 99.865 283.813 100.115C284.133 100.365 284.388 100.675 284.578 101.045C284.768 101.415 284.863 101.845 284.863 102.335C284.863 102.655 284.828 102.96 284.758 103.25C284.688 103.54 284.568 103.84 284.398 104.15C284.238 104.46 284.023 104.79 283.753 105.14C283.483 105.49 283.148 105.885 282.748 106.325L279.553 109.85H285.148V110.705ZM296.455 98.495H297.445V112.475H296.455V98.495ZM286.15 108.5C286.74 108.11 287.27 107.67 287.74 107.18C288.22 106.69 288.63 106.16 288.97 105.59C289.31 105.01 289.57 104.39 289.75 103.73C289.93 103.06 290.02 102.355 290.02 101.615V99.455H291.01V101.615C291.01 102.265 291.085 102.905 291.235 103.535C291.395 104.165 291.635 104.77 291.955 105.35C292.275 105.92 292.67 106.46 293.14 106.97C293.62 107.47 294.185 107.925 294.835 108.335L294.175 109.025C293.355 108.425 292.62 107.735 291.97 106.955C291.32 106.165 290.84 105.25 290.53 104.21C290.23 105.25 289.755 106.17 289.105 106.97C288.465 107.77 287.705 108.505 286.825 109.175L286.15 108.5ZM310.411 108.83H309.421V98.495H310.411V102.92H312.556V103.79H310.411V108.83ZM302.011 107.735H303.001V111.215H310.951V112.085H302.011V107.735ZM299.941 106.295C300.651 106.035 301.316 105.715 301.936 105.335C302.556 104.945 303.111 104.5 303.601 104C304.101 103.49 304.521 102.93 304.861 102.32C305.211 101.7 305.466 101.03 305.626 100.31H300.556V99.425H306.736C306.616 100.425 306.381 101.315 306.031 102.095C305.681 102.875 305.236 103.575 304.696 104.195C304.156 104.805 303.531 105.345 302.821 105.815C302.121 106.285 301.356 106.705 300.526 107.075L299.941 106.295ZM313.162 112.67C313.562 112.02 313.907 111.4 314.197 110.81C314.487 110.22 314.722 109.64 314.902 109.07C315.092 108.49 315.227 107.91 315.307 107.33C315.397 106.74 315.442 106.125 315.442 105.485C315.442 104.845 315.397 104.235 315.307 103.655C315.227 103.065 315.092 102.485 314.902 101.915C314.722 101.335 314.487 100.75 314.197 100.16C313.907 99.57 313.562 98.95 313.162 98.3H313.792C314.732 99.53 315.397 100.735 315.787 101.915C316.177 103.085 316.372 104.275 316.372 105.485C316.372 106.085 316.327 106.68 316.237 107.27C316.147 107.85 316.002 108.435 315.802 109.025C315.602 109.615 315.337 110.21 315.007 110.81C314.677 111.42 314.272 112.04 313.792 112.67H313.162Z" fill="#222222"/>
<path d="M14.205 131.335H15.195V133.87H22.275V131.32H23.265V138.31H19.23V141.325H25.2V142.195H12.285V141.325H18.24V138.31H14.205V131.335ZM15.195 134.755V137.425H22.275V134.755H15.195ZM35.9609 138.835H34.9709V130.495H35.9609V134.05H38.2559V134.935H35.9609V138.835ZM31.7009 139.075C32.3109 139.075 32.8859 139.125 33.4259 139.225C33.9759 139.325 34.4559 139.485 34.8659 139.705C35.2759 139.915 35.5959 140.19 35.8259 140.53C36.0659 140.86 36.1859 141.26 36.1859 141.73C36.1859 142.21 36.0659 142.62 35.8259 142.96C35.5959 143.31 35.2759 143.59 34.8659 143.8C34.4559 144.02 33.9759 144.18 33.4259 144.28C32.8859 144.38 32.3109 144.43 31.7009 144.43C31.1009 144.43 30.5309 144.38 29.9909 144.28C29.4509 144.18 28.9759 144.02 28.5659 143.8C28.1559 143.59 27.8309 143.31 27.5909 142.96C27.3509 142.62 27.2309 142.21 27.2309 141.73C27.2309 141.26 27.3509 140.86 27.5909 140.53C27.8309 140.19 28.1509 139.915 28.5509 139.705C28.9609 139.485 29.4359 139.325 29.9759 139.225C30.5159 139.125 31.0909 139.075 31.7009 139.075ZM31.7009 139.9C31.1809 139.9 30.7059 139.945 30.2759 140.035C29.8459 140.115 29.4759 140.235 29.1659 140.395C28.8659 140.545 28.6309 140.735 28.4609 140.965C28.2909 141.195 28.2059 141.45 28.2059 141.73C28.2059 142.02 28.2909 142.28 28.4609 142.51C28.6309 142.74 28.8659 142.935 29.1659 143.095C29.4759 143.255 29.8459 143.375 30.2759 143.455C30.7059 143.545 31.1809 143.59 31.7009 143.59C32.2209 143.59 32.6959 143.55 33.1259 143.47C33.5659 143.39 33.9359 143.27 34.2359 143.11C34.5459 142.96 34.7859 142.765 34.9559 142.525C35.1259 142.295 35.2109 142.03 35.2109 141.73C35.2109 141.45 35.1259 141.195 34.9559 140.965C34.7859 140.735 34.5459 140.545 34.2359 140.395C33.9359 140.235 33.5659 140.115 33.1259 140.035C32.6959 139.945 32.2209 139.9 31.7009 139.9ZM32.5709 137.935C32.1909 137.725 31.8309 137.485 31.4909 137.215C31.1509 136.935 30.8359 136.63 30.5459 136.3C30.2659 135.97 30.0159 135.625 29.7959 135.265C29.5759 134.905 29.4009 134.54 29.2709 134.17C29.1309 134.58 28.9409 134.98 28.7009 135.37C28.4709 135.76 28.2059 136.13 27.9059 136.48C27.6059 136.82 27.2759 137.135 26.9159 137.425C26.5659 137.705 26.2009 137.95 25.8209 138.16L25.2359 137.5C25.6159 137.29 26.0109 137.02 26.4209 136.69C26.8409 136.36 27.2209 135.97 27.5609 135.52C27.9109 135.07 28.1959 134.555 28.4159 133.975C28.6459 133.395 28.7609 132.745 28.7609 132.025V130.96H29.7509V132.025C29.7509 132.715 29.8659 133.345 30.0959 133.915C30.3259 134.485 30.6109 134.99 30.9509 135.43C31.2909 135.86 31.6609 136.23 32.0609 136.54C32.4609 136.85 32.8309 137.095 33.1709 137.275L32.5709 137.935ZM39.7017 139.15H48.7917V144.13H39.7017V139.15ZM40.7067 139.975V143.29H47.8017V139.975H40.7067ZM37.8117 136.255H47.3367C47.3967 135.975 47.4467 135.645 47.4867 135.265C47.5367 134.875 47.5817 134.48 47.6217 134.08C47.6617 133.68 47.6917 133.3 47.7117 132.94C47.7417 132.58 47.7667 132.28 47.7867 132.04H39.6117V131.17H48.7617C48.7417 131.5 48.7167 131.895 48.6867 132.355C48.6567 132.815 48.6217 133.285 48.5817 133.765C48.5417 134.235 48.4967 134.695 48.4467 135.145C48.4067 135.585 48.3667 135.955 48.3267 136.255H50.7117V137.125H37.8117V136.255ZM61.5326 134.995H59.6126V138.595H58.6676V130.645H59.6126V134.125H61.5326V130.495H62.4776V138.685H61.5326V134.995ZM61.4876 140.29H53.3126V139.405H62.4776V144.415H61.4876V140.29ZM54.1826 131.17C54.6426 131.17 55.0576 131.255 55.4276 131.425C55.8076 131.585 56.1276 131.815 56.3876 132.115C56.6576 132.415 56.8626 132.775 57.0026 133.195C57.1526 133.605 57.2276 134.055 57.2276 134.545C57.2276 135.055 57.1526 135.52 57.0026 135.94C56.8626 136.35 56.6576 136.705 56.3876 137.005C56.1276 137.295 55.8076 137.525 55.4276 137.695C55.0576 137.855 54.6426 137.935 54.1826 137.935C53.7326 137.935 53.3176 137.855 52.9376 137.695C52.5676 137.525 52.2476 137.295 51.9776 137.005C51.7076 136.705 51.4976 136.35 51.3476 135.94C51.1976 135.52 51.1226 135.055 51.1226 134.545C51.1226 134.055 51.1976 133.605 51.3476 133.195C51.4976 132.775 51.7076 132.415 51.9776 132.115C52.2476 131.815 52.5676 131.585 52.9376 131.425C53.3176 131.255 53.7326 131.17 54.1826 131.17ZM54.1826 132.055C53.8526 132.055 53.5626 132.12 53.3126 132.25C53.0626 132.38 52.8476 132.56 52.6676 132.79C52.4976 133.01 52.3676 133.275 52.2776 133.585C52.1876 133.885 52.1426 134.205 52.1426 134.545C52.1426 134.905 52.1876 135.24 52.2776 135.55C52.3676 135.85 52.4976 136.115 52.6676 136.345C52.8476 136.565 53.0626 136.74 53.3126 136.87C53.5626 136.99 53.8526 137.05 54.1826 137.05C54.5126 137.05 54.8026 136.99 55.0526 136.87C55.3126 136.74 55.5276 136.565 55.6976 136.345C55.8676 136.115 55.9976 135.85 56.0876 135.55C56.1776 135.24 56.2226 134.905 56.2226 134.545C56.2226 134.205 56.1776 133.885 56.0876 133.585C55.9976 133.275 55.8676 133.01 55.6976 132.79C55.5276 132.56 55.3126 132.38 55.0526 132.25C54.8026 132.12 54.5126 132.055 54.1826 132.055Z" fill="#222222"/>
<path d="M218.455 132.385L218.245 136.135C218.885 135.865 219.53 135.73 220.18 135.73C220.7 135.73 221.175 135.815 221.605 135.985C222.035 136.145 222.4 136.38 222.7 136.69C223.01 136.99 223.25 137.355 223.42 137.785C223.59 138.205 223.675 138.675 223.675 139.195C223.675 139.755 223.575 140.26 223.375 140.71C223.175 141.16 222.895 141.545 222.535 141.865C222.175 142.175 221.74 142.415 221.23 142.585C220.73 142.765 220.18 142.855 219.58 142.855C219.09 142.855 218.625 142.795 218.185 142.675C217.745 142.555 217.35 142.395 217 142.195V141.235C217.4 141.475 217.815 141.66 218.245 141.79C218.675 141.92 219.12 141.985 219.58 141.985C219.98 141.985 220.365 141.925 220.735 141.805C221.115 141.685 221.45 141.505 221.74 141.265C222.04 141.025 222.275 140.735 222.445 140.395C222.625 140.045 222.715 139.645 222.715 139.195C222.715 138.365 222.46 137.715 221.95 137.245C221.44 136.775 220.685 136.54 219.685 136.54C219.285 136.54 218.88 136.6 218.47 136.72C218.07 136.84 217.675 136.99 217.285 137.17L217.585 131.515H223.075V132.385H218.455ZM229.679 136.705C230.049 136.795 230.394 136.94 230.714 137.14C231.034 137.33 231.314 137.56 231.554 137.83C231.794 138.1 231.984 138.405 232.124 138.745C232.264 139.075 232.334 139.42 232.334 139.78C232.334 140.29 232.234 140.74 232.034 141.13C231.834 141.51 231.564 141.825 231.224 142.075C230.884 142.335 230.489 142.53 230.039 142.66C229.599 142.79 229.134 142.855 228.644 142.855C228.154 142.855 227.684 142.79 227.234 142.66C226.784 142.53 226.389 142.335 226.049 142.075C225.709 141.815 225.434 141.495 225.224 141.115C225.024 140.725 224.924 140.28 224.924 139.78C224.924 139.42 224.989 139.075 225.119 138.745C225.249 138.415 225.429 138.115 225.659 137.845C225.899 137.575 226.184 137.34 226.514 137.14C226.854 136.94 227.229 136.795 227.639 136.705C226.879 136.475 226.304 136.125 225.914 135.655C225.524 135.185 225.329 134.67 225.329 134.11C225.329 133.68 225.419 133.295 225.599 132.955C225.779 132.605 226.019 132.315 226.319 132.085C226.619 131.855 226.969 131.68 227.369 131.56C227.769 131.43 228.194 131.365 228.644 131.365C229.084 131.365 229.504 131.43 229.904 131.56C230.304 131.68 230.654 131.855 230.954 132.085C231.264 132.315 231.509 132.605 231.689 132.955C231.869 133.295 231.959 133.68 231.959 134.11C231.959 134.66 231.764 135.175 231.374 135.655C230.994 136.135 230.429 136.485 229.679 136.705ZM228.644 136.345C228.964 136.285 229.269 136.19 229.559 136.06C229.849 135.93 230.099 135.77 230.309 135.58C230.529 135.38 230.699 135.16 230.819 134.92C230.949 134.67 231.014 134.4 231.014 134.11C231.014 133.81 230.954 133.54 230.834 133.3C230.714 133.06 230.549 132.86 230.339 132.7C230.129 132.53 229.879 132.4 229.589 132.31C229.299 132.22 228.984 132.175 228.644 132.175C228.304 132.175 227.989 132.225 227.699 132.325C227.409 132.425 227.159 132.56 226.949 132.73C226.739 132.9 226.574 133.105 226.454 133.345C226.334 133.575 226.274 133.83 226.274 134.11C226.274 134.4 226.344 134.67 226.484 134.92C226.624 135.16 226.804 135.38 227.024 135.58C227.254 135.77 227.509 135.93 227.789 136.06C228.069 136.19 228.354 136.285 228.644 136.345ZM228.659 137.185C228.309 137.265 227.969 137.375 227.639 137.515C227.309 137.655 227.014 137.835 226.754 138.055C226.494 138.265 226.284 138.515 226.124 138.805C225.964 139.095 225.884 139.42 225.884 139.78C225.884 140.09 225.954 140.385 226.094 140.665C226.244 140.935 226.444 141.175 226.694 141.385C226.944 141.585 227.234 141.745 227.564 141.865C227.904 141.985 228.264 142.045 228.644 142.045C229.024 142.045 229.379 141.985 229.709 141.865C230.039 141.745 230.329 141.585 230.579 141.385C230.829 141.175 231.024 140.935 231.164 140.665C231.304 140.385 231.374 140.09 231.374 139.78C231.374 139.42 231.304 139.095 231.164 138.805C231.024 138.515 230.829 138.265 230.579 138.055C230.329 137.835 230.039 137.655 229.709 137.515C229.379 137.375 229.029 137.265 228.659 137.185ZM237.256 131.365C238.436 131.365 239.341 131.845 239.971 132.805C240.601 133.765 240.916 135.19 240.916 137.08C240.916 138.97 240.601 140.405 239.971 141.385C239.341 142.365 238.436 142.855 237.256 142.855C236.066 142.855 235.156 142.365 234.526 141.385C233.896 140.405 233.581 138.97 233.581 137.08C233.581 135.19 233.891 133.765 234.511 132.805C235.141 131.845 236.056 131.365 237.256 131.365ZM237.256 132.22C236.716 132.22 236.271 132.375 235.921 132.685C235.571 132.995 235.291 133.39 235.081 133.87C234.871 134.35 234.726 134.875 234.646 135.445C234.566 136.015 234.526 136.56 234.526 137.08C234.526 137.61 234.566 138.165 234.646 138.745C234.726 139.315 234.871 139.845 235.081 140.335C235.291 140.815 235.571 141.215 235.921 141.535C236.271 141.845 236.716 142 237.256 142C237.796 142 238.241 141.84 238.591 141.52C238.941 141.2 239.216 140.8 239.416 140.32C239.626 139.83 239.771 139.295 239.851 138.715C239.931 138.135 239.971 137.59 239.971 137.08C239.971 136.57 239.931 136.03 239.851 135.46C239.771 134.89 239.626 134.365 239.416 133.885C239.216 133.405 238.941 133.01 238.591 132.7C238.241 132.38 237.796 132.22 237.256 132.22ZM244.431 141.73L243.246 144.85H242.361L243.201 141.73H244.431ZM249.693 131.365C250.873 131.365 251.778 131.845 252.408 132.805C253.038 133.765 253.353 135.19 253.353 137.08C253.353 138.97 253.038 140.405 252.408 141.385C251.778 142.365 250.873 142.855 249.693 142.855C248.503 142.855 247.593 142.365 246.963 141.385C246.333 140.405 246.018 138.97 246.018 137.08C246.018 135.19 246.328 133.765 246.948 132.805C247.578 131.845 248.493 131.365 249.693 131.365ZM249.693 132.22C249.153 132.22 248.708 132.375 248.358 132.685C248.008 132.995 247.728 133.39 247.518 133.87C247.308 134.35 247.163 134.875 247.083 135.445C247.003 136.015 246.963 136.56 246.963 137.08C246.963 137.61 247.003 138.165 247.083 138.745C247.163 139.315 247.308 139.845 247.518 140.335C247.728 140.815 248.008 141.215 248.358 141.535C248.708 141.845 249.153 142 249.693 142C250.233 142 250.678 141.84 251.028 141.52C251.378 141.2 251.653 140.8 251.853 140.32C252.063 139.83 252.208 139.295 252.288 138.715C252.368 138.135 252.408 137.59 252.408 137.08C252.408 136.57 252.368 136.03 252.288 135.46C252.208 134.89 252.063 134.365 251.853 133.885C251.653 133.405 251.378 133.01 251.028 132.7C250.678 132.38 250.233 132.22 249.693 132.22ZM258.247 131.365C259.427 131.365 260.332 131.845 260.962 132.805C261.592 133.765 261.907 135.19 261.907 137.08C261.907 138.97 261.592 140.405 260.962 141.385C260.332 142.365 259.427 142.855 258.247 142.855C257.057 142.855 256.147 142.365 255.517 141.385C254.887 140.405 254.572 138.97 254.572 137.08C254.572 135.19 254.882 133.765 255.502 132.805C256.132 131.845 257.047 131.365 258.247 131.365ZM258.247 132.22C257.707 132.22 257.262 132.375 256.912 132.685C256.562 132.995 256.282 133.39 256.072 133.87C255.862 134.35 255.717 134.875 255.637 135.445C255.557 136.015 255.517 136.56 255.517 137.08C255.517 137.61 255.557 138.165 255.637 138.745C255.717 139.315 255.862 139.845 256.072 140.335C256.282 140.815 256.562 141.215 256.912 141.535C257.262 141.845 257.707 142 258.247 142C258.787 142 259.232 141.84 259.582 141.52C259.932 141.2 260.207 140.8 260.407 140.32C260.617 139.83 260.762 139.295 260.842 138.715C260.922 138.135 260.962 137.59 260.962 137.08C260.962 136.57 260.922 136.03 260.842 135.46C260.762 134.89 260.617 134.365 260.407 133.885C260.207 133.405 259.932 133.01 259.582 132.7C259.232 132.38 258.787 132.22 258.247 132.22ZM266.802 131.365C267.982 131.365 268.887 131.845 269.517 132.805C270.147 133.765 270.462 135.19 270.462 137.08C270.462 138.97 270.147 140.405 269.517 141.385C268.887 142.365 267.982 142.855 266.802 142.855C265.612 142.855 264.702 142.365 264.072 141.385C263.442 140.405 263.127 138.97 263.127 137.08C263.127 135.19 263.437 133.765 264.057 132.805C264.687 131.845 265.602 131.365 266.802 131.365ZM266.802 132.22C266.262 132.22 265.817 132.375 265.467 132.685C265.117 132.995 264.837 133.39 264.627 133.87C264.417 134.35 264.272 134.875 264.192 135.445C264.112 136.015 264.072 136.56 264.072 137.08C264.072 137.61 264.112 138.165 264.192 138.745C264.272 139.315 264.417 139.845 264.627 140.335C264.837 140.815 265.117 141.215 265.467 141.535C265.817 141.845 266.262 142 266.802 142C267.342 142 267.787 141.84 268.137 141.52C268.487 141.2 268.762 140.8 268.962 140.32C269.172 139.83 269.317 139.295 269.397 138.715C269.477 138.135 269.517 137.59 269.517 137.08C269.517 136.57 269.477 136.03 269.397 135.46C269.317 134.89 269.172 134.365 268.962 133.885C268.762 133.405 268.487 133.01 268.137 132.7C267.787 132.38 267.342 132.22 266.802 132.22ZM273.977 141.73L272.792 144.85H271.907L272.747 141.73H273.977ZM279.239 131.365C280.419 131.365 281.324 131.845 281.954 132.805C282.584 133.765 282.899 135.19 282.899 137.08C282.899 138.97 282.584 140.405 281.954 141.385C281.324 142.365 280.419 142.855 279.239 142.855C278.049 142.855 277.139 142.365 276.509 141.385C275.879 140.405 275.564 138.97 275.564 137.08C275.564 135.19 275.874 133.765 276.494 132.805C277.124 131.845 278.039 131.365 279.239 131.365ZM279.239 132.22C278.699 132.22 278.254 132.375 277.904 132.685C277.554 132.995 277.274 133.39 277.064 133.87C276.854 134.35 276.709 134.875 276.629 135.445C276.549 136.015 276.509 136.56 276.509 137.08C276.509 137.61 276.549 138.165 276.629 138.745C276.709 139.315 276.854 139.845 277.064 140.335C277.274 140.815 277.554 141.215 277.904 141.535C278.254 141.845 278.699 142 279.239 142C279.779 142 280.224 141.84 280.574 141.52C280.924 141.2 281.199 140.8 281.399 140.32C281.609 139.83 281.754 139.295 281.834 138.715C281.914 138.135 281.954 137.59 281.954 137.08C281.954 136.57 281.914 136.03 281.834 135.46C281.754 134.89 281.609 134.365 281.399 133.885C281.199 133.405 280.924 133.01 280.574 132.7C280.224 132.38 279.779 132.22 279.239 132.22ZM287.793 131.365C288.973 131.365 289.878 131.845 290.508 132.805C291.138 133.765 291.453 135.19 291.453 137.08C291.453 138.97 291.138 140.405 290.508 141.385C289.878 142.365 288.973 142.855 287.793 142.855C286.603 142.855 285.693 142.365 285.063 141.385C284.433 140.405 284.118 138.97 284.118 137.08C284.118 135.19 284.428 133.765 285.048 132.805C285.678 131.845 286.593 131.365 287.793 131.365ZM287.793 132.22C287.253 132.22 286.808 132.375 286.458 132.685C286.108 132.995 285.828 133.39 285.618 133.87C285.408 134.35 285.263 134.875 285.183 135.445C285.103 136.015 285.063 136.56 285.063 137.08C285.063 137.61 285.103 138.165 285.183 138.745C285.263 139.315 285.408 139.845 285.618 140.335C285.828 140.815 286.108 141.215 286.458 141.535C286.808 141.845 287.253 142 287.793 142C288.333 142 288.778 141.84 289.128 141.52C289.478 141.2 289.753 140.8 289.953 140.32C290.163 139.83 290.308 139.295 290.388 138.715C290.468 138.135 290.508 137.59 290.508 137.08C290.508 136.57 290.468 136.03 290.388 135.46C290.308 134.89 290.163 134.365 289.953 133.885C289.753 133.405 289.478 133.01 289.128 132.7C288.778 132.38 288.333 132.22 287.793 132.22ZM296.348 131.365C297.528 131.365 298.433 131.845 299.063 132.805C299.693 133.765 300.008 135.19 300.008 137.08C300.008 138.97 299.693 140.405 299.063 141.385C298.433 142.365 297.528 142.855 296.348 142.855C295.158 142.855 294.248 142.365 293.618 141.385C292.988 140.405 292.673 138.97 292.673 137.08C292.673 135.19 292.983 133.765 293.603 132.805C294.233 131.845 295.148 131.365 296.348 131.365ZM296.348 132.22C295.808 132.22 295.363 132.375 295.013 132.685C294.663 132.995 294.383 133.39 294.173 133.87C293.963 134.35 293.818 134.875 293.738 135.445C293.658 136.015 293.618 136.56 293.618 137.08C293.618 137.61 293.658 138.165 293.738 138.745C293.818 139.315 293.963 139.845 294.173 140.335C294.383 140.815 294.663 141.215 295.013 141.535C295.363 141.845 295.808 142 296.348 142C296.888 142 297.333 141.84 297.683 141.52C298.033 141.2 298.308 140.8 298.508 140.32C298.718 139.83 298.863 139.295 298.943 138.715C299.023 138.135 299.063 137.59 299.063 137.08C299.063 136.57 299.023 136.03 298.943 135.46C298.863 134.89 298.718 134.365 298.508 133.885C298.308 133.405 298.033 133.01 297.683 132.7C297.333 132.38 296.888 132.22 296.348 132.22ZM309.564 130.96C310.034 130.96 310.484 131.02 310.914 131.14C311.344 131.25 311.724 131.415 312.054 131.635C312.384 131.855 312.644 132.13 312.834 132.46C313.034 132.78 313.134 133.155 313.134 133.585C313.134 134.025 313.034 134.41 312.834 134.74C312.644 135.06 312.384 135.33 312.054 135.55C311.724 135.77 311.344 135.935 310.914 136.045C310.484 136.155 310.034 136.21 309.564 136.21C309.084 136.21 308.629 136.155 308.199 136.045C307.769 135.935 307.389 135.77 307.059 135.55C306.739 135.33 306.479 135.06 306.279 134.74C306.089 134.41 305.994 134.025 305.994 133.585C305.994 133.155 306.089 132.78 306.279 132.46C306.479 132.13 306.739 131.855 307.059 131.635C307.389 131.415 307.769 131.25 308.199 131.14C308.629 131.02 309.084 130.96 309.564 130.96ZM309.564 131.8C309.234 131.8 308.914 131.84 308.604 131.92C308.294 132 308.019 132.115 307.779 132.265C307.539 132.415 307.349 132.605 307.209 132.835C307.069 133.055 306.999 133.305 306.999 133.585C306.999 133.875 307.069 134.13 307.209 134.35C307.349 134.57 307.534 134.755 307.764 134.905C308.004 135.055 308.279 135.17 308.589 135.25C308.899 135.33 309.224 135.37 309.564 135.37C309.904 135.37 310.229 135.33 310.539 135.25C310.849 135.17 311.119 135.055 311.349 134.905C311.589 134.755 311.779 134.57 311.919 134.35C312.059 134.13 312.129 133.875 312.129 133.585C312.129 133.305 312.059 133.055 311.919 132.835C311.779 132.605 311.589 132.415 311.349 132.265C311.119 132.115 310.849 132 310.539 131.92C310.229 131.84 309.904 131.8 309.564 131.8ZM315.249 139.765H312.144V138.88H315.249V130.495H316.239V141.415H315.249V139.765ZM307.314 140.305H308.334V143.305H316.629V144.19H307.314V140.305ZM309.219 140.545V138.01C308.579 138.05 307.929 138.08 307.269 138.1C306.609 138.12 305.924 138.14 305.214 138.16L305.094 137.245C306.794 137.235 308.389 137.19 309.879 137.11C311.379 137.03 312.819 136.93 314.199 136.81L314.289 137.62C313.639 137.68 312.974 137.74 312.294 137.8C311.614 137.85 310.914 137.9 310.194 137.95V140.545H309.219Z" fill="#222222"/>
</svg>
