<svg width="330" height="86" viewBox="0 0 330 86" fill="none" xmlns="http://www.w3.org/2000/svg">
<path d="M1.245 3.335H2.505V5.765H6.3V3.26H7.575V4.685H10.53V2.495H11.835V12.8H10.53V9.05H7.575V10.43H1.245V3.335ZM2.88 11.795H4.17V14.93H12.21V16.07H2.88V11.795ZM2.505 6.905V9.32H6.3V6.905H2.505ZM7.575 5.78V7.955H10.53V5.78H7.575ZM25.5809 13.685C25.5809 14.125 25.4709 14.515 25.2509 14.855C25.0409 15.205 24.7309 15.495 24.3209 15.725C23.9209 15.965 23.4359 16.145 22.8659 16.265C22.2959 16.395 21.6509 16.46 20.9309 16.46C20.2109 16.46 19.5659 16.395 18.9959 16.265C18.4259 16.145 17.9359 15.965 17.5259 15.725C17.1259 15.495 16.8159 15.205 16.5959 14.855C16.3859 14.515 16.2809 14.125 16.2809 13.685C16.2809 13.245 16.3859 12.855 16.5959 12.515C16.8159 12.165 17.1259 11.875 17.5259 11.645C17.9359 11.405 18.4259 11.225 18.9959 11.105C19.5659 10.975 20.2109 10.91 20.9309 10.91C21.6509 10.91 22.2959 10.975 22.8659 11.105C23.4459 11.225 23.9359 11.405 24.3359 11.645C24.7359 11.875 25.0409 12.165 25.2509 12.515C25.4709 12.855 25.5809 13.245 25.5809 13.685ZM25.4909 10.835H24.1859V9.125H21.1259V8.045H24.1859V6.14H21.2609V5.03H24.1859V2.495H25.4909V10.835ZM24.2909 13.685C24.2909 13.215 24.0009 12.82 23.4209 12.5C22.8509 12.18 22.0209 12.02 20.9309 12.02C19.8409 12.02 19.0109 12.18 18.4409 12.5C17.8709 12.81 17.5859 13.205 17.5859 13.685C17.5859 14.165 17.8709 14.56 18.4409 14.87C19.0109 15.19 19.8409 15.35 20.9309 15.35C22.0209 15.35 22.8509 15.19 23.4209 14.87C24.0009 14.55 24.2909 14.155 24.2909 13.685ZM14.3309 9.965C15.0209 9.725 15.6709 9.43 16.2809 9.08C16.8909 8.72 17.4359 8.305 17.9159 7.835C18.3959 7.365 18.8059 6.845 19.1459 6.275C19.4859 5.695 19.7359 5.075 19.8959 4.415H14.9609V3.275H21.3509C21.2409 4.305 21.0059 5.22 20.6459 6.02C20.2859 6.82 19.8259 7.53 19.2659 8.15C18.7159 8.77 18.0809 9.315 17.3609 9.785C16.6509 10.245 15.8859 10.65 15.0659 11L14.3309 9.965ZM41.4382 2.495H42.7432V16.325H41.4382V2.495ZM32.3332 3.56H33.6232V6.95H37.4782V3.455H38.7832V12.8H32.3332V3.56ZM33.6232 8.09V11.66H37.4782V8.09H33.6232ZM54.9591 2.495H56.2491V9.62H54.9591V2.495ZM45.7941 3.035H52.0941V8.96H45.7941V3.035ZM47.0691 4.145V7.85H50.8041V4.145H47.0691ZM47.4741 12.65H54.9591V11.375H47.4741V10.295H56.2491V13.7H48.7341V15.155H56.5941V16.235H47.4741V12.65ZM59.1799 3.335H60.4549V5.72H64.2799V3.245H65.5549V6.215H68.4649V2.495H69.7549V12.74H68.4649V7.37H65.5549V10.355H59.1799V3.335ZM60.8149 11.72H62.1049V14.945H70.1449V16.085H60.8149V11.72ZM60.4549 6.845V9.23H64.2799V6.845H60.4549ZM78.1758 6.575C78.7858 6.575 79.3458 6.625 79.8558 6.725C80.3758 6.825 80.8208 6.98 81.1908 7.19C81.5708 7.4 81.8608 7.66 82.0608 7.97C82.2708 8.28 82.3758 8.645 82.3758 9.065C82.3758 9.455 82.2908 9.795 82.1208 10.085C81.9508 10.375 81.7058 10.625 81.3858 10.835C81.0758 11.035 80.7008 11.195 80.2608 11.315C79.8308 11.435 79.3508 11.51 78.8208 11.54V13.31H84.6108V14.42H71.7408V13.31H77.5308V11.54C76.4408 11.48 75.5708 11.245 74.9208 10.835C74.2808 10.425 73.9608 9.835 73.9608 9.065C73.9608 8.645 74.0608 8.28 74.2608 7.97C74.4608 7.66 74.7458 7.4 75.1158 7.19C75.4858 6.98 75.9308 6.825 76.4508 6.725C76.9708 6.625 77.5458 6.575 78.1758 6.575ZM78.1758 7.625C77.7558 7.625 77.3658 7.65 77.0058 7.7C76.6458 7.75 76.3308 7.835 76.0608 7.955C75.7908 8.065 75.5758 8.215 75.4158 8.405C75.2658 8.585 75.1908 8.805 75.1908 9.065C75.1908 9.335 75.2658 9.565 75.4158 9.755C75.5758 9.935 75.7908 10.085 76.0608 10.205C76.3308 10.315 76.6458 10.4 77.0058 10.46C77.3758 10.51 77.7658 10.535 78.1758 10.535C78.5758 10.535 78.9558 10.51 79.3158 10.46C79.6758 10.4 79.9908 10.315 80.2608 10.205C80.5308 10.085 80.7408 9.935 80.8908 9.755C81.0508 9.565 81.1308 9.335 81.1308 9.065C81.1308 8.805 81.0508 8.585 80.8908 8.405C80.7308 8.215 80.5158 8.065 80.2458 7.955C79.9758 7.835 79.6608 7.75 79.3008 7.7C78.9508 7.65 78.5758 7.625 78.1758 7.625ZM73.0008 4.775H83.3508V5.9H73.0008V4.775ZM75.5358 2.765H80.8158V3.89H75.5358V2.765Z" fill="#222222"/>
<path d="M94.392 9.24L92.056 9.864L93.64 11.752L92.648 12.488L91.24 10.472L89.88 12.488L88.888 11.736L90.408 9.864L88.088 9.24L88.408 8.056L90.744 8.936L90.6 6.568H91.88L91.72 8.936L94.024 8.056L94.392 9.24Z" fill="#E90000"/>
<rect x="0.5" y="32.5" width="329" height="53" rx="11.5" fill="white"/>
<rect x="0.5" y="32.5" width="329" height="53" rx="11.5" stroke="#E0E0E0"/>
<path d="M16.768 51.368C17.3867 51.368 17.9413 51.4853 18.432 51.72C18.9227 51.9547 19.3227 52.2747 19.632 52.68H23.248V50.728H24.624V59.624H23.248V57.24H19.664C19.3547 57.6773 18.9493 58.0133 18.448 58.248C17.9573 58.4827 17.4027 58.6 16.784 58.6C16.24 58.6 15.744 58.5147 15.296 58.344C14.848 58.1627 14.464 57.912 14.144 57.592C13.824 57.272 13.5733 56.8933 13.392 56.456C13.2213 56.008 13.136 55.5173 13.136 54.984C13.136 54.44 13.2213 53.9493 13.392 53.512C13.5733 53.064 13.824 52.6853 14.144 52.376C14.464 52.056 14.848 51.8107 15.296 51.64C15.744 51.4587 16.2347 51.368 16.768 51.368ZM19.84 59.768C20.5973 59.768 21.28 59.832 21.888 59.96C22.496 60.088 23.008 60.2747 23.424 60.52C23.8507 60.7653 24.176 61.0693 24.4 61.432C24.6347 61.7947 24.752 62.2053 24.752 62.664C24.752 63.1333 24.6347 63.544 24.4 63.896C24.176 64.2587 23.8507 64.5627 23.424 64.808C23.008 65.0533 22.496 65.24 21.888 65.368C21.28 65.496 20.5973 65.56 19.84 65.56C19.0827 65.56 18.4 65.496 17.792 65.368C17.184 65.24 16.6667 65.0533 16.24 64.808C15.824 64.5627 15.504 64.2587 15.28 63.896C15.056 63.544 14.944 63.1333 14.944 62.664C14.944 62.2053 15.056 61.7947 15.28 61.432C15.504 61.0693 15.824 60.7653 16.24 60.52C16.6667 60.2747 17.184 60.088 17.792 59.96C18.4 59.832 19.0827 59.768 19.84 59.768ZM19.84 60.936C18.7093 60.936 17.8347 61.096 17.216 61.416C16.608 61.736 16.304 62.152 16.304 62.664C16.304 63.1653 16.608 63.576 17.216 63.896C17.8347 64.2267 18.7093 64.392 19.84 64.392C20.9707 64.392 21.84 64.2267 22.448 63.896C23.0667 63.576 23.376 63.1653 23.376 62.664C23.376 62.152 23.0667 61.736 22.448 61.416C21.84 61.096 20.9707 60.936 19.84 60.936ZM16.768 52.536C16.4053 52.536 16.08 52.6 15.792 52.728C15.5147 52.856 15.2747 53.032 15.072 53.256C14.88 53.48 14.7307 53.7413 14.624 54.04C14.528 54.3387 14.48 54.6533 14.48 54.984C14.48 55.3253 14.528 55.6453 14.624 55.944C14.7307 56.232 14.88 56.488 15.072 56.712C15.2747 56.9253 15.5147 57.096 15.792 57.224C16.08 57.352 16.4107 57.416 16.784 57.416C17.136 57.416 17.4507 57.352 17.728 57.224C18.016 57.096 18.256 56.92 18.448 56.696C18.64 56.472 18.7893 56.216 18.896 55.928C19.0027 55.6293 19.056 55.3147 19.056 54.984C19.056 54.6427 19.0027 54.3227 18.896 54.024C18.7893 53.7253 18.6347 53.4693 18.432 53.256C18.24 53.032 18 52.856 17.712 52.728C17.4347 52.6 17.12 52.536 16.768 52.536ZM20.208 53.848C20.2613 54.0293 20.2987 54.216 20.32 54.408C20.352 54.5893 20.368 54.7813 20.368 54.984C20.368 55.3893 20.32 55.7573 20.224 56.088H23.248V53.848H20.208ZM27.9742 51.256H37.6383V56.568H27.9742V51.256ZM29.3342 52.424V55.368H36.2783V52.424H29.3342ZM33.5103 62.616H32.1502V59.48H25.9422V58.28H39.6703V59.48H33.5103V62.616ZM27.8142 60.712H29.1902V64.088H38.0382V65.288H27.8142V60.712ZM42.4605 62.712L41.1645 65.816H40.0925L40.8925 62.712H42.4605ZM50.4411 60.216H49.0651V58.6H42.8891V57.384H56.6171V58.6H50.4411V60.216ZM55.2411 56.376C54.6865 56.2907 54.1265 56.1467 53.5611 55.944C52.9958 55.7413 52.4625 55.5013 51.9611 55.224C51.4705 54.936 51.0278 54.632 50.6331 54.312C50.2491 53.9813 49.9558 53.6453 49.7531 53.304C49.5398 53.6453 49.2358 53.9867 48.8411 54.328C48.4571 54.6587 48.0198 54.9627 47.5291 55.24C47.0491 55.5173 46.5265 55.7573 45.9611 55.96C45.3958 56.1627 44.8305 56.3013 44.2651 56.376L43.5771 55.272C44.3238 55.1867 45.0278 55.0213 45.6891 54.776C46.3505 54.52 46.9265 54.2213 47.4171 53.88C47.9185 53.528 48.3131 53.1387 48.6011 52.712C48.8891 52.2853 49.0331 51.8533 49.0331 51.416V50.952H50.4571V51.432C50.4571 51.8693 50.6065 52.3013 50.9051 52.728C51.2038 53.1547 51.6038 53.544 52.1051 53.896C52.6171 54.248 53.1985 54.5467 53.8491 54.792C54.5105 55.0373 55.2038 55.1973 55.9291 55.272L55.2411 56.376ZM55.1451 65.432C54.5478 65.336 53.9771 65.192 53.4331 65C52.8891 64.8187 52.3825 64.6 51.9131 64.344C51.4545 64.0987 51.0385 63.8267 50.6651 63.528C50.3025 63.24 49.9985 62.952 49.7531 62.664C49.5078 62.952 49.1985 63.24 48.8251 63.528C48.4518 63.8267 48.0305 64.0987 47.5611 64.344C47.1025 64.6 46.6011 64.8187 46.0571 65C45.5131 65.192 44.9425 65.336 44.3451 65.432L43.6731 64.296C44.3771 64.2107 45.0491 64.056 45.6891 63.832C46.3398 63.6187 46.9105 63.3573 47.4011 63.048C47.9025 62.7493 48.2971 62.4187 48.5851 62.056C48.8838 61.6827 49.0331 61.304 49.0331 60.92V60.728H50.4731V60.904C50.4731 61.288 50.6171 61.6667 50.9051 62.04C51.2038 62.4027 51.5985 62.7387 52.0891 63.048C52.5905 63.3573 53.1611 63.6187 53.8011 63.832C54.4411 64.056 55.1078 64.2107 55.8011 64.296L55.1451 65.432ZM56.4794 61.288C56.9167 61.032 57.3754 60.7013 57.8554 60.296C58.3354 59.88 58.7727 59.3893 59.1674 58.824C59.5727 58.248 59.9034 57.5973 60.1594 56.872C60.4154 56.136 60.5434 55.32 60.5434 54.424V53.256H57.2314V52.04H65.2474V53.256H61.9514V54.424C61.9514 55.2347 62.0474 55.9707 62.2394 56.632C62.4314 57.2827 62.7034 57.88 63.0554 58.424C63.4074 58.968 63.8287 59.464 64.3194 59.912C64.8207 60.36 65.3754 60.776 65.9834 61.16L65.0394 62.136C64.666 61.8907 64.282 61.5973 63.8874 61.256C63.5034 60.9147 63.1407 60.5467 62.7994 60.152C62.458 59.7573 62.1487 59.352 61.8714 58.936C61.594 58.5093 61.3807 58.088 61.2314 57.672C61.082 58.1093 60.8634 58.552 60.5754 59C60.298 59.448 59.9834 59.88 59.6314 60.296C59.2794 60.7013 58.9114 61.08 58.5274 61.432C58.1434 61.7733 57.7754 62.0613 57.4234 62.296L56.4794 61.288ZM68.1754 65.496H66.7834V50.744H68.1754V56.504H70.4314V57.736H68.1754V65.496ZM73.0136 62.712L71.7176 65.816H70.6456L71.4456 62.712H73.0136ZM73.4423 58.216H87.1703V59.368H73.4423V58.216ZM75.3943 51.224H85.2183V52.344H76.7703V53.528H85.0103V54.632H76.7703V55.832H85.5383V56.952H75.3943V51.224ZM83.8263 61.848H75.2503V60.664H85.2343V65.544H83.8263V61.848ZM94.5845 65.576H93.2085V60.168H87.0485V58.952H100.777V60.168H94.5845V65.576ZM99.4965 57.336C98.9312 57.24 98.3605 57.0747 97.7845 56.84C97.2085 56.6053 96.6698 56.328 96.1685 56.008C95.6672 55.688 95.2138 55.3467 94.8085 54.984C94.4138 54.6107 94.1152 54.2427 93.9125 53.88C93.6992 54.2427 93.3952 54.6107 93.0005 54.984C92.6165 55.3573 92.1738 55.704 91.6725 56.024C91.1712 56.3333 90.6325 56.6053 90.0565 56.84C89.4805 57.0747 88.8938 57.24 88.2965 57.336L87.6245 56.2C88.3498 56.1147 89.0432 55.9333 89.7045 55.656C90.3765 55.3787 90.9685 55.0427 91.4805 54.648C91.9925 54.2533 92.4032 53.816 92.7125 53.336C93.0218 52.856 93.1765 52.3707 93.1765 51.88V51.064H94.6165V51.88C94.6165 52.3707 94.7765 52.856 95.0965 53.336C95.4165 53.816 95.8325 54.2533 96.3445 54.648C96.8672 55.0427 97.4592 55.3787 98.1205 55.656C98.7925 55.9333 99.4752 56.1147 100.169 56.2L99.4965 57.336ZM102.687 51.256H112.351V56.568H102.687V51.256ZM104.047 52.424V55.368H110.991V52.424H104.047ZM108.223 62.616H106.863V59.48H100.655V58.28H114.383V59.48H108.223V62.616ZM102.527 60.712H103.903V64.088H112.751V65.288H102.527V60.712ZM114.245 61.288C114.682 61.032 115.141 60.7013 115.621 60.296C116.101 59.88 116.538 59.3893 116.933 58.824C117.338 58.248 117.669 57.5973 117.925 56.872C118.181 56.136 118.309 55.32 118.309 54.424V53.256H114.997V52.04H123.013V53.256H119.717V54.424C119.717 55.2347 119.813 55.9707 120.005 56.632C120.197 57.2827 120.469 57.88 120.821 58.424C121.173 58.968 121.594 59.464 122.085 59.912C122.586 60.36 123.141 60.776 123.749 61.16L122.805 62.136C122.432 61.8907 122.048 61.5973 121.653 61.256C121.269 60.9147 120.906 60.5467 120.565 60.152C120.224 59.7573 119.914 59.352 119.637 58.936C119.36 58.5093 119.146 58.088 118.997 57.672C118.848 58.1093 118.629 58.552 118.341 59C118.064 59.448 117.749 59.88 117.397 60.296C117.045 60.7013 116.677 61.08 116.293 61.432C115.909 61.7733 115.541 62.0613 115.189 62.296L114.245 61.288ZM125.941 65.496H124.549V50.744H125.941V56.504H128.197V57.736H125.941V65.496ZM143.719 58.936C143.143 58.776 142.573 58.5627 142.007 58.296C141.453 58.0187 140.925 57.704 140.423 57.352C139.933 56.9893 139.485 56.5947 139.079 56.168C138.685 55.7413 138.359 55.2933 138.103 54.824C137.858 55.2933 137.533 55.7413 137.127 56.168C136.733 56.584 136.285 56.9733 135.783 57.336C135.282 57.6987 134.749 58.0187 134.183 58.296C133.618 58.5627 133.047 58.776 132.471 58.936L131.735 57.832C132.439 57.6827 133.106 57.4533 133.735 57.144C134.375 56.8347 134.946 56.472 135.447 56.056C135.949 55.64 136.365 55.1867 136.695 54.696C137.026 54.1947 137.239 53.6773 137.335 53.144H132.791V51.944H143.399V53.144H138.839C138.946 53.6773 139.165 54.1947 139.495 54.696C139.837 55.1867 140.253 55.64 140.743 56.056C141.245 56.472 141.81 56.8347 142.439 57.144C143.069 57.4533 143.735 57.6827 144.439 57.832L143.719 58.936ZM131.223 62.088H137.383V58.248H138.759V62.088H144.951V63.304H131.223V62.088ZM156.51 59.336H155.134V50.728H156.51V54.92H158.734V56.136H156.51V59.336ZM147.262 60.04H148.638V61.576H155.134V59.976H156.51V65.384H147.262V60.04ZM148.638 62.68V64.28H155.134V62.68H148.638ZM147.15 50.904H151.902V52.008H147.15V50.904ZM145.182 52.792H153.854V53.896H145.182V52.792ZM149.566 54.456C150.11 54.456 150.6 54.5147 151.038 54.632C151.475 54.7493 151.843 54.92 152.142 55.144C152.451 55.3573 152.686 55.6133 152.846 55.912C153.016 56.2107 153.102 56.536 153.102 56.888C153.102 57.24 153.016 57.5653 152.846 57.864C152.686 58.152 152.451 58.4027 152.142 58.616C151.843 58.8293 151.475 59 151.038 59.128C150.6 59.2453 150.11 59.304 149.566 59.304C149.022 59.304 148.531 59.2453 148.094 59.128C147.656 59 147.283 58.8293 146.974 58.616C146.675 58.4027 146.44 58.152 146.27 57.864C146.11 57.5653 146.03 57.24 146.03 56.888C146.03 56.536 146.11 56.2107 146.27 55.912C146.44 55.6133 146.675 55.3573 146.974 55.144C147.283 54.92 147.656 54.7493 148.094 54.632C148.531 54.5147 149.022 54.456 149.566 54.456ZM149.566 55.544C148.851 55.544 148.302 55.6773 147.918 55.944C147.544 56.2107 147.358 56.5253 147.358 56.888C147.358 57.2507 147.544 57.56 147.918 57.816C148.302 58.072 148.851 58.2 149.566 58.2C150.27 58.2 150.814 58.0773 151.198 57.832C151.582 57.576 151.774 57.2613 151.774 56.888C151.774 56.5147 151.582 56.2 151.198 55.944C150.814 55.6773 150.27 55.544 149.566 55.544ZM167.376 57.336C167.739 57.4213 168.08 57.5547 168.4 57.736C168.731 57.9173 169.019 58.1413 169.264 58.408C169.51 58.664 169.702 58.968 169.84 59.32C169.99 59.672 170.064 60.0613 170.064 60.488C170.064 61.032 169.952 61.5173 169.728 61.944C169.515 62.3707 169.227 62.728 168.864 63.016C168.502 63.304 168.08 63.5227 167.6 63.672C167.12 63.832 166.619 63.912 166.096 63.912C165.574 63.912 165.072 63.832 164.592 63.672C164.112 63.5227 163.686 63.2987 163.312 63C162.95 62.712 162.656 62.3547 162.432 61.928C162.208 61.5013 162.096 61.0213 162.096 60.488C162.096 60.0613 162.171 59.672 162.32 59.32C162.47 58.968 162.672 58.664 162.928 58.408C163.195 58.1413 163.499 57.9173 163.84 57.736C164.192 57.5547 164.566 57.4213 164.96 57.336C164.619 57.2293 164.299 57.0853 164 56.904C163.702 56.7227 163.44 56.5147 163.216 56.28C163.003 56.0347 162.832 55.7733 162.704 55.496C162.587 55.2187 162.528 54.9307 162.528 54.632C162.528 54.1627 162.624 53.7467 162.816 53.384C163.008 53.0107 163.27 52.696 163.6 52.44C163.931 52.184 164.31 51.992 164.736 51.864C165.163 51.7253 165.616 51.656 166.096 51.656C166.576 51.656 167.03 51.7253 167.456 51.864C167.894 51.992 168.278 52.184 168.608 52.44C168.939 52.696 169.2 53.0107 169.392 53.384C169.584 53.7467 169.68 54.1627 169.68 54.632C169.68 54.9307 169.616 55.2187 169.488 55.496C169.371 55.7733 169.206 56.0347 168.992 56.28C168.79 56.5147 168.544 56.7227 168.256 56.904C167.979 57.0853 167.686 57.2293 167.376 57.336ZM166.144 56.856C166.422 56.76 166.694 56.6427 166.96 56.504C167.227 56.3547 167.462 56.1893 167.664 56.008C167.878 55.8267 168.048 55.624 168.176 55.4C168.304 55.1653 168.368 54.9093 168.368 54.632C168.368 54.0667 168.15 53.624 167.712 53.304C167.286 52.9733 166.747 52.808 166.096 52.808C165.776 52.808 165.478 52.856 165.2 52.952C164.923 53.0373 164.683 53.1653 164.48 53.336C164.278 53.496 164.118 53.688 164 53.912C163.894 54.136 163.84 54.376 163.84 54.632C163.84 54.9093 163.899 55.1653 164.016 55.4C164.144 55.624 164.31 55.8267 164.512 56.008C164.726 56.1893 164.971 56.3547 165.248 56.504C165.536 56.6427 165.835 56.76 166.144 56.856ZM166.128 57.864C165.254 58.0773 164.582 58.392 164.112 58.808C163.643 59.224 163.408 59.784 163.408 60.488C163.408 60.7867 163.478 61.0693 163.616 61.336C163.766 61.6027 163.963 61.8427 164.208 62.056C164.454 62.2587 164.736 62.424 165.056 62.552C165.387 62.6693 165.734 62.728 166.096 62.728C166.459 62.728 166.8 62.6693 167.12 62.552C167.451 62.424 167.734 62.2587 167.968 62.056C168.214 61.8427 168.406 61.6027 168.544 61.336C168.683 61.0693 168.752 60.7867 168.752 60.488C168.752 59.784 168.528 59.224 168.08 58.808C167.632 58.392 166.982 58.0773 166.128 57.864ZM170.226 61.288C170.664 61.032 171.122 60.7013 171.602 60.296C172.082 59.88 172.52 59.3893 172.914 58.824C173.32 58.248 173.65 57.5973 173.906 56.872C174.162 56.136 174.29 55.32 174.29 54.424V53.256H170.978V52.04H178.994V53.256H175.698V54.424C175.698 55.2347 175.794 55.9707 175.986 56.632C176.178 57.2827 176.45 57.88 176.802 58.424C177.154 58.968 177.576 59.464 178.066 59.912C178.568 60.36 179.122 60.776 179.73 61.16L178.786 62.136C178.413 61.8907 178.029 61.5973 177.634 61.256C177.25 60.9147 176.888 60.5467 176.546 60.152C176.205 59.7573 175.896 59.352 175.618 58.936C175.341 58.5093 175.128 58.088 174.978 57.672C174.829 58.1093 174.61 58.552 174.322 59C174.045 59.448 173.73 59.88 173.378 60.296C173.026 60.7013 172.658 61.08 172.274 61.432C171.89 61.7733 171.522 62.0613 171.17 62.296L170.226 61.288ZM181.922 65.496H180.53V50.744H181.922V56.504H184.178V57.736H181.922V65.496ZM194.744 50.728H196.136V65.496H194.744V50.728ZM185.096 56.136H190.632V53.16H185.128V51.944H191.992V57.336H186.488V60.856C186.958 60.856 187.496 60.8453 188.104 60.824C188.723 60.8027 189.352 60.776 189.992 60.744C190.643 60.7013 191.283 60.6533 191.912 60.6C192.552 60.5467 193.134 60.488 193.656 60.424L193.784 61.592C193.198 61.6773 192.552 61.7467 191.848 61.8C191.144 61.8533 190.414 61.9013 189.656 61.944C188.91 61.9867 188.147 62.0187 187.368 62.04C186.59 62.0507 185.832 62.056 185.096 62.056V56.136Z" fill="#999999"/>
</svg>
