<svg width="330" height="86" viewBox="0 0 330 86" fill="none" xmlns="http://www.w3.org/2000/svg">
<path d="M10.53 10.37H8.25V9.305H10.53V7.61H8.235V6.545H10.53V2.495H11.835V12.86H10.53V10.37ZM2.355 2.78H6.675V3.86H2.355V2.78ZM0.585 4.745H8.49V5.825H0.585V4.745ZM4.53 6.47C4.98 6.47 5.4 6.53 5.79 6.65C6.19 6.77 6.53 6.94 6.81 7.16C7.1 7.37 7.325 7.635 7.485 7.955C7.655 8.265 7.74 8.615 7.74 9.005C7.74 9.395 7.66 9.75 7.5 10.07C7.34 10.38 7.115 10.645 6.825 10.865C6.545 11.085 6.21 11.255 5.82 11.375C5.44 11.495 5.02 11.555 4.56 11.555C4.1 11.555 3.67 11.495 3.27 11.375C2.87 11.255 2.52 11.085 2.22 10.865C1.92 10.645 1.685 10.38 1.515 10.07C1.345 9.75 1.26 9.395 1.26 9.005C1.26 8.615 1.34 8.265 1.5 7.955C1.67 7.635 1.9 7.37 2.19 7.16C2.49 6.94 2.835 6.77 3.225 6.65C3.625 6.53 4.06 6.47 4.53 6.47ZM4.53 7.535C3.92 7.535 3.43 7.675 3.06 7.955C2.69 8.225 2.505 8.575 2.505 9.005C2.505 9.445 2.69 9.805 3.06 10.085C3.43 10.355 3.92 10.49 4.53 10.49C5.12 10.49 5.595 10.355 5.955 10.085C6.325 9.805 6.51 9.445 6.51 9.005C6.51 8.575 6.33 8.225 5.97 7.955C5.61 7.675 5.13 7.535 4.53 7.535ZM3.03 12.41H4.29V15.035H12.195V16.13H3.03V12.41ZM24.5609 9.005H22.9709V16.025H21.7409V2.705H22.9709V7.865H24.5609V2.495H25.7909V16.4H24.5609V9.005ZM20.2559 13.085C19.9759 12.845 19.7009 12.57 19.4309 12.26C19.1609 11.95 18.9109 11.63 18.6809 11.3C18.4509 10.96 18.2409 10.615 18.0509 10.265C17.8709 9.915 17.7259 9.575 17.6159 9.245C17.4959 9.585 17.3409 9.935 17.1509 10.295C16.9709 10.645 16.7609 11 16.5209 11.36C16.2809 11.71 16.0159 12.05 15.7259 12.38C15.4459 12.7 15.1509 13 14.8409 13.28L13.8959 12.41C14.8659 11.63 15.6209 10.7 16.1609 9.62C16.7009 8.54 16.9709 7.305 16.9709 5.915V4.88H14.6909V3.725H20.5409V4.88H18.2459V5.93C18.2459 7.21 18.4759 8.375 18.9359 9.425C19.3959 10.465 20.1359 11.395 21.1559 12.215L20.2559 13.085ZM41.4382 2.495H42.7432V16.325H41.4382V2.495ZM32.3332 3.56H33.6232V6.95H37.4782V3.455H38.7832V12.8H32.3332V3.56ZM33.6232 8.09V11.66H37.4782V8.09H33.6232ZM54.9591 2.495H56.2491V9.62H54.9591V2.495ZM45.7941 3.035H52.0941V8.96H45.7941V3.035ZM47.0691 4.145V7.85H50.8041V4.145H47.0691ZM47.4741 12.65H54.9591V11.375H47.4741V10.295H56.2491V13.7H48.7341V15.155H56.5941V16.235H47.4741V12.65ZM59.1799 3.335H60.4549V5.72H64.2799V3.245H65.5549V6.215H68.4649V2.495H69.7549V12.74H68.4649V7.37H65.5549V10.355H59.1799V3.335ZM60.8149 11.72H62.1049V14.945H70.1449V16.085H60.8149V11.72ZM60.4549 6.845V9.23H64.2799V6.845H60.4549ZM78.1758 6.575C78.7858 6.575 79.3458 6.625 79.8558 6.725C80.3758 6.825 80.8208 6.98 81.1908 7.19C81.5708 7.4 81.8608 7.66 82.0608 7.97C82.2708 8.28 82.3758 8.645 82.3758 9.065C82.3758 9.455 82.2908 9.795 82.1208 10.085C81.9508 10.375 81.7058 10.625 81.3858 10.835C81.0758 11.035 80.7008 11.195 80.2608 11.315C79.8308 11.435 79.3508 11.51 78.8208 11.54V13.31H84.6108V14.42H71.7408V13.31H77.5308V11.54C76.4408 11.48 75.5708 11.245 74.9208 10.835C74.2808 10.425 73.9608 9.835 73.9608 9.065C73.9608 8.645 74.0608 8.28 74.2608 7.97C74.4608 7.66 74.7458 7.4 75.1158 7.19C75.4858 6.98 75.9308 6.825 76.4508 6.725C76.9708 6.625 77.5458 6.575 78.1758 6.575ZM78.1758 7.625C77.7558 7.625 77.3658 7.65 77.0058 7.7C76.6458 7.75 76.3308 7.835 76.0608 7.955C75.7908 8.065 75.5758 8.215 75.4158 8.405C75.2658 8.585 75.1908 8.805 75.1908 9.065C75.1908 9.335 75.2658 9.565 75.4158 9.755C75.5758 9.935 75.7908 10.085 76.0608 10.205C76.3308 10.315 76.6458 10.4 77.0058 10.46C77.3758 10.51 77.7658 10.535 78.1758 10.535C78.5758 10.535 78.9558 10.51 79.3158 10.46C79.6758 10.4 79.9908 10.315 80.2608 10.205C80.5308 10.085 80.7408 9.935 80.8908 9.755C81.0508 9.565 81.1308 9.335 81.1308 9.065C81.1308 8.805 81.0508 8.585 80.8908 8.405C80.7308 8.215 80.5158 8.065 80.2458 7.955C79.9758 7.835 79.6608 7.75 79.3008 7.7C78.9508 7.65 78.5758 7.625 78.1758 7.625ZM73.0008 4.775H83.3508V5.9H73.0008V4.775ZM75.5358 2.765H80.8158V3.89H75.5358V2.765Z" fill="#222222"/>
<path d="M94.392 9.24L92.056 9.864L93.64 11.752L92.648 12.488L91.24 10.472L89.88 12.488L88.888 11.736L90.408 9.864L88.088 9.24L88.408 8.056L90.744 8.936L90.6 6.568H91.88L91.72 8.936L94.024 8.056L94.392 9.24Z" fill="#E90000"/>
<rect x="0.5" y="32.5" width="329" height="53" rx="11.5" fill="white"/>
<rect x="0.5" y="32.5" width="329" height="53" rx="11.5" stroke="#E0E0E0"/>
<path d="M19.392 57.74L17.056 58.364L18.64 60.252L17.648 60.988L16.24 58.972L14.88 60.988L13.888 60.236L15.408 58.364L13.088 57.74L13.408 56.556L15.744 57.436L15.6 55.068H16.88L16.72 57.436L19.024 56.556L19.392 57.74ZM27.8139 57.74L25.4779 58.364L27.0619 60.252L26.0699 60.988L24.6619 58.972L23.3019 60.988L22.3099 60.236L23.8299 58.364L21.5099 57.74L21.8299 56.556L24.1659 57.436L24.0219 55.068H25.3019L25.1419 57.436L27.4459 56.556L27.8139 57.74ZM36.2358 57.74L33.8998 58.364L35.4838 60.252L34.4918 60.988L33.0838 58.972L31.7238 60.988L30.7318 60.236L32.2518 58.364L29.9318 57.74L30.2518 56.556L32.5878 57.436L32.4438 55.068H33.7238L33.5638 57.436L35.8678 56.556L36.2358 57.74ZM44.6576 57.74L42.3216 58.364L43.9056 60.252L42.9136 60.988L41.5056 58.972L40.1456 60.988L39.1536 60.236L40.6736 58.364L38.3536 57.74L38.6736 56.556L41.0096 57.436L40.8656 55.068H42.1456L41.9856 57.436L44.2896 56.556L44.6576 57.74ZM53.0795 57.74L50.7435 58.364L52.3275 60.252L51.3355 60.988L49.9275 58.972L48.5675 60.988L47.5755 60.236L49.0955 58.364L46.7755 57.74L47.0955 56.556L49.4315 57.436L49.2875 55.068H50.5675L50.4075 57.436L52.7115 56.556L53.0795 57.74Z" fill="#444444"/>
</svg>
