<svg width="330" height="86" viewBox="0 0 330 86" fill="none" xmlns="http://www.w3.org/2000/svg">
<path d="M1.245 3.335H2.505V5.765H6.3V3.26H7.575V4.685H10.53V2.495H11.835V12.8H10.53V9.05H7.575V10.43H1.245V3.335ZM2.88 11.795H4.17V14.93H12.21V16.07H2.88V11.795ZM2.505 6.905V9.32H6.3V6.905H2.505ZM7.575 5.78V7.955H10.53V5.78H7.575ZM25.5809 13.685C25.5809 14.125 25.4709 14.515 25.2509 14.855C25.0409 15.205 24.7309 15.495 24.3209 15.725C23.9209 15.965 23.4359 16.145 22.8659 16.265C22.2959 16.395 21.6509 16.46 20.9309 16.46C20.2109 16.46 19.5659 16.395 18.9959 16.265C18.4259 16.145 17.9359 15.965 17.5259 15.725C17.1259 15.495 16.8159 15.205 16.5959 14.855C16.3859 14.515 16.2809 14.125 16.2809 13.685C16.2809 13.245 16.3859 12.855 16.5959 12.515C16.8159 12.165 17.1259 11.875 17.5259 11.645C17.9359 11.405 18.4259 11.225 18.9959 11.105C19.5659 10.975 20.2109 10.91 20.9309 10.91C21.6509 10.91 22.2959 10.975 22.8659 11.105C23.4459 11.225 23.9359 11.405 24.3359 11.645C24.7359 11.875 25.0409 12.165 25.2509 12.515C25.4709 12.855 25.5809 13.245 25.5809 13.685ZM25.4909 10.835H24.1859V9.125H21.1259V8.045H24.1859V6.14H21.2609V5.03H24.1859V2.495H25.4909V10.835ZM24.2909 13.685C24.2909 13.215 24.0009 12.82 23.4209 12.5C22.8509 12.18 22.0209 12.02 20.9309 12.02C19.8409 12.02 19.0109 12.18 18.4409 12.5C17.8709 12.81 17.5859 13.205 17.5859 13.685C17.5859 14.165 17.8709 14.56 18.4409 14.87C19.0109 15.19 19.8409 15.35 20.9309 15.35C22.0209 15.35 22.8509 15.19 23.4209 14.87C24.0009 14.55 24.2909 14.155 24.2909 13.685ZM14.3309 9.965C15.0209 9.725 15.6709 9.43 16.2809 9.08C16.8909 8.72 17.4359 8.305 17.9159 7.835C18.3959 7.365 18.8059 6.845 19.1459 6.275C19.4859 5.695 19.7359 5.075 19.8959 4.415H14.9609V3.275H21.3509C21.2409 4.305 21.0059 5.22 20.6459 6.02C20.2859 6.82 19.8259 7.53 19.2659 8.15C18.7159 8.77 18.0809 9.315 17.3609 9.785C16.6509 10.245 15.8859 10.65 15.0659 11L14.3309 9.965ZM41.4382 2.495H42.7432V16.325H41.4382V2.495ZM32.3332 3.56H33.6232V6.95H37.4782V3.455H38.7832V12.8H32.3332V3.56ZM33.6232 8.09V11.66H37.4782V8.09H33.6232ZM54.9591 2.495H56.2491V9.62H54.9591V2.495ZM45.7941 3.035H52.0941V8.96H45.7941V3.035ZM47.0691 4.145V7.85H50.8041V4.145H47.0691ZM47.4741 12.65H54.9591V11.375H47.4741V10.295H56.2491V13.7H48.7341V15.155H56.5941V16.235H47.4741V12.65ZM59.1799 3.335H60.4549V5.72H64.2799V3.245H65.5549V6.215H68.4649V2.495H69.7549V12.74H68.4649V7.37H65.5549V10.355H59.1799V3.335ZM60.8149 11.72H62.1049V14.945H70.1449V16.085H60.8149V11.72ZM60.4549 6.845V9.23H64.2799V6.845H60.4549ZM78.1758 6.575C78.7858 6.575 79.3458 6.625 79.8558 6.725C80.3758 6.825 80.8208 6.98 81.1908 7.19C81.5708 7.4 81.8608 7.66 82.0608 7.97C82.2708 8.28 82.3758 8.645 82.3758 9.065C82.3758 9.455 82.2908 9.795 82.1208 10.085C81.9508 10.375 81.7058 10.625 81.3858 10.835C81.0758 11.035 80.7008 11.195 80.2608 11.315C79.8308 11.435 79.3508 11.51 78.8208 11.54V13.31H84.6108V14.42H71.7408V13.31H77.5308V11.54C76.4408 11.48 75.5708 11.245 74.9208 10.835C74.2808 10.425 73.9608 9.835 73.9608 9.065C73.9608 8.645 74.0608 8.28 74.2608 7.97C74.4608 7.66 74.7458 7.4 75.1158 7.19C75.4858 6.98 75.9308 6.825 76.4508 6.725C76.9708 6.625 77.5458 6.575 78.1758 6.575ZM78.1758 7.625C77.7558 7.625 77.3658 7.65 77.0058 7.7C76.6458 7.75 76.3308 7.835 76.0608 7.955C75.7908 8.065 75.5758 8.215 75.4158 8.405C75.2658 8.585 75.1908 8.805 75.1908 9.065C75.1908 9.335 75.2658 9.565 75.4158 9.755C75.5758 9.935 75.7908 10.085 76.0608 10.205C76.3308 10.315 76.6458 10.4 77.0058 10.46C77.3758 10.51 77.7658 10.535 78.1758 10.535C78.5758 10.535 78.9558 10.51 79.3158 10.46C79.6758 10.4 79.9908 10.315 80.2608 10.205C80.5308 10.085 80.7408 9.935 80.8908 9.755C81.0508 9.565 81.1308 9.335 81.1308 9.065C81.1308 8.805 81.0508 8.585 80.8908 8.405C80.7308 8.215 80.5158 8.065 80.2458 7.955C79.9758 7.835 79.6608 7.75 79.3008 7.7C78.9508 7.65 78.5758 7.625 78.1758 7.625ZM73.0008 4.775H83.3508V5.9H73.0008V4.775ZM75.5358 2.765H80.8158V3.89H75.5358V2.765ZM89.3531 10.61C90.5431 10.61 91.7681 10.595 93.0281 10.565V9.515C92.1881 9.435 91.5481 9.225 91.1081 8.885C90.6781 8.545 90.4631 8.125 90.4631 7.625C90.4631 7.065 90.7431 6.605 91.3031 6.245C91.8631 5.875 92.6581 5.69 93.6881 5.69C94.7281 5.69 95.5281 5.875 96.0881 6.245C96.6481 6.615 96.9281 7.085 96.9281 7.655C96.9281 8.165 96.7031 8.59 96.2531 8.93C95.8131 9.26 95.1681 9.46 94.3181 9.53V10.505C94.9681 10.475 95.6131 10.44 96.2531 10.4C96.8931 10.35 97.5281 10.285 98.1581 10.205L98.2631 11.15C96.8031 11.35 95.3581 11.48 93.9281 11.54C92.5081 11.6 91.0431 11.65 89.5331 11.69L89.3531 10.61ZM100.093 11.78H98.8031V2.495H100.093V7.19H102.178V8.33H100.093V11.78ZM98.8031 13.52H91.1231V12.44H100.093V16.46H98.8031V13.52ZM89.7881 4.31H97.5281V5.285H89.7881V4.31ZM93.6881 6.635C93.0281 6.635 92.5231 6.725 92.1731 6.905C91.8331 7.085 91.6631 7.325 91.6631 7.625C91.6631 7.915 91.8331 8.155 92.1731 8.345C92.5231 8.525 93.0281 8.615 93.6881 8.615C94.3581 8.615 94.8631 8.525 95.2031 8.345C95.5531 8.155 95.7281 7.915 95.7281 7.625C95.7281 7.325 95.5531 7.085 95.2031 6.905C94.8631 6.725 94.3581 6.635 93.6881 6.635ZM91.6631 2.63H95.7281V3.62H91.6631V2.63ZM112.864 2.495H114.169V12.815H112.864V2.495ZM105.439 11.69H106.699V14.945H114.529V16.085H105.439V11.69ZM106.939 3.23C107.449 3.23 107.919 3.32 108.349 3.5C108.779 3.67 109.144 3.915 109.444 4.235C109.754 4.545 109.994 4.915 110.164 5.345C110.334 5.775 110.419 6.25 110.419 6.77C110.419 7.28 110.334 7.75 110.164 8.18C109.994 8.61 109.754 8.98 109.444 9.29C109.144 9.6 108.779 9.845 108.349 10.025C107.919 10.195 107.449 10.28 106.939 10.28C106.429 10.28 105.959 10.195 105.529 10.025C105.109 9.845 104.749 9.6 104.449 9.29C104.149 8.98 103.914 8.61 103.744 8.18C103.574 7.75 103.489 7.28 103.489 6.77C103.489 6.25 103.574 5.775 103.744 5.345C103.914 4.905 104.149 4.53 104.449 4.22C104.749 3.91 105.109 3.67 105.529 3.5C105.959 3.32 106.429 3.23 106.939 3.23ZM106.939 4.34C106.609 4.34 106.309 4.405 106.039 4.535C105.769 4.655 105.539 4.825 105.349 5.045C105.159 5.265 105.009 5.525 104.899 5.825C104.799 6.115 104.749 6.43 104.749 6.77C104.749 7.11 104.799 7.425 104.899 7.715C105.009 8.005 105.159 8.26 105.349 8.48C105.539 8.69 105.769 8.86 106.039 8.99C106.309 9.11 106.609 9.17 106.939 9.17C107.269 9.17 107.569 9.11 107.839 8.99C108.109 8.86 108.339 8.69 108.529 8.48C108.729 8.26 108.884 8.005 108.994 7.715C109.104 7.415 109.159 7.1 109.159 6.77C109.159 6.43 109.104 6.115 108.994 5.825C108.884 5.525 108.729 5.265 108.529 5.045C108.339 4.825 108.109 4.655 107.839 4.535C107.569 4.405 107.269 4.34 106.939 4.34Z" fill="#222222"/>
<path d="M125.392 9.24L123.056 9.864L124.64 11.752L123.648 12.488L122.24 10.472L120.88 12.488L119.888 11.736L121.408 9.864L119.088 9.24L119.408 8.056L121.744 8.936L121.6 6.568H122.88L122.72 8.936L125.024 8.056L125.392 9.24Z" fill="#E90000"/>
<rect x="0.5" y="32.5" width="329" height="53" rx="11.5" fill="white"/>
<rect x="0.5" y="32.5" width="329" height="53" rx="11.5" stroke="#E0E0E0"/>
<path d="M23.792 57.672H22.096V65.16H20.784V50.952H22.096V56.456H23.792V50.728H25.104V65.56H23.792V57.672ZM19.2 62.024C18.9013 61.768 18.608 61.4747 18.32 61.144C18.032 60.8133 17.7653 60.472 17.52 60.12C17.2747 59.7573 17.0507 59.3893 16.848 59.016C16.656 58.6427 16.5013 58.28 16.384 57.928C16.256 58.2907 16.0907 58.664 15.888 59.048C15.696 59.4213 15.472 59.8 15.216 60.184C14.96 60.5573 14.6773 60.92 14.368 61.272C14.0693 61.6133 13.7547 61.9333 13.424 62.232L12.416 61.304C13.4507 60.472 14.256 59.48 14.832 58.328C15.408 57.176 15.696 55.8587 15.696 54.376V53.272H13.264V52.04H19.504V53.272H17.056V54.392C17.056 55.7573 17.3013 57 17.792 58.12C18.2827 59.2293 19.072 60.2213 20.16 61.096L19.2 62.024ZM36.8542 50.728H38.2303V58.632H36.8542V50.728ZM28.8863 59.416H30.2463V61.208H36.8542V59.352H38.2303V65.384H28.8863V59.416ZM30.2463 62.36V64.232H36.8703V62.36H30.2463ZM30.5182 51.176C31.0516 51.176 31.5423 51.2613 31.9903 51.432C32.4383 51.6027 32.8223 51.8427 33.1423 52.152C33.4729 52.4613 33.7289 52.8347 33.9103 53.272C34.0916 53.7093 34.1823 54.1893 34.1823 54.712C34.1823 55.2453 34.0916 55.7307 33.9103 56.168C33.7289 56.5947 33.4729 56.9627 33.1423 57.272C32.8223 57.5707 32.4383 57.8 31.9903 57.96C31.5423 58.12 31.0516 58.2 30.5182 58.2C29.9849 58.2 29.4942 58.12 29.0462 57.96C28.5982 57.7893 28.2142 57.5547 27.8942 57.256C27.5742 56.9467 27.3236 56.5787 27.1422 56.152C26.9609 55.7147 26.8702 55.2293 26.8702 54.696C26.8702 54.1733 26.9609 53.6933 27.1422 53.256C27.3236 52.8187 27.5742 52.4507 27.8942 52.152C28.2142 51.8427 28.5982 51.6027 29.0462 51.432C29.4942 51.2613 29.9849 51.176 30.5182 51.176ZM30.5182 52.344C30.1663 52.344 29.8463 52.408 29.5582 52.536C29.2703 52.6533 29.0249 52.8187 28.8222 53.032C28.6302 53.2453 28.4809 53.496 28.3742 53.784C28.2676 54.0613 28.2142 54.3653 28.2142 54.696C28.2142 55.0267 28.2676 55.336 28.3742 55.624C28.4809 55.9013 28.6302 56.1467 28.8222 56.36C29.0249 56.5733 29.2703 56.744 29.5582 56.872C29.8463 56.9893 30.1663 57.048 30.5182 57.048C30.8809 57.048 31.2009 56.9893 31.4783 56.872C31.7663 56.744 32.0116 56.5733 32.2143 56.36C32.4169 56.1467 32.5716 55.9013 32.6783 55.624C32.7849 55.336 32.8383 55.0267 32.8383 54.696C32.8383 54.3653 32.7849 54.0613 32.6783 53.784C32.5716 53.496 32.4169 53.2453 32.2143 53.032C32.0116 52.8187 31.7663 52.6533 31.4783 52.536C31.2009 52.408 30.8809 52.344 30.5182 52.344ZM50.4605 57.304H47.8525V56.168H50.4605V54.024H47.8525V52.888H50.4605V50.728H51.8365V59.88H50.4605V57.304ZM40.5085 54.648H45.4365V52.696H40.5085V51.512H46.7965V55.8H41.8845V58.056C42.2685 58.056 42.7218 58.0453 43.2445 58.024C43.7778 58.0027 44.3218 57.9813 44.8765 57.96C45.4312 57.9387 45.9645 57.912 46.4765 57.88C46.9992 57.848 47.4472 57.816 47.8205 57.784C47.8418 57.976 47.8578 58.168 47.8685 58.36C47.8898 58.552 47.9112 58.744 47.9325 58.936C47.4632 58.9893 46.9192 59.0373 46.3005 59.08C45.6818 59.112 45.0365 59.1387 44.3645 59.16C43.7032 59.1813 43.0365 59.2027 42.3645 59.224C41.7032 59.2347 41.0845 59.24 40.5085 59.24V54.648ZM50.4605 61.784H42.1405V60.584H51.8365V65.576H50.4605V61.784Z" fill="#999999"/>
</svg>
