<svg width="360" height="196" viewBox="0 0 360 196" fill="none" xmlns="http://www.w3.org/2000/svg">
<rect width="360" height="196" rx="12" fill="white"/>
<path d="M30.04 44.34H27.9V33.66H30.04V38.08H32.8V39.94H30.04V44.34ZM18.46 45.18H30.04V52.02H18.46V45.18ZM20.58 47V50.22H27.92V47H20.58ZM25.8 43.64C23.74 42.86 21.74 40.9 21.14 39.32C20.62 40.9 18.54 43.16 16.48 44.1L15.28 42.52C17.8 41.4 20.06 38.96 20.06 35.82V34.1H22.2V35.82C22.2 38.9 24.16 40.96 26.94 42.06L25.8 43.64ZM46.9078 38.98H43.0078V37.14H46.9078V33.66H49.0478V44.74H46.9078V38.98ZM42.9878 44.8C46.8878 44.8 49.1278 46.3 49.1278 48.52C49.1278 50.8 46.8878 52.26 42.9878 52.24C39.1078 52.22 36.8678 50.8 36.8678 48.52C36.8678 46.3 39.1678 44.8 42.9878 44.8ZM42.9878 46.58C40.3678 46.58 39.0278 47.38 39.0278 48.52C39.0278 49.7 40.3678 50.48 42.9878 50.48C45.6278 50.48 47.0078 49.7 47.0078 48.52C47.0078 47.38 45.6078 46.58 42.9878 46.58ZM44.0478 43.74C41.9878 42.96 40.0278 41.02 39.4278 39.44C38.9078 41.02 36.8278 43.24 34.7678 44.18L33.5678 42.64C36.0878 41.52 38.3478 39.08 38.3478 35.94V34.22H40.4878V35.94C40.4878 39.02 42.4078 41.1 45.1878 42.2L44.0478 43.74ZM64.7756 33.66H66.9156V52.12H64.7756V33.66ZM63.4956 46.8C60.9756 47.28 55.9156 47.48 52.8756 47.48V35.24H61.5956V37.1H54.9356V45.6C57.0556 45.6 60.9356 45.44 63.2556 45.02L63.4956 46.8ZM69.5034 47.52H86.5434V49.38H69.5034V47.52ZM85.0434 44.46C82.3434 43.82 79.1034 41.5 78.0234 39.14C77.0234 41.5 73.8034 43.78 71.0034 44.46L69.9434 42.76C73.3034 42.06 76.9234 39.14 76.9234 35.92V34.94H79.1234V35.92C79.1234 39.2 82.7834 42.04 86.1034 42.76L85.0434 44.46ZM87.4913 42.04H104.531V43.68H87.4913V42.04ZM89.7113 47.66H100.211V46.46H89.7113V44.86H102.271V49.2H91.7713V50.54H102.591V52.1H89.7113V47.66ZM89.6913 40.8V39.18H92.2113L91.7313 36.5L93.8913 36.32L94.1713 39.18H97.7713L98.0713 36.3L100.231 36.46L99.7313 39.18H102.331V40.8H89.6913ZM89.5513 34.1H102.471V35.7H89.5513V34.1ZM106.279 40.36H110.819V36.9H106.299V35.04H112.859V42.2H108.339V46.24C110.479 46.24 112.579 46.18 114.079 45.94L114.279 47.76C112.339 48.04 109.679 48.12 106.279 48.12V40.36ZM115.659 42.34H113.439V40.46H115.659V33.94H117.659V51.7H115.659V42.34ZM119.379 33.66H121.419V52.2H119.379V33.66ZM129.327 34.9C132.287 34.9 134.227 37.48 134.227 41.46C134.227 45.36 132.287 48 129.327 48C126.287 48 124.387 45.36 124.387 41.46C124.387 37.48 126.287 34.9 129.327 34.9ZM129.327 36.78C127.707 36.78 126.547 38.4 126.547 41.46C126.547 44.46 127.707 46.12 129.327 46.12C130.907 46.12 132.087 44.46 132.087 41.46C132.087 38.4 130.907 36.78 129.327 36.78ZM136.807 33.66H138.947V52.12H136.807V33.66Z" fill="#222222"/>
<path d="M25.514 75.56V78.794H24.31V71.262H25.514V74.496H27.446V75.56H25.514ZM17.436 84.086V79.424H25.514V84.086H17.436ZM24.31 80.488H18.654V83.05H24.31V80.488ZM23.162 77.366L22.392 78.192C21.006 77.436 19.788 76.19 19.34 75.084C18.864 76.33 17.576 77.632 16.204 78.402L15.406 77.562C16.988 76.806 18.724 75.14 18.724 72.704V71.668H19.942V72.704C19.942 75.098 21.664 76.652 23.162 77.366ZM37.4475 79.088V74.93H34.7315V73.866H37.4475V71.262H38.6515V79.088H37.4475ZM35.8795 77.478H35.8935L35.0955 78.304C33.6815 77.52 32.4915 76.316 32.0295 75.196C31.5535 76.428 30.2655 77.772 28.8795 78.542L28.0815 77.702C29.6775 76.96 31.4135 75.238 31.4135 72.788V71.696H32.6455V72.788C32.6455 75.21 34.3535 76.75 35.8795 77.478ZM34.4095 79.228C37.0135 79.228 38.7495 80.082 38.7495 81.762C38.7495 83.456 37.0135 84.296 34.4095 84.296C31.7915 84.296 30.0695 83.456 30.0695 81.762C30.0695 80.082 31.7915 79.228 34.4095 79.228ZM34.4095 80.25C32.4495 80.25 31.2875 80.88 31.2875 81.762C31.2875 82.658 32.4495 83.274 34.4095 83.274C36.3555 83.274 37.5315 82.658 37.5315 81.762C37.5315 80.88 36.3555 80.25 34.4095 80.25ZM40.7709 82.028L40.5889 80.964C41.7929 80.964 42.9829 80.95 44.1589 80.908V79.452C42.8149 79.298 41.6669 78.57 41.6669 77.296C41.6669 75.84 43.2069 75.07 44.7609 75.07C46.3009 75.07 47.8689 75.826 47.8689 77.296C47.8689 78.57 46.6789 79.298 45.3629 79.452V80.866C46.5389 80.796 47.7149 80.712 48.8909 80.572L48.9749 81.552C46.3569 81.832 43.5289 82.028 40.7709 82.028ZM49.5209 71.262H50.7249V76.834H52.6849V77.898H50.7249V84.184H49.5209V71.262ZM44.7609 76.036C43.7809 76.036 42.8149 76.442 42.8149 77.296C42.8149 78.136 43.7809 78.528 44.7609 78.528C45.7409 78.528 46.6929 78.136 46.6929 77.296C46.6929 76.442 45.7409 76.036 44.7609 76.036ZM40.9809 73.432H48.5129V74.426H40.9809V73.432ZM42.8149 71.57H46.7909V72.578H42.8149V71.57ZM63.1344 84.24V77.338H61.6504V83.89H60.5024V71.458H61.6504V76.274H63.1344V71.262H64.2824V84.24H63.1344ZM59.9564 80.334L59.1164 81.146C58.0804 80.236 57.0584 78.78 56.6524 77.562C56.2044 78.822 55.2244 80.292 54.0624 81.328L53.1804 80.516C54.9864 79.06 56.0504 77.03 56.0504 74.454V73.488H53.9224V72.41H59.3824V73.488H57.2404V74.468C57.2404 76.848 58.0664 78.808 59.9564 80.334ZM79.5726 76.358H81.5466V77.422H79.5726V84.184H78.3546V71.262H79.5726V76.358ZM70.0806 81.356L69.2126 80.572C71.4246 79.144 72.7686 76.918 72.7686 74.104V72.13H74.0146V74.104C74.0146 76.708 75.1346 78.92 77.5146 80.404L76.6746 81.202C75.1626 80.166 73.8886 78.682 73.3986 77.142C72.9086 78.696 71.6626 80.222 70.0806 81.356ZM91.4921 84.184V71.262H92.7101V84.184H91.4921ZM86.0741 72.172C88.2861 72.172 89.3501 74.118 89.3501 76.666C89.3501 79.2 88.2861 81.132 86.0741 81.132C83.8901 81.132 82.7841 79.2 82.7841 76.666C82.7841 74.118 83.8761 72.172 86.0741 72.172ZM86.0741 73.222C84.7721 73.222 83.9881 74.496 83.9881 76.666C83.9881 78.808 84.7721 80.082 86.0741 80.082C87.3901 80.082 88.1741 78.808 88.1741 76.666C88.1741 74.496 87.3901 73.222 86.0741 73.222ZM95.4735 80.908V72.256H96.6635V75.448H100.234V72.172H101.424V76.022H104.112V71.262H105.316V84.184H104.112V77.086H101.424V80.908H95.4735ZM100.234 76.498H96.6635V79.844H100.234V76.498ZM117.193 84.24V77.324H115.723V83.89H114.575V71.458H115.723V76.274H117.193V71.262H118.341V84.24H117.193ZM107.575 81.118L107.351 80.012C107.841 80.012 108.345 80.026 108.849 80.012L108.443 74.3L109.647 74.174L109.899 79.998C110.333 79.984 110.767 79.97 111.187 79.942L111.537 74.146L112.713 74.3L112.237 79.886C112.769 79.858 113.301 79.802 113.833 79.746L113.903 80.712C112.251 80.95 109.311 81.104 107.575 81.118ZM107.673 73.544V72.48H113.581V73.544H107.673ZM121.188 81.846L120.376 80.978C122.364 79.802 123.848 78.304 124.73 76.554L120.6 76.904L120.334 75.798L125.15 75.588C125.416 74.86 125.584 74.09 125.654 73.292H120.782V72.256H126.914C126.718 76.904 124.506 79.83 121.188 81.846ZM129.308 84.184V71.262H130.526V84.184H129.308ZM141.928 84.184V71.262H143.132V84.184H141.928ZM133.374 81.384L132.548 80.502C134.088 79.592 136.104 77.646 136.104 74.496V73.474H133.206V72.41H140.22V73.474H137.336V74.496C137.336 77.324 138.722 79.032 140.864 80.39L140.038 81.244C138.736 80.376 137.224 78.78 136.706 77.338C136.188 78.864 134.606 80.572 133.374 81.384Z" fill="#666666"/>
<path d="M270.628 82.064H265.264V81.164L268.012 78.068C269.116 76.832 269.416 76.328 269.416 75.38C269.416 74.528 268.6 73.88 267.76 73.88C267.136 73.88 266.5 74.156 265.732 74.6L265.444 73.7C266.224 73.256 267.004 72.992 267.7 72.992C269.248 72.992 270.424 73.808 270.424 75.38C270.424 76.388 270.076 77.168 268.816 78.56L266.452 81.188H270.628V82.064ZM274.525 72.992C276.421 72.992 277.465 74.516 277.465 77.588C277.465 80.66 276.421 82.184 274.525 82.184C272.641 82.184 271.585 80.66 271.585 77.588C271.585 74.516 272.629 72.992 274.525 72.992ZM274.525 73.964C272.869 73.964 272.629 76.04 272.629 77.588C272.629 79.148 272.869 81.224 274.525 81.224C276.193 81.224 276.433 79.124 276.433 77.588C276.433 76.052 276.193 73.964 274.525 73.964ZM283.577 82.064H278.213V81.164L280.961 78.068C282.065 76.832 282.365 76.328 282.365 75.38C282.365 74.528 281.549 73.88 280.709 73.88C280.085 73.88 279.449 74.156 278.681 74.6L278.393 73.7C279.173 73.256 279.953 72.992 280.649 72.992C282.197 72.992 283.373 73.808 283.373 75.38C283.373 76.388 283.025 77.168 281.765 78.56L279.401 81.188H283.577V82.064ZM285.075 80.996C285.519 81.164 286.059 81.272 286.563 81.272C288.291 81.272 289.335 79.928 289.335 77.72C288.903 78.56 287.991 78.944 287.283 78.944C285.663 78.944 284.511 77.816 284.511 76.1C284.511 74.24 285.603 72.992 287.415 72.992C289.083 72.992 290.283 74.3 290.283 77.18C290.283 79.964 289.383 82.184 286.443 82.184C285.999 82.184 285.423 82.112 284.859 81.896L285.075 80.996ZM287.283 78.044C288.435 78.044 289.203 77.216 289.203 76.124C289.203 74.912 288.555 73.904 287.391 73.904C286.203 73.904 285.495 74.864 285.495 76.004C285.495 77.192 286.107 78.044 287.283 78.044ZM293.11 82.712H291.85V81.392H293.11V82.712ZM297.672 82.064H296.64V74.372L295.212 75.62L294.624 74.984L296.784 73.112H297.672V82.064ZM302.311 72.992C304.207 72.992 305.251 74.516 305.251 77.588C305.251 80.66 304.207 82.184 302.311 82.184C300.427 82.184 299.371 80.66 299.371 77.588C299.371 74.516 300.415 72.992 302.311 72.992ZM302.311 73.964C300.655 73.964 300.415 76.04 300.415 77.588C300.415 79.148 300.655 81.224 302.311 81.224C303.979 81.224 304.219 79.124 304.219 77.588C304.219 76.052 303.979 73.964 302.311 73.964ZM308.074 82.712H306.814V81.392H308.074V82.712ZM309.733 80.756C310.405 81.068 311.149 81.272 311.845 81.272C312.961 81.272 313.957 80.684 313.957 79.532C313.957 78.392 313.189 77.816 311.677 77.816H310.897V76.88H311.425C312.817 76.88 313.933 76.556 313.933 75.248C313.933 74.3 313.093 73.904 312.049 73.904C311.461 73.904 310.813 74.072 310.093 74.396L309.937 73.472C310.681 73.172 311.389 72.992 312.121 72.992C313.621 72.992 314.965 73.664 314.965 75.248C314.965 76.172 314.305 77.096 313.177 77.324C314.329 77.588 314.989 78.476 314.989 79.532C314.989 81.284 313.597 82.184 311.797 82.184C310.933 82.184 310.153 81.944 309.553 81.68L309.733 80.756ZM318.555 82.064H317.523V74.372L316.095 75.62L315.507 74.984L317.667 73.112H318.555V82.064ZM331.903 76.448V80.54H330.871V72.296H331.903V75.548H333.571V76.448H331.903ZM323.839 78.464V73.028H328.915V78.464H323.839ZM327.871 73.94H324.883V77.564H327.871V73.94ZM325.003 83.168V79.688H326.035V82.256H332.323V83.168H325.003ZM333.947 81.752V80.864H336.875V78.86H335.363V75.464H341.795V73.928H335.363V73.028H342.827V76.34H336.383V77.972H342.995V78.86H341.339V80.864H344.243V81.752H333.947ZM337.883 80.864H340.319V78.86H337.883V80.864Z" fill="#666666"/>
<line x1="15" y1="107.5" x2="345" y2="107.5" stroke="#E0E0E0"/>
<path d="M17.288 139.192V131.592H18.664V134.184H25.736V131.56H27.112V139.192H22.888V142.12H29.064V143.336H15.336V142.12H21.496V139.192H17.288ZM25.736 135.4H18.664V137.992H25.736V135.4ZM40.6543 139.848V136.744H37.9983V135.528H40.6543V130.728H42.0303V139.848H40.6543ZM31.9663 132.088V130.968H36.6543V132.088H31.9663ZM30.0303 134.008V132.872H38.5583V134.008H30.0303ZM34.2063 134.616C36.3343 134.616 37.6143 135.656 37.6143 137.176C37.6143 138.664 36.3343 139.704 34.2063 139.704C32.0623 139.704 30.7663 138.664 30.7663 137.176C30.7663 135.656 32.0623 134.616 34.2063 134.616ZM34.2063 135.736C32.8943 135.736 32.1103 136.328 32.1103 137.176C32.1103 137.976 32.8943 138.584 34.2063 138.584C35.5183 138.584 36.2863 137.976 36.2863 137.176C36.2863 136.328 35.5183 135.736 34.2063 135.736ZM32.6543 145.4V140.536H42.0303V145.4H32.6543ZM40.6543 141.704H34.0143V144.232H40.6543V141.704ZM44.1485 143.336V142.152H48.0525V139.48H46.0365V134.952H54.6125V132.904H46.0365V131.704H55.9885V136.12H47.3965V138.296H56.2125V139.48H54.0045V142.152H57.8765V143.336H44.1485ZM49.3965 142.152H52.6445V139.48H49.3965V142.152Z" fill="#666666"/>
<path d="M236.48 143.192L236.784 141.592C237.664 142.024 238.688 142.312 239.6 142.312C240.928 142.312 242.064 141.656 242.064 140.36C242.064 139.08 241.184 138.328 239.392 138.328H238.208V136.76H239.072C240.72 136.76 242.032 136.28 242.032 134.776C242.032 133.736 241.072 133.256 239.856 133.256C239.088 133.256 238.224 133.496 237.232 133.976L236.992 132.328C237.968 131.928 238.976 131.656 239.952 131.656C241.952 131.656 243.76 132.648 243.76 134.776C243.76 136.04 242.992 137.096 241.728 137.512C242.96 137.928 243.792 138.936 243.792 140.36C243.792 142.712 241.936 143.912 239.536 143.912C238.32 143.912 237.296 143.592 236.48 143.192ZM248.998 131.656C251.526 131.656 252.918 133.736 252.918 137.768C252.918 141.8 251.526 143.912 248.998 143.912C246.47 143.912 245.078 141.8 245.078 137.768C245.078 133.736 246.454 131.656 248.998 131.656ZM248.998 133.304C247.078 133.304 246.806 135.896 246.806 137.768C246.806 139.656 247.078 142.28 248.998 142.28C250.918 142.28 251.19 139.624 251.19 137.768C251.19 135.912 250.918 133.304 248.998 133.304ZM258.123 131.656C260.651 131.656 262.043 133.736 262.043 137.768C262.043 141.8 260.651 143.912 258.123 143.912C255.595 143.912 254.203 141.8 254.203 137.768C254.203 133.736 255.579 131.656 258.123 131.656ZM258.123 133.304C256.203 133.304 255.931 135.896 255.931 137.768C255.931 139.656 256.203 142.28 258.123 142.28C260.043 142.28 260.315 139.624 260.315 137.768C260.315 135.912 260.043 133.304 258.123 133.304ZM266.112 142.712L264.72 146.04H263.328L264.176 142.712H266.112ZM271.388 131.656C273.916 131.656 275.308 133.736 275.308 137.768C275.308 141.8 273.916 143.912 271.388 143.912C268.86 143.912 267.468 141.8 267.468 137.768C267.468 133.736 268.844 131.656 271.388 131.656ZM271.388 133.304C269.468 133.304 269.196 135.896 269.196 137.768C269.196 139.656 269.468 142.28 271.388 142.28C273.308 142.28 273.58 139.624 273.58 137.768C273.58 135.912 273.308 133.304 271.388 133.304ZM280.513 131.656C283.041 131.656 284.433 133.736 284.433 137.768C284.433 141.8 283.041 143.912 280.513 143.912C277.985 143.912 276.593 141.8 276.593 137.768C276.593 133.736 277.969 131.656 280.513 131.656ZM280.513 133.304C278.593 133.304 278.321 135.896 278.321 137.768C278.321 139.656 278.593 142.28 280.513 142.28C282.433 142.28 282.705 139.624 282.705 137.768C282.705 135.912 282.433 133.304 280.513 133.304ZM289.638 131.656C292.166 131.656 293.558 133.736 293.558 137.768C293.558 141.8 292.166 143.912 289.638 143.912C287.11 143.912 285.718 141.8 285.718 137.768C285.718 133.736 287.094 131.656 289.638 131.656ZM289.638 133.304C287.718 133.304 287.446 135.896 287.446 137.768C287.446 139.656 287.718 142.28 289.638 142.28C291.558 142.28 291.83 139.624 291.83 137.768C291.83 135.912 291.558 133.304 289.638 133.304ZM297.627 142.712L296.235 146.04H294.843L295.691 142.712H297.627ZM302.904 131.656C305.432 131.656 306.824 133.736 306.824 137.768C306.824 141.8 305.432 143.912 302.904 143.912C300.376 143.912 298.984 141.8 298.984 137.768C298.984 133.736 300.36 131.656 302.904 131.656ZM302.904 133.304C300.984 133.304 300.712 135.896 300.712 137.768C300.712 139.656 300.984 142.28 302.904 142.28C304.824 142.28 305.096 139.624 305.096 137.768C305.096 135.912 304.824 133.304 302.904 133.304ZM312.029 131.656C314.557 131.656 315.949 133.736 315.949 137.768C315.949 141.8 314.557 143.912 312.029 143.912C309.501 143.912 308.109 141.8 308.109 137.768C308.109 133.736 309.485 131.656 312.029 131.656ZM312.029 133.304C310.109 133.304 309.837 135.896 309.837 137.768C309.837 139.656 310.109 142.28 312.029 142.28C313.949 142.28 314.221 139.624 314.221 137.768C314.221 135.912 313.949 133.304 312.029 133.304ZM321.154 131.656C323.682 131.656 325.074 133.736 325.074 137.768C325.074 141.8 323.682 143.912 321.154 143.912C318.626 143.912 317.234 141.8 317.234 137.768C317.234 133.736 318.61 131.656 321.154 131.656ZM321.154 133.304C319.234 133.304 318.962 135.896 318.962 137.768C318.962 139.656 319.234 142.28 321.154 142.28C323.074 142.28 323.346 139.624 323.346 137.768C323.346 135.912 323.074 133.304 321.154 133.304Z" fill="#222222"/>
<path d="M331.6 134.008C331.6 132.2 333.264 131.208 335.392 131.208C337.504 131.208 339.184 132.2 339.184 134.008C339.184 135.816 337.504 136.792 335.392 136.792C333.264 136.792 331.6 135.832 331.6 134.008ZM341.232 130.728H342.624V142.216H341.232V140.776H338.176V139.64H341.232V130.728ZM332.928 141.304H334.304V144.136H343.024V145.336H332.928V141.304ZM330.768 138.92L330.576 137.736C333.888 137.736 337.136 137.624 340.352 137.4L340.432 138.424C339.024 138.568 337.616 138.68 336.176 138.76V141.4H334.816V138.824C333.472 138.872 332.128 138.904 330.768 138.92ZM332.944 134.008C332.944 135.032 334 135.672 335.392 135.672C336.784 135.672 337.84 135.032 337.84 134.008C337.84 132.984 336.784 132.328 335.392 132.328C334 132.328 332.944 132.984 332.944 134.008Z" fill="#444444"/>
<path d="M17.288 169.192V161.592H18.664V164.184H25.736V161.56H27.112V169.192H22.888V172.12H29.064V173.336H15.336V172.12H21.496V169.192H17.288ZM25.736 165.4H18.664V167.992H25.736V165.4ZM41.4223 165.688V169.528H40.0303V160.728H41.4223V164.472H43.6303V165.688H41.4223ZM36.7983 169.752C39.6783 169.752 41.6623 170.76 41.6623 172.68C41.6623 174.632 39.6783 175.624 36.7983 175.624C33.9503 175.624 31.9663 174.632 31.9663 172.68C31.9663 170.76 33.9343 169.752 36.7983 169.752ZM36.7983 170.904C34.5903 170.904 33.3263 171.608 33.3263 172.68C33.3263 173.752 34.6063 174.472 36.7983 174.472C39.0223 174.472 40.2863 173.784 40.2863 172.68C40.2863 171.608 39.0223 170.904 36.7983 170.904ZM38.7983 167.784L37.8863 168.712C36.2863 167.848 34.9263 166.456 34.3823 165.192C33.8383 166.616 32.3663 168.136 30.7823 169.016L29.8703 168.056C31.6943 167.192 33.6943 165.256 33.6943 162.456V161.208H35.0703V162.456C35.0703 165.192 37.0223 166.952 38.7983 167.784ZM55.8285 167V171.912H54.4525V160.728H55.8285V165.784H58.0525V167H55.8285ZM46.4685 162.184V161.032H51.2205V162.184H46.4685ZM44.5165 164.28V163.128H53.1725V164.28H44.5165ZM48.8525 164.952C50.9165 164.952 52.4365 166.008 52.4365 167.672C52.4365 169.32 50.9165 170.376 48.8525 170.376C46.7405 170.376 45.2525 169.32 45.2525 167.672C45.2525 166.008 46.7565 164.952 48.8525 164.952ZM48.8525 166.088C47.4605 166.088 46.5965 166.744 46.5965 167.672C46.5965 168.584 47.4605 169.24 48.8525 169.24C50.2125 169.24 51.0925 168.584 51.0925 167.672C51.0925 166.744 50.2125 166.088 48.8525 166.088ZM46.6445 175.24V171.192H48.0045V174.04H56.3885V175.24H46.6445ZM60.4588 168.744V161.976H70.3628V163.176H61.8508V167.528H70.4908V168.744H66.1228V172.088H72.2828V173.304H58.5548V172.088H64.7308V168.744H60.4588Z" fill="#666666"/>
<path d="M220.848 173.752H219.088V164.008L217.648 165.32L216.64 164.232L219.408 161.816H220.848V173.752ZM226.841 161.656C229.369 161.656 230.761 163.736 230.761 167.768C230.761 171.8 229.369 173.912 226.841 173.912C224.313 173.912 222.921 171.8 222.921 167.768C222.921 163.736 224.297 161.656 226.841 161.656ZM226.841 163.304C224.921 163.304 224.649 165.896 224.649 167.768C224.649 169.656 224.921 172.28 226.841 172.28C228.761 172.28 229.033 169.624 229.033 167.768C229.033 165.912 228.761 163.304 226.841 163.304ZM234.83 172.712L233.438 176.04H232.046L232.894 172.712H234.83ZM240.107 161.656C242.635 161.656 244.027 163.736 244.027 167.768C244.027 171.8 242.635 173.912 240.107 173.912C237.579 173.912 236.187 171.8 236.187 167.768C236.187 163.736 237.563 161.656 240.107 161.656ZM240.107 163.304C238.187 163.304 237.915 165.896 237.915 167.768C237.915 169.656 238.187 172.28 240.107 172.28C242.027 172.28 242.299 169.624 242.299 167.768C242.299 165.912 242.027 163.304 240.107 163.304ZM249.232 161.656C251.76 161.656 253.152 163.736 253.152 167.768C253.152 171.8 251.76 173.912 249.232 173.912C246.704 173.912 245.312 171.8 245.312 167.768C245.312 163.736 246.688 161.656 249.232 161.656ZM249.232 163.304C247.312 163.304 247.04 165.896 247.04 167.768C247.04 169.656 247.312 172.28 249.232 172.28C251.152 172.28 251.424 169.624 251.424 167.768C251.424 165.912 251.152 163.304 249.232 163.304ZM258.357 161.656C260.885 161.656 262.277 163.736 262.277 167.768C262.277 171.8 260.885 173.912 258.357 173.912C255.829 173.912 254.437 171.8 254.437 167.768C254.437 163.736 255.813 161.656 258.357 161.656ZM258.357 163.304C256.437 163.304 256.165 165.896 256.165 167.768C256.165 169.656 256.437 172.28 258.357 172.28C260.277 172.28 260.549 169.624 260.549 167.768C260.549 165.912 260.277 163.304 258.357 163.304ZM266.346 172.712L264.954 176.04H263.562L264.41 172.712H266.346ZM271.623 161.656C274.151 161.656 275.543 163.736 275.543 167.768C275.543 171.8 274.151 173.912 271.623 173.912C269.095 173.912 267.703 171.8 267.703 167.768C267.703 163.736 269.079 161.656 271.623 161.656ZM271.623 163.304C269.703 163.304 269.431 165.896 269.431 167.768C269.431 169.656 269.703 172.28 271.623 172.28C273.543 172.28 273.815 169.624 273.815 167.768C273.815 165.912 273.543 163.304 271.623 163.304ZM280.748 161.656C283.276 161.656 284.668 163.736 284.668 167.768C284.668 171.8 283.276 173.912 280.748 173.912C278.22 173.912 276.828 171.8 276.828 167.768C276.828 163.736 278.204 161.656 280.748 161.656ZM280.748 163.304C278.828 163.304 278.556 165.896 278.556 167.768C278.556 169.656 278.828 172.28 280.748 172.28C282.668 172.28 282.94 169.624 282.94 167.768C282.94 165.912 282.668 163.304 280.748 163.304ZM289.873 161.656C292.401 161.656 293.793 163.736 293.793 167.768C293.793 171.8 292.401 173.912 289.873 173.912C287.345 173.912 285.953 171.8 285.953 167.768C285.953 163.736 287.329 161.656 289.873 161.656ZM289.873 163.304C287.953 163.304 287.681 165.896 287.681 167.768C287.681 169.656 287.953 172.28 289.873 172.28C291.793 172.28 292.065 169.624 292.065 167.768C292.065 165.912 291.793 163.304 289.873 163.304ZM297.862 172.712L296.47 176.04H295.078L295.926 172.712H297.862ZM303.138 161.656C305.666 161.656 307.058 163.736 307.058 167.768C307.058 171.8 305.666 173.912 303.138 173.912C300.61 173.912 299.218 171.8 299.218 167.768C299.218 163.736 300.594 161.656 303.138 161.656ZM303.138 163.304C301.218 163.304 300.946 165.896 300.946 167.768C300.946 169.656 301.218 172.28 303.138 172.28C305.058 172.28 305.33 169.624 305.33 167.768C305.33 165.912 305.058 163.304 303.138 163.304ZM312.263 161.656C314.791 161.656 316.183 163.736 316.183 167.768C316.183 171.8 314.791 173.912 312.263 173.912C309.735 173.912 308.343 171.8 308.343 167.768C308.343 163.736 309.719 161.656 312.263 161.656ZM312.263 163.304C310.343 163.304 310.071 165.896 310.071 167.768C310.071 169.656 310.343 172.28 312.263 172.28C314.183 172.28 314.455 169.624 314.455 167.768C314.455 165.912 314.183 163.304 312.263 163.304ZM321.388 161.656C323.916 161.656 325.308 163.736 325.308 167.768C325.308 171.8 323.916 173.912 321.388 173.912C318.86 173.912 317.468 171.8 317.468 167.768C317.468 163.736 318.844 161.656 321.388 161.656ZM321.388 163.304C319.468 163.304 319.196 165.896 319.196 167.768C319.196 169.656 319.468 172.28 321.388 172.28C323.308 172.28 323.58 169.624 323.58 167.768C323.58 165.912 323.308 163.304 321.388 163.304Z" fill="#222222"/>
<path d="M331.6 164.008C331.6 162.2 333.264 161.208 335.392 161.208C337.504 161.208 339.184 162.2 339.184 164.008C339.184 165.816 337.504 166.792 335.392 166.792C333.264 166.792 331.6 165.832 331.6 164.008ZM341.232 160.728H342.624V172.216H341.232V170.776H338.176V169.64H341.232V160.728ZM332.928 171.304H334.304V174.136H343.024V175.336H332.928V171.304ZM330.768 168.92L330.576 167.736C333.888 167.736 337.136 167.624 340.352 167.4L340.432 168.424C339.024 168.568 337.616 168.68 336.176 168.76V171.4H334.816V168.824C333.472 168.872 332.128 168.904 330.768 168.92ZM332.944 164.008C332.944 165.032 334 165.672 335.392 165.672C336.784 165.672 337.84 165.032 337.84 164.008C337.84 162.984 336.784 162.328 335.392 162.328C334 162.328 332.944 162.984 332.944 164.008Z" fill="#444444"/>
</svg>
