<svg width="354" height="535" viewBox="0 0 354 535" fill="none" xmlns="http://www.w3.org/2000/svg">
<rect width="332" height="535" transform="translate(11)" fill="white"/>
<path d="M215.575 108.472C226.77 96.6398 237.345 85.4636 256.47 85.4636H256.48C273.359 85.4636 285.626 92.9615 298.615 100.914C306.419 105.692 314.387 110.568 323.501 113.681V198.211H11.0117V166.487C30.1838 165.755 39.688 150.915 48.8862 136.551L48.9038 136.524C58.9487 120.838 69.3278 104.63 91.9388 104.63C104.474 104.63 113.371 110.581 123.666 117.469L123.707 117.496L123.717 117.503C135.163 125.165 148.128 133.845 168.343 133.845C191.568 133.845 203.771 120.957 215.569 108.479L215.575 108.472Z" fill="url(#paint0_linear_572_955)"/>
<path d="M300.679 99.7718C287.832 91.9079 274.537 83.7778 256.469 83.7778C235.647 83.7778 224.1 95.9785 212.935 107.78C201.072 120.324 189.863 132.17 168.342 132.17C149.4 132.17 137.449 124.173 125.891 116.431C115.545 109.499 105.768 102.955 91.938 102.955C67.2819 102.955 56.4669 119.836 46.0123 136.174C36.8359 150.516 28.1511 164.069 11 164.824V166.987C30.183 166.255 39.6872 151.414 48.8745 137.05C58.9248 121.356 69.3138 105.129 91.9271 105.129C104.49 105.129 113.393 111.096 123.695 117.995C135.144 125.659 148.122 134.344 168.332 134.344C191.546 134.344 203.748 121.445 215.557 108.978C226.755 97.1431 237.34 85.9629 256.458 85.9629C273.336 85.9629 285.604 93.4718 298.593 101.413C311.472 109.299 324.8 117.441 342.989 117.507V115.344C325.991 115.289 313.69 107.769 300.668 99.794L300.679 99.7718Z" fill="#4155E0"/>
<line x1="323.5" y1="112" x2="323.5" y2="235" stroke="#4155E0"/>
<g filter="url(#filter0_d_572_955)">
<circle cx="323.5" cy="112.5" r="4.5" fill="white"/>
<circle cx="323.5" cy="112.5" r="4" stroke="#62D0F2"/>
</g>
<rect x="303" y="78" width="40" height="20" rx="10" fill="#EAF7FF"/>
<path d="M315.282 91.7148L318.782 88.3379C319.16 87.9596 319.452 87.6497 319.657 87.4082C319.867 87.1621 320.026 86.9206 320.136 86.6836C320.245 86.4421 320.3 86.1868 320.3 85.918C320.3 85.6172 320.227 85.3529 320.081 85.125C319.935 84.8971 319.732 84.7217 319.473 84.5986C319.217 84.4756 318.928 84.4141 318.604 84.4141C318.267 84.4141 317.971 84.4824 317.716 84.6191C317.465 84.7513 317.271 84.9427 317.135 85.1934C316.998 85.4395 316.932 85.7266 316.937 86.0547H315.241C315.237 85.4395 315.378 84.8994 315.665 84.4346C315.952 83.9652 316.351 83.6029 316.861 83.3477C317.376 83.0924 317.962 82.9648 318.618 82.9648C319.284 82.9648 319.871 83.0879 320.382 83.334C320.897 83.5801 321.296 83.9219 321.578 84.3594C321.865 84.7923 322.009 85.2845 322.009 85.8359C322.009 86.2188 321.934 86.5879 321.783 86.9434C321.637 87.2988 321.387 87.693 321.031 88.126C320.676 88.5544 320.172 89.0762 319.521 89.6914L317.757 91.4414V91.5098H322.159V93H315.282V91.7148ZM327.231 93.1367C326.58 93.1367 325.992 93.016 325.468 92.7744C324.944 92.5329 324.529 92.2002 324.224 91.7764C323.923 91.348 323.763 90.8626 323.745 90.3203H325.481C325.5 90.5846 325.586 90.8216 325.741 91.0312C325.901 91.2409 326.11 91.4049 326.37 91.5234C326.634 91.6419 326.922 91.7012 327.231 91.7012C327.596 91.7012 327.922 91.6191 328.209 91.4551C328.501 91.291 328.726 91.0654 328.886 90.7783C329.05 90.4867 329.132 90.1608 329.132 89.8008C329.132 89.4271 329.048 89.0944 328.879 88.8027C328.71 88.5065 328.478 88.2764 328.182 88.1123C327.885 87.9437 327.55 87.8594 327.177 87.8594C326.393 87.8457 325.846 88.1283 325.536 88.707H323.882L324.483 83.1016H330.335V84.5918H325.946L325.646 87.2168H325.741C325.937 86.9935 326.206 86.8135 326.548 86.6768C326.89 86.5355 327.259 86.4648 327.655 86.4648C328.261 86.4648 328.808 86.6061 329.296 86.8887C329.784 87.1712 330.164 87.5632 330.438 88.0645C330.715 88.5612 330.854 89.1217 330.854 89.7461C330.854 90.3978 330.7 90.9811 330.39 91.4961C330.084 92.0111 329.656 92.4144 329.104 92.7061C328.558 92.9932 327.933 93.1367 327.231 93.1367Z" fill="#0068FF"/>
<line x1="12" y1="235.339" x2="343" y2="235.339" stroke="#D3D3D3"/>
<g filter="url(#filter1_d_572_955)">
<rect x="12" y="271" width="104" height="171" rx="20" fill="white" shape-rendering="crispEdges"/>
<path d="M40.6387 304.195H39.3262V296.461H40.6387V304.195ZM40.9316 306.832H33.6309V303.457H34.9434V305.777H40.9316V306.832ZM35.7637 298.078C35.7637 298.578 35.8594 299.055 36.0508 299.508C36.2461 299.961 36.5352 300.363 36.918 300.715C37.3008 301.062 37.7637 301.328 38.3066 301.512L37.6387 302.543C37.0449 302.336 36.5332 302.031 36.1035 301.629C35.6738 301.227 35.3398 300.75 35.1016 300.199C34.8594 300.793 34.5176 301.309 34.0762 301.746C33.6387 302.184 33.1152 302.512 32.5059 302.73L31.8262 301.699C32.3848 301.504 32.8574 301.221 33.2441 300.85C33.6348 300.475 33.9277 300.049 34.123 299.572C34.3184 299.096 34.416 298.598 34.416 298.078V297.047H35.7637V298.078ZM51.8418 302.59H42.1855V301.547H44.4355V300.205C44.0332 300.033 43.7227 299.814 43.5039 299.549C43.2891 299.283 43.1816 298.98 43.1816 298.641C43.1816 298.223 43.3359 297.863 43.6445 297.562C43.957 297.258 44.4004 297.025 44.9746 296.865C45.5527 296.705 46.2285 296.625 47.002 296.625C47.7754 296.625 48.4492 296.705 49.0234 296.865C49.5977 297.025 50.0391 297.258 50.3477 297.562C50.6602 297.863 50.8184 298.223 50.8223 298.641C50.8184 298.984 50.707 299.289 50.4883 299.555C50.2734 299.82 49.9629 300.037 49.5566 300.205V301.547H51.8418V302.59ZM47.002 303.234C47.7637 303.23 48.418 303.303 48.9648 303.451C49.5117 303.596 49.9316 303.811 50.2246 304.096C50.5176 304.377 50.666 304.719 50.6699 305.121C50.666 305.527 50.5176 305.871 50.2246 306.152C49.9316 306.438 49.5117 306.652 48.9648 306.797C48.418 306.945 47.7637 307.02 47.002 307.02C46.2324 307.02 45.5703 306.945 45.0156 306.797C44.4648 306.652 44.043 306.438 43.75 306.152C43.457 305.871 43.3105 305.527 43.3105 305.121C43.3105 304.719 43.457 304.377 43.75 304.096C44.043 303.811 44.4648 303.596 45.0156 303.451C45.5703 303.303 46.2324 303.23 47.002 303.234ZM47.002 304.219C46.2246 304.219 45.6348 304.295 45.2324 304.447C44.8301 304.6 44.6309 304.824 44.6348 305.121C44.6309 305.418 44.8301 305.645 45.2324 305.801C45.6387 305.957 46.2285 306.035 47.002 306.035C47.7598 306.035 48.3418 305.957 48.748 305.801C49.1582 305.645 49.3652 305.418 49.3691 305.121C49.3652 304.824 49.1602 304.6 48.7539 304.447C48.3477 304.295 47.7637 304.219 47.002 304.219ZM47.002 297.633C46.2129 297.633 45.6035 297.721 45.1738 297.896C44.748 298.068 44.5371 298.316 44.541 298.641C44.5371 298.961 44.748 299.205 45.1738 299.373C45.5996 299.541 46.209 299.625 47.002 299.625C47.7871 299.625 48.3945 299.541 48.8242 299.373C49.2578 299.205 49.4746 298.961 49.4746 298.641C49.4746 298.316 49.2578 298.068 48.8242 297.896C48.3945 297.721 47.7871 297.633 47.002 297.633ZM48.2559 301.547V300.539C47.8613 300.594 47.4434 300.621 47.002 300.621C46.5605 300.621 46.1426 300.594 45.748 300.539V301.547H48.2559ZM61.4277 302.742H60.127V300.152H58.3223V299.086H60.127V296.449H61.4277V302.742ZM57.8418 303.012C58.5879 303.012 59.2324 303.092 59.7754 303.252C60.3223 303.408 60.7402 303.639 61.0293 303.943C61.3184 304.244 61.4629 304.605 61.4629 305.027C61.4629 305.449 61.3184 305.811 61.0293 306.111C60.7402 306.416 60.3223 306.646 59.7754 306.803C59.2324 306.963 58.5879 307.043 57.8418 307.043C57.0996 307.043 56.457 306.963 55.9141 306.803C55.3711 306.646 54.9551 306.416 54.666 306.111C54.3809 305.811 54.2402 305.449 54.2441 305.027C54.2402 304.605 54.3809 304.244 54.666 303.943C54.9551 303.639 55.3711 303.408 55.9141 303.252C56.457 303.092 57.0996 303.012 57.8418 303.012ZM57.8418 304.008C57.0996 304.008 56.5293 304.096 56.1309 304.271C55.7324 304.443 55.5332 304.695 55.5332 305.027C55.5332 305.355 55.7324 305.605 56.1309 305.777C56.5293 305.949 57.0996 306.035 57.8418 306.035C58.584 306.035 59.1562 305.949 59.5586 305.777C59.9609 305.605 60.1621 305.355 60.1621 305.027C60.1621 304.695 59.9609 304.443 59.5586 304.271C59.1562 304.096 58.584 304.008 57.8418 304.008ZM56.4473 298.266C56.4473 298.703 56.543 299.129 56.7344 299.543C56.9258 299.953 57.209 300.322 57.584 300.65C57.959 300.975 58.4121 301.227 58.9434 301.406L58.2871 302.438C57.7129 302.242 57.2148 301.955 56.793 301.576C56.375 301.193 56.0469 300.748 55.8086 300.24C55.5703 300.814 55.2305 301.316 54.7891 301.746C54.3477 302.172 53.8184 302.496 53.2012 302.719L52.5215 301.688C53.0723 301.5 53.543 301.229 53.9336 300.873C54.3242 300.514 54.6191 300.109 54.8184 299.66C55.0215 299.211 55.123 298.75 55.123 298.277V298.195H52.9199V297.141H58.6387V298.195H56.4473V298.266ZM72.6074 305.766H62.9277V304.699H67.0996V302.637H63.9941V297.152H65.2949V298.887H70.2051V297.152H71.5059V302.637H68.3887V304.699H72.6074V305.766ZM70.2051 301.582V299.93H65.2949V301.582H70.2051ZM84.7598 302.156H81.6309V304.723H85.8262V305.777H76.1465V304.723H80.3184V302.156H77.2598V297.293H78.5957V301.102H84.7598V302.156ZM96.1504 301.992H91.9785V302.766H94.9668V305.25H88.9434V305.977H95.2598V306.949H87.666V304.359H93.6895V303.703H87.6543V302.766H90.6895V301.992H86.541V301.031H96.1504V301.992ZM91.9785 297.316H95.2246V298.289H92.1133C92.1992 298.543 92.3926 298.771 92.6934 298.975C92.998 299.174 93.4043 299.338 93.9121 299.467C94.4238 299.592 95.0254 299.672 95.7168 299.707L95.3301 300.68C94.373 300.621 93.5508 300.465 92.8633 300.211C92.1758 299.957 91.666 299.617 91.334 299.191C91.002 299.617 90.4922 299.957 89.8047 300.211C89.1172 300.465 88.291 300.621 87.3262 300.68L86.9629 299.707C87.6465 299.672 88.2402 299.592 88.7441 299.467C89.252 299.338 89.6582 299.174 89.9629 298.975C90.2676 298.771 90.4648 298.543 90.5547 298.289H87.4668V297.316H90.6895V296.426H91.9785V297.316Z" fill="#464646"/>
<path d="M95.2948 322.794C92.0442 318.688 88.6804 314.443 84.1086 314.443C78.8403 314.443 75.9187 320.813 73.0938 326.975C70.092 333.524 67.2561 339.709 61.8109 339.709C57.018 339.709 53.9941 335.534 51.0697 331.492C48.4521 327.872 45.9783 324.456 42.479 324.456C36.2405 324.456 33.504 333.27 30.8588 341.8C28.537 349.287 26.3396 356.364 22 356.757V357.887C26.8537 357.504 29.2584 349.756 31.583 342.257C34.126 334.063 36.7546 325.591 42.4762 325.591C45.6549 325.591 47.9076 328.706 50.5141 332.308C53.4109 336.31 56.6946 340.844 61.8081 340.844C67.6817 340.844 70.7692 334.109 73.7572 327.6C76.5903 321.421 79.2687 315.584 84.1058 315.584C88.3763 315.584 91.4804 319.505 94.7668 323.651C98.0257 327.768 101.398 332.019 106 332.053V330.924C101.699 330.895 98.5868 326.969 95.292 322.805L95.2948 322.794Z" fill="#4155E0"/>
<path d="M25.4824 381.396C25.4824 382.067 24.9214 382.606 24.2614 382.606C23.6014 382.606 23.0404 382.067 23.0404 381.396C23.0404 380.736 23.6014 380.175 24.2614 380.175C24.9214 380.175 25.4824 380.736 25.4824 381.396ZM40.761 382.364H39.584V376.314H40.761V378.734H42.29V379.757H40.761V382.364ZM37.593 382.441C39.749 382.441 40.86 383.255 40.86 384.487C40.86 385.741 39.749 386.533 37.593 386.533C35.437 386.533 34.304 385.741 34.304 384.487C34.304 383.255 35.426 382.441 37.593 382.441ZM37.593 383.42C36.086 383.42 35.481 383.882 35.481 384.487C35.481 385.103 36.086 385.565 37.593 385.565C39.122 385.565 39.683 385.114 39.683 384.487C39.683 383.882 39.122 383.42 37.593 383.42ZM33.281 376.853H38.154V377.887H34.447V380.527C35.679 380.527 37.648 380.461 38.913 380.241L39.045 381.242C37.648 381.528 35.085 381.583 33.281 381.583V376.853ZM44.4173 384.19H50.0713V383.629H44.4173V382.793H51.2263V384.993H45.5723V385.609H51.4683V386.434H44.4173V384.19ZM46.1443 376.402C47.7723 376.402 48.7403 377.073 48.7403 378.063C48.7403 379.053 47.7723 379.724 46.1443 379.724C44.5053 379.724 43.5263 379.053 43.5263 378.063C43.5263 377.073 44.5053 376.402 46.1443 376.402ZM50.0603 382.144H47.8273V381.319H50.0603V376.314H51.2263V382.441H50.0603V382.144ZM42.8993 380.219C44.5053 380.219 47.8603 380.12 49.4883 379.966L49.5543 380.791C48.6523 380.89 47.6733 380.956 46.6503 381.011V382.452H45.4953V381.066C44.6813 381.099 43.8563 381.121 43.0533 381.132L42.8993 380.219ZM46.1443 377.304C45.1763 377.304 44.6593 377.623 44.6593 378.063C44.6593 378.492 45.1543 378.8 46.1443 378.8C47.1123 378.8 47.6183 378.492 47.6183 378.063C47.6183 377.623 47.1123 377.304 46.1443 377.304ZM25.4824 401.396C25.4824 402.067 24.9214 402.606 24.2614 402.606C23.6014 402.606 23.0404 402.067 23.0404 401.396C23.0404 400.736 23.6014 400.175 24.2614 400.175C24.9214 400.175 25.4824 400.736 25.4824 401.396ZM38.495 402.265C37.351 401.858 36.372 401.011 35.987 400.153C35.602 401.011 34.678 401.902 33.567 402.419L32.907 401.594C34.293 401 35.404 399.944 35.404 398.349V397.821H33.314V396.82H38.66V397.821H36.57V398.349C36.57 399.911 37.604 400.923 39.067 401.44L38.495 402.265ZM40.167 399.834H38.099V398.789H40.167V396.314H41.333V403.893H40.167V399.834ZM34.623 402.991H35.811V405.279H41.575V406.302H34.623V402.991ZM44.4173 404.19H50.0713V403.629H44.4173V402.793H51.2263V404.993H45.5723V405.609H51.4683V406.434H44.4173V404.19ZM46.1443 396.402C47.7723 396.402 48.7403 397.073 48.7403 398.063C48.7403 399.053 47.7723 399.724 46.1443 399.724C44.5053 399.724 43.5263 399.053 43.5263 398.063C43.5263 397.073 44.5053 396.402 46.1443 396.402ZM50.0603 402.144H47.8273V401.319H50.0603V396.314H51.2263V402.441H50.0603V402.144ZM42.8993 400.219C44.5053 400.219 47.8603 400.12 49.4883 399.966L49.5543 400.791C48.6523 400.89 47.6733 400.956 46.6503 401.011V402.452H45.4953V401.066C44.6813 401.099 43.8563 401.121 43.0533 401.132L42.8993 400.219ZM46.1443 397.304C45.1763 397.304 44.6593 397.623 44.6593 398.063C44.6593 398.492 45.1543 398.8 46.1443 398.8C47.1123 398.8 47.6183 398.492 47.6183 398.063C47.6183 397.623 47.1123 397.304 46.1443 397.304ZM25.4824 421.396C25.4824 422.067 24.9214 422.606 24.2614 422.606C23.6014 422.606 23.0404 422.067 23.0404 421.396C23.0404 420.736 23.6014 420.175 24.2614 420.175C24.9214 420.175 25.4824 420.736 25.4824 421.396ZM40.156 416.314H41.333V423.948H40.156V421.231H37.956C37.483 421.781 36.779 422.122 35.899 422.122C34.26 422.122 33.182 420.923 33.182 419.471C33.182 418.008 34.271 416.809 35.888 416.809C36.768 416.809 37.483 417.161 37.956 417.711H40.156V416.314ZM34.711 422.914H35.877V425.279H41.575V426.302H34.711V422.914ZM35.888 417.821C34.931 417.821 34.337 418.624 34.337 419.471C34.337 420.318 34.931 421.11 35.899 421.11C36.867 421.11 37.461 420.307 37.461 419.471C37.461 418.624 36.867 417.821 35.888 417.821ZM38.594 419.471C38.594 419.757 38.55 420.032 38.473 420.285H40.156V418.657H38.473C38.55 418.921 38.594 419.185 38.594 419.471ZM47.8933 422.683C50.0603 422.683 51.2703 423.409 51.2703 424.608C51.2703 425.829 50.0603 426.533 47.8933 426.533C45.7703 426.533 44.5273 425.829 44.5273 424.608C44.5273 423.409 45.7703 422.683 47.8933 422.683ZM48.5973 421.902C46.7383 422.133 44.6373 422.243 43.0203 422.254L42.8333 421.209H44.1643L43.8563 418.371L45.0003 418.239L45.1543 421.187C45.5173 421.187 45.8693 421.176 46.2213 421.154L46.4413 418.206L47.5853 418.349L47.2443 421.099C47.6623 421.077 48.0803 421.033 48.5203 420.978L48.5973 421.902ZM50.0383 416.314H51.2153V422.738H50.0383V420.736H48.5093V419.801H50.0383V418.877H48.5093V417.953H50.0383V416.314ZM47.9043 423.662C46.4413 423.662 45.7153 423.992 45.7153 424.608C45.7153 425.246 46.4413 425.565 47.9043 425.565C49.3233 425.565 50.1043 425.246 50.1043 424.608C50.1043 423.992 49.3233 423.662 47.9043 423.662ZM43.0313 416.798H48.3773V417.788H43.0313V416.798ZM59.5026 424.091H58.3586V421.682H56.8076V424.091H55.6636V421.682H52.5726V420.681H59.0846C59.2606 419.856 59.3486 418.459 59.3486 417.843H53.8266V416.842H60.5476C60.5476 417.854 60.4266 419.647 60.2286 420.681H61.9446V421.682H59.5026V424.091ZM53.7056 422.87H54.8606V425.257H60.8776V426.258H53.7056V422.87Z" fill="#868B98"/>
<path d="M100.519 378.162L100.42 380.263C100.717 380.164 101.025 380.098 101.388 380.098C102.928 380.098 103.973 381.132 103.973 382.672C103.973 384.366 102.741 385.378 100.981 385.378C100.233 385.378 99.5075 385.169 99.0235 384.894V383.684C99.5625 384.058 100.277 384.289 100.981 384.289C101.938 384.289 102.807 383.717 102.807 382.672C102.807 381.792 102.235 381.132 101.058 381.132C100.453 381.132 99.8375 381.253 99.2215 381.451L99.4085 377.062H103.566V378.162H100.519Z" fill="#0068FF"/>
<path d="M102.674 405.268H101.464V398.569L100.474 399.471L99.7808 398.723L101.684 397.062H102.674V405.268ZM98.9296 424.883L99.1386 423.783C99.7436 424.08 100.448 424.278 101.075 424.278C101.988 424.278 102.769 423.827 102.769 422.936C102.769 422.056 102.164 421.539 100.932 421.539H100.118V420.461H100.712C101.845 420.461 102.747 420.131 102.747 419.097C102.747 418.382 102.087 418.052 101.251 418.052C100.723 418.052 100.129 418.217 99.4466 418.547L99.2816 417.414C99.9526 417.139 100.646 416.952 101.317 416.952C102.692 416.952 103.935 417.634 103.935 419.097C103.935 419.966 103.407 420.692 102.538 420.978C103.385 421.264 103.957 421.957 103.957 422.936C103.957 424.553 102.681 425.378 101.031 425.378C100.195 425.378 99.4906 425.158 98.9296 424.883Z" fill="#484C59"/>
</g>
<g filter="url(#filter2_d_572_955)">
<rect x="125" y="271" width="104" height="171" rx="20" fill="white" shape-rendering="crispEdges"/>
<path d="M153.908 307.043H152.654V301.605H151.518V306.551H150.299V296.73H151.518V300.551H152.654V296.449H153.908V307.043ZM149.396 297.785C149.396 298.793 149.275 299.719 149.033 300.562C148.791 301.406 148.381 302.189 147.803 302.912C147.225 303.635 146.451 304.273 145.482 304.828L144.732 303.926C145.826 303.293 146.641 302.559 147.176 301.723C147.715 300.887 148.033 299.922 148.131 298.828H145.225V297.785H149.396ZM164.01 304.113H162.697V296.461H164.01V304.113ZM164.303 306.832H157.002V303.34H158.314V305.777H164.303V306.832ZM158.232 297.152C158.764 297.152 159.246 297.268 159.68 297.498C160.113 297.725 160.455 298.039 160.705 298.441C160.955 298.844 161.08 299.297 161.08 299.801C161.08 300.312 160.955 300.771 160.705 301.178C160.455 301.58 160.113 301.895 159.68 302.121C159.246 302.348 158.764 302.461 158.232 302.461C157.697 302.461 157.211 302.348 156.773 302.121C156.34 301.895 155.998 301.58 155.748 301.178C155.498 300.771 155.373 300.312 155.373 299.801C155.373 299.297 155.498 298.844 155.748 298.441C155.998 298.039 156.34 297.725 156.773 297.498C157.211 297.268 157.697 297.152 158.232 297.152ZM158.232 298.289C157.932 298.289 157.66 298.352 157.418 298.477C157.176 298.602 156.986 298.779 156.85 299.01C156.713 299.24 156.646 299.504 156.65 299.801C156.646 300.105 156.713 300.373 156.85 300.604C156.986 300.834 157.176 301.012 157.418 301.137C157.66 301.262 157.932 301.324 158.232 301.324C158.525 301.324 158.791 301.262 159.029 301.137C159.268 301.012 159.455 300.834 159.592 300.604C159.732 300.373 159.803 300.105 159.803 299.801C159.803 299.504 159.732 299.24 159.592 299.01C159.455 298.779 159.268 298.602 159.029 298.477C158.791 298.352 158.525 298.289 158.232 298.289ZM174.428 302.742H173.127V300.152H171.322V299.086H173.127V296.449H174.428V302.742ZM170.842 303.012C171.588 303.012 172.232 303.092 172.775 303.252C173.322 303.408 173.74 303.639 174.029 303.943C174.318 304.244 174.463 304.605 174.463 305.027C174.463 305.449 174.318 305.811 174.029 306.111C173.74 306.416 173.322 306.646 172.775 306.803C172.232 306.963 171.588 307.043 170.842 307.043C170.1 307.043 169.457 306.963 168.914 306.803C168.371 306.646 167.955 306.416 167.666 306.111C167.381 305.811 167.24 305.449 167.244 305.027C167.24 304.605 167.381 304.244 167.666 303.943C167.955 303.639 168.371 303.408 168.914 303.252C169.457 303.092 170.1 303.012 170.842 303.012ZM170.842 304.008C170.1 304.008 169.529 304.096 169.131 304.271C168.732 304.443 168.533 304.695 168.533 305.027C168.533 305.355 168.732 305.605 169.131 305.777C169.529 305.949 170.1 306.035 170.842 306.035C171.584 306.035 172.156 305.949 172.559 305.777C172.961 305.605 173.162 305.355 173.162 305.027C173.162 304.695 172.961 304.443 172.559 304.271C172.156 304.096 171.584 304.008 170.842 304.008ZM169.447 298.266C169.447 298.703 169.543 299.129 169.734 299.543C169.926 299.953 170.209 300.322 170.584 300.65C170.959 300.975 171.412 301.227 171.943 301.406L171.287 302.438C170.713 302.242 170.215 301.955 169.793 301.576C169.375 301.193 169.047 300.748 168.809 300.24C168.57 300.814 168.23 301.316 167.789 301.746C167.348 302.172 166.818 302.496 166.201 302.719L165.521 301.688C166.072 301.5 166.543 301.229 166.934 300.873C167.324 300.514 167.619 300.109 167.818 299.66C168.021 299.211 168.123 298.75 168.123 298.277V298.195H165.92V297.141H171.639V298.195H169.447V298.266ZM185.607 305.766H175.928V304.699H180.1V302.637H176.994V297.152H178.295V298.887H183.205V297.152H184.506V302.637H181.389V304.699H185.607V305.766ZM183.205 301.582V299.93H178.295V301.582H183.205ZM197.76 302.156H194.631V304.723H198.826V305.777H189.146V304.723H193.318V302.156H190.26V297.293H191.596V301.102H197.76V302.156ZM209.15 301.992H204.979V302.766H207.967V305.25H201.943V305.977H208.26V306.949H200.666V304.359H206.689V303.703H200.654V302.766H203.689V301.992H199.541V301.031H209.15V301.992ZM204.979 297.316H208.225V298.289H205.113C205.199 298.543 205.393 298.771 205.693 298.975C205.998 299.174 206.404 299.338 206.912 299.467C207.424 299.592 208.025 299.672 208.717 299.707L208.33 300.68C207.373 300.621 206.551 300.465 205.863 300.211C205.176 299.957 204.666 299.617 204.334 299.191C204.002 299.617 203.492 299.957 202.805 300.211C202.117 300.465 201.291 300.621 200.326 300.68L199.963 299.707C200.646 299.672 201.24 299.592 201.744 299.467C202.252 299.338 202.658 299.174 202.963 298.975C203.268 298.771 203.465 298.543 203.555 298.289H200.467V297.316H203.689V296.426H204.979V297.316Z" fill="#464646"/>
<path d="M138.482 381.396C138.482 382.067 137.921 382.606 137.261 382.606C136.601 382.606 136.04 382.067 136.04 381.396C136.04 380.736 136.601 380.175 137.261 380.175C137.921 380.175 138.482 380.736 138.482 381.396ZM153.761 382.364H152.584V376.314H153.761V378.734H155.29V379.757H153.761V382.364ZM150.593 382.441C152.749 382.441 153.86 383.255 153.86 384.487C153.86 385.741 152.749 386.533 150.593 386.533C148.437 386.533 147.304 385.741 147.304 384.487C147.304 383.255 148.426 382.441 150.593 382.441ZM150.593 383.42C149.086 383.42 148.481 383.882 148.481 384.487C148.481 385.103 149.086 385.565 150.593 385.565C152.122 385.565 152.683 385.114 152.683 384.487C152.683 383.882 152.122 383.42 150.593 383.42ZM146.281 376.853H151.154V377.887H147.447V380.527C148.679 380.527 150.648 380.461 151.913 380.241L152.045 381.242C150.648 381.528 148.085 381.583 146.281 381.583V376.853ZM157.417 384.19H163.071V383.629H157.417V382.793H164.226V384.993H158.572V385.609H164.468V386.434H157.417V384.19ZM159.144 376.402C160.772 376.402 161.74 377.073 161.74 378.063C161.74 379.053 160.772 379.724 159.144 379.724C157.505 379.724 156.526 379.053 156.526 378.063C156.526 377.073 157.505 376.402 159.144 376.402ZM163.06 382.144H160.827V381.319H163.06V376.314H164.226V382.441H163.06V382.144ZM155.899 380.219C157.505 380.219 160.86 380.12 162.488 379.966L162.554 380.791C161.652 380.89 160.673 380.956 159.65 381.011V382.452H158.495V381.066C157.681 381.099 156.856 381.121 156.053 381.132L155.899 380.219ZM159.144 377.304C158.176 377.304 157.659 377.623 157.659 378.063C157.659 378.492 158.154 378.8 159.144 378.8C160.112 378.8 160.618 378.492 160.618 378.063C160.618 377.623 160.112 377.304 159.144 377.304ZM138.482 401.396C138.482 402.067 137.921 402.606 137.261 402.606C136.601 402.606 136.04 402.067 136.04 401.396C136.04 400.736 136.601 400.175 137.261 400.175C137.921 400.175 138.482 400.736 138.482 401.396ZM151.495 402.265C150.351 401.858 149.372 401.011 148.987 400.153C148.602 401.011 147.678 401.902 146.567 402.419L145.907 401.594C147.293 401 148.404 399.944 148.404 398.349V397.821H146.314V396.82H151.66V397.821H149.57V398.349C149.57 399.911 150.604 400.923 152.067 401.44L151.495 402.265ZM153.167 399.834H151.099V398.789H153.167V396.314H154.333V403.893H153.167V399.834ZM147.623 402.991H148.811V405.279H154.575V406.302H147.623V402.991ZM157.417 404.19H163.071V403.629H157.417V402.793H164.226V404.993H158.572V405.609H164.468V406.434H157.417V404.19ZM159.144 396.402C160.772 396.402 161.74 397.073 161.74 398.063C161.74 399.053 160.772 399.724 159.144 399.724C157.505 399.724 156.526 399.053 156.526 398.063C156.526 397.073 157.505 396.402 159.144 396.402ZM163.06 402.144H160.827V401.319H163.06V396.314H164.226V402.441H163.06V402.144ZM155.899 400.219C157.505 400.219 160.86 400.12 162.488 399.966L162.554 400.791C161.652 400.89 160.673 400.956 159.65 401.011V402.452H158.495V401.066C157.681 401.099 156.856 401.121 156.053 401.132L155.899 400.219ZM159.144 397.304C158.176 397.304 157.659 397.623 157.659 398.063C157.659 398.492 158.154 398.8 159.144 398.8C160.112 398.8 160.618 398.492 160.618 398.063C160.618 397.623 160.112 397.304 159.144 397.304ZM138.482 421.396C138.482 422.067 137.921 422.606 137.261 422.606C136.601 422.606 136.04 422.067 136.04 421.396C136.04 420.736 136.601 420.175 137.261 420.175C137.921 420.175 138.482 420.736 138.482 421.396ZM153.156 416.314H154.333V423.948H153.156V421.231H150.956C150.483 421.781 149.779 422.122 148.899 422.122C147.26 422.122 146.182 420.923 146.182 419.471C146.182 418.008 147.271 416.809 148.888 416.809C149.768 416.809 150.483 417.161 150.956 417.711H153.156V416.314ZM147.711 422.914H148.877V425.279H154.575V426.302H147.711V422.914ZM148.888 417.821C147.931 417.821 147.337 418.624 147.337 419.471C147.337 420.318 147.931 421.11 148.899 421.11C149.867 421.11 150.461 420.307 150.461 419.471C150.461 418.624 149.867 417.821 148.888 417.821ZM151.594 419.471C151.594 419.757 151.55 420.032 151.473 420.285H153.156V418.657H151.473C151.55 418.921 151.594 419.185 151.594 419.471ZM160.893 422.683C163.06 422.683 164.27 423.409 164.27 424.608C164.27 425.829 163.06 426.533 160.893 426.533C158.77 426.533 157.527 425.829 157.527 424.608C157.527 423.409 158.77 422.683 160.893 422.683ZM161.597 421.902C159.738 422.133 157.637 422.243 156.02 422.254L155.833 421.209H157.164L156.856 418.371L158 418.239L158.154 421.187C158.517 421.187 158.869 421.176 159.221 421.154L159.441 418.206L160.585 418.349L160.244 421.099C160.662 421.077 161.08 421.033 161.52 420.978L161.597 421.902ZM163.038 416.314H164.215V422.738H163.038V420.736H161.509V419.801H163.038V418.877H161.509V417.953H163.038V416.314ZM160.904 423.662C159.441 423.662 158.715 423.992 158.715 424.608C158.715 425.246 159.441 425.565 160.904 425.565C162.323 425.565 163.104 425.246 163.104 424.608C163.104 423.992 162.323 423.662 160.904 423.662ZM156.031 416.798H161.377V417.788H156.031V416.798ZM172.503 424.091H171.359V421.682H169.808V424.091H168.664V421.682H165.573V420.681H172.085C172.261 419.856 172.349 418.459 172.349 417.843H166.827V416.842H173.548C173.548 417.854 173.427 419.647 173.229 420.681H174.945V421.682H172.503V424.091ZM166.706 422.87H167.861V425.257H173.878V426.258H166.706V422.87Z" fill="#868B98"/>
<path d="M198.658 385.268H197.448V378.569L196.458 379.471L195.765 378.723L197.668 377.062H198.658V385.268ZM201.888 385.961H200.524V384.652H201.888V385.961ZM203.1 384.883L203.309 383.783C203.914 384.08 204.618 384.278 205.245 384.278C206.158 384.278 206.939 383.827 206.939 382.936C206.939 382.056 206.334 381.539 205.102 381.539H204.288V380.461H204.882C206.015 380.461 206.917 380.131 206.917 379.097C206.917 378.382 206.257 378.052 205.421 378.052C204.893 378.052 204.299 378.217 203.617 378.547L203.452 377.414C204.123 377.139 204.816 376.952 205.487 376.952C206.862 376.952 208.105 377.634 208.105 379.097C208.105 379.966 207.577 380.692 206.708 380.978C207.555 381.264 208.127 381.957 208.127 382.936C208.127 384.553 206.851 385.378 205.201 385.378C204.365 385.378 203.661 385.158 203.1 384.883ZM213.729 385.268H208.79V384.289L211.199 381.539C212.123 380.483 212.365 379.988 212.365 379.196C212.365 378.525 211.76 378.03 211.1 378.03C210.528 378.03 209.967 378.294 209.252 378.723L208.922 377.645C209.648 377.227 210.396 376.952 211.045 376.952C212.475 376.952 213.553 377.733 213.553 379.196C213.553 380.12 213.278 380.89 212.134 382.188L210.363 384.19H213.729V385.268ZM216.103 378.162L216.004 380.263C216.301 380.164 216.609 380.098 216.972 380.098C218.512 380.098 219.557 381.132 219.557 382.672C219.557 384.366 218.325 385.378 216.565 385.378C215.817 385.378 215.091 385.169 214.607 384.894V383.684C215.146 384.058 215.861 384.289 216.565 384.289C217.522 384.289 218.391 383.717 218.391 382.672C218.391 381.792 217.819 381.132 216.642 381.132C216.037 381.132 215.421 381.253 214.805 381.451L214.992 377.062H219.15V378.162H216.103Z" fill="#0068FF"/>
<path d="M197.348 405.268H196.138V398.569L195.148 399.471L194.455 398.723L196.358 397.062H197.348V405.268ZM200.687 404.553L199.73 406.841H198.773L199.356 404.553H200.687ZM204.315 396.952C206.053 396.952 207.01 398.382 207.01 401.154C207.01 403.926 206.053 405.378 204.315 405.378C202.577 405.378 201.62 403.926 201.62 401.154C201.62 398.382 202.566 396.952 204.315 396.952ZM204.315 398.085C202.995 398.085 202.808 399.867 202.808 401.154C202.808 402.452 202.995 404.256 204.315 404.256C205.635 404.256 205.822 402.43 205.822 401.154C205.822 399.878 205.635 398.085 204.315 398.085ZM210.588 396.952C212.326 396.952 213.283 398.382 213.283 401.154C213.283 403.926 212.326 405.378 210.588 405.378C208.85 405.378 207.893 403.926 207.893 401.154C207.893 398.382 208.839 396.952 210.588 396.952ZM210.588 398.085C209.268 398.085 209.081 399.867 209.081 401.154C209.081 402.452 209.268 404.256 210.588 404.256C211.908 404.256 212.095 402.43 212.095 401.154C212.095 399.878 211.908 398.085 210.588 398.085ZM216.862 396.952C218.6 396.952 219.557 398.382 219.557 401.154C219.557 403.926 218.6 405.378 216.862 405.378C215.124 405.378 214.167 403.926 214.167 401.154C214.167 398.382 215.113 396.952 216.862 396.952ZM216.862 398.085C215.542 398.085 215.355 399.867 215.355 401.154C215.355 402.452 215.542 404.256 216.862 404.256C218.182 404.256 218.369 402.43 218.369 401.154C218.369 399.878 218.182 398.085 216.862 398.085ZM197.788 425.268H196.578V418.569L195.588 419.471L194.895 418.723L196.798 417.062H197.788V425.268ZM201.127 424.553L200.17 426.841H199.213L199.796 424.553H201.127ZM203.556 418.162L203.457 420.263C203.754 420.164 204.062 420.098 204.425 420.098C205.965 420.098 207.01 421.132 207.01 422.672C207.01 424.366 205.778 425.378 204.018 425.378C203.27 425.378 202.544 425.169 202.06 424.894V423.684C202.599 424.058 203.314 424.289 204.018 424.289C204.975 424.289 205.844 423.717 205.844 422.672C205.844 421.792 205.272 421.132 204.095 421.132C203.49 421.132 202.874 421.253 202.258 421.451L202.445 417.062H206.603V418.162H203.556ZM210.588 416.952C212.326 416.952 213.283 418.382 213.283 421.154C213.283 423.926 212.326 425.378 210.588 425.378C208.85 425.378 207.893 423.926 207.893 421.154C207.893 418.382 208.839 416.952 210.588 416.952ZM210.588 418.085C209.268 418.085 209.081 419.867 209.081 421.154C209.081 422.452 209.268 424.256 210.588 424.256C211.908 424.256 212.095 422.43 212.095 421.154C212.095 419.878 211.908 418.085 210.588 418.085ZM216.862 416.952C218.6 416.952 219.557 418.382 219.557 421.154C219.557 423.926 218.6 425.378 216.862 425.378C215.124 425.378 214.167 423.926 214.167 421.154C214.167 418.382 215.113 416.952 216.862 416.952ZM216.862 418.085C215.542 418.085 215.355 419.867 215.355 421.154C215.355 422.452 215.542 424.256 216.862 424.256C218.182 424.256 218.369 422.43 218.369 421.154C218.369 419.878 218.182 418.085 216.862 418.085Z" fill="#484C59"/>
<path d="M208.295 322.794C205.044 318.688 201.68 314.443 197.109 314.443C191.84 314.443 188.919 320.813 186.094 326.975C183.092 333.524 180.256 339.709 174.811 339.709C170.018 339.709 166.994 335.534 164.07 331.492C161.452 327.872 158.978 324.456 155.479 324.456C149.24 324.456 146.504 333.27 143.859 341.8C141.537 349.287 139.34 356.364 135 356.757V357.887C139.854 357.504 142.258 349.756 144.583 342.257C147.126 334.063 149.755 325.591 155.476 325.591C158.655 325.591 160.908 328.706 163.514 332.308C166.411 336.31 169.695 340.844 174.808 340.844C180.682 340.844 183.769 334.109 186.757 327.6C189.59 321.421 192.269 315.584 197.106 315.584C201.376 315.584 204.48 319.505 207.767 323.651C211.026 327.768 214.398 332.019 219 332.053V330.924C214.699 330.895 211.587 326.969 208.292 322.805L208.295 322.794Z" fill="#4155E0"/>
</g>
<g filter="url(#filter3_d_572_955)">
<rect x="238" y="271" width="104" height="171" rx="20" fill="white" shape-rendering="crispEdges"/>
<path d="M266.662 307.043H265.35V296.449H266.662V307.043ZM263.498 297.574C263.498 299.258 263.117 300.736 262.355 302.01C261.594 303.279 260.33 304.332 258.564 305.168L257.885 304.125C259.248 303.477 260.273 302.701 260.961 301.799C261.652 300.893 262.057 299.828 262.174 298.605H258.424V297.574H263.498ZM273.834 301.418H268.725V297H273.834V301.418ZM270.014 300.398H272.545V298.043H270.014V300.398ZM276.986 301.84H275.697V296.449H276.986V301.84ZM276.986 305.062H271.279V305.918H277.303V306.949H269.99V304.125H275.721V303.34H269.979V302.32H276.986V305.062ZM287.428 302.742H286.127V300.152H284.322V299.086H286.127V296.449H287.428V302.742ZM283.842 303.012C284.588 303.012 285.232 303.092 285.775 303.252C286.322 303.408 286.74 303.639 287.029 303.943C287.318 304.244 287.463 304.605 287.463 305.027C287.463 305.449 287.318 305.811 287.029 306.111C286.74 306.416 286.322 306.646 285.775 306.803C285.232 306.963 284.588 307.043 283.842 307.043C283.1 307.043 282.457 306.963 281.914 306.803C281.371 306.646 280.955 306.416 280.666 306.111C280.381 305.811 280.24 305.449 280.244 305.027C280.24 304.605 280.381 304.244 280.666 303.943C280.955 303.639 281.371 303.408 281.914 303.252C282.457 303.092 283.1 303.012 283.842 303.012ZM283.842 304.008C283.1 304.008 282.529 304.096 282.131 304.271C281.732 304.443 281.533 304.695 281.533 305.027C281.533 305.355 281.732 305.605 282.131 305.777C282.529 305.949 283.1 306.035 283.842 306.035C284.584 306.035 285.156 305.949 285.559 305.777C285.961 305.605 286.162 305.355 286.162 305.027C286.162 304.695 285.961 304.443 285.559 304.271C285.156 304.096 284.584 304.008 283.842 304.008ZM282.447 298.266C282.447 298.703 282.543 299.129 282.734 299.543C282.926 299.953 283.209 300.322 283.584 300.65C283.959 300.975 284.412 301.227 284.943 301.406L284.287 302.438C283.713 302.242 283.215 301.955 282.793 301.576C282.375 301.193 282.047 300.748 281.809 300.24C281.57 300.814 281.23 301.316 280.789 301.746C280.348 302.172 279.818 302.496 279.201 302.719L278.521 301.688C279.072 301.5 279.543 301.229 279.934 300.873C280.324 300.514 280.619 300.109 280.818 299.66C281.021 299.211 281.123 298.75 281.123 298.277V298.195H278.92V297.141H284.639V298.195H282.447V298.266ZM298.607 305.766H288.928V304.699H293.1V302.637H289.994V297.152H291.295V298.887H296.205V297.152H297.506V302.637H294.389V304.699H298.607V305.766ZM296.205 301.582V299.93H291.295V301.582H296.205ZM310.76 302.156H307.631V304.723H311.826V305.777H302.146V304.723H306.318V302.156H303.26V297.293H304.596V301.102H310.76V302.156ZM322.15 301.992H317.979V302.766H320.967V305.25H314.943V305.977H321.26V306.949H313.666V304.359H319.689V303.703H313.654V302.766H316.689V301.992H312.541V301.031H322.15V301.992ZM317.979 297.316H321.225V298.289H318.113C318.199 298.543 318.393 298.771 318.693 298.975C318.998 299.174 319.404 299.338 319.912 299.467C320.424 299.592 321.025 299.672 321.717 299.707L321.33 300.68C320.373 300.621 319.551 300.465 318.863 300.211C318.176 299.957 317.666 299.617 317.334 299.191C317.002 299.617 316.492 299.957 315.805 300.211C315.117 300.465 314.291 300.621 313.326 300.68L312.963 299.707C313.646 299.672 314.24 299.592 314.744 299.467C315.252 299.338 315.658 299.174 315.963 298.975C316.268 298.771 316.465 298.543 316.555 298.289H313.467V297.316H316.689V296.426H317.979V297.316Z" fill="#464646"/>
<path d="M251.482 381.396C251.482 382.067 250.921 382.606 250.261 382.606C249.601 382.606 249.04 382.067 249.04 381.396C249.04 380.736 249.601 380.175 250.261 380.175C250.921 380.175 251.482 380.736 251.482 381.396ZM266.761 382.364H265.584V376.314H266.761V378.734H268.29V379.757H266.761V382.364ZM263.593 382.441C265.749 382.441 266.86 383.255 266.86 384.487C266.86 385.741 265.749 386.533 263.593 386.533C261.437 386.533 260.304 385.741 260.304 384.487C260.304 383.255 261.426 382.441 263.593 382.441ZM263.593 383.42C262.086 383.42 261.481 383.882 261.481 384.487C261.481 385.103 262.086 385.565 263.593 385.565C265.122 385.565 265.683 385.114 265.683 384.487C265.683 383.882 265.122 383.42 263.593 383.42ZM259.281 376.853H264.154V377.887H260.447V380.527C261.679 380.527 263.648 380.461 264.913 380.241L265.045 381.242C263.648 381.528 261.085 381.583 259.281 381.583V376.853ZM270.417 384.19H276.071V383.629H270.417V382.793H277.226V384.993H271.572V385.609H277.468V386.434H270.417V384.19ZM272.144 376.402C273.772 376.402 274.74 377.073 274.74 378.063C274.74 379.053 273.772 379.724 272.144 379.724C270.505 379.724 269.526 379.053 269.526 378.063C269.526 377.073 270.505 376.402 272.144 376.402ZM276.06 382.144H273.827V381.319H276.06V376.314H277.226V382.441H276.06V382.144ZM268.899 380.219C270.505 380.219 273.86 380.12 275.488 379.966L275.554 380.791C274.652 380.89 273.673 380.956 272.65 381.011V382.452H271.495V381.066C270.681 381.099 269.856 381.121 269.053 381.132L268.899 380.219ZM272.144 377.304C271.176 377.304 270.659 377.623 270.659 378.063C270.659 378.492 271.154 378.8 272.144 378.8C273.112 378.8 273.618 378.492 273.618 378.063C273.618 377.623 273.112 377.304 272.144 377.304ZM251.482 401.396C251.482 402.067 250.921 402.606 250.261 402.606C249.601 402.606 249.04 402.067 249.04 401.396C249.04 400.736 249.601 400.175 250.261 400.175C250.921 400.175 251.482 400.736 251.482 401.396ZM264.495 402.265C263.351 401.858 262.372 401.011 261.987 400.153C261.602 401.011 260.678 401.902 259.567 402.419L258.907 401.594C260.293 401 261.404 399.944 261.404 398.349V397.821H259.314V396.82H264.66V397.821H262.57V398.349C262.57 399.911 263.604 400.923 265.067 401.44L264.495 402.265ZM266.167 399.834H264.099V398.789H266.167V396.314H267.333V403.893H266.167V399.834ZM260.623 402.991H261.811V405.279H267.575V406.302H260.623V402.991ZM270.417 404.19H276.071V403.629H270.417V402.793H277.226V404.993H271.572V405.609H277.468V406.434H270.417V404.19ZM272.144 396.402C273.772 396.402 274.74 397.073 274.74 398.063C274.74 399.053 273.772 399.724 272.144 399.724C270.505 399.724 269.526 399.053 269.526 398.063C269.526 397.073 270.505 396.402 272.144 396.402ZM276.06 402.144H273.827V401.319H276.06V396.314H277.226V402.441H276.06V402.144ZM268.899 400.219C270.505 400.219 273.86 400.12 275.488 399.966L275.554 400.791C274.652 400.89 273.673 400.956 272.65 401.011V402.452H271.495V401.066C270.681 401.099 269.856 401.121 269.053 401.132L268.899 400.219ZM272.144 397.304C271.176 397.304 270.659 397.623 270.659 398.063C270.659 398.492 271.154 398.8 272.144 398.8C273.112 398.8 273.618 398.492 273.618 398.063C273.618 397.623 273.112 397.304 272.144 397.304ZM251.482 421.396C251.482 422.067 250.921 422.606 250.261 422.606C249.601 422.606 249.04 422.067 249.04 421.396C249.04 420.736 249.601 420.175 250.261 420.175C250.921 420.175 251.482 420.736 251.482 421.396ZM266.156 416.314H267.333V423.948H266.156V421.231H263.956C263.483 421.781 262.779 422.122 261.899 422.122C260.26 422.122 259.182 420.923 259.182 419.471C259.182 418.008 260.271 416.809 261.888 416.809C262.768 416.809 263.483 417.161 263.956 417.711H266.156V416.314ZM260.711 422.914H261.877V425.279H267.575V426.302H260.711V422.914ZM261.888 417.821C260.931 417.821 260.337 418.624 260.337 419.471C260.337 420.318 260.931 421.11 261.899 421.11C262.867 421.11 263.461 420.307 263.461 419.471C263.461 418.624 262.867 417.821 261.888 417.821ZM264.594 419.471C264.594 419.757 264.55 420.032 264.473 420.285H266.156V418.657H264.473C264.55 418.921 264.594 419.185 264.594 419.471ZM273.893 422.683C276.06 422.683 277.27 423.409 277.27 424.608C277.27 425.829 276.06 426.533 273.893 426.533C271.77 426.533 270.527 425.829 270.527 424.608C270.527 423.409 271.77 422.683 273.893 422.683ZM274.597 421.902C272.738 422.133 270.637 422.243 269.02 422.254L268.833 421.209H270.164L269.856 418.371L271 418.239L271.154 421.187C271.517 421.187 271.869 421.176 272.221 421.154L272.441 418.206L273.585 418.349L273.244 421.099C273.662 421.077 274.08 421.033 274.52 420.978L274.597 421.902ZM276.038 416.314H277.215V422.738H276.038V420.736H274.509V419.801H276.038V418.877H274.509V417.953H276.038V416.314ZM273.904 423.662C272.441 423.662 271.715 423.992 271.715 424.608C271.715 425.246 272.441 425.565 273.904 425.565C275.323 425.565 276.104 425.246 276.104 424.608C276.104 423.992 275.323 423.662 273.904 423.662ZM269.031 416.798H274.377V417.788H269.031V416.798ZM285.503 424.091H284.359V421.682H282.808V424.091H281.664V421.682H278.573V420.681H285.085C285.261 419.856 285.349 418.459 285.349 417.843H279.827V416.842H286.548C286.548 417.854 286.427 419.647 286.229 420.681H287.945V421.682H285.503V424.091ZM279.706 422.87H280.861V425.257H286.878V426.258H279.706V422.87Z" fill="#868B98"/>
<path d="M325.537 385.268H324.327V378.569L323.337 379.471L322.644 378.723L324.547 377.062H325.537V385.268ZM329.657 376.952C331.395 376.952 332.352 378.382 332.352 381.154C332.352 383.926 331.395 385.378 329.657 385.378C327.919 385.378 326.962 383.926 326.962 381.154C326.962 378.382 327.908 376.952 329.657 376.952ZM329.657 378.085C328.337 378.085 328.15 379.867 328.15 381.154C328.15 382.452 328.337 384.256 329.657 384.256C330.977 384.256 331.164 382.43 331.164 381.154C331.164 379.878 330.977 378.085 329.657 378.085Z" fill="#0068FF"/>
<path d="M325.757 405.268H324.547V398.569L323.557 399.471L322.864 398.723L324.767 397.062H325.757V405.268ZM328.679 398.162L328.58 400.263C328.877 400.164 329.185 400.098 329.548 400.098C331.088 400.098 332.133 401.132 332.133 402.672C332.133 404.366 330.901 405.378 329.141 405.378C328.393 405.378 327.667 405.169 327.183 404.894V403.684C327.722 404.058 328.437 404.289 329.141 404.289C330.098 404.289 330.967 403.717 330.967 402.672C330.967 401.792 330.395 401.132 329.218 401.132C328.613 401.132 327.997 401.253 327.381 401.451L327.568 397.062H331.726V398.162H328.679ZM325.875 425.268H324.665V418.569L323.675 419.471L322.982 418.723L324.885 417.062H325.875V425.268ZM332.02 425.268H327.081V424.289L329.49 421.539C330.414 420.483 330.656 419.988 330.656 419.196C330.656 418.525 330.051 418.03 329.391 418.03C328.819 418.03 328.258 418.294 327.543 418.723L327.213 417.645C327.939 417.227 328.687 416.952 329.336 416.952C330.766 416.952 331.844 417.733 331.844 419.196C331.844 420.12 331.569 420.89 330.425 422.188L328.654 424.19H332.02V425.268Z" fill="#484C59"/>
<path d="M321.295 322.794C318.044 318.688 314.68 314.443 310.109 314.443C304.84 314.443 301.919 320.813 299.094 326.975C296.092 333.524 293.256 339.709 287.811 339.709C283.018 339.709 279.994 335.534 277.07 331.492C274.452 327.872 271.978 324.456 268.479 324.456C262.24 324.456 259.504 333.27 256.859 341.8C254.537 349.287 252.34 356.364 248 356.757V357.887C252.854 357.504 255.258 349.756 257.583 342.257C260.126 334.063 262.755 325.591 268.476 325.591C271.655 325.591 273.908 328.706 276.514 332.308C279.411 336.31 282.695 340.844 287.808 340.844C293.682 340.844 296.769 334.109 299.757 327.6C302.59 321.421 305.269 315.584 310.106 315.584C314.376 315.584 317.48 319.505 320.767 323.651C324.026 327.768 327.398 332.019 332 332.053V330.924C327.699 330.895 324.587 326.969 321.292 322.805L321.295 322.794Z" fill="#4155E0"/>
</g>
<g filter="url(#filter4_d_572_955)">
<rect x="108" y="17" width="137" height="34" rx="17" fill="white"/>
<rect x="108.5" y="17.5" width="136" height="33" rx="16.5" stroke="#F0F4FF"/>
<path d="M119 33.5L123.5 30.4689L123.5 36.5311L119 33.5Z" fill="#3681DA"/>
<path d="M136.175 37.7148L139.675 34.3379C140.053 33.9596 140.345 33.6497 140.55 33.4082C140.759 33.1621 140.919 32.9206 141.028 32.6836C141.138 32.4421 141.192 32.1868 141.192 31.918C141.192 31.6172 141.119 31.3529 140.974 31.125C140.828 30.8971 140.625 30.7217 140.365 30.5986C140.11 30.4756 139.821 30.4141 139.497 30.4141C139.16 30.4141 138.864 30.4824 138.608 30.6191C138.358 30.7513 138.164 30.9427 138.027 31.1934C137.891 31.4395 137.825 31.7266 137.829 32.0547H136.134C136.129 31.4395 136.271 30.8994 136.558 30.4346C136.845 29.9652 137.243 29.6029 137.754 29.3477C138.269 29.0924 138.854 28.9648 139.511 28.9648C140.176 28.9648 140.764 29.0879 141.274 29.334C141.789 29.5801 142.188 29.9219 142.471 30.3594C142.758 30.7923 142.901 31.2845 142.901 31.8359C142.901 32.2188 142.826 32.5879 142.676 32.9434C142.53 33.2988 142.279 33.693 141.924 34.126C141.568 34.5544 141.065 35.0762 140.413 35.6914L138.649 37.4414V37.5098H143.052V39H136.175V37.7148ZM144.214 35.7324L148.493 29.1016H150.708V35.6914H152.007V37.1543H150.708V39H149.013V37.1543H144.214V35.7324ZM149.04 35.6914V31.125H148.931L146.032 35.623V35.6914H149.04ZM154.235 39.1094C154.044 39.1094 153.866 39.0615 153.702 38.9658C153.538 38.8701 153.408 38.7402 153.312 38.5762C153.217 38.4121 153.169 38.2344 153.169 38.043C153.169 37.8561 153.217 37.6829 153.312 37.5234C153.408 37.3594 153.538 37.2295 153.702 37.1338C153.866 37.0381 154.044 36.9902 154.235 36.9902C154.418 36.9902 154.589 37.0381 154.748 37.1338C154.912 37.2295 155.042 37.3594 155.138 37.5234C155.238 37.6829 155.288 37.8561 155.288 38.043C155.288 38.2344 155.238 38.4121 155.138 38.5762C155.042 38.7402 154.912 38.8701 154.748 38.9658C154.589 39.0615 154.418 39.1094 154.235 39.1094ZM159.759 39H157.968V30.8379H157.913L155.603 32.3145V30.6875L158.05 29.1016H159.759V39ZM162.165 37.7148L165.665 34.3379C166.043 33.9596 166.335 33.6497 166.54 33.4082C166.75 33.1621 166.909 32.9206 167.019 32.6836C167.128 32.4421 167.183 32.1868 167.183 31.918C167.183 31.6172 167.11 31.3529 166.964 31.125C166.818 30.8971 166.615 30.7217 166.355 30.5986C166.1 30.4756 165.811 30.4141 165.487 30.4141C165.15 30.4141 164.854 30.4824 164.599 30.6191C164.348 30.7513 164.154 30.9427 164.018 31.1934C163.881 31.4395 163.815 31.7266 163.819 32.0547H162.124C162.119 31.4395 162.261 30.8994 162.548 30.4346C162.835 29.9652 163.234 29.6029 163.744 29.3477C164.259 29.0924 164.845 28.9648 165.501 28.9648C166.166 28.9648 166.754 29.0879 167.265 29.334C167.78 29.5801 168.178 29.9219 168.461 30.3594C168.748 30.7923 168.892 31.2845 168.892 31.8359C168.892 32.2188 168.816 32.5879 168.666 32.9434C168.52 33.2988 168.27 33.693 167.914 34.126C167.559 34.5544 167.055 35.0762 166.403 35.6914L164.64 37.4414V37.5098H169.042V39H162.165V37.7148ZM174.415 33.6816C174.638 33.4355 174.891 33.2487 175.174 33.1211C175.456 32.9935 175.755 32.9297 176.069 32.9297C176.311 32.9297 176.546 32.9616 176.773 33.0254C177.001 33.0846 177.291 33.1803 177.642 33.3125C177.979 33.4401 178.261 33.5358 178.489 33.5996C178.722 33.6634 178.959 33.6953 179.2 33.6953C179.838 33.6953 180.376 33.4355 180.813 32.916V34.4062C180.59 34.6569 180.337 34.846 180.055 34.9736C179.777 35.0967 179.478 35.1582 179.159 35.1582C178.918 35.1582 178.678 35.1263 178.441 35.0625C178.204 34.9941 177.92 34.8984 177.587 34.7754C177.254 34.6523 176.969 34.5589 176.732 34.4951C176.5 34.4268 176.265 34.3926 176.028 34.3926C175.39 34.3926 174.853 34.6523 174.415 35.1719V33.6816ZM186.269 37.7148L189.769 34.3379C190.147 33.9596 190.438 33.6497 190.644 33.4082C190.853 33.1621 191.013 32.9206 191.122 32.6836C191.231 32.4421 191.286 32.1868 191.286 31.918C191.286 31.6172 191.213 31.3529 191.067 31.125C190.922 30.8971 190.719 30.7217 190.459 30.5986C190.204 30.4756 189.914 30.4141 189.591 30.4141C189.254 30.4141 188.957 30.4824 188.702 30.6191C188.451 30.7513 188.258 30.9427 188.121 31.1934C187.984 31.4395 187.918 31.7266 187.923 32.0547H186.228C186.223 31.4395 186.364 30.8994 186.651 30.4346C186.938 29.9652 187.337 29.6029 187.848 29.3477C188.363 29.0924 188.948 28.9648 189.604 28.9648C190.27 28.9648 190.858 29.0879 191.368 29.334C191.883 29.5801 192.282 29.9219 192.564 30.3594C192.852 30.7923 192.995 31.2845 192.995 31.8359C192.995 32.2188 192.92 32.5879 192.77 32.9434C192.624 33.2988 192.373 33.693 192.018 34.126C191.662 34.5544 191.159 35.0762 190.507 35.6914L188.743 37.4414V37.5098H193.146V39H186.269V37.7148ZM198.218 39.1367C197.566 39.1367 196.978 39.016 196.454 38.7744C195.93 38.5329 195.515 38.2002 195.21 37.7764C194.909 37.348 194.75 36.8626 194.731 36.3203H196.468C196.486 36.5846 196.573 36.8216 196.728 37.0312C196.887 37.2409 197.097 37.4049 197.356 37.5234C197.621 37.6419 197.908 37.7012 198.218 37.7012C198.582 37.7012 198.908 37.6191 199.195 37.4551C199.487 37.291 199.713 37.0654 199.872 36.7783C200.036 36.4867 200.118 36.1608 200.118 35.8008C200.118 35.4271 200.034 35.0944 199.865 34.8027C199.697 34.5065 199.464 34.2764 199.168 34.1123C198.872 33.9437 198.537 33.8594 198.163 33.8594C197.379 33.8457 196.832 34.1283 196.522 34.707H194.868L195.47 29.1016H201.321V30.5918H196.933L196.632 33.2168H196.728C196.924 32.9935 197.192 32.8135 197.534 32.6768C197.876 32.5355 198.245 32.4648 198.642 32.4648C199.248 32.4648 199.795 32.6061 200.282 32.8887C200.77 33.1712 201.15 33.5632 201.424 34.0645C201.702 34.5612 201.841 35.1217 201.841 35.7461C201.841 36.3978 201.686 36.9811 201.376 37.4961C201.071 38.0111 200.642 38.4144 200.091 38.7061C199.544 38.9932 198.92 39.1367 198.218 39.1367ZM204.11 39.1094C203.919 39.1094 203.741 39.0615 203.577 38.9658C203.413 38.8701 203.283 38.7402 203.188 38.5762C203.092 38.4121 203.044 38.2344 203.044 38.043C203.044 37.8561 203.092 37.6829 203.188 37.5234C203.283 37.3594 203.413 37.2295 203.577 37.1338C203.741 37.0381 203.919 36.9902 204.11 36.9902C204.293 36.9902 204.464 37.0381 204.623 37.1338C204.787 37.2295 204.917 37.3594 205.013 37.5234C205.113 37.6829 205.163 37.8561 205.163 38.043C205.163 38.2344 205.113 38.4121 205.013 38.5762C204.917 38.7402 204.787 38.8701 204.623 38.9658C204.464 39.0615 204.293 39.1094 204.11 39.1094ZM209.634 39H207.843V30.8379H207.788L205.478 32.3145V30.6875L207.925 29.1016H209.634V39ZM216.06 39H214.269V30.8379H214.214L211.903 32.3145V30.6875L214.351 29.1016H216.06V39Z" fill="#666666"/>
<path d="M234 34.5L229.5 37.5311L229.5 31.4689L234 34.5Z" fill="#3681DA"/>
</g>
<rect x="15.5" y="474.5" width="325" height="45" rx="10.5" fill="white"/>
<rect x="15.5" y="474.5" width="325" height="45" rx="10.5" stroke="url(#paint1_linear_572_955)" stroke-width="3"/>
<path d="M140.162 499.144C142.914 497.512 143.826 495.336 143.826 492.088V491.704H140.882V489.96H148.85V491.704H145.906V492.088C145.906 495.336 146.802 497.272 149.554 498.888L148.354 500.328C146.786 499.448 145.298 497.64 144.898 496.488C144.482 497.64 143.058 499.56 141.458 500.52L140.162 499.144ZM152.002 503.496H149.97V488.728H152.002V494.168H154.194V495.96H152.002V503.496ZM165.465 488.728H167.513V503.56H165.465V488.728ZM160.809 495.32V493.544H162.585V488.952H164.505V503.16H162.585V495.32H160.809ZM161.065 500.2C159.945 499.384 158.809 497.752 158.457 496.568C158.137 497.72 156.969 499.48 155.897 500.312L154.521 498.984C156.505 497.288 157.465 495.288 157.465 491.896V489.672H159.513V491.896C159.513 495.256 160.217 497.192 162.265 498.712L161.065 500.2ZM179.519 488.728H181.551V503.496H179.519V488.728ZM169.487 492.024H178.303V493.72H169.487V492.024ZM173.935 494.328C175.951 494.328 177.599 495.688 177.599 497.624C177.599 499.56 175.951 500.92 173.935 500.92C171.919 500.92 170.255 499.56 170.255 497.624C170.255 495.688 171.919 494.328 173.935 494.328ZM173.935 495.96C172.943 495.96 172.191 496.712 172.191 497.624C172.191 498.536 172.943 499.272 173.935 499.272C174.927 499.272 175.679 498.536 175.679 497.624C175.679 496.712 174.927 495.96 173.935 495.96ZM171.679 489.224H176.159V491H171.679V489.224ZM189.393 489.608H191.425V491.96H197.521V489.608H199.537V497.48H195.489V499.784H201.297V501.528H187.665V499.784H193.473V497.48H189.393V489.608ZM191.425 493.704V495.736H197.521V493.704H191.425ZM212.488 488.728H214.52V503.496H212.488V488.728ZM203.08 489.992H210.168C209.976 495.208 207.256 498.68 203.768 500.856L202.344 499.368C205.528 497.624 207.608 494.84 208.024 491.768H203.08V489.992Z" fill="#003BDB"/>
<defs>
<filter id="filter0_d_572_955" x="315" y="108" width="17" height="17" filterUnits="userSpaceOnUse" color-interpolation-filters="sRGB">
<feFlood flood-opacity="0" result="BackgroundImageFix"/>
<feColorMatrix in="SourceAlpha" type="matrix" values="0 0 0 0 0 0 0 0 0 0 0 0 0 0 0 0 0 0 127 0" result="hardAlpha"/>
<feOffset dy="4"/>
<feGaussianBlur stdDeviation="2"/>
<feComposite in2="hardAlpha" operator="out"/>
<feColorMatrix type="matrix" values="0 0 0 0 0 0 0 0 0 0 0 0 0 0 0 0 0 0 0.25 0"/>
<feBlend mode="normal" in2="BackgroundImageFix" result="effect1_dropShadow_572_955"/>
<feBlend mode="normal" in="SourceGraphic" in2="effect1_dropShadow_572_955" result="shape"/>
</filter>
<filter id="filter1_d_572_955" x="0" y="259" width="128" height="195" filterUnits="userSpaceOnUse" color-interpolation-filters="sRGB">
<feFlood flood-opacity="0" result="BackgroundImageFix"/>
<feColorMatrix in="SourceAlpha" type="matrix" values="0 0 0 0 0 0 0 0 0 0 0 0 0 0 0 0 0 0 127 0" result="hardAlpha"/>
<feOffset/>
<feGaussianBlur stdDeviation="6"/>
<feComposite in2="hardAlpha" operator="out"/>
<feColorMatrix type="matrix" values="0 0 0 0 0.286275 0 0 0 0 0.392157 0 0 0 0 0.823529 0 0 0 0.16 0"/>
<feBlend mode="normal" in2="BackgroundImageFix" result="effect1_dropShadow_572_955"/>
<feBlend mode="normal" in="SourceGraphic" in2="effect1_dropShadow_572_955" result="shape"/>
</filter>
<filter id="filter2_d_572_955" x="113" y="259" width="128" height="195" filterUnits="userSpaceOnUse" color-interpolation-filters="sRGB">
<feFlood flood-opacity="0" result="BackgroundImageFix"/>
<feColorMatrix in="SourceAlpha" type="matrix" values="0 0 0 0 0 0 0 0 0 0 0 0 0 0 0 0 0 0 127 0" result="hardAlpha"/>
<feOffset/>
<feGaussianBlur stdDeviation="6"/>
<feComposite in2="hardAlpha" operator="out"/>
<feColorMatrix type="matrix" values="0 0 0 0 0.286275 0 0 0 0 0.392157 0 0 0 0 0.823529 0 0 0 0.16 0"/>
<feBlend mode="normal" in2="BackgroundImageFix" result="effect1_dropShadow_572_955"/>
<feBlend mode="normal" in="SourceGraphic" in2="effect1_dropShadow_572_955" result="shape"/>
</filter>
<filter id="filter3_d_572_955" x="226" y="259" width="128" height="195" filterUnits="userSpaceOnUse" color-interpolation-filters="sRGB">
<feFlood flood-opacity="0" result="BackgroundImageFix"/>
<feColorMatrix in="SourceAlpha" type="matrix" values="0 0 0 0 0 0 0 0 0 0 0 0 0 0 0 0 0 0 127 0" result="hardAlpha"/>
<feOffset/>
<feGaussianBlur stdDeviation="6"/>
<feComposite in2="hardAlpha" operator="out"/>
<feColorMatrix type="matrix" values="0 0 0 0 0.286275 0 0 0 0 0.392157 0 0 0 0 0.823529 0 0 0 0.16 0"/>
<feBlend mode="normal" in2="BackgroundImageFix" result="effect1_dropShadow_572_955"/>
<feBlend mode="normal" in="SourceGraphic" in2="effect1_dropShadow_572_955" result="shape"/>
</filter>
<filter id="filter4_d_572_955" x="104" y="17" width="145" height="42" filterUnits="userSpaceOnUse" color-interpolation-filters="sRGB">
<feFlood flood-opacity="0" result="BackgroundImageFix"/>
<feColorMatrix in="SourceAlpha" type="matrix" values="0 0 0 0 0 0 0 0 0 0 0 0 0 0 0 0 0 0 127 0" result="hardAlpha"/>
<feOffset dy="4"/>
<feGaussianBlur stdDeviation="2"/>
<feComposite in2="hardAlpha" operator="out"/>
<feColorMatrix type="matrix" values="0 0 0 0 0.941176 0 0 0 0 0.964706 0 0 0 0 1 0 0 0 1 0"/>
<feBlend mode="normal" in2="BackgroundImageFix" result="effect1_dropShadow_572_955"/>
<feBlend mode="normal" in="SourceGraphic" in2="effect1_dropShadow_572_955" result="shape"/>
</filter>
<linearGradient id="paint0_linear_572_955" x1="172.166" y1="253.778" x2="179.005" y2="-8.82193" gradientUnits="userSpaceOnUse">
<stop offset="0.3125" stop-color="white"/>
<stop offset="1" stop-color="#4CC9F0"/>
</linearGradient>
<linearGradient id="paint1_linear_572_955" x1="14" y1="497" x2="342" y2="497" gradientUnits="userSpaceOnUse">
<stop stop-color="#A1E9EA"/>
<stop offset="1" stop-color="#228DFF"/>
</linearGradient>
</defs>
</svg>
