<svg width="126" height="17" viewBox="0 0 126 17" fill="none" xmlns="http://www.w3.org/2000/svg">
<path d="M28.632 1.262H30.13V14.184H28.632V1.262ZM20.358 2.396H26.434C26.378 3.544 26.2053 4.58 25.916 5.504C25.636 6.428 25.2533 7.268 24.768 8.024C24.2827 8.77067 23.704 9.44733 23.032 10.054C22.3693 10.6607 21.632 11.2207 20.82 11.734L19.77 10.614C21.2167 9.82067 22.3787 8.836 23.256 7.66C24.1333 6.47467 24.656 5.15867 24.824 3.712H20.358V2.396ZM40.6495 4.062V1.262H42.1335V8.22H40.6495V5.392H38.4515C38.3768 5.76533 38.2415 6.106 38.0455 6.414C37.8588 6.71267 37.6208 6.974 37.3315 7.198C37.0515 7.41267 36.7248 7.58067 36.3515 7.702C35.9875 7.814 35.5908 7.87 35.1615 7.87C34.6761 7.87 34.2235 7.79533 33.8035 7.646C33.3928 7.48733 33.0381 7.27267 32.7395 7.002C32.4408 6.722 32.2028 6.39067 32.0255 6.008C31.8575 5.62533 31.7735 5.20067 31.7735 4.734C31.7735 4.27667 31.8575 3.85667 32.0255 3.474C32.2028 3.09133 32.4408 2.76467 32.7395 2.494C33.0381 2.214 33.3928 1.99933 33.8035 1.85C34.2235 1.69133 34.6761 1.612 35.1615 1.612C35.5815 1.612 35.9735 1.67267 36.3375 1.794C36.7108 1.906 37.0421 2.074 37.3315 2.298C37.6208 2.51267 37.8588 2.76933 38.0455 3.068C38.2415 3.36667 38.3768 3.698 38.4515 4.062H40.6495ZM33.7055 8.822H35.1895V10.25H40.6495V8.808H42.1335V14.114H33.7055V8.822ZM35.1615 2.9C34.8908 2.9 34.6388 2.94667 34.4055 3.04C34.1721 3.13333 33.9668 3.264 33.7895 3.432C33.6215 3.59067 33.4861 3.782 33.3835 4.006C33.2901 4.23 33.2435 4.47267 33.2435 4.734C33.2435 5.00467 33.2901 5.252 33.3835 5.476C33.4861 5.7 33.6215 5.896 33.7895 6.064C33.9668 6.232 34.1721 6.36267 34.4055 6.456C34.6388 6.54933 34.8908 6.596 35.1615 6.596C35.4415 6.596 35.6981 6.54933 35.9315 6.456C36.1648 6.36267 36.3655 6.232 36.5335 6.064C36.7015 5.896 36.8321 5.7 36.9255 5.476C37.0281 5.252 37.0795 5.00467 37.0795 4.734C37.0795 4.47267 37.0281 4.23 36.9255 4.006C36.8321 3.782 36.7015 3.59067 36.5335 3.432C36.3655 3.264 36.1648 3.13333 35.9315 3.04C35.6981 2.94667 35.4415 2.9 35.1615 2.9ZM35.1895 11.468V12.896H40.6495V11.468H35.1895Z" fill="#666666"/>
<circle cx="7.5" cy="8.5" r="7.5" fill="#2888CA"/>
<circle cx="7.5" cy="8.5" r="3.5" fill="white"/>
<path d="M86.744 4.062V1.262H88.228V8.22H86.744V5.392H84.546C84.4713 5.76533 84.336 6.106 84.14 6.414C83.9533 6.71267 83.7153 6.974 83.426 7.198C83.146 7.41267 82.8193 7.58067 82.446 7.702C82.082 7.814 81.6853 7.87 81.256 7.87C80.7707 7.87 80.318 7.79533 79.898 7.646C79.4873 7.48733 79.1327 7.27267 78.834 7.002C78.5353 6.722 78.2973 6.39067 78.12 6.008C77.952 5.62533 77.868 5.20067 77.868 4.734C77.868 4.27667 77.952 3.85667 78.12 3.474C78.2973 3.09133 78.5353 2.76467 78.834 2.494C79.1327 2.214 79.4873 1.99933 79.898 1.85C80.318 1.69133 80.7707 1.612 81.256 1.612C81.676 1.612 82.068 1.67267 82.432 1.794C82.8053 1.906 83.1367 2.074 83.426 2.298C83.7153 2.51267 83.9533 2.76933 84.14 3.068C84.336 3.36667 84.4713 3.698 84.546 4.062H86.744ZM79.8 8.822H81.284V10.25H86.744V8.808H88.228V14.114H79.8V8.822ZM81.256 2.9C80.9853 2.9 80.7333 2.94667 80.5 3.04C80.2667 3.13333 80.0613 3.264 79.884 3.432C79.716 3.59067 79.5807 3.782 79.478 4.006C79.3847 4.23 79.338 4.47267 79.338 4.734C79.338 5.00467 79.3847 5.252 79.478 5.476C79.5807 5.7 79.716 5.896 79.884 6.064C80.0613 6.232 80.2667 6.36267 80.5 6.456C80.7333 6.54933 80.9853 6.596 81.256 6.596C81.536 6.596 81.7927 6.54933 82.026 6.456C82.2593 6.36267 82.46 6.232 82.628 6.064C82.796 5.896 82.9267 5.7 83.02 5.476C83.1227 5.252 83.174 5.00467 83.174 4.734C83.174 4.47267 83.1227 4.23 83.02 4.006C82.9267 3.782 82.796 3.59067 82.628 3.432C82.46 3.264 82.2593 3.13333 82.026 3.04C81.7927 2.94667 81.536 2.9 81.256 2.9ZM81.284 11.468V12.896H86.744V11.468H81.284ZM90.1235 2.34H95.1215C95.1215 2.69467 95.1075 3.04 95.0795 3.376C95.0515 3.70267 95.0141 4.02933 94.9675 4.356H96.3675V1.458H97.7675V13.89H96.3675V9.102H94.5055V7.898H96.3675V5.588H94.7155C94.3888 6.82 93.8661 7.93067 93.1475 8.92C92.4381 9.90933 91.5421 10.8053 90.4595 11.608L89.4515 10.558C90.0395 10.166 90.5808 9.70867 91.0755 9.186C91.5795 8.66333 92.0135 8.10333 92.3775 7.506C92.7415 6.89933 93.0308 6.26933 93.2455 5.616C93.4695 4.96267 93.6001 4.3 93.6375 3.628H90.1235V2.34ZM98.9575 1.262H100.371V14.24H98.9575V1.262ZM107.797 9.368C109.188 9.368 110.252 9.58733 110.989 10.026C111.726 10.4553 112.095 11.0527 112.095 11.818C112.095 12.602 111.726 13.204 110.989 13.624C110.252 14.0533 109.188 14.268 107.797 14.268C106.434 14.268 105.38 14.0533 104.633 13.624C103.886 13.204 103.513 12.602 103.513 11.818C103.513 11.0527 103.886 10.4553 104.633 10.026C105.389 9.58733 106.444 9.368 107.797 9.368ZM108.693 8.374C108.105 8.44867 107.498 8.514 106.873 8.57C106.257 8.626 105.641 8.67267 105.025 8.71C104.418 8.738 103.821 8.766 103.233 8.794C102.654 8.81267 102.108 8.822 101.595 8.822L101.357 7.492H103.051L102.659 3.88L104.115 3.712L104.311 7.464C104.768 7.464 105.221 7.45 105.669 7.422L105.949 3.67L107.405 3.852L106.971 7.352C107.242 7.33333 107.508 7.31467 107.769 7.296C108.04 7.268 108.315 7.23533 108.595 7.198L108.693 8.374ZM110.527 1.262H112.025V9.438H110.527V6.89H108.581V5.7H110.527V4.524H108.581V3.348H110.527V1.262ZM107.811 10.614C105.954 10.614 105.025 11.0153 105.025 11.818C105.025 12.63 105.954 13.036 107.811 13.036C108.716 13.036 109.407 12.9333 109.883 12.728C110.368 12.532 110.611 12.2287 110.611 11.818C110.611 11.426 110.368 11.1273 109.883 10.922C109.407 10.7167 108.716 10.614 107.811 10.614ZM101.609 1.878H108.413V3.138H101.609V1.878ZM121.872 11.16H120.416V8.094H118.442V11.16H116.986V8.094H113.052V6.82H121.34C121.396 6.55867 121.443 6.26 121.48 5.924C121.527 5.588 121.564 5.252 121.592 4.916C121.62 4.58 121.639 4.26267 121.648 3.964C121.667 3.656 121.676 3.404 121.676 3.208H114.648V1.934H123.202C123.202 2.26067 123.193 2.63867 123.174 3.068C123.156 3.488 123.128 3.922 123.09 4.37C123.053 4.818 123.011 5.25667 122.964 5.686C122.918 6.11533 122.862 6.49333 122.796 6.82H124.98V8.094H121.872V11.16ZM114.494 9.606H115.964V12.644H123.622V13.918H114.494V9.606Z" fill="#666666"/>
<rect x="58" y="1" width="15" height="15" rx="7.5" fill="white"/>
<rect x="57.5" y="0.5" width="16" height="16" rx="8" stroke="#E0E0E0"/>
</svg>
