<svg width="109" height="65" viewBox="0 0 109 65" fill="none" xmlns="http://www.w3.org/2000/svg">
<path d="M8.244 7.384H6.696V6.196H8.244V5.248H6.684V4.048H8.244V0.796H9.756V9.028H8.244V7.384ZM2.508 8.728H4.008V10.516H10.068V11.728H2.508V8.728ZM3.732 4.18C5.424 4.18 6.408 5.14 6.408 6.196C6.408 7.252 5.424 8.224 3.732 8.224C2.016 8.224 1.056 7.252 1.056 6.196C1.056 5.14 2.028 4.18 3.732 4.18ZM3.732 5.356C2.868 5.356 2.472 5.812 2.472 6.196C2.472 6.58 2.868 7.048 3.732 7.048C4.596 7.048 4.992 6.58 4.992 6.196C4.992 5.812 4.596 5.356 3.732 5.356ZM2.16 0.999999H5.424V2.152H2.16V0.999999ZM0.528 2.644H6.96V3.796H0.528V2.644ZM19.1687 6.232H18.3047V11.62H16.8527V0.964H18.3047V4.888H19.1687V0.796H20.7047V11.92H19.1687V6.232ZM15.8567 9.4C15.0167 8.788 14.1887 7.6 13.9247 6.784C13.6727 7.648 12.7727 8.956 11.9687 9.58L10.9607 8.572C12.4247 7.348 13.1687 5.86 13.1687 3.592V2.992H11.4767V1.672H16.2887V2.992H14.7047V3.592C14.7047 5.86 15.2687 7.264 16.7447 8.284L15.8567 9.4ZM28.8186 1.324C30.6546 1.324 31.7226 2.344 31.7226 3.652C31.7226 4.996 30.6546 5.992 28.8186 5.992C26.9946 5.992 25.9266 5.032 25.9266 3.652C25.9266 2.332 26.9946 1.324 28.8186 1.324ZM32.8266 0.796H34.3506V11.872H32.8266V0.796ZM32.3106 6.448L32.3946 7.636C31.6506 7.744 30.6546 7.84 29.5986 7.912V11.632H28.0866V8.02C27.1266 8.068 26.2026 8.116 25.4466 8.128L25.2066 6.748C26.9466 6.748 30.2706 6.664 32.3106 6.448ZM28.8186 2.596C27.9306 2.596 27.4266 3.1 27.4266 3.652C27.4266 4.24 27.9306 4.72 28.8186 4.72C29.7066 4.72 30.2226 4.24 30.2226 3.652C30.2226 3.1 29.7066 2.596 28.8186 2.596ZM38.0033 8.188H45.2753V11.872H38.0033V8.188ZM39.5153 9.424V10.648H43.7873V9.424H39.5153ZM43.7753 5.548H42.2153V4.216H43.7753V0.796H45.2753V7.672H43.7753V5.548ZM37.7753 0.808H40.9193V1.972H37.7753V0.808ZM36.1313 2.38H42.5153V3.532H36.1313V2.38ZM39.3353 3.784C40.9433 3.784 41.9873 4.588 41.9873 5.704C41.9873 6.796 40.9433 7.624 39.3353 7.624C37.7033 7.624 36.6833 6.796 36.6833 5.704C36.6833 4.588 37.7033 3.784 39.3353 3.784ZM39.3353 4.948C38.5193 4.948 38.1233 5.296 38.1233 5.704C38.1233 6.1 38.5193 6.448 39.3353 6.448C40.1153 6.448 40.5353 6.1 40.5353 5.704C40.5353 5.284 40.1153 4.948 39.3353 4.948ZM57.6971 4.6H55.6091V3.256H57.6971V0.796H59.1971V7.096H57.6971V4.6ZM51.7931 7.708H59.1971V11.848H51.7931V7.708ZM53.2931 8.98V10.576H57.7091V8.98H53.2931ZM55.7171 6.868C54.5291 6.448 53.6171 5.5 53.2691 4.804C52.9451 5.488 51.9731 6.616 50.7491 7.18L49.8251 6.04C51.4811 5.44 52.4771 3.988 52.4771 2.692V2.608H50.2811V1.324H56.1851V2.608H54.0371V2.704C54.0371 3.988 54.8651 5.164 56.5811 5.68L55.7171 6.868ZM66.4138 11.944H64.9018V8.152H60.5458V6.832H70.7698V8.152H66.4138V11.944ZM69.5698 6.016C67.8898 5.704 66.3538 4.624 65.6578 3.484C64.9738 4.648 63.3538 5.716 61.7458 6.016L61.0258 4.804C63.0898 4.516 64.8658 3.052 64.8658 1.552V1.072H66.4498V1.552C66.4498 3.052 68.2378 4.516 70.2778 4.804L69.5698 6.016Z" fill="#484C59"/>
<path d="M2.958 51.498C4.59 52.076 6.052 52.45 7.446 52.45C10.404 52.45 12.682 50.172 12.988 46.942C12.002 47.724 10.574 48.132 9.282 48.132C4.658 48.132 1.326 44.698 1.326 39.768C1.326 34.566 4.42 30.894 9.588 30.894C14.688 30.894 17.782 35.348 17.782 43.202C17.782 50.75 14.96 56.938 7.174 56.938C5.916 56.938 4.046 56.598 2.006 55.782L2.958 51.498ZM9.282 43.712C11.56 43.712 12.988 42.148 12.988 39.564C12.988 37.082 11.764 35.314 9.554 35.314C7.242 35.314 5.916 37.252 5.916 39.564C5.916 41.91 7.038 43.712 9.282 43.712ZM35.2434 34.6L26.4034 56.598H21.3374L30.0074 35.688H19.6034V31.234H35.2434V34.6Z" fill="#374EA7"/>
<path d="M56.69 43.47H52.22V42.72L54.51 40.14C55.43 39.11 55.68 38.69 55.68 37.9C55.68 37.19 55 36.65 54.3 36.65C53.78 36.65 53.25 36.88 52.61 37.25L52.37 36.5C53.02 36.13 53.67 35.91 54.25 35.91C55.54 35.91 56.52 36.59 56.52 37.9C56.52 38.74 56.23 39.39 55.18 40.55L53.21 42.74H56.69V43.47ZM59.5379 35.91C61.1179 35.91 61.9879 37.18 61.9879 39.74C61.9879 42.3 61.1179 43.57 59.5379 43.57C57.9679 43.57 57.0879 42.3 57.0879 39.74C57.0879 37.18 57.9579 35.91 59.5379 35.91ZM59.5379 36.72C58.1579 36.72 57.9579 38.45 57.9579 39.74C57.9579 41.04 58.1579 42.77 59.5379 42.77C60.9279 42.77 61.1279 41.02 61.1279 39.74C61.1279 38.46 60.9279 36.72 59.5379 36.72ZM66.681 43.47H62.211V42.72L64.501 40.14C65.421 39.11 65.671 38.69 65.671 37.9C65.671 37.19 64.991 36.65 64.291 36.65C63.771 36.65 63.241 36.88 62.601 37.25L62.361 36.5C63.011 36.13 63.661 35.91 64.241 35.91C65.531 35.91 66.511 36.59 66.511 37.9C66.511 38.74 66.221 39.39 65.171 40.55L63.201 42.74H66.681V43.47ZM71.4989 36.88C71.1389 36.77 70.6889 36.67 70.2589 36.67C68.9189 36.67 67.9989 37.65 67.9789 39.55C68.3489 38.87 69.1189 38.63 69.6489 38.63C70.9889 38.63 71.9589 39.57 71.9589 41C71.9589 42.55 71.0489 43.57 69.5389 43.57C68.0489 43.57 67.1589 42.37 67.1589 39.97C67.1589 37.65 68.0089 35.91 70.3489 35.91C70.7189 35.91 71.1989 35.98 71.6689 36.15L71.4989 36.88ZM69.6489 39.38C68.6789 39.38 68.0289 40.06 68.0289 40.98C68.0289 41.99 68.5889 42.82 69.5589 42.82C70.5489 42.82 71.1489 42.03 71.1489 41.08C71.1489 40.09 70.6189 39.38 69.6489 39.38ZM73.8344 44.01H72.7844V42.91H73.8344V44.01ZM77.1762 35.91C78.7562 35.91 79.6262 37.18 79.6262 39.74C79.6262 42.3 78.7562 43.57 77.1762 43.57C75.6062 43.57 74.7262 42.3 74.7262 39.74C74.7262 37.18 75.5962 35.91 77.1762 35.91ZM77.1762 36.72C75.7962 36.72 75.5962 38.45 75.5962 39.74C75.5962 41.04 75.7962 42.77 77.1762 42.77C78.5662 42.77 78.7662 41.02 78.7662 39.74C78.7662 38.46 78.5662 36.72 77.1762 36.72ZM82.5393 43.47H81.6793V37.06L80.4893 38.1L79.9993 37.57L81.7993 36.01H82.5393V43.47ZM85.1051 44.01H84.0551V42.91H85.1051V44.01ZM88.4469 35.91C90.0269 35.91 90.8969 37.18 90.8969 39.74C90.8969 42.3 90.0269 43.57 88.4469 43.57C86.8769 43.57 85.9969 42.3 85.9969 39.74C85.9969 37.18 86.8669 35.91 88.4469 35.91ZM88.4469 36.72C87.0669 36.72 86.8669 38.45 86.8669 39.74C86.8669 41.04 87.0669 42.77 88.4469 42.77C89.8369 42.77 90.0369 41.02 90.0369 39.74C90.0369 38.46 89.8369 36.72 88.4469 36.72ZM95.72 36.88C95.36 36.77 94.91 36.67 94.48 36.67C93.14 36.67 92.22 37.65 92.2 39.55C92.57 38.87 93.34 38.63 93.87 38.63C95.21 38.63 96.18 39.57 96.18 41C96.18 42.55 95.27 43.57 93.76 43.57C92.27 43.57 91.38 42.37 91.38 39.97C91.38 37.65 92.23 35.91 94.57 35.91C94.94 35.91 95.42 35.98 95.89 36.15L95.72 36.88ZM93.87 39.38C92.9 39.38 92.25 40.06 92.25 40.98C92.25 41.99 92.81 42.82 93.78 42.82C94.77 42.82 95.37 42.03 95.37 41.08C95.37 40.09 94.84 39.38 93.87 39.38Z" fill="#7789C2"/>
<path d="M54 47.65C55.19 47.65 56.05 48.36 56.23 49.44H58.03V47.33H58.89V52.29H58.03V50.21H56.24C56.09 51.35 55.22 52.04 54 52.04C52.66 52.04 51.72 51.18 51.72 49.85C51.72 48.53 52.66 47.65 54 47.65ZM52.98 56.49V52.79H53.83V53.87H58.03V52.74H58.89V56.49H52.98ZM54 48.38C53.11 48.38 52.56 49.03 52.56 49.85C52.56 50.67 53.11 51.32 54 51.32C54.9 51.32 55.45 50.67 55.45 49.85C55.45 49.03 54.9 48.38 54 48.38ZM58.03 54.6H53.83V55.77H58.03V54.6ZM60.4939 48.87V48.11H64.1639C64.1439 48.62 64.0839 49.12 63.9839 49.6H65.1839V47.47H65.9939V56.41H65.1839V52.74H63.5739V52.03H65.1839V50.33H63.8139C63.2839 52.13 62.1839 53.69 60.5839 54.84L60.0139 54.26C61.8039 53.09 63.0539 50.96 63.3239 48.87H60.4939ZM66.9639 47.33H67.7939V56.66H66.9639V47.33ZM75.2855 53.16C77.1555 53.16 78.3755 53.7 78.3755 54.88C78.3755 56.08 77.1555 56.61 75.2855 56.61C73.4255 56.61 72.2055 56.08 72.2055 54.88C72.2055 53.7 73.4255 53.16 75.2855 53.16ZM71.0055 52.58L70.8355 51.82C71.2455 51.83 71.6455 51.83 72.0555 51.83L71.7855 49.04L72.6655 48.92L72.8455 51.82L73.8955 51.79L74.1155 48.9L74.9955 49.03L74.6855 51.75C75.1255 51.73 75.5555 51.7 75.9855 51.66L76.0455 52.34C74.4455 52.5 72.7555 52.58 71.0055 52.58ZM77.4355 53.08V51.28H75.8055V50.57H77.4355V49.62H75.8055V48.92H77.4355V47.33H78.2955V53.08H77.4355ZM75.2955 53.89C73.8955 53.89 73.0655 54.26 73.0655 54.88C73.0655 55.5 73.8955 55.88 75.2955 55.88C76.6855 55.88 77.5055 55.5 77.5055 54.88C77.5055 54.26 76.6855 53.89 75.2955 53.89ZM71.0955 48.5V47.77H75.8055V48.5H71.0955ZM85.5894 52.17V54.44H84.7394V52.17H82.7494V54.44H81.9094V52.17H79.2194V51.42H85.3494C85.4694 50.65 85.6194 49.24 85.6494 48.66H80.4094V47.91H86.5194C86.4894 48.8 86.3194 50.55 86.2194 51.42H87.7994V52.17H85.5894ZM80.3394 56.39V53.37H81.1894V55.65H86.7694V56.39H80.3394ZM94.5609 48.73L91.6809 55.47H90.7909L93.6909 48.76H90.0209V48.01H94.5609V48.73ZM95.9821 48.77L95.8721 51.12C96.2521 50.97 96.6121 50.91 96.9321 50.91C98.3321 50.91 99.2721 51.79 99.2721 53.19C99.2721 54.72 98.1521 55.57 96.5421 55.57C95.9021 55.57 95.2421 55.39 94.8021 55.17V54.35C95.3021 54.63 95.9321 54.82 96.5421 54.82C97.5421 54.82 98.4421 54.29 98.4421 53.19C98.4421 52.25 97.8321 51.61 96.6221 51.61C96.0921 51.61 95.5321 51.78 94.9921 51.94L95.1721 48.01H98.8921V48.77H95.9821ZM106.295 52.76V50.29H104.505V49.56H106.295V47.33H107.155V52.76H106.295ZM101.205 56.49V53.17H107.155V56.49H101.205ZM106.295 53.92H102.065V55.75H106.295V53.92ZM105.215 51.74L104.695 52.37C103.885 52.03 102.825 51.1 102.485 50.35C102.135 51.1 101.205 52.05 100.205 52.51L99.6648 51.88C100.995 51.36 102.035 50.18 102.035 48.96V48.53H100.055V47.79H104.905V48.53H102.925V48.96C102.925 50.23 103.985 51.24 105.215 51.74Z" fill="#7789C2"/>
<path d="M42.6049 51.05H40.6909V49.818H42.6049V47.563H43.9799V53.338H42.6049V51.05ZM37.1929 53.899H43.9799V57.694H37.1929V53.899ZM38.5679 55.065V56.528H42.6159V55.065H38.5679ZM40.7899 53.129C39.7009 52.744 38.8649 51.875 38.5459 51.237C38.2489 51.864 37.3579 52.898 36.2359 53.415L35.3889 52.37C36.9069 51.82 37.8199 50.489 37.8199 49.301V49.224H35.8069V48.047H41.2189V49.224H39.2499V49.312C39.2499 50.489 40.0089 51.567 41.5819 52.04L40.7899 53.129Z" fill="#484C59"/>
</svg>
