<svg width="134" height="65" viewBox="0 0 134 65" fill="none" xmlns="http://www.w3.org/2000/svg">
<path d="M0.156 8.488C2.088 7.276 2.892 5.596 2.892 3.064V1.492H4.464V3.064C4.464 5.596 5.268 7.072 7.236 8.284L6.288 9.364C5.1 8.644 4.044 7.288 3.72 6.364C3.444 7.276 2.364 8.776 1.14 9.532L0.156 8.488ZM9.072 11.872H7.548V0.796H9.072V4.876H10.692V6.22H9.072V11.872ZM20.0447 2.296C20.0447 4.06 19.8287 6.532 19.5407 7.876L18.1007 7.684C18.3647 6.34 18.5087 4.408 18.5087 3.064H12.3767V1.768H20.0447V2.296ZM11.0927 8.98H14.7407V5.644H16.2647V8.98H21.3167V10.288H11.0927V8.98ZM25.4826 1.048H26.9826V2.536H29.2506V1.048H30.7506V6.112H25.4826V1.048ZM26.9826 3.772V4.864H29.2506V3.772H26.9826ZM33.7986 6.448H32.2866V0.796H33.7986V3.1H35.4066V4.432H33.7986V6.448ZM26.7546 8.776H32.2986V8.164H26.7426V6.952H33.7986V9.964H28.2666V10.648H34.0026V11.848H26.7546V8.776ZM41.6273 7.444C44.2913 7.444 45.5153 8.356 45.5153 9.688C45.5153 11.008 44.2913 11.92 41.6273 11.92C39.0113 11.92 37.7753 11.008 37.7753 9.688C37.7753 8.356 39.0113 7.444 41.6273 7.444ZM41.6273 8.716C39.9953 8.716 39.3473 9.112 39.3473 9.688C39.3473 10.228 39.9953 10.648 41.6273 10.648C43.3193 10.648 43.9433 10.228 43.9433 9.688C43.9433 9.112 43.3193 8.716 41.6273 8.716ZM43.9433 4.648H43.1153V6.988H41.6992V0.939999H43.1153V3.292H43.9433V0.796H45.4313V7.372H43.9433V4.648ZM40.6073 6.844C39.7553 6.352 38.9633 5.524 38.6992 4.828C38.4353 5.632 37.6793 6.532 36.7793 7.072L35.8433 5.956C37.2233 5.176 37.9193 3.904 37.9193 2.224V1.24H39.4433V2.224C39.4433 3.88 40.1633 4.996 41.4833 5.68L40.6073 6.844ZM47.9079 9.208H54.0879V8.68H47.9079V7.612H49.1319V6.88H46.6239V5.788H56.8479V6.88H54.3039V7.612H55.5519V10.252H49.3719V10.84H55.7319V11.908H47.9079V9.208ZM48.0039 2.584H53.9559V2.02H48.0039V0.952H55.4199V3.628H49.4799V4.252H55.5999V5.284H48.0039V2.584ZM50.6559 7.612H52.7919V6.88H50.6559V7.612Z" fill="#484C59"/>
<path d="M16.048 56.598H0.612V52.892L7.65 44.868C10.03 42.148 10.846 40.346 10.846 38.306C10.846 36.436 9.418 35.314 7.888 35.314C6.392 35.314 4.624 36.198 2.21 37.626L0.884 33.274C3.366 31.846 5.78 30.894 7.718 30.894C12.206 30.894 15.572 33.342 15.572 38.306C15.572 41.06 14.586 43.95 11.356 47.588L7.242 52.212H16.048V56.598ZM24.7108 58.74H19.5088V53.674H24.7108V58.74ZM45.9329 51.26H42.7369V56.598H38.0109V51.26H27.6749V47.452L37.9769 31.234H42.7369V46.806H45.9329V51.26ZM38.0449 46.84V38.816L33.2509 46.84H38.0449ZM49.6084 51.498C51.2404 52.076 52.7024 52.45 54.0964 52.45C57.0544 52.45 59.3324 50.172 59.6384 46.942C58.6524 47.724 57.2244 48.132 55.9324 48.132C51.3084 48.132 47.9764 44.698 47.9764 39.768C47.9764 34.566 51.0704 30.894 56.2384 30.894C61.3384 30.894 64.4324 35.348 64.4324 43.202C64.4324 50.75 61.6104 56.938 53.8244 56.938C52.5664 56.938 50.6964 56.598 48.6564 55.782L49.6084 51.498ZM55.9324 43.712C58.2104 43.712 59.6384 42.148 59.6384 39.564C59.6384 37.082 58.4144 35.314 56.2044 35.314C53.8924 35.314 52.5664 37.252 52.5664 39.564C52.5664 41.91 53.6884 43.712 55.9324 43.712Z" fill="#374EA7"/>
<path d="M84 35.65C85.19 35.65 86.05 36.36 86.23 37.44H88.03V35.33H88.89V40.29H88.03V38.21H86.24C86.09 39.35 85.22 40.04 84 40.04C82.66 40.04 81.72 39.18 81.72 37.85C81.72 36.53 82.66 35.65 84 35.65ZM82.98 44.49V40.79H83.83V41.87H88.03V40.74H88.89V44.49H82.98ZM84 36.38C83.11 36.38 82.56 37.03 82.56 37.85C82.56 38.67 83.11 39.32 84 39.32C84.9 39.32 85.45 38.67 85.45 37.85C85.45 37.03 84.9 36.38 84 36.38ZM88.03 42.6H83.83V43.77H88.03V42.6ZM90.4939 36.87V36.11H94.1639C94.1439 36.62 94.0839 37.12 93.9839 37.6H95.1839V35.47H95.9939V44.41H95.1839V40.74H93.5739V40.03H95.1839V38.33H93.8139C93.2839 40.13 92.1839 41.69 90.5839 42.84L90.0139 42.26C91.8039 41.09 93.0539 38.96 93.3239 36.87H90.4939ZM96.9639 35.33H97.7939V44.66H96.9639V35.33ZM103.088 41.16C104.958 41.16 106.178 41.7 106.178 42.88C106.178 44.08 104.958 44.61 103.088 44.61C101.228 44.61 100.008 44.08 100.008 42.88C100.008 41.7 101.228 41.16 103.088 41.16ZM98.8078 40.58L98.6378 39.82C99.0478 39.83 99.4478 39.83 99.8578 39.83L99.5878 37.04L100.468 36.92L100.648 39.82L101.698 39.79L101.918 36.9L102.798 37.03L102.488 39.75C102.928 39.73 103.358 39.7 103.788 39.66L103.848 40.34C102.248 40.5 100.558 40.58 98.8078 40.58ZM105.238 41.08V39.28H103.608V38.57H105.238V37.62H103.608V36.92H105.238V35.33H106.098V41.08H105.238ZM103.098 41.89C101.698 41.89 100.868 42.26 100.868 42.88C100.868 43.5 101.698 43.88 103.098 43.88C104.488 43.88 105.308 43.5 105.308 42.88C105.308 42.26 104.488 41.89 103.098 41.89ZM98.8978 36.5V35.77H103.608V36.5H98.8978ZM113.392 40.17V42.44H112.542V40.17H110.552V42.44H109.712V40.17H107.022V39.42H113.152C113.272 38.65 113.422 37.24 113.452 36.66H108.212V35.91H114.322C114.292 36.8 114.122 38.55 114.022 39.42H115.602V40.17H113.392ZM108.142 44.39V41.37H108.992V43.65H114.572V44.39H108.142ZM116.316 42.27V36.15H119.766V36.92H117.176V41.47C118.016 41.46 119.506 41.38 120.236 41.3L120.326 42.05C119.466 42.16 117.466 42.27 116.316 42.27ZM122.786 44.61V39.67H121.626V44.36H120.796V35.47H121.626V38.91H122.786V35.33H123.606V44.61H122.786ZM131.04 44.55V35.33H131.91V44.55H131.04ZM124.97 42.2V36.04H125.83V38.3H128.4V35.97H129.27V42.2H124.97ZM128.4 39.06H125.83V41.44H128.4V39.06Z" fill="#7789C2"/>
<path d="M87.97 51.86H87.2V56.35H85.99V47.47H87.2V50.74H87.97V47.33H89.25V56.6H87.97V51.86ZM81.54 48.07H85.27V54.33H81.54V48.07ZM82.81 49.19V53.21H84.02V49.19H82.81ZM94.1039 47.58C96.3739 47.58 97.4139 48.5 97.4139 49.65C97.4139 50.81 96.3739 51.74 94.1039 51.74C91.8239 51.74 90.7939 50.81 90.7939 49.65C90.7939 48.5 91.8239 47.58 94.1039 47.58ZM94.1039 48.66C92.5939 48.66 92.0539 49.13 92.0539 49.67C92.0539 50.22 92.5939 50.68 94.1039 50.68C95.6039 50.68 96.1439 50.22 96.1439 49.67C96.1439 49.12 95.6039 48.66 94.1039 48.66ZM94.7339 56.62H93.4739V53.47H89.8439V52.37H98.3639V53.47H94.7339V56.62ZM103.375 47.77C104.885 47.77 105.875 48.85 105.875 50.21C105.875 51.58 104.885 52.64 103.375 52.64C101.885 52.64 100.905 51.58 100.905 50.21C100.905 48.85 101.885 47.77 103.375 47.77ZM103.375 48.86C102.665 48.86 102.155 49.45 102.155 50.21C102.155 50.96 102.665 51.54 103.375 51.54C104.095 51.54 104.615 50.96 104.615 50.21C104.615 49.45 104.095 48.86 103.375 48.86ZM107.955 54.04H106.695V47.33H107.955V49.83H109.305V50.93H107.955V54.04ZM102.075 53.43H103.355V55.34H108.225V56.44H102.075V53.43ZM115.879 50.52H114.169V49.4H115.879V47.33H117.129V52.79H115.879V50.52ZM114.079 52.85C116.209 52.85 117.159 53.68 117.159 54.75C117.159 55.83 116.209 56.63 114.079 56.63C111.959 56.63 110.999 55.83 110.999 54.75C110.999 53.68 111.959 52.85 114.079 52.85ZM114.079 53.91C112.769 53.91 112.269 54.29 112.269 54.75C112.269 55.2 112.769 55.57 114.079 55.57C115.399 55.57 115.869 55.2 115.869 54.75C115.869 54.29 115.399 53.91 114.079 53.91ZM114.229 52.39C113.239 52.04 112.479 51.25 112.189 50.67C111.919 51.24 111.109 52.18 110.089 52.65L109.319 51.7C110.699 51.2 111.529 49.99 111.529 48.91V48.84H109.699V47.77H114.619V48.84H112.829V48.92C112.829 49.99 113.519 50.97 114.949 51.4L114.229 52.39ZM124.473 50.57H122.763V49.45H124.473V47.33H125.733V52.82H124.473V50.57ZM124.473 54.38H119.383V53.3H125.733V56.61H124.473V54.38ZM122.833 52.51C121.843 52.16 121.083 51.37 120.793 50.79C120.523 51.36 119.713 52.3 118.693 52.77L117.923 51.82C119.303 51.32 120.133 50.11 120.133 49.03V48.91H118.303V47.84H123.223V48.91H121.433V49.04C121.433 50.11 122.123 51.09 123.553 51.52L122.833 52.51Z" fill="#34C6C1"/>
<path d="M73.4263 52.007C74.7683 52.007 75.2963 52.953 75.2963 54.273C75.2963 55.593 74.7573 56.528 73.4263 56.528C72.0843 56.528 71.5893 55.593 71.5893 54.273C71.5893 52.953 72.0843 52.007 73.4263 52.007ZM73.4263 53.25C72.9753 53.25 72.8873 53.602 72.8873 54.273C72.8873 54.779 72.9423 55.296 73.4263 55.296C73.8773 55.296 73.9763 54.955 73.9763 54.273C73.9763 53.602 73.8773 53.25 73.4263 53.25ZM74.0863 47.992L69.3453 56.66H67.9043L72.6343 47.992H74.0863ZM68.5533 48.124C69.8953 48.124 70.4233 49.059 70.4233 50.39C70.4233 51.71 69.8843 52.634 68.5533 52.634C67.2113 52.634 66.7163 51.71 66.7163 50.39C66.7163 49.059 67.2113 48.124 68.5533 48.124ZM68.5533 49.367C68.1023 49.367 68.0143 49.708 68.0143 50.39C68.0143 50.896 68.0693 51.413 68.5533 51.413C69.0043 51.413 69.1033 51.072 69.1033 50.39C69.1033 49.708 69.0043 49.367 68.5533 49.367Z" fill="#484C59"/>
</svg>
