<svg width="328" height="148" viewBox="0 0 328 148" fill="none" xmlns="http://www.w3.org/2000/svg">
<g filter="url(#filter0_i_908_2572)">
<path d="M0 0H328V136C328 142.627 322.627 148 316 148H12C5.37259 148 0 142.627 0 136V0Z" fill="white"/>
<path d="M13.1 27.612H14.304V29.25H20.324V27.598H21.514V32.834H13.1V27.612ZM14.304 30.272V31.812H20.324V30.272H14.304ZM17.916 37.678H16.726V35.228H11.294V34.192H23.306V35.228H17.916V37.678ZM12.946 36.264H14.15V38.966H21.864V40.002H12.946V36.264ZM34.1195 36.866H32.9015V27.262H34.1195V31.112H36.0515V32.19H34.1195V36.866ZM26.1675 35.76H27.3435V38.938H34.5535V39.988H26.1675V35.76ZM31.0115 34.78C30.6568 34.5747 30.3208 34.3413 30.0035 34.08C29.6955 33.8187 29.4061 33.5433 29.1355 33.254C28.8741 32.9647 28.6408 32.6753 28.4355 32.386C28.2395 32.0967 28.0808 31.8167 27.9595 31.546C27.8381 31.8447 27.6701 32.1573 27.4555 32.484C27.2501 32.8013 27.0075 33.114 26.7275 33.422C26.4568 33.73 26.1581 34.0193 25.8315 34.29C25.5048 34.5513 25.1641 34.7753 24.8095 34.962L23.9975 34.122C24.3895 33.926 24.7861 33.6693 25.1875 33.352C25.5888 33.0347 25.9481 32.666 26.2655 32.246C26.5828 31.8167 26.8395 31.3407 27.0355 30.818C27.2408 30.286 27.3435 29.712 27.3435 29.096V27.864H28.5475V29.082C28.5475 29.67 28.6455 30.2207 28.8415 30.734C29.0468 31.2473 29.3081 31.714 29.6255 32.134C29.9428 32.5447 30.2928 32.904 30.6755 33.212C31.0581 33.52 31.4315 33.7627 31.7955 33.94L31.0115 34.78ZM49.6757 32.596H46.8897V31.546H49.6757V27.262H50.8937V40.184H49.6757V32.596ZM40.0437 36.572C41.1543 35.8533 42.0223 34.9527 42.6477 33.87C43.2823 32.778 43.5997 31.5227 43.5997 30.104V28.13H44.8457V30.104C44.8457 31.4107 45.1303 32.6007 45.6997 33.674C46.269 34.7473 47.151 35.6573 48.3457 36.404L47.5057 37.202C47.123 36.9407 46.759 36.656 46.4137 36.348C46.0777 36.04 45.765 35.7133 45.4757 35.368C45.1957 35.0133 44.9483 34.6493 44.7337 34.276C44.519 33.9027 44.351 33.5247 44.2297 33.142C43.987 33.926 43.5717 34.682 42.9837 35.41C42.3957 36.138 41.705 36.7867 40.9117 37.356L40.0437 36.572ZM62.2811 27.262H63.4991V40.17H62.2811V27.262ZM53.7831 28.256H54.9871V31.42H58.5851V28.158H59.8031V36.88H53.7831V28.256ZM54.9871 32.484V35.816H58.5851V32.484H54.9871ZM65.3526 37.118H77.3646V38.182H65.3526V37.118ZM76.3006 34.402C75.8059 34.2713 75.3113 34.094 74.8166 33.87C74.3313 33.646 73.8693 33.3847 73.4306 33.086C72.9919 32.7873 72.5906 32.4607 72.2266 32.106C71.8719 31.7513 71.5826 31.378 71.3586 30.986C71.1346 31.3873 70.8453 31.7653 70.4906 32.12C70.1359 32.4747 69.7393 32.7967 69.3006 33.086C68.8713 33.3753 68.4093 33.632 67.9146 33.856C67.4293 34.08 66.9346 34.262 66.4306 34.402C66.4026 34.3647 66.3746 34.3227 66.3466 34.276C66.3186 34.2293 66.2813 34.1733 66.2346 34.108C66.1879 34.0333 66.1273 33.9447 66.0526 33.842C65.9873 33.73 65.8986 33.59 65.7866 33.422C66.4679 33.2633 67.1073 33.0347 67.7046 32.736C68.3113 32.4373 68.8386 32.092 69.2866 31.7C69.7346 31.308 70.0846 30.8787 70.3366 30.412C70.5979 29.936 70.7286 29.4413 70.7286 28.928V28.074H71.9886V28.928C71.9886 29.4413 72.1193 29.936 72.3806 30.412C72.6419 30.888 72.9966 31.3267 73.4446 31.728C73.8926 32.12 74.4153 32.4653 75.0126 32.764C75.6099 33.0533 76.2446 33.2727 76.9166 33.422L76.3006 34.402ZM91.2688 33.198H88.4968V32.134H91.2688V27.262H92.4868V40.254H91.2688V33.198ZM82.6728 28.34H88.5808C88.5061 29.46 88.3241 30.482 88.0348 31.406C87.7548 32.3207 87.3721 33.1607 86.8868 33.926C86.4108 34.682 85.8368 35.3727 85.1648 35.998C84.5021 36.6233 83.7508 37.202 82.9108 37.734L82.0988 36.866C82.8361 36.4647 83.5034 35.998 84.1008 35.466C84.6981 34.934 85.2161 34.3507 85.6548 33.716C86.1028 33.0813 86.4668 32.4 86.7468 31.672C87.0268 30.944 87.2181 30.188 87.3208 29.404H82.6728V28.34ZM95.8523 27.71H97.0563V29.46H103.342V27.654H104.546V33.366H95.8523V27.71ZM97.0563 30.51V32.316H103.342V30.51H97.0563ZM100.794 40.254H99.5903V35.858H94.2003V34.808H106.212V35.858H100.794V40.254ZM112.094 28.83V27.794H120.774C120.774 28.6713 120.732 29.4927 120.648 30.258C120.574 31.014 120.471 31.7513 120.34 32.47L119.178 32.246C119.225 32.0407 119.267 31.7933 119.304 31.504C119.351 31.2147 119.393 30.9113 119.43 30.594C119.468 30.2767 119.496 29.964 119.514 29.656C119.542 29.348 119.561 29.0727 119.57 28.83H112.094ZM122.454 34.164H110.442V33.128H115.216V30.37H116.434V33.128H122.454V34.164ZM116.448 35.13C117.979 35.13 119.108 35.3633 119.836 35.83C120.574 36.2967 120.942 36.922 120.942 37.706C120.942 38.4807 120.574 39.0967 119.836 39.554C119.099 40.0113 117.97 40.24 116.448 40.24C114.918 40.24 113.784 40.0113 113.046 39.554C112.318 39.0967 111.954 38.4807 111.954 37.706C111.954 36.922 112.318 36.2967 113.046 35.83C113.784 35.3633 114.918 35.13 116.448 35.13ZM116.448 36.152C115.31 36.152 114.474 36.2967 113.942 36.586C113.41 36.866 113.144 37.2393 113.144 37.706C113.144 38.1633 113.41 38.532 113.942 38.812C114.474 39.092 115.31 39.232 116.448 39.232C117.587 39.232 118.422 39.092 118.954 38.812C119.486 38.532 119.752 38.1633 119.752 37.706C119.752 37.23 119.486 36.852 118.954 36.572C118.422 36.292 117.587 36.152 116.448 36.152ZM130.062 29.698H132.722V27.262H133.94V34.962H132.722V33.492H129.782V32.47H132.722V30.706H130.062V29.698ZM132.722 36.642H125.512V35.592H133.94V40.254H132.722V36.642ZM123.678 34.08C124.322 33.8653 124.929 33.5993 125.498 33.282C126.067 32.9553 126.576 32.582 127.024 32.162C127.472 31.742 127.855 31.2753 128.172 30.762C128.489 30.2487 128.723 29.6887 128.872 29.082H124.336V28.018H130.23C130.127 28.9513 129.908 29.782 129.572 30.51C129.236 31.238 128.807 31.8867 128.284 32.456C127.771 33.016 127.178 33.506 126.506 33.926C125.843 34.346 125.129 34.7147 124.364 35.032L123.678 34.08ZM139.321 40.618C138.435 39.442 137.791 38.28 137.389 37.132C136.988 35.9747 136.787 34.8453 136.787 33.744C136.787 32.6333 136.988 31.49 137.389 30.314C137.791 29.138 138.43 27.99 139.307 26.87H140.021C139.657 27.4673 139.34 28.046 139.069 28.606C138.808 29.166 138.589 29.7213 138.411 30.272C138.234 30.8227 138.103 31.3827 138.019 31.952C137.935 32.5213 137.893 33.1187 137.893 33.744C137.893 34.3787 137.94 34.9807 138.033 35.55C138.127 36.11 138.262 36.6653 138.439 37.216C138.626 37.7573 138.85 38.3033 139.111 38.854C139.382 39.414 139.69 40.002 140.035 40.618H139.321ZM141.415 28.214H143.921C144.518 28.214 145.097 28.3213 145.657 28.536C146.226 28.7413 146.73 29.0587 147.169 29.488C147.617 29.9173 147.976 30.454 148.247 31.098C148.518 31.7327 148.653 32.484 148.653 33.352C148.653 34.2107 148.518 34.9713 148.247 35.634C147.976 36.2967 147.622 36.852 147.183 37.3C146.744 37.748 146.24 38.084 145.671 38.308C145.102 38.5413 144.518 38.658 143.921 38.658H141.415V28.214ZM142.647 37.51H143.627C144.196 37.51 144.714 37.4167 145.181 37.23C145.648 37.0433 146.049 36.7727 146.385 36.418C146.721 36.054 146.978 35.6153 147.155 35.102C147.342 34.5887 147.435 34.0053 147.435 33.352C147.435 32.6893 147.342 32.1107 147.155 31.616C146.978 31.112 146.721 30.692 146.385 30.356C146.049 30.02 145.648 29.768 145.181 29.6C144.714 29.432 144.196 29.348 143.627 29.348H142.647V37.51ZM150.192 28.214H152.698C153.296 28.214 153.874 28.3213 154.434 28.536C155.004 28.7413 155.508 29.0587 155.946 29.488C156.394 29.9173 156.754 30.454 157.024 31.098C157.295 31.7327 157.43 32.484 157.43 33.352C157.43 34.2107 157.295 34.9713 157.024 35.634C156.754 36.2967 156.399 36.852 155.96 37.3C155.522 37.748 155.018 38.084 154.448 38.308C153.879 38.5413 153.296 38.658 152.698 38.658H150.192V28.214ZM151.424 37.51H152.404C152.974 37.51 153.492 37.4167 153.958 37.23C154.425 37.0433 154.826 36.7727 155.162 36.418C155.498 36.054 155.755 35.6153 155.932 35.102C156.119 34.5887 156.212 34.0053 156.212 33.352C156.212 32.6893 156.119 32.1107 155.932 31.616C155.755 31.112 155.498 30.692 155.162 30.356C154.826 30.02 154.425 29.768 153.958 29.6C153.492 29.432 152.974 29.348 152.404 29.348H151.424V37.51ZM161.63 30.888C162.199 30.888 162.694 30.9907 163.114 31.196C163.534 31.4013 163.884 31.686 164.164 32.05C164.444 32.4047 164.649 32.8247 164.78 33.31C164.92 33.786 164.99 34.2947 164.99 34.836C164.99 35.3867 164.92 35.9047 164.78 36.39C164.649 36.866 164.444 37.286 164.164 37.65C163.884 38.0047 163.534 38.2847 163.114 38.49C162.694 38.6953 162.199 38.798 161.63 38.798C161.051 38.798 160.552 38.6953 160.132 38.49C159.712 38.2847 159.362 38.0047 159.082 37.65C158.811 37.2953 158.606 36.8753 158.466 36.39C158.335 35.9047 158.27 35.3867 158.27 34.836C158.27 34.2853 158.335 33.772 158.466 33.296C158.606 32.8107 158.811 32.3907 159.082 32.036C159.362 31.6813 159.712 31.4013 160.132 31.196C160.552 30.9907 161.051 30.888 161.63 30.888ZM161.63 31.924C161.219 31.924 160.874 32.008 160.594 32.176C160.314 32.3347 160.09 32.5493 159.922 32.82C159.754 33.0813 159.632 33.3893 159.558 33.744C159.492 34.0987 159.46 34.4627 159.46 34.836C159.46 35.2187 159.492 35.5873 159.558 35.942C159.632 36.2873 159.754 36.5953 159.922 36.866C160.09 37.1367 160.314 37.356 160.594 37.524C160.874 37.6827 161.219 37.762 161.63 37.762C162.031 37.762 162.372 37.6827 162.652 37.524C162.932 37.356 163.156 37.1367 163.324 36.866C163.492 36.586 163.613 36.2733 163.688 35.928C163.762 35.5733 163.8 35.2093 163.8 34.836C163.8 34.4627 163.762 34.1033 163.688 33.758C163.613 33.4033 163.492 33.0907 163.324 32.82C163.156 32.5493 162.932 32.3347 162.652 32.176C162.372 32.008 162.031 31.924 161.63 31.924ZM171.038 29.488C170.581 29.2733 169.988 29.166 169.26 29.166C167.907 29.166 167.23 29.6933 167.23 30.748C167.23 30.9533 167.267 31.14 167.342 31.308C167.417 31.4667 167.529 31.6207 167.678 31.77C167.837 31.91 168.033 32.0547 168.266 32.204C168.509 32.3533 168.793 32.5167 169.12 32.694C169.531 32.9087 169.899 33.1187 170.226 33.324C170.562 33.52 170.842 33.7393 171.066 33.982C171.299 34.2153 171.477 34.486 171.598 34.794C171.719 35.102 171.78 35.4753 171.78 35.914C171.78 36.4087 171.696 36.838 171.528 37.202C171.36 37.5567 171.127 37.8507 170.828 38.084C170.529 38.3267 170.175 38.504 169.764 38.616C169.353 38.7373 168.905 38.798 168.42 38.798C168.028 38.798 167.608 38.728 167.16 38.588C166.721 38.448 166.315 38.2847 165.942 38.098L166.208 36.978C166.563 37.1833 166.922 37.3513 167.286 37.482C167.659 37.6033 168.056 37.664 168.476 37.664C169.204 37.664 169.736 37.496 170.072 37.16C170.417 36.8147 170.59 36.376 170.59 35.844C170.59 35.34 170.403 34.9107 170.03 34.556C169.657 34.192 169.106 33.8467 168.378 33.52C167.697 33.212 167.137 32.834 166.698 32.386C166.269 31.938 166.054 31.392 166.054 30.748C166.054 30.2907 166.143 29.894 166.32 29.558C166.497 29.222 166.731 28.9467 167.02 28.732C167.319 28.508 167.664 28.3447 168.056 28.242C168.448 28.13 168.854 28.074 169.274 28.074C169.694 28.074 170.077 28.116 170.422 28.2C170.777 28.2747 171.075 28.354 171.318 28.438L171.038 29.488ZM172.526 40.618C172.862 40.0113 173.161 39.428 173.422 38.868C173.693 38.3173 173.917 37.7667 174.094 37.216C174.281 36.6653 174.421 36.1053 174.514 35.536C174.617 34.9667 174.668 34.3693 174.668 33.744C174.668 33.1187 174.621 32.5213 174.528 31.952C174.444 31.3827 174.313 30.8227 174.136 30.272C173.968 29.7213 173.749 29.166 173.478 28.606C173.207 28.046 172.89 27.4673 172.526 26.87H173.226C174.103 27.99 174.747 29.138 175.158 30.314C175.578 31.49 175.788 32.6333 175.788 33.744C175.788 34.8453 175.583 35.9747 175.172 37.132C174.771 38.28 174.127 39.442 173.24 40.618H172.526ZM177.476 34.01H189.488V35.06H177.476V34.01ZM179.198 36.068H180.416V38.91H188.06V39.974H179.198V36.068ZM183.482 27.654C184.994 27.654 186.118 27.8873 186.856 28.354C187.602 28.8207 187.976 29.432 187.976 30.188C187.976 30.9627 187.602 31.5833 186.856 32.05C186.118 32.5073 184.994 32.736 183.482 32.736C181.97 32.736 180.84 32.5073 180.094 32.05C179.347 31.5833 178.974 30.9627 178.974 30.188C178.974 29.432 179.347 28.8207 180.094 28.354C180.84 27.8873 181.97 27.654 183.482 27.654ZM183.482 28.69C182.324 28.69 181.484 28.83 180.962 29.11C180.448 29.39 180.192 29.7493 180.192 30.188C180.192 30.6267 180.448 30.9907 180.962 31.28C181.484 31.56 182.324 31.7 183.482 31.7C184.63 31.7 185.46 31.56 185.974 31.28C186.496 30.9907 186.758 30.6267 186.758 30.188C186.758 29.7493 186.496 29.39 185.974 29.11C185.46 28.83 184.63 28.69 183.482 28.69ZM197.54 28.2C198.174 28.2 198.706 28.3587 199.136 28.676C199.574 28.984 199.915 29.4087 200.158 29.95H203.252V27.262H204.47V40.184H203.252V35.242H200.228C199.985 35.83 199.644 36.2967 199.206 36.642C198.767 36.978 198.212 37.146 197.54 37.146C197.008 37.146 196.541 37.034 196.14 36.81C195.738 36.586 195.402 36.2733 195.132 35.872C194.87 35.4707 194.674 34.9993 194.544 34.458C194.413 33.9073 194.348 33.3147 194.348 32.68C194.348 32.036 194.413 31.4433 194.544 30.902C194.674 30.3513 194.87 29.88 195.132 29.488C195.402 29.0867 195.738 28.774 196.14 28.55C196.541 28.3167 197.008 28.2 197.54 28.2ZM197.54 29.236C196.914 29.236 196.42 29.5393 196.056 30.146C195.692 30.7433 195.51 31.5833 195.51 32.666C195.51 33.758 195.692 34.6073 196.056 35.214C196.42 35.8113 196.914 36.11 197.54 36.11C198.165 36.11 198.655 35.8113 199.01 35.214C199.374 34.6073 199.556 33.758 199.556 32.666C199.556 31.5833 199.374 30.7433 199.01 30.146C198.655 29.5393 198.165 29.236 197.54 29.236ZM200.494 30.972C200.615 31.4853 200.676 32.0547 200.676 32.68C200.676 32.9507 200.662 33.2167 200.634 33.478C200.615 33.73 200.582 33.9773 200.536 34.22H203.252V30.972H200.494ZM215.857 33.156H213.435V32.078H215.857V27.262H217.075V40.184H215.857V33.156ZM207.261 32.036H211.503V29.39H207.275V28.326H212.693V33.072H208.451V36.194C208.815 36.194 209.217 36.1893 209.655 36.18C210.103 36.1613 210.561 36.1427 211.027 36.124C211.503 36.1053 211.97 36.082 212.427 36.054C212.894 36.026 213.333 35.9887 213.743 35.942L213.827 36.95C213.286 37.0153 212.749 37.0667 212.217 37.104C211.695 37.1413 211.163 37.174 210.621 37.202C210.089 37.2207 209.543 37.2347 208.983 37.244C208.433 37.244 207.859 37.244 207.261 37.244V32.036ZM223.531 28.41H228.361V29.488H224.735V35.858C225.025 35.858 225.361 35.8487 225.743 35.83C226.135 35.8113 226.532 35.7927 226.933 35.774C227.335 35.7553 227.717 35.732 228.081 35.704C228.455 35.676 228.767 35.648 229.019 35.62L229.145 36.67C228.847 36.7073 228.459 36.7447 227.983 36.782C227.517 36.8193 227.017 36.852 226.485 36.88C225.963 36.908 225.44 36.9313 224.917 36.95C224.395 36.9687 223.933 36.978 223.531 36.978V28.41ZM232.589 33.338H230.965V39.904H229.803V27.458H230.965V32.274H232.589V27.262H233.737V40.254H232.589V33.338ZM245.923 27.262V40.184H244.691V27.262H245.923ZM236.347 31.21C236.347 30.7527 236.431 30.342 236.599 29.978C236.776 29.6047 237.014 29.2873 237.313 29.026C237.612 28.7647 237.962 28.564 238.363 28.424C238.764 28.2747 239.198 28.2 239.665 28.2C240.132 28.2 240.566 28.2747 240.967 28.424C241.378 28.564 241.728 28.7647 242.017 29.026C242.316 29.2873 242.549 29.6047 242.717 29.978C242.885 30.3513 242.969 30.762 242.969 31.21C242.969 31.6767 242.885 32.0967 242.717 32.47C242.549 32.8433 242.316 33.1607 242.017 33.422C241.728 33.6833 241.378 33.884 240.967 34.024C240.566 34.164 240.132 34.234 239.665 34.234C239.198 34.234 238.764 34.164 238.363 34.024C237.962 33.8747 237.612 33.6693 237.313 33.408C237.014 33.1467 236.776 32.8293 236.599 32.456C236.431 32.0827 236.347 31.6673 236.347 31.21ZM237.495 31.224C237.495 31.532 237.551 31.812 237.663 32.064C237.775 32.3067 237.929 32.5167 238.125 32.694C238.321 32.862 238.55 32.9927 238.811 33.086C239.082 33.1793 239.366 33.226 239.665 33.226C239.973 33.226 240.258 33.1793 240.519 33.086C240.78 32.9927 241.004 32.862 241.191 32.694C241.387 32.5167 241.541 32.3067 241.653 32.064C241.765 31.812 241.821 31.532 241.821 31.224C241.821 30.916 241.765 30.6407 241.653 30.398C241.541 30.146 241.387 29.9313 241.191 29.754C241.004 29.5767 240.78 29.4413 240.519 29.348C240.258 29.2547 239.973 29.208 239.665 29.208C239.366 29.208 239.082 29.2547 238.811 29.348C238.55 29.4413 238.321 29.5767 238.125 29.754C237.929 29.9313 237.775 30.146 237.663 30.398C237.551 30.6407 237.495 30.916 237.495 31.224ZM235.521 36.166C236.968 36.1567 238.4 36.124 239.819 36.068C241.247 36.0027 242.638 35.8907 243.991 35.732L244.089 36.67C242.717 36.8567 241.326 36.992 239.917 37.076C238.508 37.1507 237.094 37.2067 235.675 37.244L235.521 36.166ZM257.419 31.07C257.988 31.07 258.511 31.1167 258.987 31.21C259.472 31.3033 259.888 31.448 260.233 31.644C260.588 31.84 260.858 32.0827 261.045 32.372C261.241 32.6613 261.339 33.002 261.339 33.394C261.339 33.758 261.26 34.0753 261.101 34.346C260.942 34.6167 260.714 34.85 260.415 35.046C260.126 35.2327 259.776 35.382 259.365 35.494C258.964 35.606 258.516 35.676 258.021 35.704V37.356H263.425V38.392H251.413V37.356H256.817V35.704C255.8 35.648 254.988 35.4287 254.381 35.046C253.784 34.6633 253.485 34.1127 253.485 33.394C253.485 33.002 253.578 32.6613 253.765 32.372C253.952 32.0827 254.218 31.84 254.563 31.644C254.908 31.448 255.324 31.3033 255.809 31.21C256.294 31.1167 256.831 31.07 257.419 31.07ZM257.419 32.05C257.027 32.05 256.663 32.0733 256.327 32.12C255.991 32.1667 255.697 32.246 255.445 32.358C255.193 32.4607 254.992 32.6007 254.843 32.778C254.703 32.946 254.633 33.1513 254.633 33.394C254.633 33.646 254.703 33.8607 254.843 34.038C254.992 34.206 255.193 34.346 255.445 34.458C255.697 34.5607 255.991 34.64 256.327 34.696C256.672 34.7427 257.036 34.766 257.419 34.766C257.792 34.766 258.147 34.7427 258.483 34.696C258.819 34.64 259.113 34.5607 259.365 34.458C259.617 34.346 259.813 34.206 259.953 34.038C260.102 33.8607 260.177 33.646 260.177 33.394C260.177 33.1513 260.102 32.946 259.953 32.778C259.804 32.6007 259.603 32.4607 259.351 32.358C259.099 32.246 258.805 32.1667 258.469 32.12C258.142 32.0733 257.792 32.05 257.419 32.05ZM252.589 29.39H262.249V30.44H252.589V29.39ZM254.955 27.514H259.883V28.564H254.955V27.514ZM264.019 37.118H276.031V38.182H264.019V37.118ZM274.967 34.402C274.472 34.2713 273.977 34.094 273.483 33.87C272.997 33.646 272.535 33.3847 272.097 33.086C271.658 32.7873 271.257 32.4607 270.893 32.106C270.538 31.7513 270.249 31.378 270.025 30.986C269.801 31.3873 269.511 31.7653 269.157 32.12C268.802 32.4747 268.405 32.7967 267.967 33.086C267.537 33.3753 267.075 33.632 266.581 33.856C266.095 34.08 265.601 34.262 265.097 34.402C265.069 34.3647 265.041 34.3227 265.013 34.276C264.985 34.2293 264.947 34.1733 264.901 34.108C264.854 34.0333 264.793 33.9447 264.719 33.842C264.653 33.73 264.565 33.59 264.453 33.422C265.134 33.2633 265.773 33.0347 266.371 32.736C266.977 32.4373 267.505 32.092 267.953 31.7C268.401 31.308 268.751 30.8787 269.003 30.412C269.264 29.936 269.395 29.4413 269.395 28.928V28.074H270.655V28.928C270.655 29.4413 270.785 29.936 271.047 30.412C271.308 30.888 271.663 31.3267 272.111 31.728C272.559 32.12 273.081 32.4653 273.679 32.764C274.276 33.0533 274.911 33.2727 275.583 33.422L274.967 34.402ZM278.332 28.27H286.914V29.32H279.536V31H286.732V32.036H279.536V33.8H287.026V34.85H278.332V28.27ZM276.624 37.188H288.636V38.252H276.624V37.188ZM290.98 29.432H298.302V28.48H290.98V27.514H299.464V30.37H292.142V31.35H299.674V32.302H290.98V29.432ZM289.23 33.24H301.242V34.234H289.23V33.24ZM290.896 37.16H298.386V36.222H290.896V35.256H299.562V38.126H292.072V39.134H299.772V40.114H290.896V37.16ZM23.488 52.358V53.422H21.514V60.184H20.296V47.262H21.514V52.358H23.488ZM11.154 56.572C12.2647 55.8533 13.1327 54.9527 13.758 53.87C14.3927 52.778 14.71 51.5227 14.71 50.104V48.13H15.956V50.104C15.956 51.4107 16.2407 52.6007 16.81 53.674C17.3793 54.7473 18.2613 55.6573 19.456 56.404L18.616 57.202C18.2333 56.9407 17.8693 56.656 17.524 56.348C17.188 56.04 16.8753 55.7133 16.586 55.368C16.306 55.0133 16.0587 54.6493 15.844 54.276C15.6293 53.9027 15.4613 53.5247 15.34 53.142C15.0973 53.926 14.682 54.682 14.094 55.41C13.506 56.138 12.8153 56.7867 12.022 57.356L11.154 56.572ZM29.9055 47.598C31.4361 47.598 32.5608 47.822 33.2795 48.27C34.0075 48.7087 34.3715 49.2827 34.3715 49.992C34.3715 50.44 34.2361 50.832 33.9655 51.168C33.6948 51.4947 33.2795 51.7607 32.7195 51.966V53.66H35.9115V54.71H23.8995V53.66H27.0915V51.98C26.5221 51.7747 26.1021 51.504 25.8315 51.168C25.5608 50.832 25.4255 50.44 25.4255 49.992C25.4255 49.6373 25.5141 49.3153 25.6915 49.026C25.8688 48.7273 26.1395 48.4753 26.5035 48.27C26.8768 48.0553 27.3435 47.892 27.9035 47.78C28.4635 47.6587 29.1308 47.598 29.9055 47.598ZM29.9055 55.606C31.4081 55.606 32.5328 55.8113 33.2795 56.222C34.0355 56.6233 34.4135 57.188 34.4135 57.916C34.4135 58.644 34.0355 59.2087 33.2795 59.61C32.5328 60.0113 31.4081 60.212 29.9055 60.212C28.3935 60.212 27.2641 60.0113 26.5175 59.61C25.7708 59.2087 25.3975 58.644 25.3975 57.916C25.3975 57.188 25.7708 56.6233 26.5175 56.222C27.2641 55.8113 28.3935 55.606 29.9055 55.606ZM29.9055 48.62C28.7855 48.62 27.9595 48.7413 27.4275 48.984C26.9048 49.2267 26.6435 49.5627 26.6435 49.992C26.6435 50.4213 26.9048 50.7573 27.4275 51C27.9595 51.2427 28.7855 51.364 29.9055 51.364C31.0161 51.364 31.8328 51.2427 32.3555 51C32.8875 50.7573 33.1535 50.4213 33.1535 49.992C33.1535 49.5533 32.8875 49.2173 32.3555 48.984C31.8328 48.7413 31.0161 48.62 29.9055 48.62ZM29.9055 56.6C28.7948 56.6 27.9641 56.7213 27.4135 56.964C26.8721 57.2067 26.6015 57.524 26.6015 57.916C26.6015 58.2893 26.8721 58.5973 27.4135 58.84C27.9641 59.0827 28.7948 59.204 29.9055 59.204C31.0161 59.204 31.8421 59.0827 32.3835 58.84C32.9248 58.5973 33.1955 58.2893 33.1955 57.916C33.1955 57.524 32.9248 57.2067 32.3835 56.964C31.8421 56.7213 31.0161 56.6 29.9055 56.6ZM31.5295 53.66V52.246C31.2868 52.2833 31.0301 52.3113 30.7595 52.33C30.4888 52.3487 30.2041 52.358 29.9055 52.358C29.5975 52.358 29.3081 52.3487 29.0375 52.33C28.7668 52.3113 28.5101 52.2833 28.2675 52.246V53.66H31.5295ZM46.6549 60.184H45.4509V47.262H46.6549V52.708H48.6709V53.758H46.6549V60.184ZM38.5489 47.836H42.7629V48.9H38.5489V47.836ZM36.8409 49.922H44.4849V50.958H36.8409V49.922ZM40.6629 51.742C41.0923 51.742 41.4936 51.8167 41.8669 51.966C42.2496 52.106 42.5809 52.3067 42.8609 52.568C43.1503 52.82 43.3743 53.128 43.5329 53.492C43.7009 53.8467 43.7849 54.2387 43.7849 54.668C43.7849 55.1067 43.7009 55.508 43.5329 55.872C43.3743 56.2267 43.1503 56.5347 42.8609 56.796C42.5809 57.048 42.2496 57.244 41.8669 57.384C41.4936 57.524 41.0923 57.594 40.6629 57.594C40.2336 57.594 39.8276 57.524 39.4449 57.384C39.0716 57.244 38.7403 57.048 38.4509 56.796C38.1709 56.5347 37.9469 56.2267 37.7789 55.872C37.6203 55.508 37.5409 55.1067 37.5409 54.668C37.5409 54.2387 37.6203 53.8467 37.7789 53.492C37.9469 53.128 38.1709 52.82 38.4509 52.568C38.7403 52.3067 39.0716 52.106 39.4449 51.966C39.8276 51.8167 40.2336 51.742 40.6629 51.742ZM40.6629 52.764C40.3829 52.764 40.1216 52.8153 39.8789 52.918C39.6456 53.0113 39.4403 53.142 39.2629 53.31C39.0949 53.478 38.9596 53.6787 38.8569 53.912C38.7636 54.1453 38.7169 54.3973 38.7169 54.668C38.7169 54.948 38.7636 55.2047 38.8569 55.438C38.9596 55.6713 39.0949 55.872 39.2629 56.04C39.4403 56.208 39.6456 56.3433 39.8789 56.446C40.1216 56.5393 40.3829 56.586 40.6629 56.586C40.9429 56.586 41.1996 56.5393 41.4329 56.446C41.6756 56.3433 41.8809 56.208 42.0489 56.04C42.2263 55.872 42.3616 55.6713 42.4549 55.438C42.5576 55.2047 42.6089 54.948 42.6089 54.668C42.6089 54.3973 42.5576 54.1453 42.4549 53.912C42.3616 53.6787 42.2263 53.478 42.0489 53.31C41.8809 53.142 41.6756 53.0113 41.4329 52.918C41.1996 52.8153 40.9429 52.764 40.6629 52.764ZM52.9324 48.2C53.5671 48.2 54.0991 48.3587 54.5284 48.676C54.9671 48.984 55.3077 49.4087 55.5504 49.95H58.6444V47.262H59.8624V60.184H58.6444V55.242H55.6204C55.3777 55.83 55.0371 56.2967 54.5984 56.642C54.1597 56.978 53.6044 57.146 52.9324 57.146C52.4004 57.146 51.9337 57.034 51.5324 56.81C51.1311 56.586 50.7951 56.2733 50.5244 55.872C50.2631 55.4707 50.0671 54.9993 49.9364 54.458C49.8057 53.9073 49.7404 53.3147 49.7404 52.68C49.7404 52.036 49.8057 51.4433 49.9364 50.902C50.0671 50.3513 50.2631 49.88 50.5244 49.488C50.7951 49.0867 51.1311 48.774 51.5324 48.55C51.9337 48.3167 52.4004 48.2 52.9324 48.2ZM52.9324 49.236C52.3071 49.236 51.8124 49.5393 51.4484 50.146C51.0844 50.7433 50.9024 51.5833 50.9024 52.666C50.9024 53.758 51.0844 54.6073 51.4484 55.214C51.8124 55.8113 52.3071 56.11 52.9324 56.11C53.5577 56.11 54.0477 55.8113 54.4024 55.214C54.7664 54.6073 54.9484 53.758 54.9484 52.666C54.9484 51.5833 54.7664 50.7433 54.4024 50.146C54.0477 49.5393 53.5577 49.236 52.9324 49.236ZM55.8864 50.972C56.0077 51.4853 56.0684 52.0547 56.0684 52.68C56.0684 52.9507 56.0544 53.2167 56.0264 53.478C56.0077 53.73 55.9751 53.9773 55.9284 54.22H58.6444V50.972H55.8864ZM74.8866 52.596H72.1006V51.546H74.8866V47.262H76.1046V60.184H74.8866V52.596ZM65.2546 56.572C66.3653 55.8533 67.2333 54.9527 67.8586 53.87C68.4933 52.778 68.8106 51.5227 68.8106 50.104V48.13H70.0566V50.104C70.0566 51.4107 70.3413 52.6007 70.9106 53.674C71.4799 54.7473 72.3619 55.6573 73.5566 56.404L72.7166 57.202C72.3339 56.9407 71.9699 56.656 71.6246 56.348C71.2886 56.04 70.9759 55.7133 70.6866 55.368C70.4066 55.0133 70.1593 54.6493 69.9446 54.276C69.7299 53.9027 69.5619 53.5247 69.4406 53.142C69.1979 53.926 68.7826 54.682 68.1946 55.41C67.6066 56.138 66.9159 56.7867 66.1226 57.356L65.2546 56.572ZM78.8681 48.256H80.0581V51.448H83.6281V48.172H84.8181V52.022H87.5061V47.262H88.7101V60.184H87.5061V53.086H84.8181V56.908H78.8681V48.256ZM80.0581 52.498V55.844H83.6281V52.498H80.0581ZM92.3135 49.432H99.6355V48.48H92.3135V47.514H100.798V50.37H93.4755V51.35H101.008V52.302H92.3135V49.432ZM90.5635 53.24H102.576V54.234H90.5635V53.24ZM92.2295 57.16H99.7195V56.222H92.2295V55.256H100.896V58.126H93.4055V59.134H101.106V60.114H92.2295V57.16ZM117.026 47.262V52.75H118.93V53.828H117.026V60.184H115.808V47.262H117.026ZM106.862 56.39C107.73 56.39 108.598 56.376 109.466 56.348V52.106H110.67V56.292C112.21 56.208 113.731 56.082 115.234 55.914L115.332 56.824C113.96 57.0107 112.583 57.146 111.202 57.23C109.83 57.314 108.434 57.3747 107.016 57.412L106.862 56.39ZM114.086 48.396C114.067 49.6747 114.011 50.8273 113.918 51.854C113.834 52.8713 113.726 53.828 113.596 54.724L112.448 54.528C112.504 54.2107 112.555 53.8327 112.602 53.394C112.658 52.9553 112.704 52.5027 112.742 52.036C112.779 51.5693 112.812 51.112 112.84 50.664C112.868 50.2067 112.882 49.8053 112.882 49.46H107.688V48.396H114.086ZM121.063 47.71H122.267V49.46H128.553V47.654H129.757V53.366H121.063V47.71ZM122.267 50.51V52.316H128.553V50.51H122.267ZM126.005 60.254H124.801V55.858H119.411V54.808H131.423V55.858H126.005V60.254ZM142.167 60.184H140.963V47.262H142.167V52.708H144.183V53.758H142.167V60.184ZM134.061 47.836H138.275V48.9H134.061V47.836ZM132.353 49.922H139.997V50.958H132.353V49.922ZM136.175 51.742C136.604 51.742 137.005 51.8167 137.379 51.966C137.761 52.106 138.093 52.3067 138.373 52.568C138.662 52.82 138.886 53.128 139.045 53.492C139.213 53.8467 139.297 54.2387 139.297 54.668C139.297 55.1067 139.213 55.508 139.045 55.872C138.886 56.2267 138.662 56.5347 138.373 56.796C138.093 57.048 137.761 57.244 137.379 57.384C137.005 57.524 136.604 57.594 136.175 57.594C135.745 57.594 135.339 57.524 134.957 57.384C134.583 57.244 134.252 57.048 133.963 56.796C133.683 56.5347 133.459 56.2267 133.291 55.872C133.132 55.508 133.053 55.1067 133.053 54.668C133.053 54.2387 133.132 53.8467 133.291 53.492C133.459 53.128 133.683 52.82 133.963 52.568C134.252 52.3067 134.583 52.106 134.957 51.966C135.339 51.8167 135.745 51.742 136.175 51.742ZM136.175 52.764C135.895 52.764 135.633 52.8153 135.391 52.918C135.157 53.0113 134.952 53.142 134.775 53.31C134.607 53.478 134.471 53.6787 134.369 53.912C134.275 54.1453 134.229 54.3973 134.229 54.668C134.229 54.948 134.275 55.2047 134.369 55.438C134.471 55.6713 134.607 55.872 134.775 56.04C134.952 56.208 135.157 56.3433 135.391 56.446C135.633 56.5393 135.895 56.586 136.175 56.586C136.455 56.586 136.711 56.5393 136.945 56.446C137.187 56.3433 137.393 56.208 137.561 56.04C137.738 55.872 137.873 55.6713 137.967 55.438C138.069 55.2047 138.121 54.948 138.121 54.668C138.121 54.3973 138.069 54.1453 137.967 53.912C137.873 53.6787 137.738 53.478 137.561 53.31C137.393 53.142 137.187 53.0113 136.945 52.918C136.711 52.8153 136.455 52.764 136.175 52.764ZM154.17 47.262H155.374V60.17H154.17V47.262ZM145.686 57.314L144.818 56.544C145.947 55.8253 146.825 54.9247 147.45 53.842C148.075 52.75 148.388 51.4993 148.388 50.09V48.13H149.606V50.09C149.606 51.3967 149.895 52.5867 150.474 53.66C151.053 54.724 151.944 55.6293 153.148 56.376L152.28 57.174C151.907 56.922 151.547 56.642 151.202 56.334C150.866 56.026 150.553 55.6993 150.264 55.354C149.975 54.9993 149.723 54.6353 149.508 54.262C149.293 53.8793 149.125 53.4967 149.004 53.114C148.761 53.898 148.346 54.654 147.758 55.382C147.179 56.11 146.498 56.754 145.714 57.314H145.686ZM166.762 55.088H163.332V54.052H166.762V51.378H163.696C163.472 52.0967 163.187 52.7593 162.842 53.366C162.496 53.9727 162.1 54.542 161.652 55.074C161.204 55.606 160.709 56.1007 160.168 56.558C159.636 57.0153 159.066 57.4447 158.46 57.846L157.648 56.978C158.656 56.3433 159.514 55.6667 160.224 54.948C160.942 54.2293 161.526 53.436 161.974 52.568L158.04 52.904L157.774 51.798L162.422 51.588C162.552 51.2333 162.664 50.8693 162.758 50.496C162.86 50.1133 162.94 49.712 162.996 49.292H158.124V48.256H164.256C164.237 48.6293 164.204 48.9887 164.158 49.334C164.111 49.67 164.05 50.0013 163.976 50.328H166.762V47.262H167.98V60.184H166.762V55.088ZM176.102 55.844H177.292V56.936H183.452V55.774H184.642V60.072H176.102V55.844ZM177.124 47.556C177.581 47.556 177.982 47.612 178.328 47.724C178.682 47.836 178.972 47.9853 179.196 48.172C179.429 48.3587 179.602 48.578 179.714 48.83C179.835 49.0727 179.896 49.3293 179.896 49.6C179.896 49.88 179.835 50.146 179.714 50.398C179.602 50.6407 179.429 50.8553 179.196 51.042C178.972 51.2287 178.682 51.378 178.328 51.49C177.982 51.602 177.581 51.658 177.124 51.658C176.666 51.658 176.265 51.602 175.92 51.49C175.574 51.378 175.285 51.2287 175.052 51.042C174.818 50.8553 174.641 50.6407 174.52 50.398C174.408 50.146 174.352 49.88 174.352 49.6C174.352 49.3293 174.408 49.0727 174.52 48.83C174.641 48.578 174.818 48.3587 175.052 48.172C175.285 47.9853 175.574 47.836 175.92 47.724C176.265 47.612 176.666 47.556 177.124 47.556ZM181.156 54.64H178.748V53.716H181.156V47.43H182.276V55.312H181.156V54.64ZM183.508 47.262H184.642V55.354H183.508V47.262ZM180.708 52.904C180.204 52.9693 179.7 53.0253 179.196 53.072C178.701 53.1093 178.192 53.142 177.67 53.17V55.34H176.508V53.212C176.032 53.2307 175.56 53.2447 175.094 53.254C174.627 53.2633 174.16 53.268 173.694 53.268L173.526 52.316C174.702 52.3347 175.887 52.3253 177.082 52.288C178.276 52.2507 179.462 52.176 180.638 52.064L180.708 52.904ZM177.292 57.902V59.106H183.452V57.902H177.292ZM177.124 48.48C176.601 48.48 176.19 48.5873 175.892 48.802C175.602 49.0167 175.458 49.2827 175.458 49.6C175.458 49.9267 175.602 50.202 175.892 50.426C176.19 50.6407 176.601 50.748 177.124 50.748C177.646 50.748 178.057 50.6407 178.356 50.426C178.654 50.202 178.804 49.9267 178.804 49.6C178.804 49.2827 178.654 49.0167 178.356 48.802C178.057 48.5873 177.646 48.48 177.124 48.48ZM198.269 52.358V53.422H196.295V60.184H195.077V47.262H196.295V52.358H198.269ZM185.935 56.572C187.046 55.8533 187.914 54.9527 188.539 53.87C189.174 52.778 189.491 51.5227 189.491 50.104V48.13H190.737V50.104C190.737 51.4107 191.022 52.6007 191.591 53.674C192.161 54.7473 193.043 55.6573 194.237 56.404L193.397 57.202C193.015 56.9407 192.651 56.656 192.305 56.348C191.969 56.04 191.657 55.7133 191.367 55.368C191.087 55.0133 190.84 54.6493 190.625 54.276C190.411 53.9027 190.243 53.5247 190.121 53.142C189.879 53.926 189.463 54.682 188.875 55.41C188.287 56.138 187.597 56.7867 186.803 57.356L185.935 56.572ZM208.215 47.262H209.433V60.184H208.215V47.262ZM202.797 48.172C203.347 48.172 203.828 48.2887 204.239 48.522C204.649 48.746 204.99 49.0587 205.261 49.46C205.531 49.8613 205.732 50.3373 205.863 50.888C206.003 51.4387 206.073 52.0313 206.073 52.666C206.073 53.3007 206.003 53.8933 205.863 54.444C205.732 54.9853 205.531 55.4567 205.261 55.858C204.99 56.25 204.649 56.5627 204.239 56.796C203.828 57.02 203.347 57.132 202.797 57.132C202.246 57.132 201.765 57.02 201.355 56.796C200.944 56.5627 200.603 56.25 200.333 55.858C200.062 55.4567 199.857 54.9853 199.717 54.444C199.577 53.8933 199.507 53.3007 199.507 52.666C199.507 52.0313 199.572 51.4387 199.703 50.888C199.843 50.3373 200.048 49.8613 200.319 49.46C200.599 49.0587 200.944 48.746 201.355 48.522C201.765 48.2887 202.246 48.172 202.797 48.172ZM202.797 49.222C202.143 49.222 201.63 49.5253 201.257 50.132C200.893 50.7293 200.711 51.574 200.711 52.666C200.711 53.7393 200.893 54.5793 201.257 55.186C201.63 55.7833 202.143 56.082 202.797 56.082C203.459 56.082 203.973 55.7833 204.337 55.186C204.71 54.5793 204.897 53.7393 204.897 52.666C204.897 51.574 204.71 50.7293 204.337 50.132C203.973 49.5253 203.459 49.222 202.797 49.222ZM212.994 48.27H221.576V49.32H214.198V51H221.394V52.036H214.198V53.8H221.688V54.85H212.994V48.27ZM211.286 57.188H223.298V58.252H211.286V57.188ZM224.83 48.34H230.738C230.663 49.46 230.481 50.482 230.192 51.406C229.912 52.3207 229.529 53.1607 229.044 53.926C228.568 54.682 227.994 55.3727 227.322 55.998C226.659 56.6233 225.908 57.202 225.068 57.734L224.256 56.866C224.993 56.4647 225.66 55.998 226.258 55.466C226.855 54.934 227.373 54.3507 227.812 53.716C228.26 53.0813 228.624 52.4 228.904 51.672C229.184 50.944 229.375 50.188 229.478 49.404H224.83V48.34ZM234 60.184H232.81V47.262H234V52.4H236.058V53.464H234V60.184ZM240.302 54.416C241.403 54.416 242.542 54.402 243.718 54.374V52.946C242.85 52.8433 242.187 52.5727 241.73 52.134C241.273 51.6953 241.044 51.1307 241.044 50.44C241.044 50.0667 241.114 49.726 241.254 49.418C241.403 49.1007 241.618 48.83 241.898 48.606C242.178 48.382 242.519 48.2093 242.92 48.088C243.331 47.9573 243.793 47.892 244.306 47.892C244.819 47.892 245.281 47.9573 245.692 48.088C246.103 48.2093 246.448 48.382 246.728 48.606C247.008 48.83 247.223 49.1007 247.372 49.418C247.521 49.726 247.596 50.0667 247.596 50.44C247.596 51.1307 247.363 51.7 246.896 52.148C246.429 52.5867 245.757 52.8527 244.88 52.946H244.894V54.318C245.51 54.29 246.121 54.2527 246.728 54.206C247.335 54.1593 247.932 54.0987 248.52 54.024L248.618 54.92C247.246 55.1067 245.897 55.2373 244.572 55.312C243.247 55.3773 241.879 55.4193 240.47 55.438L240.302 54.416ZM250.354 56.978H249.15V47.262H250.354V51.686H252.286V52.75H250.354V56.978ZM242.276 56.418H243.48V58.868H250.816V59.918H242.276V56.418ZM244.306 48.9C243.634 48.9 243.111 49.0447 242.738 49.334C242.365 49.6233 242.178 49.992 242.178 50.44C242.178 50.888 242.365 51.2567 242.738 51.546C243.111 51.8353 243.634 51.98 244.306 51.98C244.978 51.98 245.501 51.8353 245.874 51.546C246.247 51.2567 246.434 50.888 246.434 50.44C246.434 49.992 246.247 49.6233 245.874 49.334C245.501 49.0447 244.978 48.9 244.306 48.9ZM262.287 51.756H259.767V50.706H262.287V47.262H263.491V56.796H262.287V51.756ZM255.231 55.858H256.421V58.924H263.841V59.988H255.231V55.858ZM260.061 54.878C259.763 54.7567 259.45 54.5793 259.123 54.346C258.806 54.1033 258.503 53.842 258.213 53.562C257.933 53.2727 257.681 52.9787 257.457 52.68C257.233 52.3813 257.065 52.1013 256.953 51.84C256.832 52.1107 256.664 52.3953 256.449 52.694C256.244 52.9833 256.001 53.2727 255.721 53.562C255.441 53.8513 255.133 54.1267 254.797 54.388C254.471 54.64 254.125 54.8593 253.761 55.046L252.977 54.164C253.444 53.9587 253.878 53.7067 254.279 53.408C254.69 53.1 255.045 52.7593 255.343 52.386C255.642 52.0127 255.875 51.6113 256.043 51.182C256.221 50.7527 256.309 50.3047 256.309 49.838V49.138H253.537V48.102H260.327V49.138H257.555V49.824C257.555 50.3 257.639 50.7527 257.807 51.182C257.985 51.6113 258.218 52.0033 258.507 52.358C258.797 52.7127 259.133 53.03 259.515 53.31C259.907 53.59 260.323 53.8233 260.761 54.01L260.061 54.878ZM274.879 47.262H276.097V60.184H274.879V47.262ZM267.515 47.836H271.729V48.9H267.515V47.836ZM265.793 49.908H273.437V50.958H265.793V49.908ZM269.615 51.742C270.044 51.742 270.445 51.8167 270.819 51.966C271.201 52.106 271.533 52.3067 271.813 52.568C272.102 52.82 272.326 53.128 272.485 53.492C272.653 53.8467 272.737 54.2387 272.737 54.668C272.737 55.1067 272.653 55.5033 272.485 55.858C272.326 56.2127 272.102 56.5207 271.813 56.782C271.533 57.0433 271.201 57.244 270.819 57.384C270.445 57.524 270.044 57.594 269.615 57.594C269.195 57.594 268.793 57.524 268.411 57.384C268.037 57.244 267.706 57.0433 267.417 56.782C267.137 56.5207 266.913 56.2127 266.745 55.858C266.586 55.5033 266.507 55.1067 266.507 54.668C266.507 54.2387 266.586 53.8467 266.745 53.492C266.913 53.128 267.137 52.82 267.417 52.568C267.706 52.3067 268.037 52.106 268.411 51.966C268.793 51.8167 269.195 51.742 269.615 51.742ZM269.615 52.764C269.335 52.764 269.073 52.8153 268.831 52.918C268.597 53.0113 268.392 53.1467 268.215 53.324C268.047 53.492 267.911 53.6927 267.809 53.926C267.715 54.1593 267.669 54.4113 267.669 54.682C267.669 54.9527 267.715 55.2047 267.809 55.438C267.911 55.6713 268.047 55.872 268.215 56.04C268.392 56.208 268.597 56.3433 268.831 56.446C269.073 56.5393 269.335 56.586 269.615 56.586C269.895 56.586 270.151 56.5393 270.385 56.446C270.627 56.3433 270.837 56.208 271.015 56.04C271.192 55.872 271.327 55.6713 271.421 55.438C271.523 55.2047 271.575 54.9527 271.575 54.682C271.575 54.4113 271.523 54.1593 271.421 53.926C271.327 53.6927 271.192 53.492 271.015 53.324C270.837 53.1467 270.627 53.0113 270.385 52.918C270.151 52.8153 269.895 52.764 269.615 52.764ZM291.135 47.262H292.339V60.17H291.135V47.262ZM282.651 57.314L281.783 56.544C282.912 55.8253 283.79 54.9247 284.415 53.842C285.04 52.75 285.353 51.4993 285.353 50.09V48.13H286.571V50.09C286.571 51.3967 286.86 52.5867 287.439 53.66C288.018 54.724 288.909 55.6293 290.113 56.376L289.245 57.174C288.872 56.922 288.512 56.642 288.167 56.334C287.831 56.026 287.518 55.6993 287.229 55.354C286.94 54.9993 286.688 54.6353 286.473 54.262C286.258 53.8793 286.09 53.4967 285.969 53.114C285.726 53.898 285.311 54.654 284.723 55.382C284.144 56.11 283.463 56.754 282.679 57.314H282.651ZM294.192 57.118H306.204V58.182H294.192V57.118ZM305.14 54.402C304.646 54.2713 304.151 54.094 303.656 53.87C303.171 53.646 302.709 53.3847 302.27 53.086C301.832 52.7873 301.43 52.4607 301.066 52.106C300.712 51.7513 300.422 51.378 300.198 50.986C299.974 51.3873 299.685 51.7653 299.33 52.12C298.976 52.4747 298.579 52.7967 298.14 53.086C297.711 53.3753 297.249 53.632 296.754 53.856C296.269 54.08 295.774 54.262 295.27 54.402C295.242 54.3647 295.214 54.3227 295.186 54.276C295.158 54.2293 295.121 54.1733 295.074 54.108C295.028 54.0333 294.967 53.9447 294.892 53.842C294.827 53.73 294.738 53.59 294.626 53.422C295.308 53.2633 295.947 53.0347 296.544 52.736C297.151 52.4373 297.678 52.092 298.126 51.7C298.574 51.308 298.924 50.8787 299.176 50.412C299.438 49.936 299.568 49.4413 299.568 48.928V48.074H300.828V48.928C300.828 49.4413 300.959 49.936 301.22 50.412C301.482 50.888 301.836 51.3267 302.284 51.728C302.732 52.12 303.255 52.4653 303.852 52.764C304.45 53.0533 305.084 53.2727 305.756 53.422L305.14 54.402ZM21.318 67.262H22.466V75.018H21.318V67.262ZM18.868 71.504H17.034V70.468H18.868V67.43H20.002V74.906H18.868V71.504ZM13.856 75.564H22.466V80.1H13.856V75.564ZM15.046 76.586V79.092H21.29V76.586H15.046ZM17.034 67.962V68.998H13.338V70.594H16.236V71.602H13.338V73.282C13.702 73.282 14.0753 73.2773 14.458 73.268C14.8407 73.2587 15.2187 73.2447 15.592 73.226C15.9653 73.198 16.3247 73.17 16.67 73.142C17.0153 73.1047 17.328 73.058 17.608 73.002L17.734 74.024C17.034 74.1453 16.1987 74.2293 15.228 74.276C14.2667 74.3227 13.24 74.346 12.148 74.346V67.962H17.034ZM37.7562 80.184H36.5522V67.262H37.7562V72.26H39.7582V73.338H37.7562V80.184ZM28.4462 68.41H34.3542V76.894H28.4462V68.41ZM29.6502 69.488V75.816H33.1362V69.488H29.6502ZM49.6757 67.262H50.8937V80.17H49.6757V67.262ZM41.1777 68.256H42.3817V71.42H45.9797V68.158H47.1977V76.88H41.1777V68.256ZM42.3817 72.484V75.816H45.9797V72.484H42.3817ZM54.4971 69.432H61.8191V68.48H54.4971V67.514H62.9811V70.37H55.6591V71.35H63.1911V72.302H54.4971V69.432ZM52.7471 73.24H64.7591V74.234H52.7471V73.24ZM54.4131 77.16H61.9031V76.222H54.4131V75.256H63.0791V78.126H55.5891V79.134H63.2891V80.114H54.4131V77.16ZM74.2253 76.432H71.3553V75.382H75.4013V80.24H74.2253V76.432ZM78.6773 76.432H76.0453V75.382H79.8673V80.24H78.6773V76.432ZM69.6193 74.08C70.2633 73.8653 70.87 73.5993 71.4393 73.282C72.0086 72.9553 72.5173 72.582 72.9653 72.162C73.4133 71.742 73.796 71.2753 74.1133 70.762C74.4306 70.2487 74.664 69.6887 74.8133 69.082H70.2773V68.018H76.1713C76.0686 68.9513 75.8493 69.782 75.5133 70.51C75.1773 71.238 74.748 71.8867 74.2253 72.456C73.712 73.016 73.1193 73.506 72.4473 73.926C71.7846 74.346 71.0706 74.7147 70.3053 75.032L69.6193 74.08ZM76.0033 69.698H78.6633V67.262H79.8813V74.822H78.6633V73.352H75.7233V72.33H78.6633V70.706H76.0033V69.698ZM90.2188 79.89H89.0708V73.128H86.5368C86.1074 74.0147 85.5614 74.8593 84.8988 75.662C84.2454 76.4553 83.4941 77.16 82.6448 77.776L81.7768 77.006C82.4114 76.6047 82.9948 76.124 83.5268 75.564C84.0681 74.9947 84.5394 74.3787 84.9408 73.716C85.3514 73.0533 85.6874 72.358 85.9488 71.63C86.2101 70.8927 86.3874 70.1553 86.4808 69.418H82.5188V68.354H87.6568C87.6381 69.0073 87.5681 69.6467 87.4468 70.272C87.3254 70.888 87.1668 71.49 86.9708 72.078H89.0708V67.458H90.2188V79.89ZM92.7668 80.24H91.6328V67.262H92.7668V80.24ZM108.057 76.88H106.853V67.262H108.057V71.056H110.003V72.106H108.057V76.88ZM98.649 68.116H104.571V74.458H98.649V68.116ZM99.867 69.18V73.408H103.353V69.18H99.867ZM100.007 75.886H101.211V78.882H108.547V79.946H100.007V75.886ZM110.442 77.146H122.454V78.196H110.442V77.146ZM112.108 68.368H120.774V69.418H113.326V73.268H120.886V74.304H112.108V68.368ZM124.826 67.64H126.016V70.958H133.506V72.008H124.826V67.64ZM123.048 73.73H135.06V74.794H123.048V73.73ZM124.812 75.872H126.016V78.896H133.646V79.932H124.812V75.872ZM141.796 75.48H150.042V80.1H141.796V75.48ZM139.696 74.234C140.629 73.9633 141.46 73.59 142.188 73.114C142.916 72.638 143.518 72.064 143.994 71.392L140.158 71.7L139.892 70.636L144.512 70.454C144.615 70.2113 144.703 69.964 144.778 69.712C144.853 69.4507 144.909 69.1847 144.946 68.914H140.242V67.934H146.206C146.159 68.9047 145.982 69.7727 145.674 70.538C145.366 71.294 144.955 71.966 144.442 72.554C143.929 73.142 143.322 73.6507 142.622 74.08C141.931 74.5093 141.175 74.8687 140.354 75.158L139.696 74.234ZM142.986 76.53V79.05H148.838V76.53H142.986ZM148.838 71.952H146.01V70.916H148.838V67.262H150.042V74.85H148.838V71.952ZM160.884 80.212H159.68V75.76H156.11V80.212H154.892V75.76H151.896V74.724H163.908V75.76H160.884V80.212ZM153.24 67.85H162.55V68.886H153.24V67.85ZM153.352 72.274H155.242L154.906 69.572L156.152 69.46L156.376 72.274H159.372L159.624 69.432L160.884 69.544L160.506 72.274H162.452V73.31H153.352V72.274ZM174.035 72.862H171.711V71.784H174.035V67.262H175.253V80.184H174.035V72.862ZM165.565 68.368H171.459V69.432H166.755V72.036H170.745V73.086H166.755V76.012C167.138 76.012 167.562 76.0073 168.029 75.998C168.496 75.9887 168.972 75.97 169.457 75.942C169.942 75.914 170.423 75.8767 170.899 75.83C171.375 75.774 171.818 75.7087 172.229 75.634L172.355 76.67C171.916 76.754 171.431 76.8287 170.899 76.894C170.376 76.95 169.821 76.9967 169.233 77.034C168.654 77.0713 168.052 77.0993 167.427 77.118C166.802 77.1273 166.181 77.132 165.565 77.132V68.368ZM182.395 68.83V67.794H191.075C191.075 68.6713 191.033 69.4927 190.949 70.258C190.875 71.014 190.772 71.7513 190.641 72.47L189.479 72.246C189.526 72.0407 189.568 71.7933 189.605 71.504C189.652 71.2147 189.694 70.9113 189.731 70.594C189.769 70.2767 189.797 69.964 189.815 69.656C189.843 69.348 189.862 69.0727 189.871 68.83H182.395ZM192.755 74.164H180.743V73.128H185.517V70.37H186.735V73.128H192.755V74.164ZM186.749 75.13C188.28 75.13 189.409 75.3633 190.137 75.83C190.875 76.2967 191.243 76.922 191.243 77.706C191.243 78.4807 190.875 79.0967 190.137 79.554C189.4 80.0113 188.271 80.24 186.749 80.24C185.219 80.24 184.085 80.0113 183.347 79.554C182.619 79.0967 182.255 78.4807 182.255 77.706C182.255 76.922 182.619 76.2967 183.347 75.83C184.085 75.3633 185.219 75.13 186.749 75.13ZM186.749 76.152C185.611 76.152 184.775 76.2967 184.243 76.586C183.711 76.866 183.445 77.2393 183.445 77.706C183.445 78.1633 183.711 78.532 184.243 78.812C184.775 79.092 185.611 79.232 186.749 79.232C187.888 79.232 188.723 79.092 189.255 78.812C189.787 78.532 190.053 78.1633 190.053 77.706C190.053 77.23 189.787 76.852 189.255 76.572C188.723 76.292 187.888 76.152 186.749 76.152ZM200.363 69.698H203.023V67.262H204.241V74.962H203.023V73.492H200.083V72.47H203.023V70.706H200.363V69.698ZM203.023 76.642H195.813V75.592H204.241V80.254H203.023V76.642ZM193.979 74.08C194.623 73.8653 195.229 73.5993 195.799 73.282C196.368 72.9553 196.877 72.582 197.325 72.162C197.773 71.742 198.155 71.2753 198.473 70.762C198.79 70.2487 199.023 69.6887 199.173 69.082H194.637V68.018H200.531C200.428 68.9513 200.209 69.782 199.873 70.51C199.537 71.238 199.107 71.8867 198.585 72.456C198.071 73.016 197.479 73.506 196.807 73.926C196.144 74.346 195.43 74.7147 194.665 75.032L193.979 74.08ZM218.509 80.184H217.305V75.522H213.875V80.184H212.671V75.522H209.591V74.472H221.603V75.522H218.509V80.184ZM215.597 67.682C216.362 67.682 217.025 67.752 217.585 67.892C218.154 68.032 218.621 68.2233 218.985 68.466C219.358 68.7087 219.634 68.998 219.811 69.334C219.998 69.6607 220.091 70.0153 220.091 70.398C220.091 70.79 219.998 71.154 219.811 71.49C219.634 71.8167 219.358 72.1013 218.985 72.344C218.621 72.5867 218.154 72.778 217.585 72.918C217.025 73.058 216.362 73.128 215.597 73.128C214.822 73.128 214.155 73.058 213.595 72.918C213.035 72.778 212.568 72.5867 212.195 72.344C211.822 72.1013 211.546 71.812 211.369 71.476C211.192 71.14 211.103 70.7807 211.103 70.398C211.103 70.0153 211.192 69.6607 211.369 69.334C211.546 68.998 211.822 68.7087 212.195 68.466C212.568 68.2233 213.035 68.032 213.595 67.892C214.155 67.752 214.822 67.682 215.597 67.682ZM215.597 68.732C215.018 68.732 214.524 68.7787 214.113 68.872C213.702 68.956 213.362 69.0727 213.091 69.222C212.82 69.3713 212.62 69.5487 212.489 69.754C212.368 69.95 212.307 70.1647 212.307 70.398C212.307 70.6313 212.368 70.8507 212.489 71.056C212.62 71.2613 212.82 71.4387 213.091 71.588C213.362 71.7373 213.702 71.854 214.113 71.938C214.524 72.022 215.018 72.064 215.597 72.064C216.166 72.064 216.656 72.022 217.067 71.938C217.487 71.854 217.828 71.7373 218.089 71.588C218.36 71.4387 218.56 71.2613 218.691 71.056C218.822 70.8507 218.887 70.6313 218.887 70.398C218.887 70.1647 218.822 69.9453 218.691 69.74C218.56 69.5347 218.36 69.3573 218.089 69.208C217.828 69.0587 217.487 68.942 217.067 68.858C216.656 68.774 216.166 68.732 215.597 68.732ZM231.73 74.066H229.574V73.1H231.73V71.812H229.574V70.818H231.73V67.262H232.948V75.55H231.73V74.066ZM226.074 70.706C226.998 70.706 227.722 70.9113 228.244 71.322C228.776 71.7327 229.042 72.2693 229.042 72.932C229.042 73.2587 228.972 73.5573 228.832 73.828C228.702 74.0987 228.506 74.332 228.244 74.528C227.992 74.724 227.68 74.878 227.306 74.99C226.942 75.0927 226.532 75.144 226.074 75.144C225.608 75.144 225.188 75.0927 224.814 74.99C224.45 74.878 224.138 74.724 223.876 74.528C223.615 74.332 223.414 74.0987 223.274 73.828C223.144 73.5573 223.078 73.2587 223.078 72.932C223.078 72.6053 223.144 72.3067 223.274 72.036C223.414 71.756 223.615 71.518 223.876 71.322C224.138 71.126 224.45 70.9767 224.814 70.874C225.188 70.762 225.608 70.706 226.074 70.706ZM226.074 71.686C225.496 71.686 225.043 71.8073 224.716 72.05C224.39 72.2833 224.226 72.5773 224.226 72.932C224.226 73.2867 224.39 73.5807 224.716 73.814C225.043 74.0473 225.496 74.164 226.074 74.164C226.644 74.164 227.092 74.0473 227.418 73.814C227.745 73.5807 227.908 73.2867 227.908 72.932C227.908 72.5773 227.745 72.2833 227.418 72.05C227.092 71.8073 226.644 71.686 226.074 71.686ZM224.086 67.472H228.132V68.452H224.086V67.472ZM222.434 69.194H229.812V70.174H222.434V69.194ZM228.734 75.648C230.125 75.648 231.194 75.8533 231.94 76.264C232.687 76.6653 233.06 77.2347 233.06 77.972C233.06 78.7093 232.687 79.2787 231.94 79.68C231.194 80.0813 230.125 80.282 228.734 80.282C227.344 80.282 226.284 80.0813 225.556 79.68C224.828 79.2787 224.464 78.7093 224.464 77.972C224.464 77.2347 224.828 76.6653 225.556 76.264C226.284 75.8533 227.344 75.648 228.734 75.648ZM228.734 76.628C227.717 76.628 226.942 76.754 226.41 77.006C225.888 77.258 225.626 77.58 225.626 77.972C225.626 78.364 225.888 78.6813 226.41 78.924C226.942 79.1667 227.717 79.288 228.734 79.288C229.752 79.288 230.526 79.1667 231.058 78.924C231.6 78.6813 231.87 78.364 231.87 77.972C231.87 77.58 231.6 77.258 231.058 77.006C230.526 76.754 229.752 76.628 228.734 76.628ZM244.35 67.262H245.554V74.178H244.35V67.262ZM237.378 74.864H238.568V76.432H244.35V74.808H245.554V80.086H237.378V74.864ZM238.568 77.44V79.078H244.364V77.44H238.568ZM238.806 67.654C239.272 67.654 239.702 67.7287 240.094 67.878C240.486 68.0273 240.822 68.2373 241.102 68.508C241.391 68.7787 241.615 69.1053 241.774 69.488C241.932 69.8707 242.012 70.2907 242.012 70.748C242.012 71.2147 241.932 71.6393 241.774 72.022C241.615 72.3953 241.391 72.7173 241.102 72.988C240.822 73.2493 240.486 73.45 240.094 73.59C239.702 73.73 239.272 73.8 238.806 73.8C238.339 73.8 237.91 73.73 237.518 73.59C237.126 73.4407 236.79 73.2353 236.51 72.974C236.23 72.7033 236.01 72.3813 235.852 72.008C235.693 71.6253 235.614 71.2007 235.614 70.734C235.614 70.2767 235.693 69.8567 235.852 69.474C236.01 69.0913 236.23 68.7693 236.51 68.508C236.79 68.2373 237.126 68.0273 237.518 67.878C237.91 67.7287 238.339 67.654 238.806 67.654ZM238.806 68.676C238.498 68.676 238.218 68.732 237.966 68.844C237.714 68.9467 237.499 69.0913 237.322 69.278C237.154 69.4647 237.023 69.684 236.93 69.936C236.836 70.1787 236.79 70.4447 236.79 70.734C236.79 71.0233 236.836 71.294 236.93 71.546C237.023 71.7887 237.154 72.0033 237.322 72.19C237.499 72.3767 237.714 72.526 237.966 72.638C238.218 72.7407 238.498 72.792 238.806 72.792C239.123 72.792 239.403 72.7407 239.646 72.638C239.898 72.526 240.112 72.3767 240.29 72.19C240.467 72.0033 240.602 71.7887 240.696 71.546C240.789 71.294 240.836 71.0233 240.836 70.734C240.836 70.4447 240.789 70.1787 240.696 69.936C240.602 69.684 240.467 69.4647 240.29 69.278C240.112 69.0913 239.898 68.9467 239.646 68.844C239.403 68.732 239.123 68.676 238.806 68.676ZM256.955 67.262H258.159V80.184H256.955V67.262ZM248.667 68.214H249.871V75.662C250.31 75.662 250.777 75.6527 251.271 75.634C251.766 75.606 252.265 75.5733 252.769 75.536C253.273 75.4987 253.773 75.4567 254.267 75.41C254.771 75.354 255.247 75.2887 255.695 75.214L255.821 76.25C254.739 76.3993 253.614 76.5253 252.447 76.628C251.29 76.7213 250.03 76.768 248.667 76.768V68.214ZM270.135 80.184H268.945V67.262H270.135V72.218H272.179V73.296H270.135V80.184ZM260.937 68.396H266.929V69.474H262.127V75.802C262.491 75.802 262.915 75.7927 263.401 75.774C263.886 75.7553 264.385 75.732 264.899 75.704C265.421 75.6667 265.93 75.6293 266.425 75.592C266.919 75.5453 267.358 75.4987 267.741 75.452L267.895 76.516C267.428 76.572 266.905 76.6233 266.327 76.67C265.757 76.7167 265.165 76.7587 264.549 76.796C263.942 76.824 263.326 76.8473 262.701 76.866C262.085 76.8847 261.497 76.894 260.937 76.894V68.396ZM275.054 79.414H273.584V77.874H275.054V79.414ZM284.139 67.71C284.979 67.71 285.675 67.9387 286.225 68.396C286.785 68.8533 287.131 69.46 287.261 70.216H289.781V67.262H290.985V74.206H289.781V71.294H287.275C287.219 71.6953 287.103 72.0547 286.925 72.372C286.757 72.6893 286.538 72.96 286.267 73.184C285.997 73.3987 285.679 73.5667 285.315 73.688C284.961 73.8 284.569 73.856 284.139 73.856C283.673 73.856 283.243 73.786 282.851 73.646C282.459 73.4967 282.123 73.2913 281.843 73.03C281.563 72.7593 281.344 72.4373 281.185 72.064C281.027 71.6813 280.947 71.2567 280.947 70.79C280.947 70.3327 281.027 69.9127 281.185 69.53C281.344 69.1473 281.563 68.8253 281.843 68.564C282.123 68.2933 282.459 68.0833 282.851 67.934C283.243 67.7847 283.673 67.71 284.139 67.71ZM282.711 74.906H283.901V76.418H289.781V74.836H290.985V80.086H282.711V74.906ZM284.139 68.732C283.831 68.732 283.551 68.788 283.299 68.9C283.047 69.0027 282.833 69.1473 282.655 69.334C282.487 69.5207 282.357 69.74 282.263 69.992C282.17 70.2347 282.123 70.5007 282.123 70.79C282.123 71.0793 282.17 71.35 282.263 71.602C282.357 71.8447 282.487 72.0593 282.655 72.246C282.833 72.4327 283.047 72.582 283.299 72.694C283.551 72.7967 283.831 72.848 284.139 72.848C284.457 72.848 284.737 72.7967 284.979 72.694C285.231 72.582 285.446 72.4327 285.623 72.246C285.801 72.0593 285.936 71.8447 286.029 71.602C286.123 71.35 286.169 71.0793 286.169 70.79C286.169 70.5007 286.123 70.2347 286.029 69.992C285.936 69.74 285.801 69.5207 285.623 69.334C285.446 69.1473 285.231 69.0027 284.979 68.9C284.737 68.788 284.457 68.732 284.139 68.732ZM283.901 77.44V79.078H289.781V77.44H283.901ZM294.477 67.794H303.199V72.862H294.477V67.794ZM295.681 68.844V71.826H301.995V68.844H295.681ZM299.433 80.254H298.229V75.578H292.839V74.5H304.851V75.578H299.433V80.254ZM11.742 91.35V90.3H19.036V91.35H16.012V91.854C16.012 92.4047 16.1147 92.918 16.32 93.394C16.5253 93.87 16.7867 94.3087 17.104 94.71C17.4307 95.1113 17.7947 95.4753 18.196 95.802C18.5973 96.1193 18.9987 96.39 19.4 96.614L18.588 97.496C17.86 97.02 17.2207 96.488 16.67 95.9C16.1193 95.3027 15.6993 94.6913 15.41 94.066C15.242 94.4487 15.0367 94.8127 14.794 95.158C14.5607 95.494 14.304 95.8113 14.024 96.11C13.744 96.4087 13.4453 96.684 13.128 96.936C12.82 97.1787 12.5073 97.4027 12.19 97.608L11.35 96.754C11.77 96.502 12.1853 96.208 12.596 95.872C13.016 95.5267 13.3847 95.144 13.702 94.724C14.0287 94.304 14.29 93.856 14.486 93.38C14.6913 92.8947 14.794 92.386 14.794 91.854V91.35H11.742ZM21.514 100.184H20.296V87.262H21.514V92.526H23.502V93.604H21.514V100.184ZM13.38 87.808H17.412V88.886H13.38V87.808ZM33.4335 87.262H34.6515V93.926H33.4335V87.262ZM26.4475 96.768H33.4335V95.55H26.4475V94.556H34.6515V97.72H27.6235V99.106H34.9595V100.086H26.4475V96.768ZM31.3335 93.618C31.0068 93.478 30.6848 93.3053 30.3675 93.1C30.0501 92.8853 29.7515 92.6567 29.4715 92.414C29.2008 92.1713 28.9535 91.9193 28.7295 91.658C28.5148 91.3967 28.3468 91.14 28.2255 90.888C28.1135 91.14 27.9501 91.406 27.7355 91.686C27.5301 91.9567 27.2828 92.2273 26.9935 92.498C26.7041 92.7687 26.3915 93.0253 26.0555 93.268C25.7195 93.5013 25.3695 93.702 25.0055 93.87L24.2775 92.974C24.7348 92.7873 25.1641 92.554 25.5655 92.274C25.9668 91.994 26.3168 91.686 26.6155 91.35C26.9141 91.0047 27.1475 90.636 27.3155 90.244C27.4928 89.8427 27.5815 89.4367 27.5815 89.026V88.802H24.8095V87.766H31.6135V88.802H28.8275V89.026C28.8275 89.4553 28.9115 89.8567 29.0795 90.23C29.2568 90.6033 29.4901 90.9487 29.7795 91.266C30.0781 91.5833 30.4188 91.868 30.8015 92.12C31.1935 92.3627 31.5995 92.5727 32.0195 92.75L31.3335 93.618ZM44.6777 87.906C45.1723 87.906 45.6203 87.9713 46.0217 88.102C46.4323 88.2233 46.7823 88.4007 47.0717 88.634C47.3703 88.858 47.599 89.1333 47.7577 89.46C47.9257 89.7867 48.0097 90.146 48.0097 90.538C48.0097 90.9393 47.9257 91.3033 47.7577 91.63C47.599 91.9567 47.3703 92.2367 47.0717 92.47C46.7823 92.694 46.4323 92.8667 46.0217 92.988C45.6203 93.1093 45.1723 93.17 44.6777 93.17C44.183 93.17 43.7303 93.1093 43.3197 92.988C42.9183 92.8667 42.573 92.694 42.2837 92.47C41.9943 92.2367 41.7657 91.9567 41.5977 91.63C41.439 91.3033 41.3597 90.9393 41.3597 90.538C41.3597 90.1367 41.439 89.7773 41.5977 89.46C41.7657 89.1333 41.9943 88.858 42.2837 88.634C42.573 88.4007 42.9183 88.2233 43.3197 88.102C43.7303 87.9713 44.183 87.906 44.6777 87.906ZM50.8937 100.184H49.6617V87.262H50.8937V100.184ZM49.0457 95.032C48.4297 95.0973 47.8137 95.1533 47.1977 95.2C46.5817 95.2467 45.9657 95.2887 45.3497 95.326V99.904H44.1177V95.382C43.5017 95.41 42.895 95.4333 42.2977 95.452C41.7097 95.4613 41.1217 95.4707 40.5337 95.48L40.3657 94.416C41.803 94.4067 43.2217 94.3787 44.6217 94.332C46.031 94.2853 47.4823 94.2013 48.9757 94.08L49.0457 95.032ZM44.6777 88.956C44.379 88.956 44.1037 88.9933 43.8517 89.068C43.5997 89.1333 43.3757 89.2313 43.1797 89.362C42.993 89.4927 42.8437 89.6607 42.7317 89.866C42.629 90.062 42.5777 90.286 42.5777 90.538C42.5777 90.7993 42.629 91.028 42.7317 91.224C42.8437 91.42 42.993 91.588 43.1797 91.728C43.3757 91.8587 43.5997 91.9567 43.8517 92.022C44.1037 92.0873 44.379 92.12 44.6777 92.12C44.9857 92.12 45.2657 92.0873 45.5177 92.022C45.779 91.9567 46.003 91.8587 46.1897 91.728C46.3857 91.588 46.535 91.42 46.6377 91.224C46.7497 91.028 46.8057 90.7993 46.8057 90.538C46.8057 90.286 46.7497 90.062 46.6377 89.866C46.535 89.6607 46.3857 89.4927 46.1897 89.362C46.003 89.2313 45.779 89.1333 45.5177 89.068C45.2657 88.9933 44.9857 88.956 44.6777 88.956ZM62.2951 92.526H59.9711V91.462H62.2951V87.262H63.4991V95.242H62.2951V92.526ZM54.6931 87.472H58.7951V88.452H54.6931V87.472ZM52.9991 89.138H60.4611V90.132H52.9991V89.138ZM56.6531 90.664C57.1198 90.664 57.5351 90.72 57.8991 90.832C58.2725 90.9347 58.5851 91.084 58.8371 91.28C59.0985 91.476 59.2945 91.714 59.4251 91.994C59.5651 92.2647 59.6351 92.568 59.6351 92.904C59.6351 93.5573 59.3691 94.0893 58.8371 94.5C58.3145 94.9107 57.5865 95.116 56.6531 95.116C55.7105 95.116 54.9731 94.9107 54.4411 94.5C53.9091 94.0893 53.6431 93.5573 53.6431 92.904C53.6431 92.232 53.9091 91.6907 54.4411 91.28C54.9731 90.8693 55.7105 90.664 56.6531 90.664ZM56.6531 91.644C56.0745 91.644 55.6218 91.7607 55.2951 91.994C54.9778 92.2273 54.8191 92.5307 54.8191 92.904C54.8191 93.2587 54.9778 93.5527 55.2951 93.786C55.6218 94.0193 56.0745 94.136 56.6531 94.136C57.2318 94.136 57.6798 94.0193 57.9971 93.786C58.3145 93.5527 58.4731 93.2587 58.4731 92.904C58.4731 92.5307 58.3145 92.2273 57.9971 91.994C57.6798 91.7607 57.2318 91.644 56.6531 91.644ZM55.2951 95.844H63.4991V100.1H55.2951V95.844ZM56.4851 96.866V99.078H62.2951V96.866H56.4851ZM65.3526 92.848H77.3646V93.87H65.3526V92.848ZM67.0326 97.076H74.4806V95.956H67.0326V94.99H75.6706V98H68.2226V99.148H75.8946V100.1H67.0326V97.076ZM71.3586 87.542C72.8986 87.542 74.0326 87.738 74.7606 88.13C75.4886 88.5127 75.8526 89.04 75.8526 89.712C75.8526 90.3933 75.4886 90.9347 74.7606 91.336C74.0326 91.728 72.8986 91.924 71.3586 91.924C69.8186 91.924 68.6799 91.728 67.9426 91.336C67.2146 90.9347 66.8506 90.3933 66.8506 89.712C66.8506 89.04 67.2146 88.5127 67.9426 88.13C68.6799 87.738 69.8186 87.542 71.3586 87.542ZM71.3586 88.522C70.1919 88.522 69.3519 88.6293 68.8386 88.844C68.3253 89.0587 68.0686 89.348 68.0686 89.712C68.0686 90.0947 68.3253 90.3933 68.8386 90.608C69.3519 90.8133 70.1919 90.916 71.3586 90.916C72.5253 90.916 73.3606 90.8133 73.8646 90.608C74.3779 90.3933 74.6346 90.0947 74.6346 89.712C74.6346 89.348 74.3779 89.0587 73.8646 88.844C73.3513 88.6293 72.5159 88.522 71.3586 88.522ZM83.2188 97.062H90.7788V95.914H83.2188V94.962H86.9988V93.618H81.5948V92.596H93.6068V93.618H88.2028V94.962H91.9688V98H84.4088V99.148H92.1788V100.114H83.2188V97.062ZM83.0648 88.648V87.668H92.1368V88.648H88.2868C88.4174 88.9747 88.6321 89.2733 88.9308 89.544C89.2388 89.8147 89.5934 90.0573 89.9948 90.272C90.4054 90.4773 90.8488 90.65 91.3248 90.79C91.8101 90.9207 92.3048 91.0093 92.8088 91.056L92.2628 91.994C91.8054 91.9287 91.3481 91.8307 90.8908 91.7C90.4334 91.56 89.9948 91.3873 89.5748 91.182C89.1641 90.9767 88.7861 90.7433 88.4408 90.482C88.1048 90.2113 87.8248 89.9173 87.6008 89.6C87.3861 89.9173 87.1061 90.2113 86.7608 90.482C86.4248 90.7433 86.0514 90.9767 85.6408 91.182C85.2301 91.3873 84.7914 91.56 84.3248 91.7C83.8581 91.84 83.3914 91.9427 82.9248 92.008L82.3788 91.056C82.8641 91.0093 83.3494 90.9207 83.8348 90.79C84.3201 90.65 84.7681 90.4773 85.1788 90.272C85.5894 90.0573 85.9488 89.8147 86.2568 89.544C86.5648 89.2733 86.7841 88.9747 86.9148 88.648H83.0648ZM103.734 87.262H104.952V100.184H103.734V87.262ZM98.3163 88.172C98.8669 88.172 99.3476 88.2887 99.7583 88.522C100.169 88.746 100.51 89.0587 100.78 89.46C101.051 89.8613 101.252 90.3373 101.382 90.888C101.522 91.4387 101.592 92.0313 101.592 92.666C101.592 93.3007 101.522 93.8933 101.382 94.444C101.252 94.9853 101.051 95.4567 100.78 95.858C100.51 96.25 100.169 96.5627 99.7583 96.796C99.3476 97.02 98.8669 97.132 98.3163 97.132C97.7656 97.132 97.2849 97.02 96.8743 96.796C96.4636 96.5627 96.1229 96.25 95.8523 95.858C95.5816 95.4567 95.3763 94.9853 95.2363 94.444C95.0963 93.8933 95.0263 93.3007 95.0263 92.666C95.0263 92.0313 95.0916 91.4387 95.2223 90.888C95.3623 90.3373 95.5676 89.8613 95.8383 89.46C96.1183 89.0587 96.4636 88.746 96.8743 88.522C97.2849 88.2887 97.7656 88.172 98.3163 88.172ZM98.3163 89.222C97.6629 89.222 97.1496 89.5253 96.7763 90.132C96.4123 90.7293 96.2303 91.574 96.2303 92.666C96.2303 93.7393 96.4123 94.5793 96.7763 95.186C97.1496 95.7833 97.6629 96.082 98.3163 96.082C98.9789 96.082 99.4923 95.7833 99.8563 95.186C100.23 94.5793 100.416 93.7393 100.416 92.666C100.416 91.574 100.23 90.7293 99.8563 90.132C99.4923 89.5253 98.9789 89.222 98.3163 89.222ZM116.34 87.262H117.558V100.324H116.34V87.262ZM107.884 88.34H113.792C113.717 89.46 113.535 90.482 113.246 91.406C112.966 92.3207 112.583 93.1607 112.098 93.926C111.622 94.682 111.048 95.3727 110.376 95.998C109.713 96.6233 108.962 97.202 108.122 97.734L107.31 96.866C108.047 96.4647 108.714 95.998 109.312 95.466C109.909 94.934 110.427 94.3507 110.866 93.716C111.314 93.0813 111.678 92.4 111.958 91.672C112.238 90.944 112.429 90.188 112.532 89.404H107.884V88.34ZM127.584 87.906C128.079 87.906 128.527 87.9713 128.928 88.102C129.339 88.2233 129.689 88.4007 129.978 88.634C130.277 88.858 130.505 89.1333 130.664 89.46C130.832 89.7867 130.916 90.146 130.916 90.538C130.916 90.9393 130.832 91.3033 130.664 91.63C130.505 91.9567 130.277 92.2367 129.978 92.47C129.689 92.694 129.339 92.8667 128.928 92.988C128.527 93.1093 128.079 93.17 127.584 93.17C127.089 93.17 126.637 93.1093 126.226 92.988C125.825 92.8667 125.479 92.694 125.19 92.47C124.901 92.2367 124.672 91.9567 124.504 91.63C124.345 91.3033 124.266 90.9393 124.266 90.538C124.266 90.1367 124.345 89.7773 124.504 89.46C124.672 89.1333 124.901 88.858 125.19 88.634C125.479 88.4007 125.825 88.2233 126.226 88.102C126.637 87.9713 127.089 87.906 127.584 87.906ZM133.8 100.184H132.568V87.262H133.8V100.184ZM131.952 95.032C131.336 95.0973 130.72 95.1533 130.104 95.2C129.488 95.2467 128.872 95.2887 128.256 95.326V99.904H127.024V95.382C126.408 95.41 125.801 95.4333 125.204 95.452C124.616 95.4613 124.028 95.4707 123.44 95.48L123.272 94.416C124.709 94.4067 126.128 94.3787 127.528 94.332C128.937 94.2853 130.389 94.2013 131.882 94.08L131.952 95.032ZM127.584 88.956C127.285 88.956 127.01 88.9933 126.758 89.068C126.506 89.1333 126.282 89.2313 126.086 89.362C125.899 89.4927 125.75 89.6607 125.638 89.866C125.535 90.062 125.484 90.286 125.484 90.538C125.484 90.7993 125.535 91.028 125.638 91.224C125.75 91.42 125.899 91.588 126.086 91.728C126.282 91.8587 126.506 91.9567 126.758 92.022C127.01 92.0873 127.285 92.12 127.584 92.12C127.892 92.12 128.172 92.0873 128.424 92.022C128.685 91.9567 128.909 91.8587 129.096 91.728C129.292 91.588 129.441 91.42 129.544 91.224C129.656 91.028 129.712 90.7993 129.712 90.538C129.712 90.286 129.656 90.062 129.544 89.866C129.441 89.6607 129.292 89.4927 129.096 89.362C128.909 89.2313 128.685 89.1333 128.424 89.068C128.172 88.9933 127.892 88.956 127.584 88.956ZM139.237 91.882C139.639 91.882 140.007 91.9567 140.343 92.106C140.679 92.2553 140.964 92.456 141.197 92.708C141.44 92.96 141.627 93.2587 141.757 93.604C141.888 93.9493 141.953 94.318 141.953 94.71C141.953 95.1113 141.888 95.4847 141.757 95.83C141.627 96.1753 141.44 96.4787 141.197 96.74C140.964 96.992 140.679 97.1927 140.343 97.342C140.007 97.482 139.639 97.552 139.237 97.552C138.836 97.552 138.467 97.482 138.131 97.342C137.795 97.1927 137.506 96.992 137.263 96.74C137.03 96.4787 136.843 96.1753 136.703 95.83C136.573 95.4847 136.507 95.1113 136.507 94.71C136.507 94.318 136.573 93.9493 136.703 93.604C136.843 93.2587 137.03 92.96 137.263 92.708C137.506 92.456 137.795 92.2553 138.131 92.106C138.467 91.9567 138.836 91.882 139.237 91.882ZM139.237 92.89C139.004 92.89 138.789 92.9367 138.593 93.03C138.397 93.114 138.229 93.24 138.089 93.408C137.949 93.5667 137.837 93.758 137.753 93.982C137.679 94.206 137.641 94.4487 137.641 94.71C137.641 95.2607 137.791 95.704 138.089 96.04C138.388 96.376 138.771 96.544 139.237 96.544C139.461 96.544 139.667 96.502 139.853 96.418C140.049 96.3247 140.217 96.1987 140.357 96.04C140.507 95.8813 140.619 95.69 140.693 95.466C140.777 95.2327 140.819 94.9807 140.819 94.71C140.819 94.4487 140.777 94.206 140.693 93.982C140.619 93.758 140.507 93.5667 140.357 93.408C140.217 93.24 140.049 93.114 139.853 93.03C139.667 92.9367 139.461 92.89 139.237 92.89ZM145.677 93.366H144.207V99.89H143.059V87.458H144.207V92.288H145.677V87.262H146.825V100.24H145.677V93.366ZM137.361 87.92H141.113V88.97H137.361V87.92ZM136.017 90.006H142.429V91.028H136.017V90.006ZM161.444 91.756H158.924V90.706H161.444V87.262H162.648V96.796H161.444V91.756ZM154.388 95.858H155.578V98.924H162.998V99.988H154.388V95.858ZM159.218 94.878C158.919 94.7567 158.606 94.5793 158.28 94.346C157.962 94.1033 157.659 93.842 157.37 93.562C157.09 93.2727 156.838 92.9787 156.614 92.68C156.39 92.3813 156.222 92.1013 156.11 91.84C155.988 92.1107 155.82 92.3953 155.606 92.694C155.4 92.9833 155.158 93.2727 154.878 93.562C154.598 93.8513 154.29 94.1267 153.954 94.388C153.627 94.64 153.282 94.8593 152.918 95.046L152.134 94.164C152.6 93.9587 153.034 93.7067 153.436 93.408C153.846 93.1 154.201 92.7593 154.5 92.386C154.798 92.0127 155.032 91.6113 155.2 91.182C155.377 90.7527 155.466 90.3047 155.466 89.838V89.138H152.694V88.102H159.484V89.138H156.712V89.824C156.712 90.3 156.796 90.7527 156.964 91.182C157.141 91.6113 157.374 92.0033 157.664 92.358C157.953 92.7127 158.289 93.03 158.672 93.31C159.064 93.59 159.479 93.8233 159.918 94.01L159.218 94.878ZM170.507 87.598C172.038 87.598 173.162 87.822 173.881 88.27C174.609 88.7087 174.973 89.2827 174.973 89.992C174.973 90.44 174.838 90.832 174.567 91.168C174.296 91.4947 173.881 91.7607 173.321 91.966V93.66H176.513V94.71H164.501V93.66H167.693V91.98C167.124 91.7747 166.704 91.504 166.433 91.168C166.162 90.832 166.027 90.44 166.027 89.992C166.027 89.6373 166.116 89.3153 166.293 89.026C166.47 88.7273 166.741 88.4753 167.105 88.27C167.478 88.0553 167.945 87.892 168.505 87.78C169.065 87.6587 169.732 87.598 170.507 87.598ZM170.507 95.606C172.01 95.606 173.134 95.8113 173.881 96.222C174.637 96.6233 175.015 97.188 175.015 97.916C175.015 98.644 174.637 99.2087 173.881 99.61C173.134 100.011 172.01 100.212 170.507 100.212C168.995 100.212 167.866 100.011 167.119 99.61C166.372 99.2087 165.999 98.644 165.999 97.916C165.999 97.188 166.372 96.6233 167.119 96.222C167.866 95.8113 168.995 95.606 170.507 95.606ZM170.507 88.62C169.387 88.62 168.561 88.7413 168.029 88.984C167.506 89.2267 167.245 89.5627 167.245 89.992C167.245 90.4213 167.506 90.7573 168.029 91C168.561 91.2427 169.387 91.364 170.507 91.364C171.618 91.364 172.434 91.2427 172.957 91C173.489 90.7573 173.755 90.4213 173.755 89.992C173.755 89.5533 173.489 89.2173 172.957 88.984C172.434 88.7413 171.618 88.62 170.507 88.62ZM170.507 96.6C169.396 96.6 168.566 96.7213 168.015 96.964C167.474 97.2067 167.203 97.524 167.203 97.916C167.203 98.2893 167.474 98.5973 168.015 98.84C168.566 99.0827 169.396 99.204 170.507 99.204C171.618 99.204 172.444 99.0827 172.985 98.84C173.526 98.5973 173.797 98.2893 173.797 97.916C173.797 97.524 173.526 97.2067 172.985 96.964C172.444 96.7213 171.618 96.6 170.507 96.6ZM172.131 93.66V92.246C171.888 92.2833 171.632 92.3113 171.361 92.33C171.09 92.3487 170.806 92.358 170.507 92.358C170.199 92.358 169.91 92.3487 169.639 92.33C169.368 92.3113 169.112 92.2833 168.869 92.246V93.66H172.131ZM180.449 98.658L184.579 88.214H185.811L189.913 98.658H188.597L187.547 95.858H182.815L181.765 98.658H180.449ZM185.181 89.544L183.235 94.738H187.127L185.181 89.544ZM196.854 98.658H195.678V93.954C195.678 93.254 195.547 92.7407 195.286 92.414C195.025 92.0873 194.628 91.924 194.096 91.924C193.751 91.924 193.452 91.994 193.2 92.134C192.948 92.2647 192.738 92.4467 192.57 92.68C192.402 92.904 192.276 93.1747 192.192 93.492C192.108 93.8 192.066 94.1267 192.066 94.472V98.658H190.89V92.89C190.89 92.5447 190.881 92.218 190.862 91.91C190.853 91.602 190.839 91.308 190.82 91.028H191.94V92.246C192.22 91.7327 192.57 91.378 192.99 91.182C193.41 90.986 193.839 90.888 194.278 90.888C195.127 90.888 195.767 91.1353 196.196 91.63C196.635 92.1153 196.854 92.8107 196.854 93.716V98.658ZM202.336 98.56C202.177 98.644 201.995 98.7047 201.79 98.742C201.594 98.7793 201.398 98.798 201.202 98.798C200.866 98.798 200.576 98.7607 200.334 98.686C200.091 98.6207 199.89 98.504 199.732 98.336C199.573 98.1773 199.452 97.9627 199.368 97.692C199.293 97.412 199.256 97.0667 199.256 96.656V92.092H198.038V91.028H199.256V89.054L200.46 88.606V91.028H202.098V92.092H200.46V96.782C200.46 97.174 200.534 97.4353 200.684 97.566C200.833 97.6967 201.071 97.762 201.398 97.762C201.668 97.762 201.934 97.7013 202.196 97.58L202.336 98.56ZM205.006 89.698H203.788V88.214H205.006V89.698ZM205.006 98.658H203.788V91.028H205.006V98.658ZM210.59 93.688H206.95V92.54H210.59V93.688ZM212.495 88.214H215.001C215.598 88.214 216.177 88.3213 216.737 88.536C217.306 88.7413 217.81 89.0587 218.249 89.488C218.697 89.9173 219.056 90.454 219.327 91.098C219.598 91.7327 219.733 92.484 219.733 93.352C219.733 94.2107 219.598 94.9713 219.327 95.634C219.056 96.2967 218.702 96.852 218.263 97.3C217.824 97.748 217.32 98.084 216.751 98.308C216.182 98.5413 215.598 98.658 215.001 98.658H212.495V88.214ZM213.727 97.51H214.707C215.276 97.51 215.794 97.4167 216.261 97.23C216.728 97.0433 217.129 96.7727 217.465 96.418C217.801 96.054 218.058 95.6153 218.235 95.102C218.422 94.5887 218.515 94.0053 218.515 93.352C218.515 92.6893 218.422 92.1107 218.235 91.616C218.058 91.112 217.801 90.692 217.465 90.356C217.129 90.02 216.728 89.768 216.261 89.6C215.794 89.432 215.276 89.348 214.707 89.348H213.727V97.51ZM221.272 88.214H223.778C224.376 88.214 224.954 88.3213 225.514 88.536C226.084 88.7413 226.588 89.0587 227.026 89.488C227.474 89.9173 227.834 90.454 228.104 91.098C228.375 91.7327 228.51 92.484 228.51 93.352C228.51 94.2107 228.375 94.9713 228.104 95.634C227.834 96.2967 227.479 96.852 227.04 97.3C226.602 97.748 226.098 98.084 225.528 98.308C224.959 98.5413 224.376 98.658 223.778 98.658H221.272V88.214ZM222.504 97.51H223.484C224.054 97.51 224.572 97.4167 225.038 97.23C225.505 97.0433 225.906 96.7727 226.242 96.418C226.578 96.054 226.835 95.6153 227.012 95.102C227.199 94.5887 227.292 94.0053 227.292 93.352C227.292 92.6893 227.199 92.1107 227.012 91.616C226.835 91.112 226.578 90.692 226.242 90.356C225.906 90.02 225.505 89.768 225.038 89.6C224.572 89.432 224.054 89.348 223.484 89.348H222.504V97.51ZM232.71 90.888C233.279 90.888 233.774 90.9907 234.194 91.196C234.614 91.4013 234.964 91.686 235.244 92.05C235.524 92.4047 235.729 92.8247 235.86 93.31C236 93.786 236.07 94.2947 236.07 94.836C236.07 95.3867 236 95.9047 235.86 96.39C235.729 96.866 235.524 97.286 235.244 97.65C234.964 98.0047 234.614 98.2847 234.194 98.49C233.774 98.6953 233.279 98.798 232.71 98.798C232.131 98.798 231.632 98.6953 231.212 98.49C230.792 98.2847 230.442 98.0047 230.162 97.65C229.891 97.2953 229.686 96.8753 229.546 96.39C229.415 95.9047 229.35 95.3867 229.35 94.836C229.35 94.2853 229.415 93.772 229.546 93.296C229.686 92.8107 229.891 92.3907 230.162 92.036C230.442 91.6813 230.792 91.4013 231.212 91.196C231.632 90.9907 232.131 90.888 232.71 90.888ZM232.71 91.924C232.299 91.924 231.954 92.008 231.674 92.176C231.394 92.3347 231.17 92.5493 231.002 92.82C230.834 93.0813 230.712 93.3893 230.638 93.744C230.572 94.0987 230.54 94.4627 230.54 94.836C230.54 95.2187 230.572 95.5873 230.638 95.942C230.712 96.2873 230.834 96.5953 231.002 96.866C231.17 97.1367 231.394 97.356 231.674 97.524C231.954 97.6827 232.299 97.762 232.71 97.762C233.111 97.762 233.452 97.6827 233.732 97.524C234.012 97.356 234.236 97.1367 234.404 96.866C234.572 96.586 234.693 96.2733 234.768 95.928C234.842 95.5733 234.88 95.2093 234.88 94.836C234.88 94.4627 234.842 94.1033 234.768 93.758C234.693 93.4033 234.572 93.0907 234.404 92.82C234.236 92.5493 234.012 92.3347 233.732 92.176C233.452 92.008 233.111 91.924 232.71 91.924ZM242.118 89.488C241.661 89.2733 241.068 89.166 240.34 89.166C238.987 89.166 238.31 89.6933 238.31 90.748C238.31 90.9533 238.348 91.14 238.422 91.308C238.497 91.4667 238.609 91.6207 238.758 91.77C238.917 91.91 239.113 92.0547 239.346 92.204C239.589 92.3533 239.874 92.5167 240.2 92.694C240.611 92.9087 240.98 93.1187 241.306 93.324C241.642 93.52 241.922 93.7393 242.146 93.982C242.38 94.2153 242.557 94.486 242.678 94.794C242.8 95.102 242.86 95.4753 242.86 95.914C242.86 96.4087 242.776 96.838 242.608 97.202C242.44 97.5567 242.207 97.8507 241.908 98.084C241.61 98.3267 241.255 98.504 240.844 98.616C240.434 98.7373 239.986 98.798 239.5 98.798C239.108 98.798 238.688 98.728 238.24 98.588C237.802 98.448 237.396 98.2847 237.022 98.098L237.288 96.978C237.643 97.1833 238.002 97.3513 238.366 97.482C238.74 97.6033 239.136 97.664 239.556 97.664C240.284 97.664 240.816 97.496 241.152 97.16C241.498 96.8147 241.67 96.376 241.67 95.844C241.67 95.34 241.484 94.9107 241.11 94.556C240.737 94.192 240.186 93.8467 239.458 93.52C238.777 93.212 238.217 92.834 237.778 92.386C237.349 91.938 237.134 91.392 237.134 90.748C237.134 90.2907 237.223 89.894 237.4 89.558C237.578 89.222 237.811 88.9467 238.1 88.732C238.399 88.508 238.744 88.3447 239.136 88.242C239.528 88.13 239.934 88.074 240.354 88.074C240.774 88.074 241.157 88.116 241.502 88.2C241.857 88.2747 242.156 88.354 242.398 88.438L242.118 89.488ZM247.257 92.834H252.647V91.042H253.865V92.834H259.269V93.856H247.257V92.834ZM248.923 97.006H256.399V95.886H248.923V94.92H257.589V97.944H250.113V99.134H257.799V100.1H248.923V97.006ZM258.093 91.826C257.598 91.7607 257.099 91.644 256.595 91.476C256.1 91.308 255.634 91.112 255.195 90.888C254.766 90.6547 254.378 90.4027 254.033 90.132C253.697 89.8613 253.44 89.586 253.263 89.306C253.076 89.586 252.81 89.8613 252.465 90.132C252.12 90.4027 251.728 90.65 251.289 90.874C250.85 91.098 250.384 91.294 249.889 91.462C249.404 91.63 248.918 91.7513 248.433 91.826L247.859 90.888C248.484 90.8227 249.086 90.692 249.665 90.496C250.244 90.2907 250.748 90.048 251.177 89.768C251.616 89.4787 251.966 89.166 252.227 88.83C252.488 88.4847 252.619 88.1347 252.619 87.78V87.36H253.879V87.794C253.879 88.1487 254.01 88.4987 254.271 88.844C254.532 89.18 254.882 89.488 255.321 89.768C255.76 90.048 256.268 90.2907 256.847 90.496C257.426 90.692 258.032 90.818 258.667 90.874L258.093 91.826ZM266.456 100.226H265.252V96.11H259.862V95.074H271.874V96.11H266.456V100.226ZM261.528 90.174H269.018V88.774H261.528V87.752H270.194V91.196H262.69V92.652H270.376V93.702H261.528V90.174ZM282.016 92.54H279.454V91.546H282.016V89.922H279.454V88.9H282.016V87.262H283.22V96.908H282.016V92.54ZM275.044 95.788H276.234V98.924H283.57V99.988H275.044V95.788ZM279.664 94.948C279.309 94.752 278.973 94.5233 278.656 94.262C278.348 93.9913 278.058 93.7113 277.788 93.422C277.526 93.1327 277.293 92.8387 277.088 92.54C276.892 92.2413 276.733 91.952 276.612 91.672C276.5 91.98 276.336 92.2973 276.122 92.624C275.907 92.9507 275.66 93.268 275.38 93.576C275.1 93.8747 274.796 94.1593 274.47 94.43C274.143 94.6913 273.807 94.92 273.462 95.116L272.664 94.29C273.056 94.094 273.448 93.8373 273.84 93.52C274.241 93.1933 274.6 92.8153 274.918 92.386C275.235 91.9567 275.492 91.476 275.688 90.944C275.893 90.412 275.996 89.838 275.996 89.222V87.906H277.228V89.222C277.228 89.8193 277.326 90.3793 277.522 90.902C277.727 91.4153 277.984 91.882 278.292 92.302C278.609 92.722 278.959 93.086 279.342 93.394C279.724 93.702 280.098 93.9447 280.462 94.122L279.664 94.948ZM285.073 92.848H297.085V93.87H285.073V92.848ZM286.753 97.076H294.201V95.956H286.753V94.99H295.391V98H287.943V99.148H295.615V100.1H286.753V97.076ZM291.079 87.542C292.619 87.542 293.753 87.738 294.481 88.13C295.209 88.5127 295.573 89.04 295.573 89.712C295.573 90.3933 295.209 90.9347 294.481 91.336C293.753 91.728 292.619 91.924 291.079 91.924C289.539 91.924 288.401 91.728 287.663 91.336C286.935 90.9347 286.571 90.3933 286.571 89.712C286.571 89.04 286.935 88.5127 287.663 88.13C288.401 87.738 289.539 87.542 291.079 87.542ZM291.079 88.522C289.913 88.522 289.073 88.6293 288.559 88.844C288.046 89.0587 287.789 89.348 287.789 89.712C287.789 90.0947 288.046 90.3933 288.559 90.608C289.073 90.8133 289.913 90.916 291.079 90.916C292.246 90.916 293.081 90.8133 293.585 90.608C294.099 90.3933 294.355 90.0947 294.355 89.712C294.355 89.348 294.099 89.0587 293.585 88.844C293.072 88.6293 292.237 88.522 291.079 88.522ZM307.853 100.282H306.649V94.556H301.315V93.506H309.827C309.967 92.7127 310.075 91.9333 310.149 91.168C310.224 90.4027 310.275 89.698 310.303 89.054H302.953V88.004H311.535C311.517 88.872 311.461 89.7867 311.367 90.748C311.274 91.7 311.162 92.6193 311.031 93.506H313.327V94.556H307.853V100.282ZM20.436 117.328H12.806V116.292H16.67V114.864H11.294V113.842H23.306V114.864H17.874V116.292H21.654V120.254H20.436V117.328ZM15.06 107.444H19.526V108.438H15.06V107.444ZM21.948 113.212C21.5187 113.165 21.08 113.077 20.632 112.946C20.184 112.815 19.75 112.657 19.33 112.47C18.9193 112.274 18.5367 112.055 18.182 111.812C17.8273 111.56 17.5333 111.294 17.3 111.014C17.0667 111.294 16.7773 111.56 16.432 111.812C16.096 112.055 15.718 112.274 15.298 112.47C14.8873 112.657 14.4533 112.815 13.996 112.946C13.548 113.077 13.0953 113.165 12.638 113.212L12.064 112.26C12.5867 112.223 13.0907 112.139 13.576 112.008C14.0613 111.877 14.5 111.723 14.892 111.546C15.2933 111.359 15.6293 111.154 15.9 110.93C16.18 110.697 16.376 110.459 16.488 110.216H12.694V109.222H21.892V110.216H18.098C18.2007 110.44 18.3873 110.664 18.658 110.888C18.938 111.112 19.274 111.317 19.666 111.504C20.058 111.691 20.4967 111.849 20.982 111.98C21.4767 112.111 21.99 112.204 22.522 112.26L21.948 113.212ZM34.0495 120.184H32.8455V107.262H34.0495V112.708H36.0655V113.758H34.0495V120.184ZM25.9435 107.836H30.1575V108.9H25.9435V107.836ZM24.2355 109.922H31.8795V110.958H24.2355V109.922ZM28.0575 111.742C28.4868 111.742 28.8881 111.817 29.2615 111.966C29.6441 112.106 29.9755 112.307 30.2555 112.568C30.5448 112.82 30.7688 113.128 30.9275 113.492C31.0955 113.847 31.1795 114.239 31.1795 114.668C31.1795 115.107 31.0955 115.508 30.9275 115.872C30.7688 116.227 30.5448 116.535 30.2555 116.796C29.9755 117.048 29.6441 117.244 29.2615 117.384C28.8881 117.524 28.4868 117.594 28.0575 117.594C27.6281 117.594 27.2221 117.524 26.8395 117.384C26.4661 117.244 26.1348 117.048 25.8455 116.796C25.5655 116.535 25.3415 116.227 25.1735 115.872C25.0148 115.508 24.9355 115.107 24.9355 114.668C24.9355 114.239 25.0148 113.847 25.1735 113.492C25.3415 113.128 25.5655 112.82 25.8455 112.568C26.1348 112.307 26.4661 112.106 26.8395 111.966C27.2221 111.817 27.6281 111.742 28.0575 111.742ZM28.0575 112.764C27.7775 112.764 27.5161 112.815 27.2735 112.918C27.0401 113.011 26.8348 113.142 26.6575 113.31C26.4895 113.478 26.3541 113.679 26.2515 113.912C26.1581 114.145 26.1115 114.397 26.1115 114.668C26.1115 114.948 26.1581 115.205 26.2515 115.438C26.3541 115.671 26.4895 115.872 26.6575 116.04C26.8348 116.208 27.0401 116.343 27.2735 116.446C27.5161 116.539 27.7775 116.586 28.0575 116.586C28.3375 116.586 28.5941 116.539 28.8275 116.446C29.0701 116.343 29.2755 116.208 29.4435 116.04C29.6208 115.872 29.7561 115.671 29.8495 115.438C29.9521 115.205 30.0035 114.948 30.0035 114.668C30.0035 114.397 29.9521 114.145 29.8495 113.912C29.7561 113.679 29.6208 113.478 29.4435 113.31C29.2755 113.142 29.0701 113.011 28.8275 112.918C28.5941 112.815 28.3375 112.764 28.0575 112.764ZM44.0649 112.694H41.9929V111.63H44.0649V107.458H45.1989V119.89H44.0649V112.694ZM46.5149 107.262H47.6769V120.24H46.5149V107.262ZM42.5529 117.132C42.2356 116.88 41.9369 116.6 41.6569 116.292C41.3863 115.975 41.1389 115.653 40.9149 115.326C40.7003 114.999 40.5136 114.673 40.3549 114.346C40.1963 114.01 40.0749 113.702 39.9909 113.422C39.9163 113.721 39.7903 114.052 39.6129 114.416C39.4356 114.771 39.2209 115.13 38.9689 115.494C38.7263 115.849 38.4556 116.189 38.1569 116.516C37.8676 116.843 37.5689 117.118 37.2609 117.342L36.3929 116.614C37.4103 115.821 38.1616 114.892 38.6469 113.828C39.1416 112.764 39.3889 111.532 39.3889 110.132V108.172H40.6209V110.104C40.6209 111.513 40.8403 112.727 41.2789 113.744C41.7176 114.761 42.4316 115.643 43.4209 116.39L42.5529 117.132ZM55.1164 108.13C55.8444 108.13 56.4884 108.214 57.0484 108.382C57.6084 108.541 58.0797 108.76 58.4624 109.04C58.8451 109.32 59.1344 109.651 59.3304 110.034C59.5264 110.407 59.6244 110.809 59.6244 111.238C59.6244 111.677 59.5264 112.083 59.3304 112.456C59.1344 112.829 58.8451 113.156 58.4624 113.436C58.0797 113.716 57.6084 113.935 57.0484 114.094C56.4884 114.253 55.8444 114.332 55.1164 114.332C54.3791 114.332 53.7304 114.253 53.1704 114.094C52.6104 113.935 52.1391 113.716 51.7564 113.436C51.3831 113.156 51.0984 112.829 50.9024 112.456C50.7064 112.083 50.6084 111.677 50.6084 111.238C50.6084 110.809 50.7064 110.407 50.9024 110.034C51.0984 109.651 51.3831 109.32 51.7564 109.04C52.1391 108.76 52.6104 108.541 53.1704 108.382C53.7304 108.214 54.3791 108.13 55.1164 108.13ZM55.1164 109.18C54.5657 109.18 54.0851 109.236 53.6744 109.348C53.2637 109.451 52.9184 109.595 52.6384 109.782C52.3677 109.969 52.1624 110.188 52.0224 110.44C51.8824 110.683 51.8124 110.949 51.8124 111.238C51.8124 111.518 51.8824 111.784 52.0224 112.036C52.1624 112.279 52.3677 112.493 52.6384 112.68C52.9184 112.867 53.2637 113.016 53.6744 113.128C54.0851 113.231 54.5657 113.282 55.1164 113.282C55.6577 113.282 56.1337 113.231 56.5444 113.128C56.9644 113.016 57.3097 112.871 57.5804 112.694C57.8604 112.507 58.0704 112.288 58.2104 112.036C58.3504 111.784 58.4204 111.518 58.4204 111.238C58.4204 110.958 58.3504 110.692 58.2104 110.44C58.0704 110.188 57.8604 109.969 57.5804 109.782C57.3097 109.595 56.9644 109.451 56.5444 109.348C56.1337 109.236 55.6577 109.18 55.1164 109.18ZM49.1104 117.23H52.1624V114.584L53.3524 114.598V117.23H56.8804V114.598L58.0704 114.584V117.23H61.1224V118.294H49.1104V117.23ZM64.1519 119.414H62.6819V117.874H64.1519V119.414Z" fill="#444444"/>
</g>
<defs>
<filter id="filter0_i_908_2572" x="0" y="0" width="328" height="149" filterUnits="userSpaceOnUse" color-interpolation-filters="sRGB">
<feFlood flood-opacity="0" result="BackgroundImageFix"/>
<feBlend mode="normal" in="SourceGraphic" in2="BackgroundImageFix" result="shape"/>
<feColorMatrix in="SourceAlpha" type="matrix" values="0 0 0 0 0 0 0 0 0 0 0 0 0 0 0 0 0 0 127 0" result="hardAlpha"/>
<feOffset dy="1"/>
<feGaussianBlur stdDeviation="2"/>
<feComposite in2="hardAlpha" operator="arithmetic" k2="-1" k3="1"/>
<feColorMatrix type="matrix" values="0 0 0 0 0.286275 0 0 0 0 0.392157 0 0 0 0 0.823529 0 0 0 0.1 0"/>
<feBlend mode="normal" in2="shape" result="effect1_innerShadow_908_2572"/>
</filter>
</defs>
</svg>
