<svg width="183" height="208" viewBox="0 0 183 208" fill="none" xmlns="http://www.w3.org/2000/svg">
<path d="M91.0215 0C91.8488 0 93.8346 0.164218 95.1582 0.819336C96.8132 1.63852 109.632 8.59661 110.049 9.00781C110.462 9.41726 136.936 23.3389 159.686 26.2051C164.373 26.8875 174.659 29.1528 178.299 32.7559C179.264 33.5747 181.36 38.4062 182.021 51.1807C182.297 79.1597 180.367 140.032 159.686 161.323C154.308 171.15 121.797 199.154 91.0234 207.999V208L91.0225 207.999L91.0215 208V207.999C60.2476 199.155 27.7372 171.15 22.3594 161.323C1.67782 140.032 -0.25232 79.1597 0.0234375 51.1807C0.685282 38.4062 2.78095 33.5747 3.74609 32.7559C7.3863 29.1528 17.6716 26.8875 22.3594 26.2051C45.1094 23.3389 71.5825 9.41726 71.9961 9.00781C72.4145 8.5959 85.2322 1.63824 86.8867 0.819336C88.2096 0.164605 90.1933 0.000193463 91.0215 0Z" fill="url(#paint0_linear_545_494)"/>
<path d="M90.626 19.877C91.2951 19.877 92.901 20.0093 93.9717 20.5391C95.3097 21.2013 105.678 26.8297 106.017 27.1631C106.351 27.4943 127.765 38.7548 146.167 41.0732C149.959 41.6252 158.279 43.4576 161.224 46.3721C162.004 47.0345 163.699 50.943 164.234 61.2764C164.457 83.9082 162.896 133.146 146.167 150.368C141.817 158.317 115.52 180.97 90.627 188.124V188.125C65.7339 180.971 39.4356 158.317 35.0859 150.368C18.3573 133.146 16.7955 83.908 17.0186 61.2764C17.5539 50.943 19.2496 47.0345 20.0303 46.3721C22.9748 43.4578 31.294 41.6253 35.0859 41.0732C53.4861 38.7551 74.8972 27.4966 75.2363 27.1631C75.5709 26.8319 85.9419 21.202 87.2812 20.5391C88.3512 20.0095 89.956 19.8771 90.626 19.877Z" fill="white"/>
<defs>
<linearGradient id="paint0_linear_545_494" x1="179.54" y1="104" x2="2.91841" y2="105.671" gradientUnits="userSpaceOnUse">
<stop stop-color="#2F42A2"/>
<stop offset="1" stop-color="#5F7BB9"/>
</linearGradient>
</defs>
</svg>
