<svg width="128" height="40" viewBox="0 0 128 40" fill="none" xmlns="http://www.w3.org/2000/svg">
<rect x="0.5" y="0.5" width="127" height="39" rx="19.5" fill="white"/>
<rect x="0.5" y="0.5" width="127" height="39" rx="19.5" stroke="#E0E0E0"/>
<path d="M30.3718 22.502C30.7545 22.278 31.1558 21.9887 31.5758 21.634C31.9958 21.27 32.3785 20.8407 32.7238 20.346C33.0785 19.842 33.3678 19.2727 33.5918 18.638C33.8158 17.994 33.9278 17.28 33.9278 16.496V15.474H31.0298V14.41H38.0438V15.474H35.1598V16.496C35.1598 17.2053 35.2438 17.8493 35.4118 18.428C35.5798 18.9973 35.8178 19.52 36.1258 19.996C36.4338 20.472 36.8025 20.906 37.2318 21.298C37.6705 21.69 38.1558 22.054 38.6878 22.39L37.8618 23.244C37.5351 23.0293 37.1991 22.7727 36.8538 22.474C36.5178 22.1753 36.2005 21.8533 35.9018 21.508C35.6031 21.1627 35.3325 20.808 35.0898 20.444C34.8471 20.0707 34.6605 19.702 34.5298 19.338C34.3991 19.7207 34.2078 20.108 33.9558 20.5C33.7131 20.892 33.4378 21.27 33.1298 21.634C32.8218 21.9887 32.4998 22.32 32.1638 22.628C31.8278 22.9267 31.5058 23.1787 31.1978 23.384L30.3718 22.502ZM40.6058 26.184H39.3878V13.276H40.6058V18.316H42.5798V19.394H40.6058V26.184ZM50.5513 18.694H48.4793V17.63H50.5513V13.458H51.6853V25.89H50.5513V18.694ZM53.0013 13.262H54.1633V26.24H53.0013V13.262ZM49.0393 23.132C48.7219 22.88 48.4233 22.6 48.1433 22.292C47.8726 21.9747 47.6253 21.6527 47.4013 21.326C47.1866 20.9993 46.9999 20.6727 46.8413 20.346C46.6826 20.01 46.5613 19.702 46.4773 19.422C46.4026 19.7207 46.2766 20.052 46.0993 20.416C45.9219 20.7707 45.7073 21.13 45.4553 21.494C45.2126 21.8487 44.9419 22.1893 44.6433 22.516C44.3539 22.8427 44.0553 23.118 43.7473 23.342L42.8793 22.614C43.8966 21.8207 44.6479 20.892 45.1333 19.828C45.6279 18.764 45.8753 17.532 45.8753 16.132V14.172H47.1073V16.104C47.1073 17.5133 47.3266 18.7267 47.7653 19.744C48.2039 20.7613 48.9179 21.6433 49.9073 22.39L49.0393 23.132ZM65.1307 13.262H66.3487V26.184H65.1307V13.262ZM57.7667 13.836H61.9807V14.9H57.7667V13.836ZM56.0447 15.908H63.6887V16.958H56.0447V15.908ZM59.8667 17.742C60.2961 17.742 60.6974 17.8167 61.0707 17.966C61.4534 18.106 61.7847 18.3067 62.0647 18.568C62.3541 18.82 62.5781 19.128 62.7367 19.492C62.9047 19.8467 62.9887 20.2387 62.9887 20.668C62.9887 21.1067 62.9047 21.5033 62.7367 21.858C62.5781 22.2127 62.3541 22.5207 62.0647 22.782C61.7847 23.0433 61.4534 23.244 61.0707 23.384C60.6974 23.524 60.2961 23.594 59.8667 23.594C59.4467 23.594 59.0454 23.524 58.6627 23.384C58.2894 23.244 57.9581 23.0433 57.6687 22.782C57.3887 22.5207 57.1647 22.2127 56.9967 21.858C56.8381 21.5033 56.7587 21.1067 56.7587 20.668C56.7587 20.2387 56.8381 19.8467 56.9967 19.492C57.1647 19.128 57.3887 18.82 57.6687 18.568C57.9581 18.3067 58.2894 18.106 58.6627 17.966C59.0454 17.8167 59.4467 17.742 59.8667 17.742ZM59.8667 18.764C59.5867 18.764 59.3254 18.8153 59.0827 18.918C58.8494 19.0113 58.6441 19.1467 58.4667 19.324C58.2987 19.492 58.1634 19.6927 58.0607 19.926C57.9674 20.1593 57.9207 20.4113 57.9207 20.682C57.9207 20.9527 57.9674 21.2047 58.0607 21.438C58.1634 21.6713 58.2987 21.872 58.4667 22.04C58.6441 22.208 58.8494 22.3433 59.0827 22.446C59.3254 22.5393 59.5867 22.586 59.8667 22.586C60.1467 22.586 60.4034 22.5393 60.6367 22.446C60.8794 22.3433 61.0894 22.208 61.2667 22.04C61.4441 21.872 61.5794 21.6713 61.6727 21.438C61.7754 21.2047 61.8267 20.9527 61.8267 20.682C61.8267 20.4113 61.7754 20.1593 61.6727 19.926C61.5794 19.6927 61.4441 19.492 61.2667 19.324C61.0894 19.1467 60.8794 19.0113 60.6367 18.918C60.4034 18.8153 60.1467 18.764 59.8667 18.764Z" fill="#444444"/>
<path fill-rule="evenodd" clip-rule="evenodd" d="M78.2646 16.4046C77.9362 16.7001 77.9096 17.206 78.2052 17.5344L85.4049 25.5344C85.5566 25.703 85.7727 25.7992 85.9995 25.7992C86.2263 25.7992 86.4424 25.703 86.5941 25.5344L93.7946 17.5344C94.0902 17.206 94.0636 16.7002 93.7352 16.4046C93.4068 16.109 92.901 16.1356 92.6054 16.464L85.9995 23.8034L79.3944 16.4641C79.0989 16.1357 78.5931 16.109 78.2646 16.4046Z" fill="#333333"/>
</svg>
