<svg width="360" height="44" viewBox="0 0 360 44" fill="none" xmlns="http://www.w3.org/2000/svg">
<rect width="180" height="44" transform="translate(180)" fill="#F0F0F0"/>
<path d="M256.353 19.858H258.327V20.922H256.353V27.684H255.135V14.762H256.353V19.858ZM246.861 24.856L245.993 24.072C248.205 22.644 249.549 20.418 249.549 17.604V15.63H250.795V17.604C250.795 20.208 251.915 22.42 254.295 23.904L253.455 24.702C251.943 23.666 250.669 22.182 250.179 20.642C249.689 22.196 248.443 23.722 246.861 24.856ZM259.635 17.044V15.98H268.343C268.315 18.038 268.063 21.202 267.685 23.064L266.537 22.854C266.831 21.342 267.097 18.836 267.125 17.044H259.635ZM258.039 25.794V24.73H262.561V20.362H263.793V24.73H270.051V25.794H258.039ZM279.478 27.684V14.762H280.696V27.684H279.478ZM274.06 15.672C276.272 15.672 277.336 17.618 277.336 20.166C277.336 22.7 276.272 24.632 274.06 24.632C271.876 24.632 270.77 22.7 270.77 20.166C270.77 17.618 271.862 15.672 274.06 15.672ZM274.06 16.722C272.758 16.722 271.974 17.996 271.974 20.166C271.974 22.308 272.758 23.582 274.06 23.582C275.376 23.582 276.16 22.308 276.16 20.166C276.16 17.996 275.376 16.722 274.06 16.722ZM291.397 22.77V20.516H289.115V19.522H291.397V17.646H289.115V16.652H291.397V14.762H292.601V22.77H291.397ZM282.689 22.21V18.192H287.001V16.484H282.689V15.448H288.191V19.2H283.893V21.174C285.223 21.16 287.799 21.048 289.087 20.936C289.129 21.272 289.157 21.608 289.185 21.944C287.533 22.112 284.691 22.21 282.689 22.21ZM291.397 27.754V24.436H284.117V23.386H292.601V27.754H291.397Z" fill="#444444"/>
<mask id="path-2-inside-1_440_3055" fill="white">
<path d="M0 0H180V44H0V0Z"/>
</mask>
<path d="M0 0H180V44H0V0Z" fill="white"/>
<path d="M180 44V42H0V44V46H180V44Z" fill="#0068FF" mask="url(#path-2-inside-1_440_3055)"/>
<path d="M64.9252 19.634V20.95H62.9932V27.684H61.5092V14.762H62.9932V19.634H64.9252ZM52.6472 23.988C54.8872 22.532 56.0072 20.362 56.0072 17.492V15.588H57.4772V17.492C57.4772 20.334 58.5412 22.308 60.8792 23.764L60.0112 24.758C58.5832 23.876 57.2112 22.28 56.7632 20.908C56.3432 22.252 55.0552 23.974 53.5432 24.954L52.6472 23.988ZM72.9807 22.952C73.3867 20.992 73.5407 18.766 73.5407 17.212H66.2327V15.938H75.0527C75.0527 18.444 74.8707 20.964 74.4227 23.148L72.9807 22.952ZM64.7067 24.52H69.0047V20.46H70.5167V24.52H76.6347V25.808H64.7067V24.52ZM79.0902 22.49H80.5882V23.834H86.0202V22.42H87.5042V27.628H79.0902V22.49ZM83.8922 21.832C82.4362 21.314 81.1902 20.306 80.7002 19.214C80.2102 20.306 79.0342 21.44 77.6202 22.098L76.7802 21.048C78.5442 20.292 79.9582 18.948 79.9582 16.918V16.68H77.3122V15.406H84.1162V16.68H81.4422V16.918C81.4422 18.906 82.7582 20.124 84.6202 20.782L83.8922 21.832ZM86.0062 18.99H83.3882V17.66H86.0062V14.776H87.5042V21.874H86.0062V18.99ZM80.5882 25.038V26.41H86.0202V25.038H80.5882ZM95.2096 27.754H93.7256V23.148H88.5176V21.846H100.446V23.148H95.2096V27.754ZM99.1996 20.782C97.2256 20.446 95.2096 19.046 94.4676 17.716C93.7116 19.032 91.7376 20.488 89.7356 20.782L89.0216 19.55C91.4856 19.27 93.6976 17.394 93.6976 15.672V15.112H95.2376V15.672C95.2376 17.394 97.5056 19.27 99.8996 19.55L99.1996 20.782ZM107.392 18.598C109.198 18.598 110.472 19.578 110.472 20.964C110.472 22.35 109.226 23.358 107.406 23.358C105.53 23.358 104.27 22.35 104.27 20.964C104.27 19.578 105.53 18.598 107.392 18.598ZM112.782 14.762H114.266V24.408H112.782V22.448H110.864V21.258H112.782V19.844H110.85V18.64H112.782V14.762ZM105.908 24.03H107.392V26.256H114.56V27.502H105.908V24.03ZM103.71 16.918H111.074V18.122H103.71V16.918ZM107.392 19.802C106.314 19.802 105.698 20.334 105.698 20.964C105.698 21.608 106.314 22.14 107.392 22.14C108.4 22.14 109.044 21.608 109.044 20.964C109.044 20.334 108.4 19.802 107.392 19.802ZM105.404 15H109.422V16.204H105.404V15ZM121.341 23.61C124.309 23.61 125.639 24.422 125.639 25.682C125.639 26.956 124.309 27.754 121.341 27.754C118.401 27.754 117.071 26.956 117.071 25.682C117.071 24.422 118.401 23.61 121.341 23.61ZM119.325 17.716C121.173 17.716 122.349 18.444 122.349 19.55C122.349 20.488 121.481 21.174 120.081 21.356V22.028C121.201 21.972 122.307 21.888 123.427 21.776L123.511 22.784C121.425 23.064 117.435 23.274 115.517 23.274L115.335 22.14C116.427 22.14 117.519 22.126 118.611 22.084V21.356C117.155 21.188 116.301 20.502 116.301 19.55C116.301 18.444 117.435 17.716 119.325 17.716ZM125.471 23.442H124.001V14.762H125.471V18.85H127.389V20.18H125.471V23.442ZM121.341 24.702C119.269 24.702 118.527 25.164 118.527 25.668C118.527 26.214 119.269 26.634 121.341 26.634C123.441 26.634 124.169 26.214 124.169 25.668C124.169 25.164 123.441 24.702 121.341 24.702ZM115.587 16.33H123.021V17.394H115.587V16.33ZM119.325 18.738C118.359 18.738 117.701 19.046 117.701 19.55C117.701 20.068 118.359 20.376 119.325 20.376C120.291 20.376 120.949 20.068 120.949 19.536C120.949 19.032 120.291 18.738 119.325 18.738ZM117.547 14.748H121.075V15.84H117.547V14.748Z" fill="#0068FF"/>
</svg>
