<svg width="330" height="50" viewBox="0 0 330 50" fill="none" xmlns="http://www.w3.org/2000/svg">
<rect width="330" height="50" rx="15" fill="#F8F8F8"/>
<rect x="0.5" y="0.5" width="109" height="49" rx="14.5" fill="white"/>
<rect x="0.5" y="0.5" width="109" height="49" rx="14.5" stroke="#2C67F6"/>
<path d="M12.3713 18.692H14.1913V20.538H18.8063V18.692H20.6263V25.218H17.4153V26.856H22.0303V28.455H10.9803V26.856H15.5953V25.218H12.3713V18.692ZM14.1913 22.15V23.645H18.8063V22.15H14.1913ZM32.2664 25.205H30.4204V18.029H32.2664V20.85H33.9304V22.449H32.2664V25.205ZM29.0424 24.815C28.3664 24.5723 27.803 24.243 27.3524 23.827C26.9017 23.411 26.5637 22.9993 26.3384 22.592C26.2344 22.8087 26.0914 23.0383 25.9094 23.281C25.7274 23.515 25.5194 23.749 25.2854 23.983C25.0514 24.2083 24.7914 24.4207 24.5054 24.62C24.2194 24.8107 23.9204 24.9753 23.6084 25.114L22.5424 23.697C22.993 23.5323 23.3917 23.3243 23.7384 23.073C24.085 22.813 24.3797 22.527 24.6224 22.215C24.865 21.903 25.0514 21.578 25.1814 21.24C25.3114 20.8933 25.385 20.5467 25.4024 20.2H23.1014V18.653H29.6014V20.213H27.3004C27.309 20.551 27.3654 20.8847 27.4694 21.214C27.5734 21.5347 27.7337 21.838 27.9504 22.124C28.1757 22.4013 28.4574 22.6527 28.7954 22.878C29.142 23.1033 29.558 23.2853 30.0434 23.424L29.0424 24.815ZM28.3534 25.205C29.0727 25.205 29.688 25.2743 30.1994 25.413C30.7107 25.543 31.1267 25.725 31.4474 25.959C31.768 26.1843 32.002 26.4487 32.1494 26.752C32.2967 27.0553 32.3704 27.376 32.3704 27.714C32.3704 28.0433 32.2967 28.3553 32.1494 28.65C32.002 28.9447 31.768 29.2047 31.4474 29.43C31.1267 29.6553 30.7107 29.833 30.1994 29.963C29.688 30.1017 29.0727 30.171 28.3534 30.171C27.6254 30.171 27.0057 30.1017 26.4944 29.963C25.9917 29.833 25.58 29.6553 25.2594 29.43C24.9474 29.2047 24.7177 28.9447 24.5704 28.65C24.423 28.3553 24.3494 28.0433 24.3494 27.714C24.3494 27.376 24.423 27.0553 24.5704 26.752C24.7177 26.4487 24.9517 26.1843 25.2724 25.959C25.593 25.725 26.0047 25.543 26.5074 25.413C27.0187 25.2743 27.634 25.205 28.3534 25.205ZM28.3534 26.752C27.946 26.752 27.608 26.778 27.3394 26.83C27.0707 26.882 26.854 26.9513 26.6894 27.038C26.5247 27.1247 26.4077 27.2287 26.3384 27.35C26.269 27.4627 26.2344 27.584 26.2344 27.714C26.2344 27.8353 26.269 27.9523 26.3384 28.065C26.4077 28.1777 26.5247 28.273 26.6894 28.351C26.854 28.4377 27.0707 28.5027 27.3394 28.546C27.608 28.598 27.946 28.624 28.3534 28.624C28.7607 28.624 29.103 28.598 29.3804 28.546C29.6577 28.5027 29.8787 28.4377 30.0434 28.351C30.208 28.2643 30.325 28.1647 30.3944 28.052C30.4637 27.948 30.4984 27.8353 30.4984 27.714C30.4984 27.584 30.4637 27.4627 30.3944 27.35C30.325 27.2287 30.208 27.1247 30.0434 27.038C29.8787 26.9513 29.6577 26.882 29.3804 26.83C29.103 26.778 28.7607 26.752 28.3534 26.752ZM46.4254 30.015H44.5664V26.141H42.0054V30.015H40.1724V26.141H37.7674V24.529H48.8044V26.141H46.4254V30.015ZM43.2924 18.354C44.0204 18.354 44.653 18.4233 45.1904 18.562C45.7277 18.7007 46.1741 18.8957 46.5294 19.147C46.8934 19.3897 47.1621 19.6757 47.3354 20.005C47.5087 20.3343 47.5954 20.6853 47.5954 21.058C47.5954 21.4393 47.5087 21.7947 47.3354 22.124C47.1621 22.4533 46.8934 22.7393 46.5294 22.982C46.1741 23.2247 45.7277 23.4197 45.1904 23.567C44.653 23.7057 44.0204 23.775 43.2924 23.775C42.5644 23.775 41.9317 23.7057 41.3944 23.567C40.857 23.4197 40.4107 23.2247 40.0554 22.982C39.7 22.7393 39.4314 22.4533 39.2494 22.124C39.076 21.7947 38.9894 21.4393 38.9894 21.058C38.9894 20.6853 39.076 20.3343 39.2494 20.005C39.4314 19.6757 39.7 19.3897 40.0554 19.147C40.4107 18.8957 40.857 18.7007 41.3944 18.562C41.9317 18.4233 42.5644 18.354 43.2924 18.354ZM43.2924 19.914C42.833 19.914 42.443 19.9487 42.1224 20.018C41.8104 20.0787 41.559 20.1653 41.3684 20.278C41.1777 20.382 41.039 20.5033 40.9524 20.642C40.8744 20.7807 40.8354 20.9193 40.8354 21.058C40.8354 21.2053 40.8744 21.3483 40.9524 21.487C41.039 21.617 41.1777 21.734 41.3684 21.838C41.559 21.942 41.8104 22.0287 42.1224 22.098C42.443 22.1587 42.833 22.189 43.2924 22.189C43.7517 22.189 44.1374 22.1587 44.4494 22.098C44.77 22.0287 45.0257 21.942 45.2164 21.838C45.407 21.734 45.5414 21.617 45.6194 21.487C45.7061 21.3483 45.7494 21.2053 45.7494 21.058C45.7494 20.902 45.7061 20.7547 45.6194 20.616C45.5414 20.4773 45.407 20.356 45.2164 20.252C45.0257 20.148 44.77 20.0657 44.4494 20.005C44.1374 19.9443 43.7517 19.914 43.2924 19.914ZM57.8575 24.945H56.4275V23.554H57.8575V22.852H56.4145V21.461H57.8575V18.029H59.7035V25.777H57.8575V24.945ZM51.5135 18.016H55.0235V19.407H51.5135V18.016ZM49.7325 19.875H56.5575V21.266H49.7325V19.875ZM53.1645 21.63C53.6065 21.63 54.0051 21.682 54.3605 21.786C54.7158 21.8813 55.0191 22.02 55.2705 22.202C55.5218 22.3753 55.7125 22.5833 55.8425 22.826C55.9811 23.0687 56.0505 23.333 56.0505 23.619C56.0505 23.9223 55.9811 24.1997 55.8425 24.451C55.7125 24.7023 55.5218 24.919 55.2705 25.101C55.0191 25.2743 54.7158 25.413 54.3605 25.517C54.0051 25.6123 53.6065 25.66 53.1645 25.66C52.7311 25.66 52.3368 25.6123 51.9815 25.517C51.6261 25.413 51.3228 25.2743 51.0715 25.101C50.8201 24.919 50.6251 24.7023 50.4865 24.451C50.3565 24.1997 50.2915 23.9223 50.2915 23.619C50.2915 23.333 50.3565 23.0687 50.4865 22.826C50.6251 22.5833 50.8201 22.3753 51.0715 22.202C51.3228 22.02 51.6261 21.8813 51.9815 21.786C52.3368 21.682 52.7311 21.63 53.1645 21.63ZM53.1645 22.904C52.7745 22.904 52.4841 22.982 52.2935 23.138C52.1028 23.2853 52.0075 23.4457 52.0075 23.619C52.0075 23.8183 52.1028 23.996 52.2935 24.152C52.4841 24.308 52.7745 24.386 53.1645 24.386C53.5545 24.386 53.8448 24.308 54.0355 24.152C54.2348 23.996 54.3345 23.8183 54.3345 23.619C54.3345 23.437 54.2348 23.2723 54.0355 23.125C53.8448 22.9777 53.5545 22.904 53.1645 22.904ZM55.7515 25.829C56.4448 25.829 57.0428 25.8897 57.5455 26.011C58.0481 26.1237 58.4598 26.284 58.7805 26.492C59.1098 26.6913 59.3525 26.9253 59.5085 27.194C59.6645 27.454 59.7425 27.727 59.7425 28.013C59.7425 28.3077 59.6645 28.585 59.5085 28.845C59.3525 29.105 59.1098 29.3347 58.7805 29.534C58.4598 29.7333 58.0481 29.8893 57.5455 30.002C57.0428 30.1233 56.4448 30.184 55.7515 30.184C55.0495 30.184 54.4471 30.1233 53.9445 30.002C53.4418 29.8893 53.0258 29.7333 52.6965 29.534C52.3758 29.3347 52.1375 29.105 51.9815 28.845C51.8255 28.585 51.7475 28.3077 51.7475 28.013C51.7475 27.727 51.8255 27.454 51.9815 27.194C52.1375 26.9253 52.3758 26.6913 52.6965 26.492C53.0258 26.284 53.4418 26.1237 53.9445 26.011C54.4471 25.8897 55.0495 25.829 55.7515 25.829ZM55.7515 27.298C55.3528 27.298 55.0148 27.3153 54.7375 27.35C54.4688 27.3847 54.2478 27.4367 54.0745 27.506C53.9011 27.5667 53.7755 27.6403 53.6975 27.727C53.6195 27.8137 53.5805 27.909 53.5805 28.013C53.5805 28.1083 53.6195 28.1993 53.6975 28.286C53.7755 28.3813 53.9011 28.4637 54.0745 28.533C54.2478 28.6023 54.4688 28.6543 54.7375 28.689C55.0148 28.7323 55.3528 28.754 55.7515 28.754C56.1501 28.754 56.4881 28.7323 56.7655 28.689C57.0428 28.6543 57.2638 28.6023 57.4285 28.533C57.6018 28.4637 57.7231 28.3813 57.7925 28.286C57.8705 28.1993 57.9095 28.1083 57.9095 28.013C57.9095 27.805 57.7491 27.636 57.4285 27.506C57.1165 27.3673 56.5575 27.298 55.7515 27.298ZM69.5625 23.112H67.6905V24.035H61.8405V18.406H63.6735V19.836H65.8575V18.406H67.6905V19.407H69.5625V18.029H71.4085V24.165H69.5625V23.112ZM63.3875 26.661H69.5625V26.193H63.3875V24.737H71.4215V28.052H65.2465V28.546H71.6295V30.015H63.3875V26.661ZM63.6735 21.409V22.449H65.8575V21.409H63.6735ZM67.6905 20.824V21.708H69.5625V20.824H67.6905ZM78.4696 25.478H86.5036V30.028H78.4696V25.478ZM80.3026 27.012V28.52H84.6576V27.012H80.3026ZM84.6576 22.241H82.6816V20.733H84.6576V18.029H86.5036V24.919H84.6576V22.241ZM82.7466 24.867C82.4172 24.7457 82.1139 24.5983 81.8366 24.425C81.5592 24.243 81.3079 24.0523 81.0826 23.853C80.8659 23.645 80.6709 23.4327 80.4976 23.216C80.3329 22.9993 80.1942 22.7913 80.0816 22.592C79.9689 22.8 79.8216 23.021 79.6396 23.255C79.4576 23.4803 79.2496 23.7057 79.0156 23.931C78.7816 24.1477 78.5216 24.3557 78.2356 24.555C77.9582 24.7457 77.6636 24.9103 77.3516 25.049L76.2856 23.632C76.7362 23.4673 77.1349 23.2637 77.4816 23.021C77.8282 22.7697 78.1229 22.4923 78.3656 22.189C78.6082 21.877 78.7946 21.5477 78.9246 21.201C79.0546 20.8457 79.1282 20.4773 79.1456 20.096H76.8446V18.549H83.3576V20.109H81.0436C81.0522 20.4557 81.1042 20.798 81.1996 21.136C81.3036 21.474 81.4639 21.7903 81.6806 22.085C81.8972 22.3797 82.1746 22.6483 82.5126 22.891C82.8506 23.125 83.2622 23.3113 83.7476 23.45L82.7466 24.867ZM94.3996 30.106H92.5796V26.115H87.9906V24.503H99.0016V26.115H94.3996V30.106ZM97.7146 23.762C97.2553 23.6753 96.8133 23.5453 96.3886 23.372C95.964 23.19 95.5696 22.982 95.2056 22.748C94.8416 22.514 94.5123 22.2627 94.2176 21.994C93.923 21.7167 93.6803 21.4393 93.4896 21.162C93.299 21.448 93.052 21.7297 92.7486 22.007C92.454 22.2843 92.1203 22.54 91.7476 22.774C91.3836 23.008 90.9893 23.2117 90.5646 23.385C90.14 23.5583 89.7023 23.684 89.2516 23.762L88.3936 22.267C88.931 22.189 89.4466 22.0417 89.9406 21.825C90.4433 21.6083 90.8853 21.344 91.2666 21.032C91.6566 20.72 91.9643 20.3733 92.1896 19.992C92.4236 19.6107 92.5406 19.212 92.5406 18.796V18.328H94.4516V18.796C94.4516 19.212 94.5643 19.6107 94.7896 19.992C95.015 20.3733 95.314 20.72 95.6866 21.032C96.068 21.344 96.5056 21.6083 96.9996 21.825C97.4936 22.0417 98.0136 22.189 98.5596 22.267L97.7146 23.762Z" fill="#2C67F6"/>
<path d="M135.236 23.671H133.858V29.755H132.792V18.211H133.858V22.683H135.236V18.029H136.302V30.08H135.236V23.671ZM131.505 27.207C131.263 26.999 131.024 26.7607 130.79 26.492C130.556 26.2233 130.34 25.946 130.14 25.66C129.941 25.3653 129.759 25.0663 129.594 24.763C129.438 24.4597 129.313 24.165 129.217 23.879C129.113 24.1737 128.979 24.477 128.814 24.789C128.658 25.0923 128.476 25.4 128.268 25.712C128.06 26.0153 127.831 26.31 127.579 26.596C127.337 26.8733 127.081 27.1333 126.812 27.376L125.993 26.622C126.834 25.946 127.488 25.14 127.956 24.204C128.424 23.268 128.658 22.1977 128.658 20.993V20.096H126.682V19.095H131.752V20.096H129.763V21.006C129.763 22.1153 129.963 23.125 130.361 24.035C130.76 24.9363 131.401 25.7423 132.285 26.453L131.505 27.207ZM146.499 21.877H144.146V20.928H146.499V18.029H147.617V25.283H146.499V21.877ZM144.419 24.633C144.159 24.5203 143.882 24.3687 143.587 24.178C143.301 23.9787 143.024 23.762 142.755 23.528C142.487 23.2853 142.244 23.034 142.027 22.774C141.819 22.5053 141.659 22.2497 141.546 22.007C141.434 22.2497 141.273 22.5053 141.065 22.774C140.866 23.0427 140.636 23.3027 140.376 23.554C140.116 23.8053 139.83 24.0437 139.518 24.269C139.215 24.4857 138.903 24.6677 138.582 24.815L137.88 23.996C138.314 23.8313 138.717 23.6147 139.089 23.346C139.462 23.0773 139.787 22.7783 140.064 22.449C140.342 22.111 140.558 21.7513 140.714 21.37C140.879 20.9887 140.961 20.5987 140.961 20.2V19.641H138.387V18.679H144.692V19.641H142.118V20.2C142.118 20.616 142.196 21.006 142.352 21.37C142.517 21.734 142.734 22.072 143.002 22.384C143.28 22.6873 143.596 22.9603 143.951 23.203C144.315 23.4457 144.697 23.6493 145.095 23.814L144.419 24.633ZM143.704 25.374C144.311 25.374 144.861 25.426 145.355 25.53C145.849 25.6253 146.27 25.7727 146.616 25.972C146.972 26.1627 147.245 26.4053 147.435 26.7C147.626 26.9947 147.721 27.3327 147.721 27.714C147.721 28.104 147.626 28.4463 147.435 28.741C147.245 29.0357 146.972 29.2783 146.616 29.469C146.27 29.6683 145.849 29.8157 145.355 29.911C144.861 30.015 144.311 30.067 143.704 30.067C143.098 30.067 142.547 30.015 142.053 29.911C141.568 29.8157 141.148 29.6683 140.792 29.469C140.446 29.2783 140.177 29.0357 139.986 28.741C139.796 28.4463 139.7 28.104 139.7 27.714C139.7 27.3327 139.796 26.9947 139.986 26.7C140.177 26.4053 140.446 26.1627 140.792 25.972C141.148 25.7727 141.568 25.6253 142.053 25.53C142.547 25.426 143.098 25.374 143.704 25.374ZM143.717 26.323C142.799 26.323 142.084 26.453 141.572 26.713C141.07 26.973 140.818 27.3067 140.818 27.714C140.818 28.1213 141.07 28.455 141.572 28.715C142.084 28.9837 142.799 29.118 143.717 29.118C144.627 29.118 145.334 28.9837 145.836 28.715C146.339 28.455 146.59 28.1213 146.59 27.714C146.59 27.3067 146.339 26.973 145.836 26.713C145.334 26.453 144.627 26.323 143.717 26.323ZM158.204 21.968H155.864V20.993H158.204V18.029H159.322V25.192H158.204V21.968ZM158.204 26.739H151.457V25.764H159.322V30.093H158.204V26.739ZM156.072 24.672C155.812 24.568 155.539 24.4163 155.253 24.217C154.967 24.009 154.694 23.7837 154.434 23.541C154.174 23.2897 153.94 23.034 153.732 22.774C153.524 22.5053 153.364 22.2497 153.251 22.007C153.139 22.2497 152.983 22.5053 152.783 22.774C152.593 23.0427 152.367 23.307 152.107 23.567C151.856 23.8183 151.579 24.0567 151.275 24.282C150.972 24.4987 150.66 24.685 150.339 24.841L149.585 23.983C150.019 23.8183 150.422 23.5973 150.794 23.32C151.167 23.0427 151.492 22.735 151.769 22.397C152.047 22.059 152.263 21.695 152.419 21.305C152.584 20.915 152.666 20.5207 152.666 20.122V19.667H150.092V18.705H156.397V19.667H153.823V20.122C153.823 20.538 153.901 20.9367 154.057 21.318C154.222 21.6907 154.439 22.0373 154.707 22.358C154.985 22.6787 155.301 22.9647 155.656 23.216C156.02 23.4673 156.402 23.6753 156.8 23.84L156.072 24.672ZM170.543 30.106H169.425V26.063H164.42V25.088H175.574V26.063H170.543V30.106ZM167.917 18.211H172.064V19.147H167.917V18.211ZM174.339 24.256C173.906 24.178 173.473 24.061 173.039 23.905C172.606 23.749 172.194 23.567 171.804 23.359C171.414 23.1423 171.063 22.9083 170.751 22.657C170.439 22.4057 170.188 22.1457 169.997 21.877C169.815 22.1457 169.568 22.4057 169.256 22.657C168.944 22.9083 168.593 23.1423 168.203 23.359C167.813 23.567 167.397 23.7533 166.955 23.918C166.522 24.074 166.084 24.191 165.642 24.269L165.096 23.333C165.556 23.2723 166.015 23.1683 166.474 23.021C166.934 22.8737 167.354 22.696 167.735 22.488C168.125 22.28 168.455 22.0503 168.723 21.799C169.001 21.539 169.183 21.2703 169.269 20.993H165.785V20.031H174.209V20.993H170.712C170.808 21.2703 170.994 21.539 171.271 21.799C171.557 22.0503 171.891 22.28 172.272 22.488C172.662 22.696 173.083 22.8737 173.533 23.021C173.993 23.1683 174.443 23.268 174.885 23.32L174.339 24.256ZM184.992 21.877H182.639V20.928H184.992V18.029H186.11V25.283H184.992V21.877ZM182.912 24.633C182.652 24.5203 182.374 24.3687 182.08 24.178C181.794 23.9787 181.516 23.762 181.248 23.528C180.979 23.2853 180.736 23.034 180.52 22.774C180.312 22.5053 180.151 22.2497 180.039 22.007C179.926 22.2497 179.766 22.5053 179.558 22.774C179.358 23.0427 179.129 23.3027 178.869 23.554C178.609 23.8053 178.323 24.0437 178.011 24.269C177.707 24.4857 177.395 24.6677 177.075 24.815L176.373 23.996C176.806 23.8313 177.209 23.6147 177.582 23.346C177.954 23.0773 178.279 22.7783 178.557 22.449C178.834 22.111 179.051 21.7513 179.207 21.37C179.371 20.9887 179.454 20.5987 179.454 20.2V19.641H176.88V18.679H183.185V19.641H180.611V20.2C180.611 20.616 180.689 21.006 180.845 21.37C181.009 21.734 181.226 22.072 181.495 22.384C181.772 22.6873 182.088 22.9603 182.444 23.203C182.808 23.4457 183.189 23.6493 183.588 23.814L182.912 24.633ZM182.197 25.374C182.803 25.374 183.354 25.426 183.848 25.53C184.342 25.6253 184.762 25.7727 185.109 25.972C185.464 26.1627 185.737 26.4053 185.928 26.7C186.118 26.9947 186.214 27.3327 186.214 27.714C186.214 28.104 186.118 28.4463 185.928 28.741C185.737 29.0357 185.464 29.2783 185.109 29.469C184.762 29.6683 184.342 29.8157 183.848 29.911C183.354 30.015 182.803 30.067 182.197 30.067C181.59 30.067 181.04 30.015 180.546 29.911C180.06 29.8157 179.64 29.6683 179.285 29.469C178.938 29.2783 178.669 29.0357 178.479 28.741C178.288 28.4463 178.193 28.104 178.193 27.714C178.193 27.3327 178.288 26.9947 178.479 26.7C178.669 26.4053 178.938 26.1627 179.285 25.972C179.64 25.7727 180.06 25.6253 180.546 25.53C181.04 25.426 181.59 25.374 182.197 25.374ZM182.21 26.323C181.291 26.323 180.576 26.453 180.065 26.713C179.562 26.973 179.311 27.3067 179.311 27.714C179.311 28.1213 179.562 28.455 180.065 28.715C180.576 28.9837 181.291 29.118 182.21 29.118C183.12 29.118 183.826 28.9837 184.329 28.715C184.831 28.455 185.083 28.1213 185.083 27.714C185.083 27.3067 184.831 26.973 184.329 26.713C183.826 26.453 183.12 26.323 182.21 26.323ZM191.208 24.334H196.2V22.267H197.357V24.334H202.362V25.309H191.208V24.334ZM192.807 26.232H193.938V28.884H201.023V29.859H192.807V26.232ZM201.244 22.995C200.793 22.917 200.338 22.7913 199.879 22.618C199.419 22.4447 198.986 22.2367 198.579 21.994C198.18 21.7513 197.82 21.487 197.5 21.201C197.188 20.915 196.949 20.629 196.785 20.343C196.611 20.6377 196.364 20.928 196.044 21.214C195.732 21.5 195.376 21.7643 194.978 22.007C194.588 22.241 194.163 22.4447 193.704 22.618C193.253 22.7913 192.798 22.9127 192.339 22.982L191.767 22.085C192.373 22.0157 192.945 21.877 193.483 21.669C194.02 21.4523 194.488 21.1923 194.887 20.889C195.285 20.5857 195.602 20.252 195.836 19.888C196.07 19.524 196.187 19.1557 196.187 18.783V18.354H197.357V18.783C197.357 19.1557 197.478 19.524 197.721 19.888C197.963 20.252 198.288 20.5857 198.696 20.889C199.112 21.1923 199.584 21.4523 200.113 21.669C200.65 21.877 201.209 22.0157 201.79 22.085L201.244 22.995ZM211.766 18.029H212.897V24.204H211.766V18.029ZM205.305 26.83H211.766V25.725H205.305V24.789H212.897V27.74H206.423V29.001H213.183V29.937H205.305V26.83ZM209.66 23.944C209.348 23.7793 209.044 23.593 208.75 23.385C208.464 23.1683 208.199 22.943 207.957 22.709C207.714 22.475 207.497 22.2367 207.307 21.994C207.125 21.7427 206.982 21.5 206.878 21.266C206.774 21.5347 206.626 21.8077 206.436 22.085C206.245 22.3537 206.024 22.618 205.773 22.878C205.521 23.1293 205.244 23.3677 204.941 23.593C204.637 23.8097 204.321 24.0047 203.992 24.178L203.277 23.411C203.632 23.255 203.987 23.047 204.343 22.787C204.707 22.5183 205.032 22.2063 205.318 21.851C205.612 21.487 205.851 21.084 206.033 20.642C206.215 20.1913 206.306 19.706 206.306 19.186V18.263H207.437V19.186C207.437 19.706 207.523 20.1783 207.697 20.603C207.87 21.019 208.095 21.396 208.373 21.734C208.659 22.0633 208.975 22.3537 209.322 22.605C209.668 22.8477 210.015 23.047 210.362 23.203L209.66 23.944Z" fill="#444444"/>
<path d="M258.721 30.028H257.616V18.029H258.721V22.631H260.619V23.632H258.721V30.028ZM250.18 19.082H255.744V20.083H251.285V25.959C251.623 25.959 252.017 25.9503 252.468 25.933C252.918 25.9157 253.382 25.894 253.859 25.868C254.344 25.8333 254.816 25.7987 255.276 25.764C255.735 25.7207 256.142 25.6773 256.498 25.634L256.641 26.622C256.207 26.674 255.722 26.7217 255.185 26.765C254.656 26.8083 254.106 26.8473 253.534 26.882C252.97 26.908 252.398 26.9297 251.818 26.947C251.246 26.9643 250.7 26.973 250.18 26.973V19.082ZM262.522 19.16H270.608C270.608 19.6453 270.595 20.1913 270.569 20.798C270.543 21.4047 270.504 22.02 270.452 22.644C270.4 23.268 270.331 23.879 270.244 24.477C270.166 25.0663 270.075 25.5993 269.971 26.076L268.892 25.881C268.97 25.491 269.044 25.062 269.113 24.594C269.191 24.1173 269.256 23.632 269.308 23.138L262.444 23.489L262.21 22.41L269.399 22.228C269.425 21.8553 269.447 21.4913 269.464 21.136C269.481 20.7807 269.49 20.4513 269.49 20.148H262.522V19.16ZM272.181 27.168V28.143H261.027V27.168H272.181ZM275.176 25.998H276.281V27.012H282.001V25.933H283.106V29.924H275.176V25.998ZM276.125 18.302C276.55 18.302 276.922 18.354 277.243 18.458C277.572 18.562 277.841 18.7007 278.049 18.874C278.266 19.0473 278.426 19.251 278.53 19.485C278.643 19.7103 278.699 19.9487 278.699 20.2C278.699 20.46 278.643 20.707 278.53 20.941C278.426 21.1663 278.266 21.3657 278.049 21.539C277.841 21.7123 277.572 21.851 277.243 21.955C276.922 22.059 276.55 22.111 276.125 22.111C275.7 22.111 275.328 22.059 275.007 21.955C274.686 21.851 274.418 21.7123 274.201 21.539C273.984 21.3657 273.82 21.1663 273.707 20.941C273.603 20.707 273.551 20.46 273.551 20.2C273.551 19.9487 273.603 19.7103 273.707 19.485C273.82 19.251 273.984 19.0473 274.201 18.874C274.418 18.7007 274.686 18.562 275.007 18.458C275.328 18.354 275.7 18.302 276.125 18.302ZM279.869 24.88H277.633V24.022H279.869V18.185H280.909V25.504H279.869V24.88ZM282.053 18.029H283.106V25.543H282.053V18.029ZM279.453 23.268C278.985 23.3287 278.517 23.3807 278.049 23.424C277.59 23.4587 277.117 23.489 276.632 23.515V25.53H275.553V23.554C275.111 23.5713 274.673 23.5843 274.24 23.593C273.807 23.6017 273.373 23.606 272.94 23.606L272.784 22.722C273.876 22.7393 274.977 22.7307 276.086 22.696C277.195 22.6613 278.296 22.592 279.388 22.488L279.453 23.268ZM276.281 27.909V29.027H282.001V27.909H276.281ZM276.125 19.16C275.64 19.16 275.258 19.2597 274.981 19.459C274.712 19.6583 274.578 19.9053 274.578 20.2C274.578 20.5033 274.712 20.759 274.981 20.967C275.258 21.1663 275.64 21.266 276.125 21.266C276.61 21.266 276.992 21.1663 277.269 20.967C277.546 20.759 277.685 20.5033 277.685 20.2C277.685 19.9053 277.546 19.6583 277.269 19.459C276.992 19.2597 276.61 19.16 276.125 19.16ZM289.387 18.887H290.531V23.411H297.629V24.399H293.95V27.233H298.968V28.208H287.814V27.233H292.819V24.399H289.387V18.887ZM301.027 27.246H308.073V26.336H301.027V25.465H304.537V24.477H299.519V23.567H310.673V24.477H305.655V25.465H309.152V28.078H302.093V29.105H309.347V29.963H301.027V27.246ZM303.016 18.068H307.163V18.965H303.016V18.068ZM309.893 22.189L309.386 23.021C308.987 22.9777 308.58 22.9083 308.164 22.813C307.748 22.709 307.349 22.5833 306.968 22.436C306.587 22.2887 306.231 22.1153 305.902 21.916C305.581 21.708 305.313 21.474 305.096 21.214C304.879 21.4567 304.606 21.6777 304.277 21.877C303.956 22.0763 303.605 22.254 303.224 22.41C302.843 22.566 302.444 22.696 302.028 22.8C301.612 22.8953 301.2 22.969 300.793 23.021L300.286 22.189C300.763 22.1457 301.218 22.0763 301.651 21.981C302.093 21.877 302.492 21.7557 302.847 21.617C303.211 21.4697 303.523 21.305 303.783 21.123C304.052 20.9323 304.255 20.7243 304.394 20.499H300.832V19.628H309.347V20.499H305.798C305.928 20.7157 306.119 20.915 306.37 21.097C306.63 21.279 306.938 21.4437 307.293 21.591C307.648 21.7383 308.043 21.864 308.476 21.968C308.918 22.0633 309.386 22.137 309.88 22.189H309.893Z" fill="#444444"/>
</svg>
