<svg width="330" height="46" viewBox="0 0 330 46" fill="none" xmlns="http://www.w3.org/2000/svg">
<rect width="330" height="46" rx="23" fill="#0068FF" fill-opacity="0.06"/>
<rect x="3" y="3" width="162" height="40" rx="20" fill="white"/>
<path d="M35.96 21.134V22.45H34.028V29.184H32.544V16.262H34.028V21.134H35.96ZM23.682 25.488C25.922 24.032 27.042 21.8667 27.042 18.992V17.088H28.512V18.992C28.512 20.42 28.7827 21.6427 29.324 22.66C29.8747 23.668 30.738 24.536 31.914 25.264L31.046 26.258C30.6913 26.034 30.3413 25.7727 29.996 25.474C29.66 25.1753 29.3473 24.858 29.058 24.522C28.7687 24.1767 28.512 23.8267 28.288 23.472C28.0733 23.108 27.91 22.7533 27.798 22.408C27.6953 22.744 27.5367 23.0987 27.322 23.472C27.1167 23.8453 26.874 24.214 26.594 24.578C26.314 24.9327 26.0013 25.2733 25.656 25.6C25.3107 25.9267 24.9513 26.2113 24.578 26.454L23.682 25.488ZM40.5015 17.13C41.0148 17.13 41.4815 17.242 41.9015 17.466C42.3308 17.6807 42.6948 17.9887 42.9935 18.39C43.2921 18.782 43.5208 19.2627 43.6795 19.832C43.8475 20.392 43.9315 21.022 43.9315 21.722C43.9315 22.4033 43.8475 23.0287 43.6795 23.598C43.5208 24.158 43.2921 24.6387 42.9935 25.04C42.6948 25.4413 42.3308 25.754 41.9015 25.978C41.4815 26.1927 41.0148 26.3 40.5015 26.3C39.9695 26.3 39.4888 26.1927 39.0595 25.978C38.6395 25.754 38.2755 25.4413 37.9675 25.04C37.6688 24.6387 37.4401 24.158 37.2815 23.598C37.1228 23.0287 37.0435 22.4033 37.0435 21.722C37.0435 21.022 37.1228 20.392 37.2815 19.832C37.4401 19.2627 37.6688 18.782 37.9675 18.39C38.2755 17.9887 38.6395 17.6807 39.0595 17.466C39.4888 17.242 39.9695 17.13 40.5015 17.13ZM40.5015 18.446C39.9321 18.446 39.4655 18.726 39.1015 19.286C38.7375 19.8367 38.5555 20.6487 38.5555 21.722C38.5555 22.7767 38.7375 23.584 39.1015 24.144C39.4655 24.704 39.9321 24.984 40.5015 24.984C41.0615 24.984 41.5235 24.704 41.8875 24.144C42.2515 23.584 42.4335 22.7767 42.4335 21.722C42.4335 20.6487 42.2515 19.8367 41.8875 19.286C41.5235 18.726 41.0615 18.446 40.5015 18.446ZM45.7375 16.262H47.2355V29.184H45.7375V16.262ZM49.8589 17.256H51.3429V20.294H54.4789V17.172H55.9209V20.952H58.4409V16.262H59.9249V29.184H58.4409V22.282H55.9209V26.048H49.8589V17.256ZM51.3429 21.596V24.732H54.4789V21.596H51.3429ZM73.7764 21.134V22.45H71.8444V29.184H70.3604V16.262H71.8444V21.134H73.7764ZM61.4984 25.488C63.7384 24.032 64.8584 21.8667 64.8584 18.992V17.088H66.3284V18.992C66.3284 20.42 66.5991 21.6427 67.1404 22.66C67.6911 23.668 68.5544 24.536 69.7304 25.264L68.8624 26.258C68.5077 26.034 68.1577 25.7727 67.8124 25.474C67.4764 25.1753 67.1637 24.858 66.8744 24.522C66.5851 24.1767 66.3284 23.8267 66.1044 23.472C65.8897 23.108 65.7264 22.7533 65.6144 22.408C65.5117 22.744 65.3531 23.0987 65.1384 23.472C64.9331 23.8453 64.6904 24.214 64.4104 24.578C64.1304 24.9327 63.8177 25.2733 63.4724 25.6C63.1271 25.9267 62.7677 26.2113 62.3944 26.454L61.4984 25.488ZM82.5319 24.452C82.6345 23.9667 82.7185 23.4673 82.7839 22.954C82.8585 22.4313 82.9192 21.9227 82.9659 21.428C83.0125 20.9333 83.0452 20.4573 83.0639 20C83.0825 19.5333 83.0919 19.104 83.0919 18.712H75.7839V17.438H84.6039C84.6039 18.698 84.5525 19.9393 84.4499 21.162C84.3565 22.3847 84.1979 23.5467 83.9739 24.648L82.5319 24.452ZM74.2579 26.02H78.5559V21.96H80.0679V26.02H86.1859V27.308H74.2579V26.02ZM92.9781 23.99H94.4761V25.334H99.9081V23.92H101.392V29.128H92.9781V23.99ZM97.7801 23.332C97.4161 23.2013 97.0661 23.0427 96.7301 22.856C96.4034 22.6693 96.1001 22.464 95.8201 22.24C95.5401 22.016 95.2927 21.7733 95.0781 21.512C94.8727 21.2507 94.7094 20.9847 94.5881 20.714C94.4667 20.9847 94.3034 21.26 94.0981 21.54C93.8927 21.8107 93.6547 22.072 93.3841 22.324C93.1227 22.576 92.8334 22.8093 92.5161 23.024C92.1987 23.2387 91.8627 23.43 91.5081 23.598L90.6681 22.548C91.1067 22.3613 91.5174 22.1373 91.9001 21.876C92.2921 21.6053 92.6281 21.302 92.9081 20.966C93.1974 20.6207 93.4261 20.238 93.5941 19.818C93.7621 19.3887 93.8461 18.922 93.8461 18.418V18.18H91.2001V16.906H98.0041V18.18H95.3301V18.418C95.3301 18.9127 95.4094 19.3653 95.5681 19.776C95.7267 20.1773 95.9461 20.5367 96.2261 20.854C96.5061 21.1713 96.8374 21.4467 97.2201 21.68C97.6121 21.9133 98.0414 22.114 98.5081 22.282L97.7801 23.332ZM99.8941 20.49H97.2761V19.16H99.8941V16.276H101.392V23.374H99.8941V20.49ZM94.4761 26.538V27.91H99.9081V26.538H94.4761ZM109.798 29.254H108.314V24.648H103.106V23.346H115.034V24.648H109.798V29.254ZM113.788 22.282C113.293 22.198 112.803 22.0533 112.318 21.848C111.832 21.6427 111.38 21.4 110.96 21.12C110.54 20.84 110.162 20.5367 109.826 20.21C109.499 19.8833 109.242 19.552 109.056 19.216C108.869 19.5427 108.608 19.874 108.272 20.21C107.945 20.546 107.572 20.854 107.152 21.134C106.732 21.414 106.279 21.6567 105.794 21.862C105.318 22.0673 104.828 22.2073 104.324 22.282L103.61 21.05C104.226 20.9847 104.814 20.826 105.374 20.574C105.943 20.322 106.442 20.0187 106.872 19.664C107.301 19.3 107.642 18.9033 107.894 18.474C108.155 18.0353 108.286 17.6013 108.286 17.172V16.612H109.826V17.172C109.826 17.6013 109.956 18.0353 110.218 18.474C110.479 18.9033 110.824 19.3 111.254 19.664C111.692 20.0187 112.192 20.322 112.752 20.574C113.312 20.826 113.89 20.9847 114.488 21.05L113.788 22.282ZM123.38 20.098C123.828 20.098 124.238 20.1587 124.612 20.28C124.994 20.392 125.321 20.5553 125.592 20.77C125.872 20.9753 126.086 21.2227 126.236 21.512C126.385 21.8013 126.46 22.1187 126.46 22.464C126.46 22.8093 126.385 23.1313 126.236 23.43C126.086 23.7193 125.876 23.9713 125.606 24.186C125.335 24.3913 125.013 24.5547 124.64 24.676C124.266 24.7973 123.851 24.858 123.394 24.858C122.927 24.858 122.498 24.7973 122.106 24.676C121.723 24.5547 121.392 24.3913 121.112 24.186C120.841 23.9713 120.631 23.7193 120.482 23.43C120.332 23.1313 120.258 22.8093 120.258 22.464C120.258 22.1187 120.332 21.8013 120.482 21.512C120.631 21.2227 120.841 20.9753 121.112 20.77C121.392 20.5553 121.723 20.392 122.106 20.28C122.488 20.1587 122.913 20.098 123.38 20.098ZM128.77 16.262H130.254V25.908H128.77V23.948H126.852V22.758H128.77V21.344H126.838V20.14H128.77V16.262ZM121.896 25.53H123.38V27.756H130.548V29.002H121.896V25.53ZM119.698 18.418H127.062V19.622H119.698V18.418ZM123.38 21.302C122.838 21.302 122.418 21.4187 122.12 21.652C121.83 21.876 121.686 22.1467 121.686 22.464C121.686 22.7907 121.83 23.0707 122.12 23.304C122.418 23.528 122.838 23.64 123.38 23.64C123.884 23.64 124.285 23.528 124.584 23.304C124.882 23.0707 125.032 22.7907 125.032 22.464C125.032 22.1467 124.882 21.876 124.584 21.652C124.285 21.4187 123.884 21.302 123.38 21.302ZM121.392 16.5H125.41V17.704H121.392V16.5ZM138.029 25.11C139.513 25.11 140.601 25.3013 141.291 25.684C141.982 26.0573 142.327 26.5567 142.327 27.182C142.327 27.8167 141.982 28.3207 141.291 28.694C140.601 29.0673 139.513 29.254 138.029 29.254C136.555 29.254 135.472 29.0673 134.781 28.694C134.1 28.33 133.759 27.826 133.759 27.182C133.759 26.5473 134.1 26.0433 134.781 25.67C135.472 25.2967 136.555 25.11 138.029 25.11ZM136.013 19.216C136.947 19.216 137.684 19.384 138.225 19.72C138.767 20.0467 139.037 20.49 139.037 21.05C139.037 21.526 138.832 21.9227 138.421 22.24C138.02 22.5573 137.469 22.7627 136.769 22.856V23.528C137.871 23.472 138.986 23.388 140.115 23.276L140.199 24.284C139.677 24.3587 139.056 24.424 138.337 24.48C137.619 24.536 136.886 24.5873 136.139 24.634C135.393 24.6807 134.669 24.718 133.969 24.746C133.269 24.7647 132.681 24.774 132.205 24.774L132.023 23.64C132.574 23.64 133.12 23.6353 133.661 23.626C134.203 23.6167 134.749 23.6027 135.299 23.584V22.856C134.571 22.772 134.002 22.5713 133.591 22.254C133.19 21.9273 132.989 21.526 132.989 21.05C132.989 20.49 133.255 20.0467 133.787 19.72C134.319 19.384 135.061 19.216 136.013 19.216ZM142.159 24.942H140.689V16.262H142.159V20.35H144.077V21.68H142.159V24.942ZM138.029 26.202C137.507 26.202 137.068 26.23 136.713 26.286C136.359 26.3327 136.069 26.4027 135.845 26.496C135.621 26.5893 135.458 26.6967 135.355 26.818C135.262 26.93 135.215 27.0467 135.215 27.168C135.215 27.308 135.262 27.434 135.355 27.546C135.458 27.6673 135.621 27.77 135.845 27.854C136.069 27.938 136.359 28.0033 136.713 28.05C137.068 28.106 137.507 28.134 138.029 28.134C138.552 28.134 138.991 28.106 139.345 28.05C139.709 28.0033 140.003 27.938 140.227 27.854C140.451 27.77 140.61 27.6673 140.703 27.546C140.806 27.434 140.857 27.308 140.857 27.168C140.857 27.0467 140.806 26.93 140.703 26.818C140.61 26.6967 140.451 26.5893 140.227 26.496C140.003 26.4027 139.709 26.3327 139.345 26.286C138.991 26.23 138.552 26.202 138.029 26.202ZM132.275 17.83H139.709V18.894H132.275V17.83ZM136.013 20.238C135.528 20.238 135.136 20.3127 134.837 20.462C134.539 20.602 134.389 20.798 134.389 21.05C134.389 21.3113 134.539 21.5167 134.837 21.666C135.136 21.806 135.528 21.876 136.013 21.876C136.499 21.876 136.891 21.806 137.189 21.666C137.488 21.5167 137.637 21.3067 137.637 21.036C137.637 20.784 137.488 20.588 137.189 20.448C136.891 20.308 136.499 20.238 136.013 20.238ZM134.235 16.248H137.763V17.34H134.235V16.248Z" fill="#0068FF"/>
<path d="M232.988 21.358V22.422H231.014V29.184H229.796V16.262H231.014V21.358H232.988ZM220.654 25.572C221.765 24.8533 222.633 23.9527 223.258 22.87C223.893 21.778 224.21 20.5227 224.21 19.104V17.13H225.456V19.104C225.456 20.4107 225.741 21.6007 226.31 22.674C226.879 23.7473 227.761 24.6573 228.956 25.404L228.116 26.202C227.733 25.9407 227.369 25.656 227.024 25.348C226.688 25.04 226.375 24.7133 226.086 24.368C225.806 24.0133 225.559 23.6493 225.344 23.276C225.129 22.9027 224.961 22.5247 224.84 22.142C224.597 22.926 224.182 23.682 223.594 24.41C223.006 25.138 222.315 25.7867 221.522 26.356L220.654 25.572ZM234.995 17.48H243.703C243.694 17.9933 243.671 18.5673 243.633 19.202C243.605 19.8273 243.563 20.462 243.507 21.106C243.451 21.7407 243.381 22.3613 243.297 22.968C243.223 23.5653 243.139 24.0973 243.045 24.564L241.897 24.354C241.972 23.9807 242.042 23.5513 242.107 23.066C242.173 22.5807 242.233 22.0767 242.289 21.554C242.345 21.0313 242.387 20.5133 242.415 20C242.453 19.4773 242.476 18.992 242.485 18.544H234.995V17.48ZM233.399 26.23H237.921V21.862H239.153V26.23H245.411V27.294H233.399V26.23ZM255.539 16.262H256.757V29.184H255.539V16.262ZM250.121 17.172C250.672 17.172 251.152 17.2887 251.563 17.522C251.974 17.746 252.314 18.0587 252.585 18.46C252.856 18.8613 253.056 19.3373 253.187 19.888C253.327 20.4387 253.397 21.0313 253.397 21.666C253.397 22.3007 253.327 22.8933 253.187 23.444C253.056 23.9853 252.856 24.4567 252.585 24.858C252.314 25.25 251.974 25.5627 251.563 25.796C251.152 26.02 250.672 26.132 250.121 26.132C249.57 26.132 249.09 26.02 248.679 25.796C248.268 25.5627 247.928 25.25 247.657 24.858C247.386 24.4567 247.181 23.9853 247.041 23.444C246.901 22.8933 246.831 22.3007 246.831 21.666C246.831 21.0313 246.896 20.4387 247.027 19.888C247.167 19.3373 247.372 18.8613 247.643 18.46C247.923 18.0587 248.268 17.746 248.679 17.522C249.09 17.2887 249.57 17.172 250.121 17.172ZM250.121 18.222C249.468 18.222 248.954 18.5253 248.581 19.132C248.217 19.7293 248.035 20.574 248.035 21.666C248.035 22.7393 248.217 23.5793 248.581 24.186C248.954 24.7833 249.468 25.082 250.121 25.082C250.784 25.082 251.297 24.7833 251.661 24.186C252.034 23.5793 252.221 22.7393 252.221 21.666C252.221 20.574 252.034 19.7293 251.661 19.132C251.297 18.5253 250.784 18.222 250.121 18.222ZM268.158 22.016H265.876V21.022H268.158V19.146H265.876V18.152H268.158V16.262H269.362V24.27H268.158V22.016ZM259.45 19.692H263.762V17.984H259.45V16.948H264.952V20.7H260.654V22.674C260.99 22.674 261.387 22.6647 261.844 22.646C262.311 22.6273 262.787 22.6087 263.272 22.59C263.758 22.5713 264.224 22.548 264.672 22.52C265.13 22.492 265.522 22.464 265.848 22.436C265.867 22.604 265.881 22.772 265.89 22.94C265.909 23.108 265.928 23.276 265.946 23.444C265.536 23.4907 265.06 23.5327 264.518 23.57C263.977 23.598 263.412 23.6213 262.824 23.64C262.246 23.6587 261.662 23.6773 261.074 23.696C260.496 23.7053 259.954 23.71 259.45 23.71V19.692ZM268.158 25.936H260.878V24.886H269.362V29.254H268.158V25.936Z" fill="#666666"/>
</svg>
