<svg width="330" height="56" viewBox="0 0 330 56" fill="none" xmlns="http://www.w3.org/2000/svg">
<mask id="path-1-inside-1_337_2297" fill="white">
<path d="M0 0H330V56H0V0Z"/>
</mask>
<path d="M0 0H330V56H0V0Z" fill="white"/>
<path d="M330 56V55H0V56V57H330V56Z" fill="#E4E4E4" mask="url(#path-1-inside-1_337_2297)"/>
<path d="M203.721 31.524H217.417V32.724H203.721V31.524ZM205.657 21.172H207.033V23.78H214.089V21.092H215.465V28.788H205.657V21.172ZM207.033 24.996V27.556H214.089V24.996H207.033ZM219.263 24.452H227.711V22.404H219.263V21.204H229.087V25.62H220.639V27.844H229.311V29.028H224.847V31.636H231.039V32.852H217.311V31.636H223.471V29.028H219.263V24.452ZM231.397 31.332C232.549 30.6067 233.531 29.8333 234.341 29.012C235.163 28.1907 235.829 27.284 236.341 26.292L231.845 26.676L231.541 25.412L236.853 25.172C237.003 24.7667 237.131 24.3507 237.237 23.924C237.355 23.4867 237.445 23.028 237.509 22.548H231.941V21.364H238.949C238.864 22.6867 238.645 23.8867 238.293 24.964C237.941 26.0307 237.477 27.012 236.901 27.908C236.325 28.7933 235.648 29.5987 234.869 30.324C234.101 31.0387 233.253 31.7053 232.325 32.324L231.397 31.332ZM241.813 27.124H238.693V25.908H241.813V20.228H243.205V34.996H241.813V27.124ZM250.524 20.804L245.852 34.564H244.492L249.164 20.804H250.524ZM251.453 21.54H256.973V22.772H252.829V30.052C253.159 30.052 253.543 30.0413 253.981 30.02C254.429 29.9987 254.882 29.9773 255.341 29.956C255.799 29.9347 256.237 29.908 256.653 29.876C257.079 29.844 257.437 29.812 257.725 29.78L257.869 30.98C257.527 31.0227 257.085 31.0653 256.541 31.108C256.007 31.1507 255.437 31.188 254.829 31.22C254.231 31.252 253.634 31.2787 253.037 31.3C252.439 31.3213 251.911 31.332 251.453 31.332V21.54ZM261.805 27.172H259.949V34.676H258.621V20.452H259.949V25.956H261.805V20.228H263.117V35.076H261.805V27.172ZM274.851 20.228H276.243V34.996H274.851V20.228ZM265.203 25.636H270.739V22.66H265.235V21.444H272.099V26.836H266.595V30.356C267.064 30.356 267.603 30.3453 268.211 30.324C268.829 30.3027 269.459 30.276 270.099 30.244C270.749 30.2013 271.389 30.1533 272.019 30.1C272.659 30.0467 273.24 29.988 273.763 29.924L273.891 31.092C273.304 31.1773 272.659 31.2467 271.955 31.3C271.251 31.3533 270.52 31.4013 269.763 31.444C269.016 31.4867 268.253 31.5187 267.475 31.54C266.696 31.5507 265.939 31.556 265.203 31.556V25.636ZM288.473 24.964H285.609V23.796H288.473V20.228H289.849V28.916H288.473V24.964ZM280.329 29.572H289.849V34.884H280.329V29.572ZM281.705 30.772V33.7H288.473V30.772H281.705ZM285.913 28.292C285.593 28.1533 285.252 27.9667 284.889 27.732C284.537 27.4867 284.196 27.22 283.865 26.932C283.534 26.6333 283.236 26.324 282.969 26.004C282.713 25.6733 282.516 25.3587 282.377 25.06C282.238 25.3587 282.041 25.6733 281.785 26.004C281.54 26.3347 281.257 26.6547 280.937 26.964C280.617 27.2733 280.265 27.5667 279.881 27.844C279.508 28.1107 279.124 28.3347 278.729 28.516L277.865 27.508C278.398 27.3053 278.894 27.0387 279.353 26.708C279.812 26.3773 280.212 26.0093 280.553 25.604C280.894 25.188 281.161 24.7453 281.353 24.276C281.556 23.8067 281.657 23.3267 281.657 22.836V22.148H278.489V20.964H286.249V22.148H283.081V22.836C283.081 23.348 283.177 23.828 283.369 24.276C283.572 24.724 283.838 25.14 284.169 25.524C284.51 25.8973 284.9 26.2333 285.337 26.532C285.785 26.8307 286.254 27.0813 286.745 27.284L285.913 28.292Z" fill="#444444"/>
<mask id="path-5-inside-2_337_2297" fill="white">
<path d="M0 0H165V56H0V0Z"/>
</mask>
<path d="M0 0H165V56H0V0Z" fill="white"/>
<path d="M165 56V54H0V56V58H165V56Z" fill="#2C67F6" mask="url(#path-5-inside-2_337_2297)"/>
<path d="M58.8844 20.228H60.9164V34.996H58.8844V20.228ZM49.4764 21.492H56.5644C56.511 22.7933 56.3137 23.9933 55.9724 25.092C55.631 26.18 55.1724 27.172 54.5964 28.068C54.031 28.964 53.3697 29.7693 52.6124 30.484C51.855 31.188 51.039 31.812 50.1644 32.356L48.7404 30.868C49.5404 30.4307 50.2657 29.9347 50.9164 29.38C51.567 28.8147 52.1324 28.212 52.6124 27.572C53.103 26.9213 53.4977 26.2333 53.7964 25.508C54.1057 24.7827 54.3137 24.036 54.4204 23.268H49.4764V21.492ZM66.5546 20.66C67.0453 20.66 67.4986 20.724 67.9146 20.852C68.3413 20.98 68.7146 21.1613 69.0346 21.396C69.3653 21.6307 69.6426 21.908 69.8666 22.228C70.0906 22.5373 70.256 22.884 70.3626 23.268H72.6826V20.228H74.6826V28.068H72.6826V25.06H70.3946C70.2986 25.4547 70.1386 25.8173 69.9146 26.148C69.6906 26.4787 69.4133 26.7667 69.0826 27.012C68.7626 27.2467 68.3893 27.4333 67.9626 27.572C67.536 27.7107 67.0666 27.78 66.5546 27.78C65.9786 27.78 65.4506 27.6893 64.9706 27.508C64.4906 27.316 64.08 27.06 63.7386 26.74C63.3973 26.42 63.1306 26.0467 62.9386 25.62C62.7466 25.1827 62.6506 24.7187 62.6506 24.228C62.6506 23.7267 62.7466 23.2573 62.9386 22.82C63.1306 22.3827 63.3973 22.004 63.7386 21.684C64.08 21.364 64.4906 21.1133 64.9706 20.932C65.4506 20.7507 65.9786 20.66 66.5546 20.66ZM64.8746 28.82H66.8906V30.372H72.6666V28.82H74.6826V34.964H64.8746V28.82ZM66.5546 22.388C66.0106 22.388 65.568 22.564 65.2266 22.916C64.896 23.2573 64.7306 23.6947 64.7306 24.228C64.7306 24.74 64.896 25.172 65.2266 25.524C65.568 25.8653 66.0106 26.036 66.5546 26.036C66.832 26.036 67.0826 25.988 67.3066 25.892C67.5413 25.796 67.7386 25.668 67.8986 25.508C68.0693 25.348 68.1973 25.1613 68.2826 24.948C68.3786 24.724 68.4266 24.484 68.4266 24.228C68.4266 23.6947 68.2506 23.2573 67.8986 22.916C67.5573 22.564 67.1093 22.388 66.5546 22.388ZM66.8906 31.988V33.332H72.6666V31.988H66.8906ZM77.9369 29.396H87.3769V34.98H77.9369V29.396ZM79.9049 31.108V33.268H85.3929V31.108H79.9049ZM87.3929 28.708H85.3769V20.228H87.3929V23.7H89.5369V25.476H87.3929V28.708ZM84.5609 27.7C84.1235 27.7533 83.5742 27.8067 82.9129 27.86C82.2515 27.9027 81.5475 27.9507 80.8009 28.004C80.0542 28.0467 79.2969 28.084 78.5289 28.116C77.7609 28.1373 77.0409 28.148 76.3689 28.148V20.9H83.3449V22.628H78.3849V26.356C78.8115 26.356 79.2809 26.3507 79.7929 26.34C80.3049 26.3187 80.8275 26.2973 81.3609 26.276C81.9049 26.244 82.4382 26.212 82.9609 26.18C83.4942 26.1373 83.9849 26.0893 84.4329 26.036L84.5609 27.7ZM98.1671 27.556C97.7298 27.6093 97.1858 27.6627 96.5351 27.716C95.8951 27.7587 95.2071 27.8067 94.4711 27.86C93.7351 27.9027 92.9778 27.94 92.1991 27.972C91.4205 27.9933 90.6791 28.004 89.9751 28.004V20.98H96.9511V22.708H91.9911V26.212C92.4178 26.212 92.8871 26.2067 93.3991 26.196C93.9218 26.1747 94.4498 26.1533 94.9831 26.132C95.5271 26.1 96.0605 26.068 96.5831 26.036C97.1165 25.9933 97.6071 25.9453 98.0551 25.892L98.1671 27.556ZM100.983 28.804H98.9671V20.228H100.983V23.7H103.143V25.46H100.983V28.804ZM96.2951 29.06C97.1271 29.06 97.8471 29.14 98.4551 29.3C99.0631 29.4493 99.5645 29.6627 99.9591 29.94C100.354 30.2067 100.647 30.5267 100.839 30.9C101.031 31.2733 101.127 31.6733 101.127 32.1C101.127 32.5373 101.031 32.9373 100.839 33.3C100.647 33.6627 100.354 33.9773 99.9591 34.244C99.5645 34.5213 99.0631 34.7347 98.4551 34.884C97.8471 35.0333 97.1271 35.108 96.2951 35.108C95.4631 35.108 94.7431 35.0333 94.1351 34.884C93.5271 34.7347 93.0258 34.5213 92.6311 34.244C92.2365 33.9773 91.9431 33.6627 91.7511 33.3C91.5591 32.9373 91.4631 32.5373 91.4631 32.1C91.4631 31.6733 91.5591 31.2733 91.7511 30.9C91.9431 30.5267 92.2365 30.2067 92.6311 29.94C93.0258 29.6627 93.5271 29.4493 94.1351 29.3C94.7431 29.14 95.4631 29.06 96.2951 29.06ZM96.2951 30.756C95.7831 30.756 95.3511 30.7933 94.9991 30.868C94.6471 30.932 94.3591 31.028 94.1351 31.156C93.9111 31.2733 93.7458 31.4173 93.6391 31.588C93.5431 31.748 93.4951 31.9187 93.4951 32.1C93.4951 32.4627 93.7085 32.772 94.1351 33.028C94.5618 33.284 95.2818 33.412 96.2951 33.412C96.8071 33.412 97.2391 33.3747 97.5911 33.3C97.9431 33.236 98.2311 33.1453 98.4551 33.028C98.6791 32.9107 98.8391 32.772 98.9351 32.612C99.0311 32.452 99.0791 32.2813 99.0791 32.1C99.0791 31.9187 99.0311 31.748 98.9351 31.588C98.8391 31.4173 98.6791 31.2733 98.4551 31.156C98.2311 31.028 97.9431 30.932 97.5911 30.868C97.2391 30.7933 96.8071 30.756 96.2951 30.756ZM102.765 30.644C103.448 30.2387 104.024 29.796 104.493 29.316C104.963 28.8253 105.341 28.292 105.629 27.716C105.917 27.14 106.12 26.5107 106.237 25.828C106.365 25.1453 106.429 24.3987 106.429 23.588V23.204H103.485V21.46H111.453V23.204H108.509V23.588C108.509 24.3987 108.568 25.1347 108.685 25.796C108.813 26.4573 109.016 27.06 109.293 27.604C109.581 28.148 109.955 28.6493 110.413 29.108C110.883 29.556 111.464 29.9827 112.157 30.388L110.957 31.828C110.563 31.604 110.179 31.332 109.805 31.012C109.443 30.692 109.107 30.356 108.797 30.004C108.488 29.652 108.216 29.3 107.981 28.948C107.757 28.596 107.597 28.276 107.501 27.988C107.395 28.276 107.229 28.6067 107.005 28.98C106.792 29.3427 106.531 29.7107 106.221 30.084C105.923 30.4467 105.587 30.804 105.213 31.156C104.84 31.4973 104.456 31.7853 104.061 32.02L102.765 30.644ZM114.605 34.996H112.573V20.228H114.605V25.668H116.797V27.46H114.605V34.996Z" fill="#2C67F6"/>
</svg>
