<svg width="330" height="50" viewBox="0 0 330 50" fill="none" xmlns="http://www.w3.org/2000/svg">
<rect width="330" height="50" rx="15" fill="#F8F8F8"/>
<path d="M25.2363 23.671H23.8583V29.755H22.7923V18.211H23.8583V22.683H25.2363V18.029H26.3023V30.08H25.2363V23.671ZM21.5053 27.207C21.2626 26.999 21.0243 26.7607 20.7903 26.492C20.5563 26.2233 20.3396 25.946 20.1403 25.66C19.9409 25.3653 19.7589 25.0663 19.5943 24.763C19.4383 24.4597 19.3126 24.165 19.2173 23.879C19.1133 24.1737 18.9789 24.477 18.8143 24.789C18.6583 25.0923 18.4763 25.4 18.2683 25.712C18.0603 26.0153 17.8306 26.31 17.5793 26.596C17.3366 26.8733 17.0809 27.1333 16.8123 27.376L15.9933 26.622C16.8339 25.946 17.4883 25.14 17.9563 24.204C18.4243 23.268 18.6583 22.1977 18.6583 20.993V20.096H16.6823V19.095H21.7523V20.096H19.7633V21.006C19.7633 22.1153 19.9626 23.125 20.3613 24.035C20.7599 24.9363 21.4013 25.7423 22.2853 26.453L21.5053 27.207ZM36.4994 21.877H34.1464V20.928H36.4994V18.029H37.6174V25.283H36.4994V21.877ZM34.4194 24.633C34.1594 24.5203 33.882 24.3687 33.5874 24.178C33.3014 23.9787 33.024 23.762 32.7554 23.528C32.4867 23.2853 32.244 23.034 32.0274 22.774C31.8194 22.5053 31.659 22.2497 31.5464 22.007C31.4337 22.2497 31.2734 22.5053 31.0654 22.774C30.866 23.0427 30.6364 23.3027 30.3764 23.554C30.1164 23.8053 29.8304 24.0437 29.5184 24.269C29.215 24.4857 28.903 24.6677 28.5824 24.815L27.8804 23.996C28.3137 23.8313 28.7167 23.6147 29.0894 23.346C29.462 23.0773 29.787 22.7783 30.0644 22.449C30.3417 22.111 30.5584 21.7513 30.7144 21.37C30.879 20.9887 30.9614 20.5987 30.9614 20.2V19.641H28.3874V18.679H34.6924V19.641H32.1184V20.2C32.1184 20.616 32.1964 21.006 32.3524 21.37C32.517 21.734 32.7337 22.072 33.0024 22.384C33.2797 22.6873 33.596 22.9603 33.9514 23.203C34.3154 23.4457 34.6967 23.6493 35.0954 23.814L34.4194 24.633ZM33.7044 25.374C34.311 25.374 34.8614 25.426 35.3554 25.53C35.8494 25.6253 36.2697 25.7727 36.6164 25.972C36.9717 26.1627 37.2447 26.4053 37.4354 26.7C37.626 26.9947 37.7214 27.3327 37.7214 27.714C37.7214 28.104 37.626 28.4463 37.4354 28.741C37.2447 29.0357 36.9717 29.2783 36.6164 29.469C36.2697 29.6683 35.8494 29.8157 35.3554 29.911C34.8614 30.015 34.311 30.067 33.7044 30.067C33.0977 30.067 32.5474 30.015 32.0534 29.911C31.568 29.8157 31.1477 29.6683 30.7924 29.469C30.4457 29.2783 30.177 29.0357 29.9864 28.741C29.7957 28.4463 29.7004 28.104 29.7004 27.714C29.7004 27.3327 29.7957 26.9947 29.9864 26.7C30.177 26.4053 30.4457 26.1627 30.7924 25.972C31.1477 25.7727 31.568 25.6253 32.0534 25.53C32.5474 25.426 33.0977 25.374 33.7044 25.374ZM33.7174 26.323C32.7987 26.323 32.0837 26.453 31.5724 26.713C31.0697 26.973 30.8184 27.3067 30.8184 27.714C30.8184 28.1213 31.0697 28.455 31.5724 28.715C32.0837 28.9837 32.7987 29.118 33.7174 29.118C34.6274 29.118 35.3337 28.9837 35.8364 28.715C36.339 28.455 36.5904 28.1213 36.5904 27.714C36.5904 27.3067 36.339 26.973 35.8364 26.713C35.3337 26.453 34.6274 26.323 33.7174 26.323ZM48.2044 21.968H45.8644V20.993H48.2044V18.029H49.3224V25.192H48.2044V21.968ZM48.2044 26.739H41.4574V25.764H49.3224V30.093H48.2044V26.739ZM46.0724 24.672C45.8124 24.568 45.5394 24.4163 45.2534 24.217C44.9674 24.009 44.6944 23.7837 44.4344 23.541C44.1744 23.2897 43.9404 23.034 43.7324 22.774C43.5244 22.5053 43.3641 22.2497 43.2514 22.007C43.1388 22.2497 42.9828 22.5053 42.7834 22.774C42.5928 23.0427 42.3674 23.307 42.1074 23.567C41.8561 23.8183 41.5788 24.0567 41.2754 24.282C40.9721 24.4987 40.6601 24.685 40.3394 24.841L39.5854 23.983C40.0188 23.8183 40.4218 23.5973 40.7944 23.32C41.1671 23.0427 41.4921 22.735 41.7694 22.397C42.0468 22.059 42.2634 21.695 42.4194 21.305C42.5841 20.915 42.6664 20.5207 42.6664 20.122V19.667H40.0924V18.705H46.3974V19.667H43.8234V20.122C43.8234 20.538 43.9014 20.9367 44.0574 21.318C44.2221 21.6907 44.4388 22.0373 44.7074 22.358C44.9848 22.6787 45.3011 22.9647 45.6564 23.216C46.0204 23.4673 46.4018 23.6753 46.8004 23.84L46.0724 24.672ZM60.5435 30.106H59.4255V26.063H54.4205V25.088H65.5745V26.063H60.5435V30.106ZM57.9175 18.211H62.0645V19.147H57.9175V18.211ZM64.3395 24.256C63.9061 24.178 63.4728 24.061 63.0395 23.905C62.6061 23.749 62.1945 23.567 61.8045 23.359C61.4145 23.1423 61.0635 22.9083 60.7515 22.657C60.4395 22.4057 60.1881 22.1457 59.9975 21.877C59.8155 22.1457 59.5685 22.4057 59.2565 22.657C58.9445 22.9083 58.5935 23.1423 58.2035 23.359C57.8135 23.567 57.3975 23.7533 56.9555 23.918C56.5221 24.074 56.0845 24.191 55.6425 24.269L55.0965 23.333C55.5558 23.2723 56.0151 23.1683 56.4745 23.021C56.9338 22.8737 57.3541 22.696 57.7355 22.488C58.1255 22.28 58.4548 22.0503 58.7235 21.799C59.0008 21.539 59.1828 21.2703 59.2695 20.993H55.7855V20.031H64.2095V20.993H60.7125C60.8078 21.2703 60.9941 21.539 61.2715 21.799C61.5575 22.0503 61.8911 22.28 62.2725 22.488C62.6625 22.696 63.0828 22.8737 63.5335 23.021C63.9928 23.1683 64.4435 23.268 64.8855 23.32L64.3395 24.256ZM74.9915 21.877H72.6385V20.928H74.9915V18.029H76.1095V25.283H74.9915V21.877ZM72.9115 24.633C72.6515 24.5203 72.3742 24.3687 72.0795 24.178C71.7935 23.9787 71.5162 23.762 71.2475 23.528C70.9789 23.2853 70.7362 23.034 70.5195 22.774C70.3115 22.5053 70.1512 22.2497 70.0385 22.007C69.9259 22.2497 69.7655 22.5053 69.5575 22.774C69.3582 23.0427 69.1285 23.3027 68.8685 23.554C68.6085 23.8053 68.3225 24.0437 68.0105 24.269C67.7072 24.4857 67.3952 24.6677 67.0745 24.815L66.3725 23.996C66.8059 23.8313 67.2089 23.6147 67.5815 23.346C67.9542 23.0773 68.2792 22.7783 68.5565 22.449C68.8339 22.111 69.0505 21.7513 69.2065 21.37C69.3712 20.9887 69.4535 20.5987 69.4535 20.2V19.641H66.8795V18.679H73.1845V19.641H70.6105V20.2C70.6105 20.616 70.6885 21.006 70.8445 21.37C71.0092 21.734 71.2259 22.072 71.4945 22.384C71.7719 22.6873 72.0882 22.9603 72.4435 23.203C72.8075 23.4457 73.1889 23.6493 73.5875 23.814L72.9115 24.633ZM72.1965 25.374C72.8032 25.374 73.3535 25.426 73.8475 25.53C74.3415 25.6253 74.7619 25.7727 75.1085 25.972C75.4639 26.1627 75.7369 26.4053 75.9275 26.7C76.1182 26.9947 76.2135 27.3327 76.2135 27.714C76.2135 28.104 76.1182 28.4463 75.9275 28.741C75.7369 29.0357 75.4639 29.2783 75.1085 29.469C74.7619 29.6683 74.3415 29.8157 73.8475 29.911C73.3535 30.015 72.8032 30.067 72.1965 30.067C71.5899 30.067 71.0395 30.015 70.5455 29.911C70.0602 29.8157 69.6399 29.6683 69.2845 29.469C68.9379 29.2783 68.6692 29.0357 68.4785 28.741C68.2879 28.4463 68.1925 28.104 68.1925 27.714C68.1925 27.3327 68.2879 26.9947 68.4785 26.7C68.6692 26.4053 68.9379 26.1627 69.2845 25.972C69.6399 25.7727 70.0602 25.6253 70.5455 25.53C71.0395 25.426 71.5899 25.374 72.1965 25.374ZM72.2095 26.323C71.2909 26.323 70.5759 26.453 70.0645 26.713C69.5619 26.973 69.3105 27.3067 69.3105 27.714C69.3105 28.1213 69.5619 28.455 70.0645 28.715C70.5759 28.9837 71.2909 29.118 72.2095 29.118C73.1195 29.118 73.8259 28.9837 74.3285 28.715C74.8312 28.455 75.0825 28.1213 75.0825 27.714C75.0825 27.3067 74.8312 26.973 74.3285 26.713C73.8259 26.453 73.1195 26.323 72.2095 26.323ZM81.2076 24.334H86.1996V22.267H87.3566V24.334H92.3616V25.309H81.2076V24.334ZM82.8066 26.232H83.9376V28.884H91.0226V29.859H82.8066V26.232ZM91.2436 22.995C90.7929 22.917 90.3379 22.7913 89.8786 22.618C89.4192 22.4447 88.9859 22.2367 88.5786 21.994C88.1799 21.7513 87.8202 21.487 87.4996 21.201C87.1876 20.915 86.9492 20.629 86.7846 20.343C86.6112 20.6377 86.3642 20.928 86.0436 21.214C85.7316 21.5 85.3762 21.7643 84.9776 22.007C84.5876 22.241 84.1629 22.4447 83.7036 22.618C83.2529 22.7913 82.7979 22.9127 82.3386 22.982L81.7666 22.085C82.3732 22.0157 82.9452 21.877 83.4826 21.669C84.0199 21.4523 84.4879 21.1923 84.8866 20.889C85.2852 20.5857 85.6016 20.252 85.8356 19.888C86.0696 19.524 86.1866 19.1557 86.1866 18.783V18.354H87.3566V18.783C87.3566 19.1557 87.4779 19.524 87.7206 19.888C87.9632 20.252 88.2882 20.5857 88.6956 20.889C89.1116 21.1923 89.5839 21.4523 90.1126 21.669C90.6499 21.877 91.2089 22.0157 91.7896 22.085L91.2436 22.995ZM101.766 18.029H102.897V24.204H101.766V18.029ZM95.3046 26.83H101.766V25.725H95.3046V24.789H102.897V27.74H96.4226V29.001H103.183V29.937H95.3046V26.83ZM99.6596 23.944C99.3476 23.7793 99.0443 23.593 98.7496 23.385C98.4636 23.1683 98.1993 22.943 97.9566 22.709C97.714 22.475 97.4973 22.2367 97.3066 21.994C97.1246 21.7427 96.9816 21.5 96.8776 21.266C96.7736 21.5347 96.6263 21.8077 96.4356 22.085C96.245 22.3537 96.024 22.618 95.7726 22.878C95.5213 23.1293 95.244 23.3677 94.9406 23.593C94.6373 23.8097 94.321 24.0047 93.9916 24.178L93.2766 23.411C93.632 23.255 93.9873 23.047 94.3426 22.787C94.7066 22.5183 95.0316 22.2063 95.3176 21.851C95.6123 21.487 95.8506 21.084 96.0326 20.642C96.2146 20.1913 96.3056 19.706 96.3056 19.186V18.263H97.4366V19.186C97.4366 19.706 97.5233 20.1783 97.6966 20.603C97.87 21.019 98.0953 21.396 98.3726 21.734C98.6586 22.0633 98.975 22.3537 99.3216 22.605C99.6683 22.8477 100.015 23.047 100.362 23.203L99.6596 23.944Z" fill="#444444"/>
<rect x="120.5" y="0.5" width="109" height="49" rx="14.5" fill="white"/>
<rect x="120.5" y="0.5" width="109" height="49" rx="14.5" stroke="#0068FF"/>
<path d="M132.371 18.692H134.191V20.538H138.806V18.692H140.626V25.218H137.415V26.856H142.03V28.455H130.98V26.856H135.595V25.218H132.371V18.692ZM134.191 22.15V23.645H138.806V22.15H134.191ZM152.266 25.205H150.42V18.029H152.266V20.85H153.93V22.449H152.266V25.205ZM149.042 24.815C148.366 24.5723 147.803 24.243 147.352 23.827C146.902 23.411 146.564 22.9993 146.338 22.592C146.234 22.8087 146.091 23.0383 145.909 23.281C145.727 23.515 145.519 23.749 145.285 23.983C145.051 24.2083 144.791 24.4207 144.505 24.62C144.219 24.8107 143.92 24.9753 143.608 25.114L142.542 23.697C142.993 23.5323 143.392 23.3243 143.738 23.073C144.085 22.813 144.38 22.527 144.622 22.215C144.865 21.903 145.051 21.578 145.181 21.24C145.311 20.8933 145.385 20.5467 145.402 20.2H143.101V18.653H149.601V20.213H147.3C147.309 20.551 147.365 20.8847 147.469 21.214C147.573 21.5347 147.734 21.838 147.95 22.124C148.176 22.4013 148.457 22.6527 148.795 22.878C149.142 23.1033 149.558 23.2853 150.043 23.424L149.042 24.815ZM148.353 25.205C149.073 25.205 149.688 25.2743 150.199 25.413C150.711 25.543 151.127 25.725 151.447 25.959C151.768 26.1843 152.002 26.4487 152.149 26.752C152.297 27.0553 152.37 27.376 152.37 27.714C152.37 28.0433 152.297 28.3553 152.149 28.65C152.002 28.9447 151.768 29.2047 151.447 29.43C151.127 29.6553 150.711 29.833 150.199 29.963C149.688 30.1017 149.073 30.171 148.353 30.171C147.625 30.171 147.006 30.1017 146.494 29.963C145.992 29.833 145.58 29.6553 145.259 29.43C144.947 29.2047 144.718 28.9447 144.57 28.65C144.423 28.3553 144.349 28.0433 144.349 27.714C144.349 27.376 144.423 27.0553 144.57 26.752C144.718 26.4487 144.952 26.1843 145.272 25.959C145.593 25.725 146.005 25.543 146.507 25.413C147.019 25.2743 147.634 25.205 148.353 25.205ZM148.353 26.752C147.946 26.752 147.608 26.778 147.339 26.83C147.071 26.882 146.854 26.9513 146.689 27.038C146.525 27.1247 146.408 27.2287 146.338 27.35C146.269 27.4627 146.234 27.584 146.234 27.714C146.234 27.8353 146.269 27.9523 146.338 28.065C146.408 28.1777 146.525 28.273 146.689 28.351C146.854 28.4377 147.071 28.5027 147.339 28.546C147.608 28.598 147.946 28.624 148.353 28.624C148.761 28.624 149.103 28.598 149.38 28.546C149.658 28.5027 149.879 28.4377 150.043 28.351C150.208 28.2643 150.325 28.1647 150.394 28.052C150.464 27.948 150.498 27.8353 150.498 27.714C150.498 27.584 150.464 27.4627 150.394 27.35C150.325 27.2287 150.208 27.1247 150.043 27.038C149.879 26.9513 149.658 26.882 149.38 26.83C149.103 26.778 148.761 26.752 148.353 26.752ZM166.425 30.015H164.566V26.141H162.005V30.015H160.172V26.141H157.767V24.529H168.804V26.141H166.425V30.015ZM163.292 18.354C164.02 18.354 164.653 18.4233 165.19 18.562C165.728 18.7007 166.174 18.8957 166.529 19.147C166.893 19.3897 167.162 19.6757 167.335 20.005C167.509 20.3343 167.595 20.6853 167.595 21.058C167.595 21.4393 167.509 21.7947 167.335 22.124C167.162 22.4533 166.893 22.7393 166.529 22.982C166.174 23.2247 165.728 23.4197 165.19 23.567C164.653 23.7057 164.02 23.775 163.292 23.775C162.564 23.775 161.932 23.7057 161.394 23.567C160.857 23.4197 160.411 23.2247 160.055 22.982C159.7 22.7393 159.431 22.4533 159.249 22.124C159.076 21.7947 158.989 21.4393 158.989 21.058C158.989 20.6853 159.076 20.3343 159.249 20.005C159.431 19.6757 159.7 19.3897 160.055 19.147C160.411 18.8957 160.857 18.7007 161.394 18.562C161.932 18.4233 162.564 18.354 163.292 18.354ZM163.292 19.914C162.833 19.914 162.443 19.9487 162.122 20.018C161.81 20.0787 161.559 20.1653 161.368 20.278C161.178 20.382 161.039 20.5033 160.952 20.642C160.874 20.7807 160.835 20.9193 160.835 21.058C160.835 21.2053 160.874 21.3483 160.952 21.487C161.039 21.617 161.178 21.734 161.368 21.838C161.559 21.942 161.81 22.0287 162.122 22.098C162.443 22.1587 162.833 22.189 163.292 22.189C163.752 22.189 164.137 22.1587 164.449 22.098C164.77 22.0287 165.026 21.942 165.216 21.838C165.407 21.734 165.541 21.617 165.619 21.487C165.706 21.3483 165.749 21.2053 165.749 21.058C165.749 20.902 165.706 20.7547 165.619 20.616C165.541 20.4773 165.407 20.356 165.216 20.252C165.026 20.148 164.77 20.0657 164.449 20.005C164.137 19.9443 163.752 19.914 163.292 19.914ZM177.857 24.945H176.427V23.554H177.857V22.852H176.414V21.461H177.857V18.029H179.703V25.777H177.857V24.945ZM171.513 18.016H175.023V19.407H171.513V18.016ZM169.732 19.875H176.557V21.266H169.732V19.875ZM173.164 21.63C173.606 21.63 174.005 21.682 174.36 21.786C174.716 21.8813 175.019 22.02 175.27 22.202C175.522 22.3753 175.712 22.5833 175.842 22.826C175.981 23.0687 176.05 23.333 176.05 23.619C176.05 23.9223 175.981 24.1997 175.842 24.451C175.712 24.7023 175.522 24.919 175.27 25.101C175.019 25.2743 174.716 25.413 174.36 25.517C174.005 25.6123 173.606 25.66 173.164 25.66C172.731 25.66 172.337 25.6123 171.981 25.517C171.626 25.413 171.323 25.2743 171.071 25.101C170.82 24.919 170.625 24.7023 170.486 24.451C170.356 24.1997 170.291 23.9223 170.291 23.619C170.291 23.333 170.356 23.0687 170.486 22.826C170.625 22.5833 170.82 22.3753 171.071 22.202C171.323 22.02 171.626 21.8813 171.981 21.786C172.337 21.682 172.731 21.63 173.164 21.63ZM173.164 22.904C172.774 22.904 172.484 22.982 172.293 23.138C172.103 23.2853 172.007 23.4457 172.007 23.619C172.007 23.8183 172.103 23.996 172.293 24.152C172.484 24.308 172.774 24.386 173.164 24.386C173.554 24.386 173.845 24.308 174.035 24.152C174.235 23.996 174.334 23.8183 174.334 23.619C174.334 23.437 174.235 23.2723 174.035 23.125C173.845 22.9777 173.554 22.904 173.164 22.904ZM175.751 25.829C176.445 25.829 177.043 25.8897 177.545 26.011C178.048 26.1237 178.46 26.284 178.78 26.492C179.11 26.6913 179.352 26.9253 179.508 27.194C179.664 27.454 179.742 27.727 179.742 28.013C179.742 28.3077 179.664 28.585 179.508 28.845C179.352 29.105 179.11 29.3347 178.78 29.534C178.46 29.7333 178.048 29.8893 177.545 30.002C177.043 30.1233 176.445 30.184 175.751 30.184C175.049 30.184 174.447 30.1233 173.944 30.002C173.442 29.8893 173.026 29.7333 172.696 29.534C172.376 29.3347 172.137 29.105 171.981 28.845C171.825 28.585 171.747 28.3077 171.747 28.013C171.747 27.727 171.825 27.454 171.981 27.194C172.137 26.9253 172.376 26.6913 172.696 26.492C173.026 26.284 173.442 26.1237 173.944 26.011C174.447 25.8897 175.049 25.829 175.751 25.829ZM175.751 27.298C175.353 27.298 175.015 27.3153 174.737 27.35C174.469 27.3847 174.248 27.4367 174.074 27.506C173.901 27.5667 173.775 27.6403 173.697 27.727C173.619 27.8137 173.58 27.909 173.58 28.013C173.58 28.1083 173.619 28.1993 173.697 28.286C173.775 28.3813 173.901 28.4637 174.074 28.533C174.248 28.6023 174.469 28.6543 174.737 28.689C175.015 28.7323 175.353 28.754 175.751 28.754C176.15 28.754 176.488 28.7323 176.765 28.689C177.043 28.6543 177.264 28.6023 177.428 28.533C177.602 28.4637 177.723 28.3813 177.792 28.286C177.87 28.1993 177.909 28.1083 177.909 28.013C177.909 27.805 177.749 27.636 177.428 27.506C177.116 27.3673 176.557 27.298 175.751 27.298ZM189.563 23.112H187.691V24.035H181.841V18.406H183.674V19.836H185.858V18.406H187.691V19.407H189.563V18.029H191.409V24.165H189.563V23.112ZM183.388 26.661H189.563V26.193H183.388V24.737H191.422V28.052H185.247V28.546H191.63V30.015H183.388V26.661ZM183.674 21.409V22.449H185.858V21.409H183.674ZM187.691 20.824V21.708H189.563V20.824H187.691ZM198.47 25.478H206.504V30.028H198.47V25.478ZM200.303 27.012V28.52H204.658V27.012H200.303ZM204.658 22.241H202.682V20.733H204.658V18.029H206.504V24.919H204.658V22.241ZM202.747 24.867C202.417 24.7457 202.114 24.5983 201.837 24.425C201.559 24.243 201.308 24.0523 201.083 23.853C200.866 23.645 200.671 23.4327 200.498 23.216C200.333 22.9993 200.194 22.7913 200.082 22.592C199.969 22.8 199.822 23.021 199.64 23.255C199.458 23.4803 199.25 23.7057 199.016 23.931C198.782 24.1477 198.522 24.3557 198.236 24.555C197.958 24.7457 197.664 24.9103 197.352 25.049L196.286 23.632C196.736 23.4673 197.135 23.2637 197.482 23.021C197.828 22.7697 198.123 22.4923 198.366 22.189C198.608 21.877 198.795 21.5477 198.925 21.201C199.055 20.8457 199.128 20.4773 199.146 20.096H196.845V18.549H203.358V20.109H201.044C201.052 20.4557 201.104 20.798 201.2 21.136C201.304 21.474 201.464 21.7903 201.681 22.085C201.897 22.3797 202.175 22.6483 202.513 22.891C202.851 23.125 203.262 23.3113 203.748 23.45L202.747 24.867ZM214.4 30.106H212.58V26.115H207.991V24.503H219.002V26.115H214.4V30.106ZM217.715 23.762C217.255 23.6753 216.813 23.5453 216.389 23.372C215.964 23.19 215.57 22.982 215.206 22.748C214.842 22.514 214.512 22.2627 214.218 21.994C213.923 21.7167 213.68 21.4393 213.49 21.162C213.299 21.448 213.052 21.7297 212.749 22.007C212.454 22.2843 212.12 22.54 211.748 22.774C211.384 23.008 210.989 23.2117 210.565 23.385C210.14 23.5583 209.702 23.684 209.252 23.762L208.394 22.267C208.931 22.189 209.447 22.0417 209.941 21.825C210.443 21.6083 210.885 21.344 211.267 21.032C211.657 20.72 211.964 20.3733 212.19 19.992C212.424 19.6107 212.541 19.212 212.541 18.796V18.328H214.452V18.796C214.452 19.212 214.564 19.6107 214.79 19.992C215.015 20.3733 215.314 20.72 215.687 21.032C216.068 21.344 216.506 21.6083 217 21.825C217.494 22.0417 218.014 22.189 218.56 22.267L217.715 23.762Z" fill="#0068FF"/>
<path d="M258.721 30.028H257.616V18.029H258.721V22.631H260.619V23.632H258.721V30.028ZM250.18 19.082H255.744V20.083H251.285V25.959C251.623 25.959 252.017 25.9503 252.468 25.933C252.918 25.9157 253.382 25.894 253.859 25.868C254.344 25.8333 254.816 25.7987 255.276 25.764C255.735 25.7207 256.142 25.6773 256.498 25.634L256.641 26.622C256.207 26.674 255.722 26.7217 255.185 26.765C254.656 26.8083 254.106 26.8473 253.534 26.882C252.97 26.908 252.398 26.9297 251.818 26.947C251.246 26.9643 250.7 26.973 250.18 26.973V19.082ZM262.522 19.16H270.608C270.608 19.6453 270.595 20.1913 270.569 20.798C270.543 21.4047 270.504 22.02 270.452 22.644C270.4 23.268 270.331 23.879 270.244 24.477C270.166 25.0663 270.075 25.5993 269.971 26.076L268.892 25.881C268.97 25.491 269.044 25.062 269.113 24.594C269.191 24.1173 269.256 23.632 269.308 23.138L262.444 23.489L262.21 22.41L269.399 22.228C269.425 21.8553 269.447 21.4913 269.464 21.136C269.481 20.7807 269.49 20.4513 269.49 20.148H262.522V19.16ZM272.181 27.168V28.143H261.027V27.168H272.181ZM275.176 25.998H276.281V27.012H282.001V25.933H283.106V29.924H275.176V25.998ZM276.125 18.302C276.55 18.302 276.922 18.354 277.243 18.458C277.572 18.562 277.841 18.7007 278.049 18.874C278.266 19.0473 278.426 19.251 278.53 19.485C278.643 19.7103 278.699 19.9487 278.699 20.2C278.699 20.46 278.643 20.707 278.53 20.941C278.426 21.1663 278.266 21.3657 278.049 21.539C277.841 21.7123 277.572 21.851 277.243 21.955C276.922 22.059 276.55 22.111 276.125 22.111C275.7 22.111 275.328 22.059 275.007 21.955C274.686 21.851 274.418 21.7123 274.201 21.539C273.984 21.3657 273.82 21.1663 273.707 20.941C273.603 20.707 273.551 20.46 273.551 20.2C273.551 19.9487 273.603 19.7103 273.707 19.485C273.82 19.251 273.984 19.0473 274.201 18.874C274.418 18.7007 274.686 18.562 275.007 18.458C275.328 18.354 275.7 18.302 276.125 18.302ZM279.869 24.88H277.633V24.022H279.869V18.185H280.909V25.504H279.869V24.88ZM282.053 18.029H283.106V25.543H282.053V18.029ZM279.453 23.268C278.985 23.3287 278.517 23.3807 278.049 23.424C277.59 23.4587 277.117 23.489 276.632 23.515V25.53H275.553V23.554C275.111 23.5713 274.673 23.5843 274.24 23.593C273.807 23.6017 273.373 23.606 272.94 23.606L272.784 22.722C273.876 22.7393 274.977 22.7307 276.086 22.696C277.195 22.6613 278.296 22.592 279.388 22.488L279.453 23.268ZM276.281 27.909V29.027H282.001V27.909H276.281ZM276.125 19.16C275.64 19.16 275.258 19.2597 274.981 19.459C274.712 19.6583 274.578 19.9053 274.578 20.2C274.578 20.5033 274.712 20.759 274.981 20.967C275.258 21.1663 275.64 21.266 276.125 21.266C276.61 21.266 276.992 21.1663 277.269 20.967C277.546 20.759 277.685 20.5033 277.685 20.2C277.685 19.9053 277.546 19.6583 277.269 19.459C276.992 19.2597 276.61 19.16 276.125 19.16ZM289.387 18.887H290.531V23.411H297.629V24.399H293.95V27.233H298.968V28.208H287.814V27.233H292.819V24.399H289.387V18.887ZM301.027 27.246H308.073V26.336H301.027V25.465H304.537V24.477H299.519V23.567H310.673V24.477H305.655V25.465H309.152V28.078H302.093V29.105H309.347V29.963H301.027V27.246ZM303.016 18.068H307.163V18.965H303.016V18.068ZM309.893 22.189L309.386 23.021C308.987 22.9777 308.58 22.9083 308.164 22.813C307.748 22.709 307.349 22.5833 306.968 22.436C306.587 22.2887 306.231 22.1153 305.902 21.916C305.581 21.708 305.313 21.474 305.096 21.214C304.879 21.4567 304.606 21.6777 304.277 21.877C303.956 22.0763 303.605 22.254 303.224 22.41C302.843 22.566 302.444 22.696 302.028 22.8C301.612 22.8953 301.2 22.969 300.793 23.021L300.286 22.189C300.763 22.1457 301.218 22.0763 301.651 21.981C302.093 21.877 302.492 21.7557 302.847 21.617C303.211 21.4697 303.523 21.305 303.783 21.123C304.052 20.9323 304.255 20.7243 304.394 20.499H300.832V19.628H309.347V20.499H305.798C305.928 20.7157 306.119 20.915 306.37 21.097C306.63 21.279 306.938 21.4437 307.293 21.591C307.648 21.7383 308.043 21.864 308.476 21.968C308.918 22.0633 309.386 22.137 309.88 22.189H309.893Z" fill="#444444"/>
</svg>
