<svg width="60" height="60" viewBox="0 0 60 60" fill="none" xmlns="http://www.w3.org/2000/svg">
<rect width="60" height="60" rx="30" fill="white"/>
<g filter="url(#filter0_d_776_8320)">
<path d="M29.7405 45C37.7541 45 44.2505 38.5036 44.2505 30.49C44.2505 22.4763 37.7541 15.98 29.7405 15.98C21.7268 15.98 15.2305 22.4763 15.2305 30.49C15.2305 38.5036 21.7268 45 29.7405 45Z" fill="url(#paint0_radial_776_8320)"/>
<path d="M29.7406 41.1231C35.6132 41.1231 40.3738 36.3625 40.3738 30.4899C40.3738 24.6173 35.6132 19.8567 29.7406 19.8567C23.8681 19.8567 19.1074 24.6173 19.1074 30.4899C19.1074 36.3625 23.8681 41.1231 29.7406 41.1231Z" fill="url(#paint1_linear_776_8320)"/>
<path d="M29.7404 38.0214C33.8999 38.0214 37.2719 34.6495 37.2719 30.4899C37.2719 26.3304 33.8999 22.9585 29.7404 22.9585C25.5809 22.9585 22.209 26.3304 22.209 30.4899C22.209 34.6495 25.5809 38.0214 29.7404 38.0214Z" fill="url(#paint2_linear_776_8320)"/>
<path d="M29.74 35.3267C32.4112 35.3267 34.5767 33.1612 34.5767 30.49C34.5767 27.8188 32.4112 25.6533 29.74 25.6533C27.0688 25.6533 24.9033 27.8188 24.9033 30.49C24.9033 33.1612 27.0688 35.3267 29.74 35.3267Z" fill="url(#paint3_linear_776_8320)"/>
<path d="M29.7405 32.3887C30.7891 32.3887 31.6391 31.5386 31.6391 30.49C31.6391 29.4414 30.7891 28.5913 29.7405 28.5913C28.6919 28.5913 27.8418 29.4414 27.8418 30.49C27.8418 31.5386 28.6919 32.3887 29.7405 32.3887Z" fill="url(#paint4_linear_776_8320)"/>
<path d="M32.8066 40.3837L34.8804 39.8649L35.148 39.3963L34.0065 38.2808L32.8066 40.3837Z" fill="#119BFF"/>
<path d="M39.6315 39.5893L41.7053 39.0704L37.6128 35.0769L35.5391 35.5941L39.6315 39.5893Z" fill="#119BFF"/>
<path style="mix-blend-mode:multiply" d="M39.6315 39.5893L41.7053 39.0704L37.6128 35.0769L35.5391 35.5941L39.6315 39.5893Z" fill="url(#paint5_linear_776_8320)"/>
<path d="M35.5391 35.5943L37.6128 35.0771L38.8127 32.9741L36.7389 33.493L35.5391 35.5943Z" fill="#119BFF"/>
<path style="mix-blend-mode:multiply" d="M32.8066 40.3837L34.8804 39.8649L35.148 39.3963L34.0065 38.2808L32.8066 40.3837Z" fill="url(#paint6_linear_776_8320)"/>
<path style="mix-blend-mode:multiply" d="M35.5391 35.5943L37.6128 35.0771L38.8127 32.9741L36.7389 33.493L35.5391 35.5943Z" fill="url(#paint7_linear_776_8320)"/>
<path d="M36.7389 33.4928L38.8127 32.9739L29.9565 30.4575L29.7441 30.511L36.7389 33.4928Z" fill="#119BFF"/>
<path style="mix-blend-mode:multiply" d="M36.7389 33.4928L38.8127 32.9739L29.9565 30.4575L29.7441 30.511L36.7389 33.4928Z" fill="url(#paint8_linear_776_8320)"/>
<path d="M38.0996 42.2745L40.1734 41.7572L41.7056 39.0706L39.6318 39.5894L38.0996 42.2745Z" fill="#119BFF"/>
<path style="mix-blend-mode:multiply" d="M38.0996 42.2745L40.1734 41.7572L41.7056 39.0706L39.6318 39.5894L38.0996 42.2745Z" fill="url(#paint9_linear_776_8320)"/>
<path d="M35.5391 35.5941L36.7389 33.4928L29.7441 30.511L32.807 40.3838L34.0068 38.2808L35.1483 39.3963L38.0993 42.2743L39.6315 39.5893L35.5391 35.5941Z" fill="#2FA8FF"/>
<path style="mix-blend-mode:screen" opacity="0.7" d="M35.5391 35.5941L36.7389 33.4928L29.7441 30.511L32.807 40.3838L34.0068 38.2808L35.1483 39.3963L38.0993 42.2743L39.6315 39.5893L35.5391 35.5941Z" fill="url(#paint10_linear_776_8320)"/>
</g>
<defs>
<filter id="filter0_d_776_8320" x="14.2305" y="14.98" width="41.0195" height="41.02" filterUnits="userSpaceOnUse" color-interpolation-filters="sRGB">
<feFlood flood-opacity="0" result="BackgroundImageFix"/>
<feColorMatrix in="SourceAlpha" type="matrix" values="0 0 0 0 0 0 0 0 0 0 0 0 0 0 0 0 0 0 127 0" result="hardAlpha"/>
<feOffset dx="5" dy="5"/>
<feGaussianBlur stdDeviation="3"/>
<feComposite in2="hardAlpha" operator="out"/>
<feColorMatrix type="matrix" values="0 0 0 0 0.211765 0 0 0 0 0.286275 0 0 0 0 0.686275 0 0 0 0.25 0"/>
<feBlend mode="normal" in2="BackgroundImageFix" result="effect1_dropShadow_776_8320"/>
<feBlend mode="normal" in="SourceGraphic" in2="effect1_dropShadow_776_8320" result="shape"/>
</filter>
<radialGradient id="paint0_radial_776_8320" cx="0" cy="0" r="1" gradientUnits="userSpaceOnUse" gradientTransform="translate(29.7405 30.49) scale(14.51)">
<stop offset="0.92" stop-color="white"/>
<stop offset="1" stop-color="#E9E9E9"/>
</radialGradient>
<linearGradient id="paint1_linear_776_8320" x1="22.9469" y1="24.9447" x2="38.6211" y2="37.7408" gradientUnits="userSpaceOnUse">
<stop stop-color="#F7808B"/>
<stop offset="1" stop-color="#F02D42"/>
</linearGradient>
<linearGradient id="paint2_linear_776_8320" x1="25.1016" y1="26.4526" x2="33.1227" y2="33.4328" gradientUnits="userSpaceOnUse">
<stop stop-color="white"/>
<stop offset="1" stop-color="#FAFAFB"/>
</linearGradient>
<linearGradient id="paint3_linear_776_8320" x1="22.9463" y1="24.9448" x2="38.6205" y2="37.7409" gradientUnits="userSpaceOnUse">
<stop stop-color="#F7808B"/>
<stop offset="1" stop-color="#F02D42"/>
</linearGradient>
<linearGradient id="paint4_linear_776_8320" x1="25.1016" y1="26.4527" x2="33.1227" y2="33.4328" gradientUnits="userSpaceOnUse">
<stop stop-color="white"/>
<stop offset="1" stop-color="#FAFAFB"/>
</linearGradient>
<linearGradient id="paint5_linear_776_8320" x1="44.7868" y1="43.671" x2="35.7123" y2="34.2164" gradientUnits="userSpaceOnUse">
<stop stop-color="#119BFF"/>
<stop offset="1" stop-color="white"/>
</linearGradient>
<linearGradient id="paint6_linear_776_8320" x1="33.8905" y1="39.0297" x2="34.2127" y2="43.3007" gradientUnits="userSpaceOnUse">
<stop stop-color="#119BFF"/>
<stop offset="1" stop-color="white"/>
</linearGradient>
<linearGradient id="paint7_linear_776_8320" x1="39.8783" y1="36.2219" x2="33.5402" y2="31.4601" gradientUnits="userSpaceOnUse">
<stop stop-color="#119BFF"/>
<stop offset="1" stop-color="white"/>
</linearGradient>
<linearGradient id="paint8_linear_776_8320" x1="36.0353" y1="45.6427" x2="34.0481" y2="30.0555" gradientUnits="userSpaceOnUse">
<stop stop-color="#119BFF"/>
<stop offset="1" stop-color="white"/>
</linearGradient>
<linearGradient id="paint9_linear_776_8320" x1="40.582" y1="45.6126" x2="39.428" y2="37.3914" gradientUnits="userSpaceOnUse">
<stop stop-color="#119BFF"/>
<stop offset="1" stop-color="white"/>
</linearGradient>
<linearGradient id="paint10_linear_776_8320" x1="31.5051" y1="38.048" x2="41.3996" y2="30.7062" gradientUnits="userSpaceOnUse">
<stop/>
<stop offset="1" stop-color="white"/>
</linearGradient>
</defs>
</svg>
