<svg width="60" height="60" viewBox="0 0 60 60" fill="none" xmlns="http://www.w3.org/2000/svg">
<rect width="60" height="60" rx="30" fill="white"/>
<g filter="url(#filter0_d_776_8383)">
<path d="M26.9738 31.3412C24.7178 31.3412 22.8891 29.4924 22.8891 27.2101C22.8891 24.9278 24.7178 23.079 26.9738 23.079C29.2298 23.079 31.0584 24.9278 31.0584 27.2101C31.0584 29.4924 29.2298 31.3412 26.9738 31.3412ZM35.8925 28.7507V25.671L34.2589 25.1244C34.0963 24.5453 33.8687 23.9941 33.5838 23.4785L34.3565 21.9224L32.2027 19.7453L30.6651 20.5273C30.1557 20.2393 29.6107 20.0086 29.0378 19.8444L28.4974 18.1938H25.4517L24.9113 19.8444C24.3384 20.0086 23.7934 20.2393 23.284 20.5273L21.7464 19.7453L19.5926 21.9224L20.3653 23.4785C20.0804 23.9925 19.8528 24.5453 19.6902 25.1244L18.0566 25.671V28.7507L19.6902 29.2973C19.8528 29.8764 20.0804 30.4276 20.3653 30.9432L19.5926 32.4994L21.7464 34.6764L23.2855 33.8945C23.7949 34.1825 24.34 34.4132 24.9129 34.5773L25.4533 36.2279H28.4989L29.0393 34.5773C29.6122 34.4132 30.1573 34.1825 30.6667 33.8945L32.2042 34.6764L34.358 32.4994L33.5854 30.9432C33.8703 30.4276 34.0979 29.8764 34.2605 29.2973L35.894 28.7507H35.8925Z" fill="url(#paint0_linear_776_8383)"/>
<path d="M26.8191 31.2887C24.5631 31.2887 22.7344 29.4399 22.7344 27.1576C22.7344 24.8753 24.5631 23.0265 26.8191 23.0265C29.0751 23.0265 30.9037 24.8753 30.9037 27.1576C30.9037 29.4399 29.0751 31.2887 26.8191 31.2887ZM35.7362 28.6982V25.6185L34.1027 25.0719C33.9401 24.4928 33.7125 23.9416 33.4276 23.426L34.2002 21.8699L32.0464 19.6928L30.5089 20.4748C29.9995 20.1868 29.4544 19.9561 28.8815 19.7919L28.3411 18.1414H25.2955L24.7551 19.7919C24.1822 19.9561 23.6371 20.1868 23.1277 20.4748L21.5902 19.6928L19.4364 21.8699L20.209 23.426C19.9241 23.9401 19.6965 24.4928 19.5339 25.0719L17.9004 25.6185V28.6982L19.5339 29.2448C19.6965 29.8239 19.9241 30.3751 20.209 30.8907L19.4364 32.4469L21.5902 34.6239L23.1293 33.842C23.6387 34.13 24.1837 34.3607 24.7566 34.5248L25.297 36.1754H28.3427L28.8831 34.5248C29.456 34.3607 30.001 34.13 30.5104 33.842L32.048 34.6239L34.2018 32.4469L33.4291 30.8907C33.714 30.3751 33.9416 29.8239 34.1042 29.2448L35.7378 28.6982H35.7362Z" fill="url(#paint1_linear_776_8383)"/>
<path d="M26.6632 31.2375C24.4072 31.2375 22.5786 29.3887 22.5786 27.1064C22.5786 24.8241 24.4072 22.9753 26.6632 22.9753C28.9192 22.9753 30.7479 24.8241 30.7479 27.1064C30.7479 29.3887 28.9192 31.2375 26.6632 31.2375ZM35.5819 28.6455V25.5658L33.9484 25.0192C33.7858 24.4401 33.5582 23.8889 33.2733 23.3733L34.0459 21.8171L31.8921 19.6401L30.3546 20.422C29.8452 20.134 29.3001 19.9033 28.7272 19.7392L28.1868 18.0886H25.1412L24.6008 19.7392C24.0279 19.9033 23.4829 20.134 22.9734 20.422L21.4359 19.6401L19.2821 21.8171L20.0547 23.3733C19.7698 23.8873 19.5422 24.4401 19.3796 25.0192L17.7461 25.5658V28.6455L19.3796 29.1921C19.5422 29.7712 19.7698 30.3224 20.0547 30.838L19.2821 32.3941L21.4359 34.5712L22.975 33.7892C23.4844 34.0772 24.0294 34.3079 24.6023 34.4721L25.1427 36.1226H28.1884L28.7288 34.4721C29.3017 34.3079 29.8467 34.0772 30.3561 33.7892L31.8937 34.5712L34.0475 32.3941L33.2748 30.838C33.5597 30.3224 33.7873 29.7712 33.9499 29.1921L35.5835 28.6455H35.5819Z" fill="url(#paint2_linear_776_8383)"/>
<path d="M26.507 31.1849C24.251 31.1849 22.4223 29.3361 22.4223 27.0538C22.4223 24.7715 24.251 22.9227 26.507 22.9227C28.763 22.9227 30.5916 24.7715 30.5916 27.0538C30.5916 29.3361 28.763 31.1849 26.507 31.1849ZM35.4257 28.5945V25.5147L33.7921 24.9682C33.6295 24.3891 33.4019 23.8378 33.117 23.3222L33.8897 21.7661L31.7359 19.5891L30.1983 20.371C29.6889 20.083 29.1439 19.8523 28.571 19.6882L28.0306 18.0376H24.9849L24.4445 19.6882C23.8716 19.8523 23.3266 20.083 22.8172 20.371L21.2796 19.5891L19.1258 21.7661L19.8985 23.3222C19.6136 23.8363 19.386 24.3891 19.2234 24.9682L17.5898 25.5147V28.5945L19.2234 29.1411C19.386 29.7201 19.6136 30.2714 19.8985 30.787L19.1258 32.3431L21.2796 34.5201L22.8187 33.7382C23.3282 34.0262 23.8732 34.2569 24.4461 34.421L24.9865 36.0716H28.0321L28.5725 34.421C29.1454 34.2569 29.6905 34.0262 30.1999 33.7382L31.7374 34.5201L33.8912 32.3431L33.1186 30.787C33.4035 30.2714 33.6311 29.7201 33.7937 29.1411L35.4272 28.5945H35.4257Z" fill="url(#paint3_linear_776_8383)"/>
<path d="M26.3507 31.1337C24.0947 31.1337 22.2661 29.285 22.2661 27.0026C22.2661 24.7203 24.0947 22.8716 26.3507 22.8716C28.6067 22.8716 30.4354 24.7203 30.4354 27.0026C30.4354 29.285 28.6067 31.1337 26.3507 31.1337ZM35.2694 28.5417V25.462L33.6359 24.9154C33.4733 24.3363 33.2457 23.7851 32.9608 23.2695L33.7334 21.7134L31.5796 19.5363L30.0421 20.3183C29.5327 20.0303 28.9876 19.7996 28.4147 19.6354L27.8743 17.9849H24.8287L24.2883 19.6354C23.7154 19.7996 23.1704 20.0303 22.6609 20.3183L21.1234 19.5363L18.9696 21.7134L19.7422 23.2695C19.4573 23.7836 19.2297 24.3363 19.0671 24.9154L17.4336 25.462V28.5417L19.0671 29.0883C19.2297 29.6674 19.4573 30.2186 19.7422 30.7342L18.9696 32.2904L21.1234 34.4674L22.6625 33.6855C23.1719 33.9735 23.7169 34.2042 24.2898 34.3683L24.8302 36.0189H27.8759L28.4163 34.3683C28.9892 34.2042 29.5342 33.9735 30.0436 33.6855L31.5812 34.4674L33.735 32.2904L32.9623 30.7342C33.2472 30.2186 33.4748 29.6674 33.6374 29.0883L35.271 28.5417H35.2694Z" fill="url(#paint4_linear_776_8383)"/>
<path d="M26.1935 31.0812C23.9375 31.0812 22.1089 29.2324 22.1089 26.9501C22.1089 24.6678 23.9375 22.819 26.1935 22.819C28.4495 22.819 30.2781 24.6678 30.2781 26.9501C30.2781 29.2324 28.4495 31.0812 26.1935 31.0812ZM35.1122 28.4907V25.411L33.4786 24.8644C33.3161 24.2853 33.0885 23.7341 32.8036 23.2185L33.5762 21.6623L31.4224 19.4853L29.8848 20.2673C29.3754 19.9793 28.8304 19.7485 28.2575 19.5844L27.7171 17.9338H24.6714L24.1311 19.5844C23.5582 19.7485 23.0131 19.9793 22.5037 20.2673L20.9662 19.4853L18.8124 21.6623L19.585 23.2185C19.3001 23.7325 19.0725 24.2853 18.9099 24.8644L17.2764 25.411V28.4907L18.9099 29.0373C19.0725 29.6164 19.3001 30.1676 19.585 30.6832L18.8124 32.2393L20.9662 34.4164L22.5053 33.6344C23.0147 33.9224 23.5597 34.1531 24.1326 34.3173L24.673 35.9679H27.7187L28.259 34.3173C28.8319 34.1531 29.377 33.9224 29.8864 33.6344L31.4239 34.4164L33.5777 32.2393L32.8051 30.6832C33.09 30.1676 33.3176 29.6164 33.4802 29.0373L35.1137 28.4907H35.1122Z" fill="url(#paint5_linear_776_8383)"/>
<path d="M26.0373 31.0284C23.7813 31.0284 21.9526 29.1797 21.9526 26.8973C21.9526 24.615 23.7813 22.7663 26.0373 22.7663C28.2932 22.7663 30.1219 24.615 30.1219 26.8973C30.1219 29.1797 28.2932 31.0284 26.0373 31.0284ZM34.9559 28.438V25.3582L33.3224 24.8117C33.1598 24.2326 32.9322 23.6813 32.6473 23.1657L33.4199 21.6096L31.2661 19.4326L29.7286 20.2145C29.2192 19.9265 28.6741 19.6958 28.1012 19.5317L27.5609 17.8811H24.5152L23.9748 19.5317C23.4019 19.6958 22.8569 19.9265 22.3475 20.2145L20.8099 19.4326L18.6561 21.6096L19.4288 23.1657C19.1439 23.6798 18.9162 24.2326 18.7537 24.8117L17.1201 25.3582V28.438L18.7537 28.9846C18.9162 29.5637 19.1439 30.1149 19.4288 30.6305L18.6561 32.1866L20.8099 34.3636L22.349 33.5817C22.8584 33.8697 23.4035 34.1004 23.9764 34.2645L24.5167 35.9151H27.5624L28.1028 34.2645C28.6757 34.1004 29.2207 33.8697 29.7301 33.5817L31.2677 34.3636L33.4215 32.1866L32.6488 30.6305C32.9337 30.1149 33.1614 29.5637 33.3239 28.9846L34.9575 28.438H34.9559Z" fill="url(#paint6_linear_776_8383)"/>
<path d="M25.8826 30.9775C23.6266 30.9775 21.7979 29.1287 21.7979 26.8464C21.7979 24.5641 23.6266 22.7153 25.8826 22.7153C28.1385 22.7153 29.9672 24.5641 29.9672 26.8464C29.9672 29.1287 28.1385 30.9775 25.8826 30.9775ZM34.7997 28.3855V25.3058L33.1661 24.7592C33.0036 24.1801 32.776 23.6289 32.491 23.1132L33.2637 21.5571L31.1099 19.3801L29.5723 20.162C29.0629 19.874 28.5179 19.6433 27.945 19.4792L27.4046 17.8286H24.3589L23.8186 19.4792C23.2457 19.6433 22.7006 19.874 22.1912 20.162L20.6537 19.3801L18.4999 21.5571L19.2725 23.1132C18.9876 23.6273 18.76 24.1801 18.5974 24.7592L16.9639 25.3058V28.3855L18.5974 28.9321C18.76 29.5112 18.9876 30.0624 19.2725 30.578L18.4999 32.1341L20.6537 34.3111L22.1928 33.5292C22.7022 33.8172 23.2472 34.0479 23.8201 34.2121L24.3605 35.8626H27.4062L27.9465 34.2121C28.5194 34.0479 29.0645 33.8172 29.5739 33.5292L31.1114 34.3111L33.2652 32.1341L32.4926 30.578C32.7775 30.0624 33.0051 29.5112 33.1677 28.9321L34.8012 28.3855H34.7997Z" fill="url(#paint7_linear_776_8383)"/>
<path d="M25.7267 30.9247C23.4707 30.9247 21.6421 29.0759 21.6421 26.7936C21.6421 24.5113 23.4707 22.6625 25.7267 22.6625C27.9827 22.6625 29.8113 24.5113 29.8113 26.7936C29.8113 29.0759 27.9827 30.9247 25.7267 30.9247ZM34.6454 28.3342V25.2545L33.0118 24.7079C32.8493 24.1288 32.6217 23.5776 32.3368 23.062L33.1094 21.5058L30.9556 19.3288L29.4181 20.1108C28.9086 19.8228 28.3636 19.592 27.7907 19.4279L27.2503 17.7773H24.2046L23.6643 19.4279C23.0914 19.592 22.5463 19.8228 22.0369 20.1108L20.4994 19.3288L18.3456 21.5058L19.1182 23.062C18.8333 23.576 18.6057 24.1288 18.4431 24.7079L16.8096 25.2545V28.3342L18.4431 28.8808C18.6057 29.4599 18.8333 30.0111 19.1182 30.5267L18.3456 32.0829L20.4994 34.2599L22.0385 33.4779C22.5479 33.7659 23.0929 33.9967 23.6658 34.1608L24.2062 35.8114H27.2519L27.7922 34.1608C28.3652 33.9967 28.9102 33.7659 29.4196 33.4779L30.9571 34.2599L33.1109 32.0829L32.3383 30.5267C32.6232 30.0111 32.8508 29.4599 33.0134 28.8808L34.6469 28.3342H34.6454Z" fill="url(#paint8_linear_776_8383)"/>
<path d="M25.5695 30.8722C23.3135 30.8722 21.4848 29.0234 21.4848 26.7411C21.4848 24.4588 23.3135 22.61 25.5695 22.61C27.8255 22.61 29.6541 24.4588 29.6541 26.7411C29.6541 29.0234 27.8255 30.8722 25.5695 30.8722ZM34.4882 28.2817V25.202L32.8546 24.6554C32.692 24.0763 32.4644 23.5251 32.1795 23.0095L32.9522 21.4534L30.7984 19.2763L29.2608 20.0583C28.7514 19.7703 28.2064 19.5396 27.6335 19.3754L27.0931 17.7249H24.0474L23.507 19.3754C22.9341 19.5396 22.3891 19.7703 21.8797 20.0583L20.3421 19.2763L18.1883 21.4534L18.961 23.0095C18.6761 23.5235 18.4485 24.0763 18.2859 24.6554L16.6523 25.202V28.2817L18.2859 28.8283C18.4485 29.4074 18.6761 29.9586 18.961 30.4742L18.1883 32.0304L20.3421 34.2074L21.8812 33.4255C22.3907 33.7135 22.9357 33.9442 23.5086 34.1083L24.049 35.7589H27.0946L27.635 34.1083C28.2079 33.9442 28.753 33.7135 29.2624 33.4255L30.7999 34.2074L32.9537 32.0304L32.1811 30.4742C32.466 29.9586 32.6936 29.4074 32.8562 28.8283L34.4897 28.2817H34.4882Z" fill="url(#paint9_linear_776_8383)"/>
<path d="M25.4132 30.821C23.1572 30.821 21.3286 28.9722 21.3286 26.6899C21.3286 24.4076 23.1572 22.5588 25.4132 22.5588C27.6692 22.5588 29.4979 24.4076 29.4979 26.6899C29.4979 28.9722 27.6692 30.821 25.4132 30.821ZM34.3319 28.229V25.1493L32.6984 24.6027C32.5358 24.0236 32.3082 23.4724 32.0233 22.9568L32.7959 21.4006L30.6421 19.2236L29.1046 20.0055C28.5952 19.7175 28.0501 19.4868 27.4772 19.3227L26.9368 17.6721H23.8912L23.3508 19.3227C22.7779 19.4868 22.2329 19.7175 21.7234 20.0055L20.1859 19.2236L18.0321 21.4006L18.8047 22.9568C18.5198 23.4708 18.2922 24.0236 18.1296 24.6027L16.4961 25.1493V28.229L18.1296 28.7756C18.2922 29.3547 18.5198 29.9059 18.8047 30.4215L18.0321 31.9776L20.1859 34.1547L21.725 33.3727C22.2344 33.6607 22.7794 33.8914 23.3523 34.0556L23.8927 35.7061H26.9384L27.4788 34.0556C28.0517 33.8914 28.5967 33.6607 29.1061 33.3727L30.6437 34.1547L32.7975 31.9776L32.0248 30.4215C32.3097 29.9059 32.5373 29.3547 32.6999 28.7756L34.3335 28.229H34.3319Z" fill="url(#paint10_linear_776_8383)"/>
<path d="M25.257 30.7684C23.001 30.7684 21.1723 28.9196 21.1723 26.6373C21.1723 24.355 23.001 22.5062 25.257 22.5062C27.513 22.5062 29.3416 24.355 29.3416 26.6373C29.3416 28.9196 27.513 30.7684 25.257 30.7684ZM34.1757 28.178V25.0982L32.5421 24.5517C32.3795 23.9726 32.1519 23.4213 31.867 22.9057L32.6397 21.3496L30.4859 19.1726L28.9483 19.9545C28.4389 19.6665 27.8939 19.4358 27.321 19.2717L26.7806 17.6211H23.7349L23.1945 19.2717C22.6216 19.4358 22.0766 19.6665 21.5672 19.9545L20.0296 19.1726L17.8758 21.3496L18.6485 22.9057C18.3636 23.4198 18.136 23.9726 17.9734 24.5517L16.3398 25.0982V28.178L17.9734 28.7245C18.136 29.3036 18.3636 29.8549 18.6485 30.3705L17.8758 31.9266L20.0296 34.1036L21.5687 33.3217C22.0782 33.6097 22.6232 33.8404 23.1961 34.0045L23.7365 35.6551H26.7821L27.3225 34.0045C27.8954 33.8404 28.4405 33.6097 28.9499 33.3217L30.4874 34.1036L32.6412 31.9266L31.8686 30.3705C32.1535 29.8549 32.3811 29.3036 32.5437 28.7245L34.1772 28.178H34.1757Z" fill="url(#paint11_linear_776_8383)"/>
<path d="M25.1007 30.7172C22.8447 30.7172 21.0161 28.8685 21.0161 26.5861C21.0161 24.3038 22.8447 22.4551 25.1007 22.4551C27.3567 22.4551 29.1854 24.3038 29.1854 26.5861C29.1854 28.8685 27.3567 30.7172 25.1007 30.7172ZM34.0194 28.1252V25.0455L32.3859 24.4989C32.2233 23.9198 31.9957 23.3686 31.7108 22.853L32.4834 21.2969L30.3296 19.1198L28.7921 19.9018C28.2827 19.6138 27.7376 19.3831 27.1647 19.2189L26.6243 17.5684H23.5787L23.0383 19.2189C22.4654 19.3831 21.9204 19.6138 21.4109 19.9018L19.8734 19.1198L17.7196 21.2969L18.4922 22.853C18.2073 23.3671 17.9797 23.9198 17.8171 24.4989L16.1836 25.0455V28.1252L17.8171 28.6718C17.9797 29.2509 18.2073 29.8021 18.4922 30.3177L17.7196 31.8739L19.8734 34.0509L21.4125 33.269C21.9219 33.557 22.4669 33.7877 23.0398 33.9518L23.5802 35.6024H26.6259L27.1663 33.9518C27.7392 33.7877 28.2842 33.557 28.7936 33.269L30.3312 34.0509L32.485 31.8739L31.7123 30.3177C31.9972 29.8021 32.2248 29.2509 32.3874 28.6718L34.021 28.1252H34.0194Z" fill="url(#paint12_linear_776_8383)"/>
<path d="M24.9445 30.6647C22.6885 30.6647 20.8598 28.8159 20.8598 26.5336C20.8598 24.2513 22.6885 22.4025 24.9445 22.4025C27.2005 22.4025 29.0291 24.2513 29.0291 26.5336C29.0291 28.8159 27.2005 30.6647 24.9445 30.6647ZM33.8632 28.0742V24.9945L32.2296 24.4479C32.067 23.8688 31.8394 23.3176 31.5545 22.802L32.3272 21.2458L30.1734 19.0688L28.6358 19.8507C28.1264 19.5627 27.5814 19.332 27.0085 19.1679L26.4681 17.5173H23.4224L22.882 19.1679C22.3091 19.332 21.7641 19.5627 21.2547 19.8507L19.7171 19.0688L17.5633 21.2458L18.336 22.802C18.0511 23.316 17.8235 23.8688 17.6609 24.4479L16.0273 24.9945V28.0742L17.6609 28.6208C17.8235 29.1999 18.0511 29.7511 18.336 30.2667L17.5633 31.8228L19.7171 33.9999L21.2562 33.2179C21.7657 33.5059 22.3107 33.7366 22.8836 33.9008L23.424 35.5513H26.4696L27.01 33.9008C27.5829 33.7366 28.128 33.5059 28.6374 33.2179L30.1749 33.9999L32.3287 31.8228L31.5561 30.2667C31.841 29.7511 32.0686 29.1999 32.2312 28.6208L33.8647 28.0742H33.8632Z" fill="url(#paint13_linear_776_8383)"/>
<path d="M24.7892 30.6119C22.5332 30.6119 20.7046 28.7632 20.7046 26.4808C20.7046 24.1985 22.5332 22.3497 24.7892 22.3497C27.0452 22.3497 28.8738 24.1985 28.8738 26.4808C28.8738 28.7632 27.0452 30.6119 24.7892 30.6119ZM33.7079 28.0215V24.9417L32.0743 24.3952C31.9118 23.8161 31.6842 23.2648 31.3993 22.7492L32.1719 21.1931L30.0181 19.0161L28.4806 19.798C27.9711 19.51 27.4261 19.2793 26.8532 19.1152L26.3128 17.4646H23.2671L22.7268 19.1152C22.1539 19.2793 21.6088 19.51 21.0994 19.798L19.5619 19.0161L17.4081 21.1931L18.1807 22.7492C17.8958 23.2633 17.6682 23.8161 17.5056 24.3952L15.8721 24.9417V28.0215L17.5056 28.5681C17.6682 29.1471 17.8958 29.6984 18.1807 30.214L17.4081 31.7701L19.5619 33.9471L21.101 33.1652C21.6104 33.4532 22.1554 33.6839 22.7283 33.848L23.2687 35.4986H26.3144L26.8548 33.848C27.4277 33.6839 27.9727 33.4532 28.4821 33.1652L30.0196 33.9471L32.1734 31.7701L31.4008 30.214C31.6857 29.6984 31.9133 29.1471 32.0759 28.5681L33.7094 28.0215H33.7079Z" fill="url(#paint14_linear_776_8383)"/>
<path d="M24.633 30.561C22.377 30.561 20.5483 28.7122 20.5483 26.4299C20.5483 24.1476 22.377 22.2988 24.633 22.2988C26.889 22.2988 28.7176 24.1476 28.7176 26.4299C28.7176 28.7122 26.889 30.561 24.633 30.561ZM33.5516 27.969V24.8893L31.9181 24.3427C31.7555 23.7636 31.5279 23.2124 31.243 22.6967L32.0156 21.1406L29.8618 18.9636L28.3243 19.7455C27.8149 19.4575 27.2699 19.2268 26.697 19.0627L26.1566 17.4121H23.1109L22.5705 19.0627C21.9976 19.2268 21.4526 19.4575 20.9432 19.7455L19.4056 18.9636L17.2518 21.1406L18.0245 22.6967C17.7396 23.2108 17.5119 23.7636 17.3494 24.3427L15.7158 24.8893V27.969L17.3494 28.5156C17.5119 29.0947 17.7396 29.6459 18.0245 30.1615L17.2518 31.7176L19.4056 33.8946L20.9447 33.1127C21.4541 33.4007 21.9992 33.6314 22.5721 33.7955L23.1124 35.4461H26.1581L26.6985 33.7955C27.2714 33.6314 27.8164 33.4007 28.3259 33.1127L29.8634 33.8946L32.0172 31.7176L31.2446 30.1615C31.5295 29.6459 31.7571 29.0947 31.9196 28.5156L33.5532 27.969H33.5516Z" fill="url(#paint15_linear_776_8383)"/>
<path d="M24.4767 30.5082C22.2207 30.5082 20.3921 28.6594 20.3921 26.3771C20.3921 24.0948 22.2207 22.246 24.4767 22.246C26.7327 22.246 28.5613 24.0948 28.5613 26.3771C28.5613 28.6594 26.7327 30.5082 24.4767 30.5082ZM33.3954 27.9177V24.838L31.7618 24.2914C31.5993 23.7123 31.3717 23.1611 31.0868 22.6455L31.8594 21.0893L29.7056 18.9123L28.1681 19.6943C27.6586 19.4063 27.1136 19.1755 26.5407 19.0114L26.0003 17.3608H22.9546L22.4143 19.0114C21.8414 19.1755 21.2963 19.4063 20.7869 19.6943L19.2494 18.9123L17.0956 21.0893L17.8682 22.6455C17.5833 23.1595 17.3557 23.7123 17.1931 24.2914L15.5596 24.838V27.9177L17.1931 28.4643C17.3557 29.0434 17.5833 29.5946 17.8682 30.1102L17.0956 31.6663L19.2494 33.8434L20.7885 33.0614C21.2979 33.3494 21.8429 33.5802 22.4158 33.7443L22.9562 35.3949H26.0019L26.5422 33.7443C27.1152 33.5802 27.6602 33.3494 28.1696 33.0614L29.7071 33.8434L31.8609 31.6663L31.0883 30.1102C31.3732 29.5946 31.6008 29.0434 31.7634 28.4643L33.3969 27.9177H33.3954Z" fill="url(#paint16_linear_776_8383)"/>
<path d="M33.3954 27.9177V24.838L31.7618 24.2914C31.5993 23.7123 31.3717 23.1611 31.0868 22.6455L31.8594 21.0893L29.7056 18.9123L28.1681 19.6943C27.6586 19.4063 27.1136 19.1755 26.5407 19.0114L26.0003 17.3608H22.9546L22.4143 19.0114C21.8414 19.1755 21.2963 19.4063 20.7869 19.6943L19.2494 18.9123L17.0956 21.0893L17.8682 22.6455C17.5833 23.1595 17.3557 23.7123 17.1931 24.2914L15.5596 24.838V27.9177L17.1931 28.4643C17.3557 29.0434 17.5833 29.5946 17.8682 30.1102L17.0956 31.6663L19.2494 33.8434L20.7885 33.0614C21.2979 33.3494 21.8429 33.5802 22.4158 33.7443L22.9562 35.3949H26.0019L26.5422 33.7443C27.1152 33.5802 27.6602 33.3494 28.1696 33.0614L29.7071 33.8434L31.8609 31.6663L31.0883 30.1102C31.3732 29.5946 31.6008 29.0434 31.7634 28.4643L33.3969 27.9177H33.3954ZM24.4767 30.5082C22.2207 30.5082 20.3921 28.6594 20.3921 26.3771C20.3921 24.0948 22.2207 22.246 24.4767 22.246C26.7327 22.246 28.5613 24.0948 28.5613 26.3771C28.5613 28.6594 26.7327 30.5082 24.4767 30.5082Z" fill="#FDCA5D"/>
<path d="M35.5399 39.2596C34.2563 39.2596 33.2173 38.2083 33.2173 36.9107C33.2173 35.6132 34.2578 34.5618 35.5399 34.5618C36.8219 34.5618 37.8624 35.6132 37.8624 36.9107C37.8624 38.2083 36.8219 39.2596 35.5399 39.2596ZM40.6124 37.7871V36.0359L39.6833 35.7247C39.5904 35.3948 39.4619 35.0821 39.2993 34.7879L39.7391 33.9038L38.5143 32.665L37.6395 33.1094C37.3499 32.9453 37.0403 32.8137 36.7135 32.7208L36.4054 31.7825H34.6728L34.3646 32.7208C34.0395 32.8137 33.7283 32.9453 33.4387 33.1094L32.5639 32.665L31.3391 33.9038L31.7788 34.7879C31.6163 35.0805 31.4878 35.3948 31.3949 35.7247L30.4658 36.0359V37.7871L31.3949 38.0983C31.4878 38.4281 31.6163 38.7409 31.7788 39.0335L31.3391 39.9177L32.5639 41.1564L33.4387 40.712C33.7283 40.8761 34.0379 41.0077 34.3646 41.1006L34.6728 42.039H36.4054L36.7135 41.1006C37.0387 41.0077 37.3499 40.8761 37.6395 40.712L38.5143 41.1564L39.7391 39.9177L39.2993 39.0335C39.4619 38.7409 39.5904 38.4266 39.6833 38.0983L40.6124 37.7871Z" fill="url(#paint17_linear_776_8383)"/>
<path d="M35.6375 39.2009C34.3539 39.2009 33.315 38.1495 33.315 36.852C33.315 35.5544 34.3555 34.5031 35.6375 34.5031C36.9196 34.5031 37.9601 35.5544 37.9601 36.852C37.9601 38.1495 36.9196 39.2009 35.6375 39.2009ZM40.71 37.7268V35.9756L39.781 35.6644C39.6881 35.3345 39.5596 35.0218 39.397 34.7276L39.8367 33.8435L38.612 32.6047L37.7371 33.0491C37.4476 32.885 37.1379 32.7534 36.8112 32.6605L36.5031 31.7222H34.7704L34.4623 32.6605C34.1371 32.7534 33.8259 32.885 33.5364 33.0491L32.6615 32.6047L31.4368 33.8435L31.8765 34.7276C31.7139 35.0202 31.5854 35.3345 31.4925 35.6644L30.5635 35.9756V37.7268L31.4925 38.038C31.5854 38.3678 31.7139 38.6806 31.8765 38.9732L31.4368 39.8574L32.6615 41.0961L33.5364 40.6517C33.8259 40.8158 34.1356 40.9474 34.4623 41.0403L34.7704 41.9787H36.5031L36.8112 41.0403C37.1364 40.9474 37.4476 40.8158 37.7371 40.6517L38.612 41.0961L39.8367 39.8574L39.397 38.9732C39.5596 38.6806 39.6881 38.3663 39.781 38.038L40.71 37.7268Z" fill="url(#paint18_linear_776_8383)"/>
<path d="M35.7362 39.1405C34.4526 39.1405 33.4136 38.0891 33.4136 36.7916C33.4136 35.494 34.4541 34.4427 35.7362 34.4427C37.0182 34.4427 38.0587 35.494 38.0587 36.7916C38.0587 38.0891 37.0182 39.1405 35.7362 39.1405ZM40.8087 37.668V35.9167L39.8796 35.6055C39.7867 35.2757 39.6582 34.9629 39.4956 34.6687L39.9354 33.7846L38.7106 32.5459L37.8358 32.9903C37.5462 32.8262 37.2365 32.6946 36.9098 32.6017L36.6017 31.6633H34.8691L34.5609 32.6017C34.2358 32.6946 33.9246 32.8262 33.635 32.9903L32.7602 32.5459L31.5354 33.7846L31.9751 34.6687C31.8126 34.9614 31.684 35.2757 31.5911 35.6055L30.6621 35.9167V37.668L31.5911 37.9792C31.684 38.309 31.8126 38.6218 31.9751 38.9144L31.5354 39.7985L32.7602 41.0372L33.635 40.5929C33.9246 40.757 34.2342 40.8886 34.5609 40.9815L34.8691 41.9198H36.6017L36.9098 40.9815C37.235 40.8886 37.5462 40.757 37.8358 40.5929L38.7106 41.0372L39.9354 39.7985L39.4956 38.9144C39.6582 38.6218 39.7867 38.3074 39.8796 37.9792L40.8087 37.668Z" fill="url(#paint19_linear_776_8383)"/>
<path d="M35.8338 39.0817C34.5502 39.0817 33.5112 38.0304 33.5112 36.7328C33.5112 35.4353 34.5518 34.3839 35.8338 34.3839C37.1159 34.3839 38.1564 35.4353 38.1564 36.7328C38.1564 38.0304 37.1159 39.0817 35.8338 39.0817ZM40.9063 37.6077V35.8564L39.9773 35.5452C39.8844 35.2154 39.7559 34.9026 39.5933 34.6084L40.033 33.7243L38.8083 32.4856L37.9334 32.93C37.6439 32.7659 37.3342 32.6343 37.0075 32.5413L36.6994 31.603H34.9667L34.6586 32.5413C34.3334 32.6343 34.0222 32.7659 33.7327 32.93L32.8578 32.4856L31.6331 33.7243L32.0728 34.6084C31.9102 34.9011 31.7817 35.2154 31.6888 35.5452L30.7598 35.8564V37.6077L31.6888 37.9189C31.7817 38.2487 31.9102 38.5615 32.0728 38.8541L31.6331 39.7382L32.8578 40.9769L33.7327 40.5326C34.0222 40.6967 34.3319 40.8283 34.6586 40.9212L34.9667 41.8595H36.6994L37.0075 40.9212C37.3327 40.8283 37.6439 40.6967 37.9334 40.5326L38.8083 40.9769L40.033 39.7382L39.5933 38.8541C39.7559 38.5615 39.8844 38.2471 39.9773 37.9189L40.9063 37.6077Z" fill="url(#paint20_linear_776_8383)"/>
<path d="M35.9334 39.0213C34.6498 39.0213 33.6109 37.9699 33.6109 36.6724C33.6109 35.3748 34.6514 34.3235 35.9334 34.3235C37.2155 34.3235 38.256 35.3748 38.256 36.6724C38.256 37.9699 37.2155 39.0213 35.9334 39.0213ZM41.0059 37.5472V35.796L40.0769 35.4847C39.984 35.1549 39.8555 34.8422 39.6929 34.548L40.1326 33.6638L38.9079 32.4251L38.033 32.8695C37.7435 32.7054 37.4338 32.5738 37.1071 32.4809L36.799 31.541H35.0663L34.7582 32.4809C34.433 32.5738 34.1218 32.7054 33.8323 32.8695L32.9574 32.4251L31.7327 33.6638L32.1724 34.548C32.0098 34.8406 31.8813 35.1549 31.7884 35.4847L30.8594 35.796V37.5472L31.7884 37.8584C31.8813 38.1882 32.0098 38.501 32.1724 38.7936L31.7327 39.6778L32.9574 40.9165L33.8323 40.4721C34.1218 40.6362 34.4315 40.7678 34.7582 40.8607L35.0663 41.7991H36.799L37.1071 40.8607C37.4323 40.7678 37.7435 40.6362 38.033 40.4721L38.9079 40.9165L40.1326 39.6778L39.6929 38.7936C39.8555 38.501 39.984 38.1867 40.0769 37.8584L41.0059 37.5472Z" fill="url(#paint21_linear_776_8383)"/>
<path d="M36.0311 38.9623C34.7475 38.9623 33.7085 37.911 33.7085 36.6134C33.7085 35.3159 34.749 34.2645 36.0311 34.2645C37.3131 34.2645 38.3537 35.3159 38.3537 36.6134C38.3537 37.911 37.3131 38.9623 36.0311 38.9623ZM41.1036 37.4883V35.7371L40.1746 35.4258C40.0817 35.096 39.9531 34.7832 39.7906 34.4891L40.2303 33.6049L39.0055 32.3662L38.1307 32.8106C37.8411 32.6465 37.5315 32.5149 37.2048 32.422L36.8966 31.4836H35.164L34.8559 32.422C34.5307 32.5149 34.2195 32.6465 33.9299 32.8106L33.0551 32.3662L31.8303 33.6049L32.2701 34.4891C32.1075 34.7817 31.979 35.096 31.8861 35.4258L30.957 35.7371V37.4883L31.8861 37.7995C31.979 38.1293 32.1075 38.4421 32.2701 38.7347L31.8303 39.6188L33.0551 40.8576L33.9299 40.4132C34.2195 40.5773 34.5292 40.7089 34.8559 40.8018L35.164 41.7401H36.8966L37.2048 40.8018C37.5299 40.7089 37.8411 40.5773 38.1307 40.4132L39.0055 40.8576L40.2303 39.6188L39.7906 38.7347C39.9531 38.4421 40.0817 38.1278 40.1746 37.7995L41.1036 37.4883Z" fill="url(#paint22_linear_776_8383)"/>
<path d="M36.1297 38.902C34.8461 38.902 33.8071 37.8507 33.8071 36.5531C33.8071 35.2556 34.8477 34.2042 36.1297 34.2042C37.4118 34.2042 38.4523 35.2556 38.4523 36.5531C38.4523 37.8507 37.4118 38.902 36.1297 38.902ZM41.2022 37.428V35.6767L40.2732 35.3655C40.1803 35.0357 40.0518 34.7229 39.8892 34.4288L40.3289 33.5446L39.1042 32.3059L38.2293 32.7503C37.9398 32.5862 37.6301 32.4546 37.3034 32.3617L36.9953 31.4233H35.2626L34.9545 32.3617C34.6293 32.4546 34.3181 32.5862 34.0286 32.7503L33.1537 32.3059L31.929 33.5446L32.3687 34.4288C32.2061 34.7214 32.0776 35.0357 31.9847 35.3655L31.0557 35.6767V37.428L31.9847 37.7392C32.0776 38.069 32.2061 38.3818 32.3687 38.6744L31.929 39.5585L33.1537 40.7972L34.0286 40.3529C34.3181 40.517 34.6278 40.6486 34.9545 40.7415L35.2626 41.6798H36.9953L37.3034 40.7415C37.6286 40.6486 37.9398 40.517 38.2293 40.3529L39.1042 40.7972L40.3289 39.5585L39.8892 38.6744C40.0518 38.3818 40.1803 38.0674 40.2732 37.7392L41.2022 37.428Z" fill="url(#paint23_linear_776_8383)"/>
<path d="M36.2274 38.8416C34.9438 38.8416 33.9048 37.7903 33.9048 36.4927C33.9048 35.1952 34.9453 34.1438 36.2274 34.1438C37.5094 34.1438 38.5499 35.1952 38.5499 36.4927C38.5499 37.7903 37.5094 38.8416 36.2274 38.8416ZM41.2999 37.3691V35.6179L40.3708 35.3067C40.2779 34.9769 40.1494 34.6641 39.9868 34.3715L40.4266 33.4873L39.2018 32.2486L38.327 32.693C38.0374 32.5289 37.7278 32.3973 37.401 32.3044L37.0929 31.3645H35.3603L35.0521 32.3044C34.727 32.3973 34.4158 32.5289 34.1262 32.693L33.2514 32.2486L32.0266 33.4873L32.4663 34.3715C32.3038 34.6641 32.1753 34.9784 32.0824 35.3067L31.1533 35.6179V37.3691L32.0824 37.6804C32.1753 38.0102 32.3038 38.3229 32.4663 38.6156L32.0266 39.4997L33.2514 40.7384L34.1262 40.294C34.4158 40.4582 34.7254 40.5898 35.0521 40.6827L35.3603 41.621H37.0929L37.401 40.6827C37.7262 40.5898 38.0374 40.4582 38.327 40.294L39.2018 40.7384L40.4266 39.4997L39.9868 38.6156C40.1494 38.3229 40.2779 38.0086 40.3708 37.6804L41.2999 37.3691Z" fill="url(#paint24_linear_776_8383)"/>
<path d="M36.326 38.7829C35.0424 38.7829 34.0034 37.7315 34.0034 36.434C34.0034 35.1364 35.0439 34.0851 36.326 34.0851C37.6081 34.0851 38.6486 35.1364 38.6486 36.434C38.6486 37.7315 37.6081 38.7829 36.326 38.7829ZM41.3985 37.3088V35.5576L40.4695 35.2464C40.3766 34.9166 40.2481 34.6038 40.0855 34.3096L40.5252 33.4255L39.3004 32.1868L38.4256 32.6312C38.1361 32.467 37.8264 32.3354 37.4997 32.2425L37.1916 31.3042H35.4589L35.1508 32.2425C34.8256 32.3354 34.5144 32.467 34.2248 32.6312L33.35 32.1868L32.1252 33.4255L32.565 34.3096C32.4024 34.6023 32.2739 34.9166 32.181 35.2464L31.252 35.5576V37.3088L32.181 37.6201C32.2739 37.9499 32.4024 38.2626 32.565 38.5553L32.1252 39.4394L33.35 40.6781L34.2248 40.2337C34.5144 40.3979 34.8241 40.5295 35.1508 40.6224L35.4589 41.5607H37.1916L37.4997 40.6224C37.8248 40.5295 38.1361 40.3979 38.4256 40.2337L39.3004 40.6781L40.5252 39.4394L40.0855 38.5553C40.2481 38.2626 40.3766 37.9483 40.4695 37.6201L41.3985 37.3088Z" fill="url(#paint25_linear_776_8383)"/>
<path d="M36.4237 38.7225C35.1401 38.7225 34.1011 37.6712 34.1011 36.3736C34.1011 35.0761 35.1416 34.0247 36.4237 34.0247C37.7057 34.0247 38.7462 35.0761 38.7462 36.3736C38.7462 37.6712 37.7057 38.7225 36.4237 38.7225ZM41.4962 37.25V35.4988L40.5671 35.1875C40.4742 34.8577 40.3457 34.545 40.1831 34.2508L40.6229 33.3666L39.3981 32.1279L38.5233 32.5723C38.2337 32.4082 37.924 32.2766 37.5973 32.1837L37.2892 31.2454H35.5566L35.2484 32.1837C34.9233 32.2766 34.6121 32.4082 34.3225 32.5723L33.4477 32.1279L32.2229 33.3666L32.6626 34.2508C32.5001 34.5434 32.3715 34.8577 32.2786 35.1875L31.3496 35.4988V37.25L32.2786 37.5612C32.3715 37.891 32.5001 38.2038 32.6626 38.4964L32.2229 39.3806L33.4477 40.6193L34.3225 40.1749C34.6121 40.339 34.9217 40.4706 35.2484 40.5635L35.5566 41.5018H37.2892L37.5973 40.5635C37.9225 40.4706 38.2337 40.339 38.5233 40.1749L39.3981 40.6193L40.6229 39.3806L40.1831 38.4964C40.3457 38.2038 40.4742 37.8895 40.5671 37.5612L41.4962 37.25Z" fill="url(#paint26_linear_776_8383)"/>
<path d="M36.5233 38.6635C35.2397 38.6635 34.2007 37.6122 34.2007 36.3146C34.2007 35.0171 35.2412 33.9657 36.5233 33.9657C37.8053 33.9657 38.8458 35.0171 38.8458 36.3146C38.8458 37.6122 37.8053 38.6635 36.5233 38.6635ZM41.5958 37.1894V35.4382L40.6667 35.127C40.5738 34.7972 40.4453 34.4844 40.2827 34.1918L40.7225 33.3076L39.4977 32.0689L38.6229 32.5133C38.3333 32.3492 38.0237 32.2176 37.6969 32.1247L37.3888 31.1848H35.6562L35.348 32.1247C35.0229 32.2176 34.7117 32.3492 34.4221 32.5133L33.5473 32.0689L32.3225 33.3076L32.7622 34.1918C32.5997 34.4844 32.4712 34.7987 32.3782 35.127L31.4492 35.4382V37.1894L32.3782 37.5007C32.4712 37.8305 32.5997 38.1432 32.7622 38.4359L32.3225 39.32L33.5473 40.5587L34.4221 40.1143C34.7117 40.2785 35.0213 40.4101 35.348 40.503L35.6562 41.4413H37.3888L37.6969 40.503C38.0221 40.4101 38.3333 40.2785 38.6229 40.1143L39.4977 40.5587L40.7225 39.32L40.2827 38.4359C40.4453 38.1432 40.5738 37.8289 40.6667 37.5007L41.5958 37.1894Z" fill="url(#paint27_linear_776_8383)"/>
<path d="M36.6209 38.6032C35.3373 38.6032 34.2984 37.5518 34.2984 36.2543C34.2984 34.9568 35.3389 33.9054 36.6209 33.9054C37.903 33.9054 38.9435 34.9568 38.9435 36.2543C38.9435 37.5518 37.903 38.6032 36.6209 38.6032ZM41.6934 37.1291V35.3779L40.7644 35.0667C40.6715 34.7369 40.543 34.4241 40.3804 34.1315L40.8201 33.2473L39.5954 32.0086L38.7205 32.453C38.431 32.2889 38.1213 32.1573 37.7946 32.0644L37.4865 31.1245H35.7538L35.4457 32.0644C35.1205 32.1573 34.8093 32.2889 34.5198 32.453L33.6449 32.0086L32.4202 33.2473L32.8599 34.1315C32.6973 34.4241 32.5688 34.7384 32.4759 35.0667L31.5469 35.3779V37.1291L32.4759 37.4404C32.5688 37.7702 32.6973 38.0829 32.8599 38.3756L32.4202 39.2597L33.6449 40.4984L34.5198 40.054C34.8093 40.2182 35.119 40.3498 35.4457 40.4427L35.7538 41.381H37.4865L37.7946 40.4427C38.1198 40.3498 38.431 40.2182 38.7205 40.054L39.5954 40.4984L40.8201 39.2597L40.3804 38.3756C40.543 38.0829 40.6715 37.7686 40.7644 37.4404L41.6934 37.1291Z" fill="url(#paint28_linear_776_8383)"/>
<path d="M36.7196 38.5444C35.4359 38.5444 34.397 37.493 34.397 36.1955C34.397 34.8979 35.4375 33.8466 36.7196 33.8466C38.0016 33.8466 39.0421 34.8979 39.0421 36.1955C39.0421 37.493 38.0016 38.5444 36.7196 38.5444ZM41.7921 37.0703V35.3191L40.863 35.0079C40.7701 34.6781 40.6416 34.3653 40.479 34.0726L40.9188 33.1885L39.694 31.9498L38.8192 32.3942C38.5296 32.2301 38.2199 32.0984 37.8932 32.0055L37.5851 31.0657H35.8525L35.5443 32.0055C35.2192 32.0984 34.9079 32.2301 34.6184 32.3942L33.7436 31.9498L32.5188 33.1885L32.9585 34.0726C32.796 34.3653 32.6674 34.6796 32.5745 35.0079L31.6455 35.3191V37.0703L32.5745 37.3815C32.6674 37.7113 32.796 38.0241 32.9585 38.3168L32.5188 39.2009L33.7436 40.4396L34.6184 39.9952C34.9079 40.1593 35.2176 40.2909 35.5443 40.3838L35.8525 41.3222H37.5851L37.8932 40.3838C38.2184 40.2909 38.5296 40.1593 38.8192 39.9952L39.694 40.4396L40.9188 39.2009L40.479 38.3168C40.6416 38.0241 40.7701 37.7098 40.863 37.3815L41.7921 37.0703Z" fill="url(#paint29_linear_776_8383)"/>
<path d="M36.8188 38.4841C35.5352 38.4841 34.4962 37.4327 34.4962 36.1352C34.4962 34.8376 35.5367 33.7863 36.8188 33.7863C38.1008 33.7863 39.1413 34.8376 39.1413 36.1352C39.1413 37.4327 38.1008 38.4841 36.8188 38.4841ZM41.8897 37.01V35.2588L40.9607 34.9476C40.8678 34.6177 40.7393 34.305 40.5767 34.0123L41.0164 33.1282L39.7917 31.8895L38.9168 32.3339C38.6273 32.1698 38.3176 32.0381 37.9909 31.9452L37.6828 31.0054H35.9501L35.642 31.9452C35.3168 32.0381 35.0056 32.1698 34.7161 32.3339L33.8412 31.8895L32.6165 33.1282L33.0562 34.0123C32.8936 34.305 32.7651 34.6193 32.6722 34.9476L31.7432 35.2588V37.01L32.6722 37.3212C32.7651 37.651 32.8936 37.9638 33.0562 38.2564L32.6165 39.1406L33.8412 40.3793L34.7161 39.9349C35.0056 40.099 35.3153 40.2306 35.642 40.3235L35.9501 41.2619H37.6828L37.9909 40.3235C38.3161 40.2306 38.6273 40.099 38.9168 39.9349L39.7917 40.3793L41.0164 39.1406L40.5767 38.2564C40.7393 37.9638 40.8678 37.6495 40.9607 37.3212L41.8897 37.01Z" fill="url(#paint30_linear_776_8383)"/>
<path d="M36.9168 38.4237C35.6332 38.4237 34.5943 37.3723 34.5943 36.0748C34.5943 34.7772 35.6348 33.7259 36.9168 33.7259C38.1989 33.7259 39.2394 34.7772 39.2394 36.0748C39.2394 37.3723 38.1989 38.4237 36.9168 38.4237ZM41.9893 36.9512V35.1999L41.0603 34.8887C40.9674 34.5589 40.8389 34.2461 40.6763 33.9535L41.116 33.0694L39.8913 31.8307L39.0164 32.275C38.7269 32.1109 38.4172 31.9793 38.0905 31.8864L37.7824 30.9465H36.0497L35.7416 31.8864C35.4164 31.9793 35.1052 32.1109 34.8157 32.275L33.9408 31.8307L32.7161 33.0694L33.1558 33.9535C32.9932 34.2461 32.8647 34.5605 32.7718 34.8887L31.8428 35.1999V36.9512L32.7718 37.2624C32.8647 37.5922 32.9932 37.905 33.1558 38.1976L32.7161 39.0817L33.9408 40.3204L34.8157 39.8761C35.1052 40.0402 35.4149 40.1718 35.7416 40.2647L36.0497 41.203H37.7824L38.0905 40.2647C38.4157 40.1718 38.7269 40.0402 39.0164 39.8761L39.8913 40.3204L41.116 39.0817L40.6763 38.1976C40.8389 37.905 40.9674 37.5906 41.0603 37.2624L41.9893 36.9512Z" fill="url(#paint31_linear_776_8383)"/>
<path d="M37.0151 38.3647C35.7314 38.3647 34.6925 37.3133 34.6925 36.0158C34.6925 34.7182 35.733 33.6669 37.0151 33.6669C38.2971 33.6669 39.3376 34.7182 39.3376 36.0158C39.3376 37.3133 38.2971 38.3647 37.0151 38.3647ZM42.086 36.8906V35.1394L41.157 34.8282C41.0641 34.4984 40.9356 34.1856 40.773 33.8929L41.2127 33.0088L39.9879 31.7701L39.1131 32.2145C38.8236 32.0504 38.5139 31.9188 38.1872 31.8259L37.8791 30.886H36.1464L35.8383 31.8259C35.5131 31.9188 35.2019 32.0504 34.9123 32.2145L34.0375 31.7701L32.8127 33.0088L33.2525 33.8929C33.0899 34.1856 32.9614 34.4999 32.8685 34.8282L31.9395 35.1394V36.8906L32.8685 37.2018C32.9614 37.5316 33.0899 37.8444 33.2525 38.1371L32.8127 39.0212L34.0375 40.2599L34.9123 39.8155C35.2019 39.9796 35.5116 40.1112 35.8383 40.2042L36.1464 41.1425H37.8791L38.1872 40.2042C38.5123 40.1112 38.8236 39.9796 39.1131 39.8155L39.9879 40.2599L41.2127 39.0212L40.773 38.1371C40.9356 37.8444 41.0641 37.5301 41.157 37.2018L42.086 36.8906Z" fill="url(#paint32_linear_776_8383)"/>
<path d="M37.1131 38.3043C35.8295 38.3043 34.7905 37.2529 34.7905 35.9554C34.7905 34.6578 35.8311 33.6065 37.1131 33.6065C38.3952 33.6065 39.4357 34.6578 39.4357 35.9554C39.4357 37.2529 38.3952 38.3043 37.1131 38.3043ZM42.1856 36.8318V35.0806L41.2566 34.7693C41.1637 34.4395 41.0352 34.1268 40.8726 33.8341L41.3123 32.95L40.0876 31.7113L39.2127 32.1557C38.9232 31.9915 38.6135 31.8599 38.2868 31.767L37.9787 30.8271H36.246L35.9379 31.767C35.6127 31.8599 35.3015 31.9915 35.012 32.1557L34.1371 31.7113L32.9124 32.95L33.3521 33.8341C33.1895 34.1268 33.061 34.4411 32.9681 34.7693L32.0391 35.0806V36.8318L32.9681 37.143C33.061 37.4728 33.1895 37.7856 33.3521 38.0782L32.9124 38.9624L34.1371 40.2011L35.012 39.7567C35.3015 39.9208 35.6112 40.0524 35.9379 40.1453L36.246 41.0836H37.9787L38.2868 40.1453C38.6119 40.0524 38.9232 39.9208 39.2127 39.7567L40.0876 40.2011L41.3123 38.9624L40.8726 38.0782C41.0352 37.7856 41.1637 37.4713 41.2566 37.143L42.1856 36.8318Z" fill="url(#paint33_linear_776_8383)"/>
<path d="M42.1856 36.8318V35.0806L41.2566 34.7693C41.1637 34.4395 41.0352 34.1268 40.8726 33.8341L41.3123 32.95L40.0876 31.7113L39.2127 32.1557C38.9232 31.9915 38.6135 31.8599 38.2868 31.767L37.9787 30.8271H36.246L35.9379 31.767C35.6127 31.8599 35.3015 31.9915 35.012 32.1557L34.1371 31.7113L32.9124 32.95L33.3521 33.8341C33.1895 34.1268 33.061 34.4411 32.9681 34.7693L32.0391 35.0806V36.8318L32.9681 37.143C33.061 37.4728 33.1895 37.7856 33.3521 38.0782L32.9124 38.9624L34.1371 40.2011L35.012 39.7567C35.3015 39.9208 35.6112 40.0524 35.9379 40.1453L36.246 41.0836H37.9787L38.2868 40.1453C38.6119 40.0524 38.9232 39.9208 39.2127 39.7567L40.0876 40.2011L41.3123 38.9624L40.8726 38.0782C41.0352 37.7856 41.1637 37.4713 41.2566 37.143L42.1856 36.8318ZM37.1131 38.3043C35.8295 38.3043 34.7905 37.2529 34.7905 35.9554C34.7905 34.6578 35.8311 33.6065 37.1131 33.6065C38.3952 33.6065 39.4357 34.6578 39.4357 35.9554C39.4357 37.2529 38.3952 38.3043 37.1131 38.3043Z" fill="#FDCA5D"/>
<path d="M39.1776 27.0166C37.894 27.0166 36.855 25.9653 36.855 24.6677C36.855 23.3702 37.8955 22.3188 39.1776 22.3188C40.4596 22.3188 41.5001 23.3702 41.5001 24.6677C41.5001 25.9653 40.4596 27.0166 39.1776 27.0166ZM44.2501 25.5426V23.7913L43.321 23.4801C43.2281 23.1503 43.0996 22.8375 42.937 22.5433L43.3768 21.6592L42.152 20.4205L41.2772 20.8649C40.9876 20.7008 40.6779 20.5691 40.3512 20.4762L40.0431 19.5364H38.3105L38.0023 20.4762C37.6772 20.5691 37.366 20.7008 37.0764 20.8649L36.2016 20.4205L34.9768 21.6592L35.4165 22.5433C35.254 22.836 35.1254 23.1503 35.0325 23.4801L34.1035 23.7913V25.5426L35.0325 25.8538C35.1254 26.1836 35.254 26.4964 35.4165 26.789L34.9768 27.6731L36.2016 28.9118L37.0764 28.4674C37.366 28.6316 37.6756 28.7632 38.0023 28.8561L38.3105 29.7944H40.0431L40.3512 28.8561C40.6764 28.7632 40.9876 28.6316 41.2772 28.4674L42.152 28.9118L43.3768 27.6731L42.937 26.789C43.0996 26.4964 43.2281 26.182 43.321 25.8538L44.2501 25.5426Z" fill="url(#paint34_linear_776_8383)"/>
<path d="M39.0854 27.0956C37.8018 27.0956 36.7628 26.0443 36.7628 24.7467C36.7628 23.4492 37.8033 22.3978 39.0854 22.3978C40.3674 22.3978 41.4079 23.4492 41.4079 24.7467C41.4079 26.0443 40.3674 27.0956 39.0854 27.0956ZM44.1563 25.6231V23.8719L43.2273 23.5607C43.1344 23.2309 43.0059 22.9181 42.8433 22.6239L43.283 21.7398L42.0583 20.5011L41.1834 20.9455C40.8939 20.7813 40.5842 20.6497 40.2575 20.5568L39.9494 19.6169H38.2167L37.9086 20.5568C37.5834 20.6497 37.2722 20.7813 36.9827 20.9455L36.1078 20.5011L34.8831 21.7398L35.3228 22.6239C35.1602 22.9165 35.0317 23.2309 34.9388 23.5607L34.0098 23.8719V25.6231L34.9388 25.9343C35.0317 26.2642 35.1602 26.5769 35.3228 26.8696L34.8831 27.7537L36.1078 28.9924L36.9827 28.548C37.2722 28.7121 37.5819 28.8438 37.9086 28.9367L38.2167 29.875H39.9494L40.2575 28.9367C40.5827 28.8438 40.8939 28.7121 41.1834 28.548L42.0583 28.9924L43.283 27.7537L42.8433 26.8696C43.0059 26.5769 43.1344 26.2626 43.2273 25.9343L44.1563 25.6231Z" fill="url(#paint35_linear_776_8383)"/>
<path d="M38.993 27.176C37.7094 27.176 36.6704 26.1247 36.6704 24.8271C36.6704 23.5296 37.7109 22.4782 38.993 22.4782C40.2751 22.4782 41.3156 23.5296 41.3156 24.8271C41.3156 26.1247 40.2751 27.176 38.993 27.176ZM44.0655 25.702V23.9508L43.1365 23.6395C43.0436 23.3097 42.9151 22.997 42.7525 22.7028L43.1922 21.8186L41.9674 20.5799L41.0926 21.0243C40.8031 20.8602 40.4934 20.7286 40.1667 20.6357L39.8585 19.6958H38.1259L37.8178 20.6357C37.4926 20.7286 37.1814 20.8602 36.8918 21.0243L36.017 20.5799L34.7922 21.8186L35.232 22.7028C35.0694 22.9954 34.9409 23.3097 34.848 23.6395L33.9189 23.9508V25.702L34.848 26.0132C34.9409 26.343 35.0694 26.6558 35.232 26.9484L34.7922 27.8326L36.017 29.0713L36.8918 28.6269C37.1814 28.791 37.4911 28.9226 37.8178 29.0155L38.1259 29.9538H39.8585L40.1667 29.0155C40.4918 28.9226 40.8031 28.791 41.0926 28.6269L41.9674 29.0713L43.1922 27.8326L42.7525 26.9484C42.9151 26.6558 43.0436 26.3415 43.1365 26.0132L44.0655 25.702Z" fill="url(#paint36_linear_776_8383)"/>
<path d="M38.9002 27.2551C37.6166 27.2551 36.5776 26.2037 36.5776 24.9062C36.5776 23.6086 37.6182 22.5573 38.9002 22.5573C40.1823 22.5573 41.2228 23.6086 41.2228 24.9062C41.2228 26.2037 40.1823 27.2551 38.9002 27.2551ZM43.9727 25.7825V24.0313L43.0437 23.7201C42.9508 23.3903 42.8223 23.0775 42.6597 22.7833L43.0994 21.8992L41.8747 20.6605L40.9998 21.1049C40.7103 20.9408 40.4006 20.8091 40.0739 20.7162L39.7658 19.7764H38.0331L37.725 20.7162C37.3998 20.8091 37.0886 20.9408 36.7991 21.1049L35.9242 20.6605L34.6995 21.8992L35.1392 22.7833C34.9766 23.076 34.8481 23.3903 34.7552 23.7201L33.8262 24.0313V25.7825L34.7552 26.0938C34.8481 26.4236 34.9766 26.7363 35.1392 27.029L34.6995 27.9131L35.9242 29.1518L36.7991 28.7074C37.0886 28.8716 37.3983 29.0032 37.725 29.0961L38.0331 30.0344H39.7658L40.0739 29.0961C40.3991 29.0032 40.7103 28.8716 40.9998 28.7074L41.8747 29.1518L43.0994 27.9131L42.6597 27.029C42.8223 26.7363 42.9508 26.422 43.0437 26.0938L43.9727 25.7825Z" fill="url(#paint37_linear_776_8383)"/>
<path d="M38.8084 27.3356C37.5248 27.3356 36.4859 26.2843 36.4859 24.9867C36.4859 23.6892 37.5264 22.6378 38.8084 22.6378C40.0905 22.6378 41.131 23.6892 41.131 24.9867C41.131 26.2843 40.0905 27.3356 38.8084 27.3356ZM43.8809 25.8616V24.1103L42.9519 23.7991C42.859 23.4693 42.7305 23.1565 42.5679 22.8623L43.0076 21.9782L41.7829 20.7395L40.908 21.1839C40.6185 21.0198 40.3088 20.8882 39.9821 20.7953L39.674 19.8569H37.9413L37.6332 20.7953C37.308 20.8882 36.9968 21.0198 36.7073 21.1839L35.8324 20.7395L34.6077 21.9782L35.0474 22.8623C34.8848 23.155 34.7563 23.4693 34.6634 23.7991L33.7344 24.1103V25.8616L34.6634 26.1728C34.7563 26.5026 34.8848 26.8154 35.0474 27.108L34.6077 27.9921L35.8324 29.2308L36.7073 28.7865C36.9968 28.9506 37.3065 29.0822 37.6332 29.1751L37.9413 30.1134H39.674L39.9821 29.1751C40.3073 29.0822 40.6185 28.9506 40.908 28.7865L41.7829 29.2308L43.0076 27.9921L42.5679 27.108C42.7305 26.8154 42.859 26.501 42.9519 26.1728L43.8809 25.8616Z" fill="url(#paint38_linear_776_8383)"/>
<path d="M38.7157 27.4146C37.432 27.4146 36.3931 26.3632 36.3931 25.0657C36.3931 23.7681 37.4336 22.7168 38.7157 22.7168C39.9977 22.7168 41.0382 23.7681 41.0382 25.0657C41.0382 26.3632 39.9977 27.4146 38.7157 27.4146ZM43.7882 25.9405V24.1893L42.8591 23.8781C42.7662 23.5483 42.6377 23.2355 42.4751 22.9413L42.9149 22.0572L41.6901 20.8185L40.8153 21.2628C40.5257 21.0987 40.216 20.9671 39.8893 20.8742L39.5812 19.9343H37.8486L37.5404 20.8742C37.2153 20.9671 36.904 21.0987 36.6145 21.2628L35.7397 20.8185L34.5149 22.0572L34.9546 22.9413C34.792 23.2339 34.6635 23.5483 34.5706 23.8781L33.6416 24.1893V25.9405L34.5706 26.2517C34.6635 26.5815 34.792 26.8943 34.9546 27.187L34.5149 28.0711L35.7397 29.3098L36.6145 28.8654C36.904 29.0295 37.2137 29.1611 37.5404 29.254L37.8486 30.1924H39.5812L39.8893 29.254C40.2145 29.1611 40.5257 29.0295 40.8153 28.8654L41.6901 29.3098L42.9149 28.0711L42.4751 27.187C42.6377 26.8943 42.7662 26.58 42.8591 26.2517L43.7882 25.9405Z" fill="url(#paint39_linear_776_8383)"/>
<path d="M38.6229 27.4951C37.3393 27.4951 36.3003 26.4438 36.3003 25.1462C36.3003 23.8487 37.3408 22.7973 38.6229 22.7973C39.9049 22.7973 40.9455 23.8487 40.9455 25.1462C40.9455 26.4438 39.9049 27.4951 38.6229 27.4951ZM43.6954 26.0211V24.2698L42.7664 23.9586C42.6734 23.6288 42.5449 23.316 42.3824 23.0219L42.8221 22.1377L41.5973 20.899L40.7225 21.3434C40.4329 21.1793 40.1233 21.0477 39.7966 20.9548L39.4884 20.0149H37.7558L37.4477 20.9548C37.1225 21.0477 36.8113 21.1793 36.5217 21.3434L35.6469 20.899L34.4221 22.1377L34.8619 23.0219C34.6993 23.3145 34.5708 23.6288 34.4779 23.9586L33.5488 24.2698V26.0211L34.4779 26.3323C34.5708 26.6621 34.6993 26.9749 34.8619 27.2675L34.4221 28.1516L35.6469 29.3904L36.5217 28.946C36.8113 29.1101 37.1209 29.2417 37.4477 29.3346L37.7558 30.2729H39.4884L39.7966 29.3346C40.1217 29.2417 40.4329 29.1101 40.7225 28.946L41.5973 29.3904L42.8221 28.1516L42.3824 27.2675C42.5449 26.9749 42.6734 26.6606 42.7664 26.3323L43.6954 26.0211Z" fill="url(#paint40_linear_776_8383)"/>
<path d="M38.5311 27.5741C37.2475 27.5741 36.2085 26.5228 36.2085 25.2253C36.2085 23.9277 37.249 22.8764 38.5311 22.8764C39.8131 22.8764 40.8537 23.9277 40.8537 25.2253C40.8537 26.5228 39.8131 27.5741 38.5311 27.5741ZM43.6036 26.1001V24.3489L42.6746 24.0376C42.5817 23.7078 42.4531 23.3951 42.2906 23.1009L42.7303 22.2167L41.5055 20.978L40.6307 21.4224C40.3411 21.2583 40.0315 21.1267 39.7048 21.0338L39.3966 20.0955H37.664L37.3559 21.0338C37.0307 21.1267 36.7195 21.2583 36.4299 21.4224L35.5551 20.978L34.3303 22.2167L34.7701 23.1009C34.6075 23.3935 34.479 23.7078 34.3861 24.0376L33.457 24.3489V26.1001L34.3861 26.4113C34.479 26.7411 34.6075 27.0539 34.7701 27.3465L34.3303 28.2307L35.5551 29.4694L36.4299 29.025C36.7195 29.1891 37.0292 29.3207 37.3559 29.4136L37.664 30.3519H39.3966L39.7048 29.4136C40.0299 29.3207 40.3411 29.1891 40.6307 29.025L41.5055 29.4694L42.7303 28.2307L42.2906 27.3465C42.4531 27.0539 42.5817 26.7396 42.6746 26.4113L43.6036 26.1001Z" fill="url(#paint41_linear_776_8383)"/>
<path d="M38.4383 27.653C37.1547 27.653 36.1157 26.6017 36.1157 25.3041C36.1157 24.0066 37.1562 22.9552 38.4383 22.9552C39.7204 22.9552 40.7609 24.0066 40.7609 25.3041C40.7609 26.6017 39.7204 27.653 38.4383 27.653ZM43.5108 26.1805V24.4293L42.5818 24.118C42.4889 23.7882 42.3604 23.4755 42.1978 23.1813L42.6375 22.2971L41.4128 21.0584L40.5379 21.5028C40.2484 21.3387 39.9387 21.2071 39.612 21.1142L39.3039 20.1743H37.5712L37.2631 21.1142C36.9379 21.2071 36.6267 21.3387 36.3372 21.5028L35.4623 21.0584L34.2375 22.2971L34.6773 23.1813C34.5147 23.4739 34.3862 23.7882 34.2933 24.118L33.3643 24.4293V26.1805L34.2933 26.4917C34.3862 26.8215 34.5147 27.1343 34.6773 27.4269L34.2375 28.3111L35.4623 29.5498L36.3372 29.1054C36.6267 29.2695 36.9364 29.4011 37.2631 29.494L37.5712 30.4324H39.3039L39.612 29.494C39.9371 29.4011 40.2484 29.2695 40.5379 29.1054L41.4128 29.5498L42.6375 28.3111L42.1978 27.4269C42.3604 27.1343 42.4889 26.82 42.5818 26.4917L43.5108 26.1805Z" fill="url(#paint42_linear_776_8383)"/>
<path d="M38.3471 27.7337C37.0635 27.7337 36.0245 26.6823 36.0245 25.3848C36.0245 24.0872 37.065 23.0359 38.3471 23.0359C39.6291 23.0359 40.6697 24.0872 40.6697 25.3848C40.6697 26.6823 39.6291 27.7337 38.3471 27.7337ZM43.418 26.2596V24.5084L42.489 24.1971C42.3961 23.8673 42.2676 23.5546 42.105 23.2604L42.5447 22.3763L41.32 21.1375L40.4451 21.5819C40.1556 21.4178 39.8459 21.2862 39.5192 21.1933L39.2111 20.2534H37.4784L37.1703 21.1933C36.8452 21.2862 36.5339 21.4178 36.2444 21.5819L35.3695 21.1375L34.1448 22.3763L34.5845 23.2604C34.4219 23.553 34.2934 23.8673 34.2005 24.1971L33.2715 24.5084V26.2596L34.2005 26.5708C34.2934 26.9006 34.4219 27.2134 34.5845 27.506L34.1448 28.3902L35.3695 29.6289L36.2444 29.1845C36.5339 29.3486 36.8436 29.4802 37.1703 29.5731L37.4784 30.5115H39.2111L39.5192 29.5731C39.8444 29.4802 40.1556 29.3486 40.4451 29.1845L41.32 29.6289L42.5447 28.3902L42.105 27.506C42.2676 27.2134 42.3961 26.8991 42.489 26.5708L43.418 26.2596Z" fill="url(#paint43_linear_776_8383)"/>
<path d="M38.2547 27.8126C36.9711 27.8126 35.9321 26.7612 35.9321 25.4637C35.9321 24.1661 36.9727 23.1148 38.2547 23.1148C39.5368 23.1148 40.5773 24.1661 40.5773 25.4637C40.5773 26.7612 39.5368 27.8126 38.2547 27.8126ZM43.3272 26.3401V24.5889L42.3982 24.2776C42.3053 23.9478 42.1768 23.6351 42.0142 23.3409L42.4539 22.4567L41.2292 21.218L40.3543 21.6624C40.0648 21.4983 39.7551 21.3667 39.4284 21.2738L39.1203 20.3354H37.3876L37.0795 21.2738C36.7543 21.3667 36.4431 21.4983 36.1536 21.6624L35.2787 21.218L34.054 22.4567L34.4937 23.3409C34.3311 23.6335 34.2026 23.9478 34.1097 24.2776L33.1807 24.5889V26.3401L34.1097 26.6513C34.2026 26.9811 34.3311 27.2939 34.4937 27.5865L34.054 28.4707L35.2787 29.7094L36.1536 29.265C36.4431 29.4291 36.7528 29.5607 37.0795 29.6536L37.3876 30.5919H39.1203L39.4284 29.6536C39.7536 29.5607 40.0648 29.4291 40.3543 29.265L41.2292 29.7094L42.4539 28.4707L42.0142 27.5865C42.1768 27.2939 42.3053 26.9796 42.3982 26.6513L43.3272 26.3401Z" fill="url(#paint44_linear_776_8383)"/>
<path d="M38.161 27.8931C36.8774 27.8931 35.8384 26.8417 35.8384 25.5442C35.8384 24.2466 36.8789 23.1953 38.161 23.1953C39.443 23.1953 40.4835 24.2466 40.4835 25.5442C40.4835 26.8417 39.443 27.8931 38.161 27.8931ZM43.2335 26.419V24.6678L42.3044 24.3566C42.2115 24.0268 42.083 23.714 41.9204 23.4198L42.3602 22.5357L41.1354 21.297L40.2606 21.7414C39.971 21.5772 39.6613 21.4456 39.3346 21.3527L39.0265 20.4128H37.2939L36.9857 21.3527C36.6606 21.4456 36.3494 21.5772 36.0598 21.7414L35.185 21.297L33.9602 22.5357L34.3999 23.4198C34.2374 23.7124 34.1088 24.0268 34.0159 24.3566L33.0869 24.6678V26.419L34.0159 26.7302C34.1088 27.0601 34.2374 27.3728 34.3999 27.6655L33.9602 28.5496L35.185 29.7883L36.0598 29.3439C36.3494 29.508 36.659 29.6397 36.9857 29.7326L37.2939 30.6709H39.0265L39.3346 29.7326C39.6598 29.6397 39.971 29.508 40.2606 29.3439L41.1354 29.7883L42.3602 28.5496L41.9204 27.6655C42.083 27.3728 42.2115 27.0585 42.3044 26.7302L43.2335 26.419Z" fill="url(#paint45_linear_776_8383)"/>
<path d="M38.0697 27.9721C36.7861 27.9721 35.7472 26.9207 35.7472 25.6232C35.7472 24.3257 36.7877 23.2743 38.0697 23.2743C39.3518 23.2743 40.3923 24.3257 40.3923 25.6232C40.3923 26.9207 39.3518 27.9721 38.0697 27.9721ZM43.1407 26.498V24.7468L42.2117 24.4356C42.1188 24.1058 41.9902 23.793 41.8277 23.4988L42.2674 22.6147L41.0426 21.376L40.1678 21.8204C39.8783 21.6562 39.5686 21.5246 39.2419 21.4317L38.9337 20.4934H37.2011L36.893 21.4317C36.5678 21.5246 36.2566 21.6562 35.967 21.8204L35.0922 21.376L33.8674 22.6147L34.3072 23.4988C34.1446 23.7915 34.0161 24.1058 33.9232 24.4356L32.9941 24.7468V26.498L33.9232 26.8093C34.0161 27.1391 34.1446 27.4518 34.3072 27.7445L33.8674 28.6286L35.0922 29.8673L35.967 29.4229C36.2566 29.5871 36.5663 29.7187 36.893 29.8116L37.2011 30.7499H38.9337L39.2419 29.8116C39.567 29.7187 39.8783 29.5871 40.1678 29.4229L41.0426 29.8673L42.2674 28.6286L41.8277 27.7445C41.9902 27.4518 42.1188 27.1375 42.2117 26.8093L43.1407 26.498Z" fill="url(#paint46_linear_776_8383)"/>
<path d="M37.9774 28.0524C36.6938 28.0524 35.6548 27.0011 35.6548 25.7035C35.6548 24.406 36.6953 23.3546 37.9774 23.3546C39.2594 23.3546 40.2999 24.406 40.2999 25.7035C40.2999 27.0011 39.2594 28.0524 37.9774 28.0524ZM43.0499 26.5784V24.8271L42.1208 24.5159C42.0279 24.1861 41.8994 23.8733 41.7368 23.5791L42.1766 22.695L40.9518 21.4563L40.077 21.9007C39.7874 21.7366 39.4778 21.605 39.151 21.5121L38.8429 20.5737H37.1103L36.8021 21.5121C36.477 21.605 36.1658 21.7366 35.8762 21.9007L35.0014 21.4563L33.7766 22.695L34.2163 23.5791C34.0538 23.8718 33.9253 24.1861 33.8324 24.5159L32.9033 24.8271V26.5784L33.8324 26.8896C33.9253 27.2194 34.0538 27.5322 34.2163 27.8248L33.7766 28.7089L35.0014 29.9476L35.8762 29.5033C36.1658 29.6674 36.4754 29.799 36.8021 29.8919L37.1103 30.8302H38.8429L39.151 29.8919C39.4762 29.799 39.7874 29.6674 40.077 29.5033L40.9518 29.9476L42.1766 28.7089L41.7368 27.8248C41.8994 27.5322 42.0279 27.2178 42.1208 26.8896L43.0499 26.5784Z" fill="url(#paint47_linear_776_8383)"/>
<path d="M37.8846 28.1315C36.601 28.1315 35.562 27.0802 35.562 25.7826C35.562 24.4851 36.6025 23.4337 37.8846 23.4337C39.1667 23.4337 40.2072 24.4851 40.2072 25.7826C40.2072 27.0802 39.1667 28.1315 37.8846 28.1315ZM42.9571 26.6575V24.9062L42.0281 24.595C41.9352 24.2652 41.8067 23.9524 41.6441 23.6582L42.0838 22.7741L40.859 21.5354L39.9842 21.9798C39.6947 21.8157 39.385 21.6841 39.0583 21.5912L38.7501 20.6528H37.0175L36.7094 21.5912C36.3842 21.6841 36.073 21.8157 35.7834 21.9798L34.9086 21.5354L33.6838 22.7741L34.1236 23.6582C33.961 23.9509 33.8325 24.2652 33.7396 24.595L32.8105 24.9062V26.6575L33.7396 26.9687C33.8325 27.2985 33.961 27.6113 34.1236 27.9039L33.6838 28.788L34.9086 30.0267L35.7834 29.5824C36.073 29.7465 36.3827 29.8781 36.7094 29.971L37.0175 30.9093H38.7501L39.0583 29.971C39.3834 29.8781 39.6947 29.7465 39.9842 29.5824L40.859 30.0267L42.0838 28.788L41.6441 27.9039C41.8067 27.6113 41.9352 27.2969 42.0281 26.9687L42.9571 26.6575Z" fill="url(#paint48_linear_776_8383)"/>
<path d="M37.7934 28.2105C36.5098 28.2105 35.4708 27.1592 35.4708 25.8616C35.4708 24.5641 36.5113 23.5127 37.7934 23.5127C39.0754 23.5127 40.1159 24.5641 40.1159 25.8616C40.1159 27.1592 39.0754 28.2105 37.7934 28.2105ZM42.8643 26.738V24.9868L41.9353 24.6756C41.8424 24.3458 41.7139 24.033 41.5513 23.7388L41.991 22.8547L40.7663 21.616L39.8914 22.0604C39.6019 21.8962 39.2922 21.7646 38.9655 21.6717L38.6574 20.7334H36.9247L36.6166 21.6717C36.2914 21.7646 35.9802 21.8962 35.6907 22.0604L34.8158 21.616L33.5911 22.8547L34.0308 23.7388C33.8682 24.0315 33.7397 24.3458 33.6468 24.6756L32.7178 24.9868V26.738L33.6468 27.0493C33.7397 27.3791 33.8682 27.6918 34.0308 27.9845L33.5911 28.8686L34.8158 30.1073L35.6907 29.6629C35.9802 29.8271 36.2899 29.9587 36.6166 30.0516L36.9247 30.9899H38.6574L38.9655 30.0516C39.2907 29.9587 39.6019 29.8271 39.8914 29.6629L40.7663 30.1073L41.991 28.8686L41.5513 27.9845C41.7139 27.6918 41.8424 27.3775 41.9353 27.0493L42.8643 26.738Z" fill="url(#paint49_linear_776_8383)"/>
<path d="M37.7 28.2909C36.4164 28.2909 35.3775 27.2396 35.3775 25.942C35.3775 24.6445 36.418 23.5932 37.7 23.5932C38.9821 23.5932 40.0226 24.6445 40.0226 25.942C40.0226 27.2396 38.9821 28.2909 37.7 28.2909ZM42.7725 26.8169V25.0657L41.8435 24.7544C41.7506 24.4246 41.6221 24.1119 41.4595 23.8177L41.8992 22.9335L40.6745 21.6948L39.7996 22.1392C39.5101 21.9751 39.2004 21.8435 38.8737 21.7506L38.5656 20.8123H36.8329L36.5248 21.7506C36.1996 21.8435 35.8884 21.9751 35.5989 22.1392L34.724 21.6948L33.4993 22.9335L33.939 23.8177C33.7764 24.1103 33.6479 24.4246 33.555 24.7544L32.626 25.0657V26.8169L33.555 27.1281C33.6479 27.4579 33.7764 27.7707 33.939 28.0633L33.4993 28.9475L34.724 30.1862L35.5989 29.7418C35.8884 29.9059 36.1981 30.0375 36.5248 30.1304L36.8329 31.0687H38.5656L38.8737 30.1304C39.1989 30.0375 39.5101 29.9059 39.7996 29.7418L40.6745 30.1862L41.8992 28.9475L41.4595 28.0633C41.6221 27.7707 41.7506 27.4564 41.8435 27.1281L42.7725 26.8169Z" fill="url(#paint50_linear_776_8383)"/>
<path d="M42.7725 26.8169V25.0657L41.8435 24.7544C41.7506 24.4246 41.6221 24.1119 41.4595 23.8177L41.8992 22.9335L40.6745 21.6948L39.7996 22.1392C39.5101 21.9751 39.2004 21.8435 38.8737 21.7506L38.5656 20.8123H36.8329L36.5248 21.7506C36.1996 21.8435 35.8884 21.9751 35.5989 22.1392L34.724 21.6948L33.4993 22.9335L33.939 23.8177C33.7764 24.1103 33.6479 24.4246 33.555 24.7544L32.626 25.0657V26.8169L33.555 27.1281C33.6479 27.4579 33.7764 27.7707 33.939 28.0633L33.4993 28.9475L34.724 30.1862L35.5989 29.7418C35.8884 29.9059 36.1981 30.0375 36.5248 30.1304L36.8329 31.0687H38.5656L38.8737 30.1304C39.1989 30.0375 39.5101 29.9059 39.7996 29.7418L40.6745 30.1862L41.8992 28.9475L41.4595 28.0633C41.6221 27.7707 41.7506 27.4564 41.8435 27.1281L42.7725 26.8169ZM37.7 28.2909C36.4164 28.2909 35.3775 27.2396 35.3775 25.942C35.3775 24.6445 36.418 23.5932 37.7 23.5932C38.9821 23.5932 40.0226 24.6445 40.0226 25.942C40.0226 27.2396 38.9821 28.2909 37.7 28.2909Z" fill="#F7F7F7"/>
</g>
<defs>
<filter id="filter0_d_776_8383" x="14.5596" y="16.3608" width="40.6904" height="36.6782" filterUnits="userSpaceOnUse" color-interpolation-filters="sRGB">
<feFlood flood-opacity="0" result="BackgroundImageFix"/>
<feColorMatrix in="SourceAlpha" type="matrix" values="0 0 0 0 0 0 0 0 0 0 0 0 0 0 0 0 0 0 127 0" result="hardAlpha"/>
<feOffset dx="5" dy="5"/>
<feGaussianBlur stdDeviation="3"/>
<feComposite in2="hardAlpha" operator="out"/>
<feColorMatrix type="matrix" values="0 0 0 0 0.211765 0 0 0 0 0.286275 0 0 0 0 0.686275 0 0 0 0.25 0"/>
<feBlend mode="normal" in2="BackgroundImageFix" result="effect1_dropShadow_776_8383"/>
<feBlend mode="normal" in="SourceGraphic" in2="effect1_dropShadow_776_8383" result="shape"/>
</filter>
<linearGradient id="paint0_linear_776_8383" x1="26.9738" y1="16.2491" x2="26.9738" y2="31.3644" gradientUnits="userSpaceOnUse">
<stop stop-color="#F9BC4A"/>
<stop offset="1" stop-color="#E39224"/>
</linearGradient>
<linearGradient id="paint1_linear_776_8383" x1="26.8191" y1="16.2492" x2="26.8191" y2="31.3645" gradientUnits="userSpaceOnUse">
<stop stop-color="#F9BD4C"/>
<stop offset="1" stop-color="#E59426"/>
</linearGradient>
<linearGradient id="paint2_linear_776_8383" x1="26.6632" y1="16.2491" x2="26.6632" y2="31.3645" gradientUnits="userSpaceOnUse">
<stop stop-color="#FABE4D"/>
<stop offset="1" stop-color="#E69728"/>
</linearGradient>
<linearGradient id="paint3_linear_776_8383" x1="26.507" y1="16.2492" x2="26.507" y2="31.3645" gradientUnits="userSpaceOnUse">
<stop stop-color="#FABF4F"/>
<stop offset="1" stop-color="#E89A2A"/>
</linearGradient>
<linearGradient id="paint4_linear_776_8383" x1="26.3507" y1="16.2491" x2="26.3507" y2="31.3644" gradientUnits="userSpaceOnUse">
<stop stop-color="#FBC051"/>
<stop offset="1" stop-color="#EA9C2D"/>
</linearGradient>
<linearGradient id="paint5_linear_776_8383" x1="26.1935" y1="16.2492" x2="26.1935" y2="31.3645" gradientUnits="userSpaceOnUse">
<stop stop-color="#FBC152"/>
<stop offset="1" stop-color="#EC9F2F"/>
</linearGradient>
<linearGradient id="paint6_linear_776_8383" x1="26.0373" y1="16.2491" x2="26.0373" y2="31.3644" gradientUnits="userSpaceOnUse">
<stop stop-color="#FBC254"/>
<stop offset="1" stop-color="#EEA131"/>
</linearGradient>
<linearGradient id="paint7_linear_776_8383" x1="25.881" y1="16.2493" x2="25.881" y2="31.3646" gradientUnits="userSpaceOnUse">
<stop stop-color="#FCC355"/>
<stop offset="1" stop-color="#EFA333"/>
</linearGradient>
<linearGradient id="paint8_linear_776_8383" x1="25.7267" y1="16.2491" x2="25.7267" y2="31.3644" gradientUnits="userSpaceOnUse">
<stop stop-color="#FCC357"/>
<stop offset="1" stop-color="#F1A635"/>
</linearGradient>
<linearGradient id="paint9_linear_776_8383" x1="25.5695" y1="16.2492" x2="25.5695" y2="31.3646" gradientUnits="userSpaceOnUse">
<stop stop-color="#FCC459"/>
<stop offset="1" stop-color="#F3A937"/>
</linearGradient>
<linearGradient id="paint10_linear_776_8383" x1="25.4132" y1="16.2492" x2="25.4132" y2="31.3645" gradientUnits="userSpaceOnUse">
<stop stop-color="#FDC55A"/>
<stop offset="1" stop-color="#F4AB39"/>
</linearGradient>
<linearGradient id="paint11_linear_776_8383" x1="25.257" y1="16.2492" x2="25.257" y2="31.3645" gradientUnits="userSpaceOnUse">
<stop stop-color="#FDC65C"/>
<stop offset="1" stop-color="#F6AE3B"/>
</linearGradient>
<linearGradient id="paint12_linear_776_8383" x1="25.1007" y1="16.2491" x2="25.1007" y2="31.3645" gradientUnits="userSpaceOnUse">
<stop stop-color="#FEC75E"/>
<stop offset="1" stop-color="#F8B03E"/>
</linearGradient>
<linearGradient id="paint13_linear_776_8383" x1="24.9445" y1="16.2492" x2="24.9445" y2="31.3645" gradientUnits="userSpaceOnUse">
<stop stop-color="#FEC85F"/>
<stop offset="1" stop-color="#FAB340"/>
</linearGradient>
<linearGradient id="paint14_linear_776_8383" x1="24.7892" y1="16.2491" x2="24.7892" y2="31.3644" gradientUnits="userSpaceOnUse">
<stop stop-color="#FEC961"/>
<stop offset="1" stop-color="#FCB542"/>
</linearGradient>
<linearGradient id="paint15_linear_776_8383" x1="24.633" y1="16.2493" x2="24.633" y2="31.3646" gradientUnits="userSpaceOnUse">
<stop stop-color="#FFCA62"/>
<stop offset="1" stop-color="#FDB844"/>
</linearGradient>
<linearGradient id="paint16_linear_776_8383" x1="24.4767" y1="16.2491" x2="24.4767" y2="31.3644" gradientUnits="userSpaceOnUse">
<stop stop-color="#FFCB64"/>
<stop offset="1" stop-color="#FFBA46"/>
</linearGradient>
<linearGradient id="paint17_linear_776_8383" x1="35.5399" y1="30.6769" x2="35.5399" y2="39.2735" gradientUnits="userSpaceOnUse">
<stop stop-color="#F9BC4A"/>
<stop offset="1" stop-color="#E39224"/>
</linearGradient>
<linearGradient id="paint18_linear_776_8383" x1="35.6375" y1="30.6476" x2="35.6375" y2="39.2442" gradientUnits="userSpaceOnUse">
<stop stop-color="#F9BD4C"/>
<stop offset="1" stop-color="#E59426"/>
</linearGradient>
<linearGradient id="paint19_linear_776_8383" x1="35.7362" y1="30.6166" x2="35.7362" y2="39.2132" gradientUnits="userSpaceOnUse">
<stop stop-color="#FABE4D"/>
<stop offset="1" stop-color="#E69728"/>
</linearGradient>
<linearGradient id="paint20_linear_776_8383" x1="35.8338" y1="30.5873" x2="35.8338" y2="39.1839" gradientUnits="userSpaceOnUse">
<stop stop-color="#FABF4F"/>
<stop offset="1" stop-color="#E89A2A"/>
</linearGradient>
<linearGradient id="paint21_linear_776_8383" x1="35.9334" y1="30.5562" x2="35.9334" y2="39.1529" gradientUnits="userSpaceOnUse">
<stop stop-color="#FBC051"/>
<stop offset="1" stop-color="#EA9C2D"/>
</linearGradient>
<linearGradient id="paint22_linear_776_8383" x1="36.0311" y1="30.5267" x2="36.0311" y2="39.1234" gradientUnits="userSpaceOnUse">
<stop stop-color="#FBC152"/>
<stop offset="1" stop-color="#EC9F2F"/>
</linearGradient>
<linearGradient id="paint23_linear_776_8383" x1="36.1297" y1="30.4959" x2="36.1297" y2="39.0925" gradientUnits="userSpaceOnUse">
<stop stop-color="#FBC254"/>
<stop offset="1" stop-color="#EEA131"/>
</linearGradient>
<linearGradient id="paint24_linear_776_8383" x1="36.2274" y1="30.4664" x2="36.2274" y2="39.0631" gradientUnits="userSpaceOnUse">
<stop stop-color="#FCC355"/>
<stop offset="1" stop-color="#EFA333"/>
</linearGradient>
<linearGradient id="paint25_linear_776_8383" x1="36.326" y1="30.4356" x2="36.326" y2="39.0322" gradientUnits="userSpaceOnUse">
<stop stop-color="#FCC357"/>
<stop offset="1" stop-color="#F1A635"/>
</linearGradient>
<linearGradient id="paint26_linear_776_8383" x1="36.4237" y1="30.4061" x2="36.4237" y2="39.0028" gradientUnits="userSpaceOnUse">
<stop stop-color="#FCC459"/>
<stop offset="1" stop-color="#F3A937"/>
</linearGradient>
<linearGradient id="paint27_linear_776_8383" x1="36.5233" y1="30.375" x2="36.5233" y2="38.9716" gradientUnits="userSpaceOnUse">
<stop stop-color="#FDC55A"/>
<stop offset="1" stop-color="#F4AB39"/>
</linearGradient>
<linearGradient id="paint28_linear_776_8383" x1="36.6209" y1="30.3457" x2="36.6209" y2="38.9423" gradientUnits="userSpaceOnUse">
<stop stop-color="#FDC65C"/>
<stop offset="1" stop-color="#F6AE3B"/>
</linearGradient>
<linearGradient id="paint29_linear_776_8383" x1="36.7196" y1="30.3163" x2="36.7196" y2="38.9129" gradientUnits="userSpaceOnUse">
<stop stop-color="#FEC75E"/>
<stop offset="1" stop-color="#F8B03E"/>
</linearGradient>
<linearGradient id="paint30_linear_776_8383" x1="36.8188" y1="30.2854" x2="36.8188" y2="38.882" gradientUnits="userSpaceOnUse">
<stop stop-color="#FEC85F"/>
<stop offset="1" stop-color="#FAB340"/>
</linearGradient>
<linearGradient id="paint31_linear_776_8383" x1="36.9168" y1="30.256" x2="36.9168" y2="38.8526" gradientUnits="userSpaceOnUse">
<stop stop-color="#FEC961"/>
<stop offset="1" stop-color="#FCB542"/>
</linearGradient>
<linearGradient id="paint32_linear_776_8383" x1="37.0151" y1="30.2248" x2="37.0151" y2="38.8214" gradientUnits="userSpaceOnUse">
<stop stop-color="#FFCA62"/>
<stop offset="1" stop-color="#FDB844"/>
</linearGradient>
<linearGradient id="paint33_linear_776_8383" x1="37.1131" y1="30.1954" x2="37.1131" y2="38.792" gradientUnits="userSpaceOnUse">
<stop stop-color="#FFCB64"/>
<stop offset="1" stop-color="#FFBA46"/>
</linearGradient>
<linearGradient id="paint34_linear_776_8383" x1="39.1776" y1="18.4339" x2="39.1776" y2="27.0306" gradientUnits="userSpaceOnUse">
<stop stop-color="#B7B7B7"/>
<stop offset="1" stop-color="#9B9B9B"/>
</linearGradient>
<linearGradient id="paint35_linear_776_8383" x1="39.0854" y1="18.5424" x2="39.0854" y2="27.139" gradientUnits="userSpaceOnUse">
<stop stop-color="#BABABA"/>
<stop offset="1" stop-color="#9E9E9E"/>
</linearGradient>
<linearGradient id="paint36_linear_776_8383" x1="38.993" y1="18.6522" x2="38.993" y2="27.2488" gradientUnits="userSpaceOnUse">
<stop stop-color="#BEBEBE"/>
<stop offset="1" stop-color="#A2A2A2"/>
</linearGradient>
<linearGradient id="paint37_linear_776_8383" x1="38.9002" y1="18.7606" x2="38.9002" y2="27.3573" gradientUnits="userSpaceOnUse">
<stop stop-color="#C1C1C1"/>
<stop offset="1" stop-color="#A5A5A5"/>
</linearGradient>
<linearGradient id="paint38_linear_776_8383" x1="38.8084" y1="18.8706" x2="38.8084" y2="27.4672" gradientUnits="userSpaceOnUse">
<stop stop-color="#C4C4C4"/>
<stop offset="1" stop-color="#A9A9A9"/>
</linearGradient>
<linearGradient id="paint39_linear_776_8383" x1="38.7157" y1="18.979" x2="38.7157" y2="27.5756" gradientUnits="userSpaceOnUse">
<stop stop-color="#C7C7C7"/>
<stop offset="1" stop-color="#ACACAC"/>
</linearGradient>
<linearGradient id="paint40_linear_776_8383" x1="38.6229" y1="19.089" x2="38.6229" y2="27.6856" gradientUnits="userSpaceOnUse">
<stop stop-color="#CBCBCB"/>
<stop offset="1" stop-color="#B0B0B0"/>
</linearGradient>
<linearGradient id="paint41_linear_776_8383" x1="38.5311" y1="19.1974" x2="38.5311" y2="27.794" gradientUnits="userSpaceOnUse">
<stop stop-color="#CECECE"/>
<stop offset="1" stop-color="#B3B3B3"/>
</linearGradient>
<linearGradient id="paint42_linear_776_8383" x1="38.4383" y1="19.3072" x2="38.4383" y2="27.9038" gradientUnits="userSpaceOnUse">
<stop stop-color="#D1D1D1"/>
<stop offset="1" stop-color="#B6B6B6"/>
</linearGradient>
<linearGradient id="paint43_linear_776_8383" x1="38.3455" y1="19.4173" x2="38.3455" y2="28.0139" gradientUnits="userSpaceOnUse">
<stop stop-color="#D4D4D4"/>
<stop offset="1" stop-color="#BABABA"/>
</linearGradient>
<linearGradient id="paint44_linear_776_8383" x1="38.2547" y1="19.5256" x2="38.2547" y2="28.1223" gradientUnits="userSpaceOnUse">
<stop stop-color="#D7D7D7"/>
<stop offset="1" stop-color="#BDBDBD"/>
</linearGradient>
<linearGradient id="paint45_linear_776_8383" x1="38.161" y1="19.6356" x2="38.161" y2="28.2322" gradientUnits="userSpaceOnUse">
<stop stop-color="#DBDBDB"/>
<stop offset="1" stop-color="#C1C1C1"/>
</linearGradient>
<linearGradient id="paint46_linear_776_8383" x1="38.0697" y1="19.744" x2="38.0697" y2="28.3406" gradientUnits="userSpaceOnUse">
<stop stop-color="#DEDEDE"/>
<stop offset="1" stop-color="#C4C4C4"/>
</linearGradient>
<linearGradient id="paint47_linear_776_8383" x1="37.9774" y1="19.8537" x2="37.9774" y2="28.4504" gradientUnits="userSpaceOnUse">
<stop stop-color="#E1E1E1"/>
<stop offset="1" stop-color="#C8C8C8"/>
</linearGradient>
<linearGradient id="paint48_linear_776_8383" x1="37.8846" y1="19.9623" x2="37.8846" y2="28.5589" gradientUnits="userSpaceOnUse">
<stop stop-color="#E4E4E4"/>
<stop offset="1" stop-color="#CBCBCB"/>
</linearGradient>
<linearGradient id="paint49_linear_776_8383" x1="37.7934" y1="20.0722" x2="37.7934" y2="28.6689" gradientUnits="userSpaceOnUse">
<stop stop-color="#E8E8E8"/>
<stop offset="1" stop-color="#CFCFCF"/>
</linearGradient>
<linearGradient id="paint50_linear_776_8383" x1="37.7" y1="20.1805" x2="37.7" y2="28.7771" gradientUnits="userSpaceOnUse">
<stop stop-color="#EBEBEB"/>
<stop offset="1" stop-color="#D2D2D2"/>
</linearGradient>
</defs>
</svg>
