<svg width="30" height="30" viewBox="0 0 30 30" fill="none" xmlns="http://www.w3.org/2000/svg">
<path fill-rule="evenodd" clip-rule="evenodd" d="M9.1625 2.50098H20.8363C25.0875 2.50098 27.4875 4.91223 27.5 9.16348V20.8385C27.5 25.0885 25.0875 27.501 20.8363 27.501H9.1625C4.91125 27.501 2.5 25.0885 2.5 20.8385V9.16348C2.5 4.91223 4.91125 2.50098 9.1625 2.50098ZM15.0612 22.326C15.6 22.326 16.0487 21.926 16.0987 21.3885V8.65098C16.1487 8.26348 15.9625 7.87473 15.625 7.66348C15.2737 7.45098 14.8487 7.45098 14.5125 7.66348C14.1737 7.87473 13.9875 8.26348 14.0237 8.65098V21.3885C14.0875 21.926 14.5362 22.326 15.0612 22.326ZM20.8125 22.326C21.3375 22.326 21.7863 21.926 21.85 21.3885V17.2885C21.8863 16.8872 21.7 16.5135 21.3612 16.301C21.025 16.0885 20.6 16.0885 20.25 16.301C19.9113 16.5135 19.725 16.8872 19.775 17.2885V21.3885C19.825 21.926 20.2738 22.326 20.8125 22.326ZM10.2737 21.3885C10.2237 21.926 9.775 22.326 9.23625 22.326C8.69875 22.326 8.24875 21.926 8.2 21.3885V12.751C8.1625 12.3622 8.34875 11.976 8.6875 11.7635C9.02375 11.551 9.45 11.551 9.7875 11.7635C10.1237 11.976 10.3125 12.3622 10.2737 12.751V21.3885Z" fill="#0068FF"/>
</svg>
