<svg width="30" height="30" viewBox="0 0 30 30" fill="none" xmlns="http://www.w3.org/2000/svg">
<rect width="30" height="30" fill="white"/>
<path d="M11.4188 25.9672V22.145C11.4188 21.1693 12.2156 20.3784 13.1984 20.3784H16.7911C17.2631 20.3784 17.7157 20.5645 18.0495 20.8958C18.3832 21.2271 18.5707 21.6765 18.5707 22.145V25.9672C18.5677 26.3728 18.7279 26.7628 19.0158 27.0507C19.3037 27.3386 19.6954 27.5005 20.104 27.5005H22.5551C23.6999 27.5034 24.7988 27.054 25.6093 26.2515C26.4198 25.449 26.8754 24.3592 26.8754 23.2228V12.3341C26.8753 11.4161 26.4655 10.5453 25.7561 9.95632L17.4179 3.34532C15.9674 2.18619 13.8893 2.22362 12.4821 3.43421L4.33413 9.95632C3.59129 10.5279 3.14731 11.4013 3.12537 12.3341V23.2117C3.12537 25.5803 5.05959 27.5005 7.44558 27.5005H9.84073C10.6894 27.5005 11.3791 26.8208 11.3853 25.9783L11.4188 25.9672Z" fill="#C0C0C0"/>
</svg>
