<svg width="70" height="70" viewBox="0 0 70 70" fill="none" xmlns="http://www.w3.org/2000/svg">
<circle cx="35" cy="35" r="35" fill="#F1F3F7"/>
<rect width="35" height="35" transform="translate(18 18)" fill="#F1F3F7"/>
<path d="M34.5505 48.9293C33.7452 48.9293 33.0907 48.2748 33.0907 47.4695V39.9248C33.0907 39.1194 33.7452 38.465 34.5505 38.465C35.3558 38.465 36.0103 39.1194 36.0103 39.9248V47.4695C36.0103 48.2748 35.3558 48.9293 34.5505 48.9293Z" fill="#0068FF"/>
<path d="M39.4447 49H29.6519C28.8466 49 28.1921 48.3456 28.1921 47.5402C28.1921 46.7349 28.8466 46.0804 29.6519 46.0804H39.4447C40.25 46.0804 40.9045 46.7349 40.9045 47.5402C40.9045 48.3456 40.25 49 39.4447 49Z" fill="#0068FF"/>
<path d="M43.6582 42.8011H25.4375C23.6444 42.8011 22.1919 41.3486 22.1919 39.5554V25.6071H46.9013V39.5554C46.9013 41.3486 45.4488 42.8011 43.6557 42.8011H43.6582Z" fill="white"/>
<path d="M47.6903 25.607H21.4068C20.4749 25.607 19.7183 24.8504 19.7183 23.9185C19.7183 22.9867 20.4749 22.23 21.4068 22.23H47.6903C48.6222 22.23 49.3788 22.9867 49.3788 23.9185C49.3788 24.8504 48.6222 25.607 47.6903 25.607Z" fill="#0068FF"/>
<path d="M51.9066 45.8042L50.2887 47.4221C49.841 47.8698 49.1135 47.8698 48.6634 47.4221L40.4302 39.1889C40.221 38.9796 40.0993 38.695 40.0945 38.3982L40.0628 36.751C40.0507 36.099 40.5835 35.5662 41.2355 35.5783L42.8827 35.61C43.1795 35.6148 43.4641 35.7365 43.6734 35.9457L51.9066 44.1789C52.3543 44.6266 52.3543 45.3541 51.9066 45.8042Z" fill="#63A2FF"/>
</svg>
