<svg width="16" height="14" viewBox="0 0 16 14" fill="none" xmlns="http://www.w3.org/2000/svg">
<mask id="path-1-inside-1_1_4" fill="white">
<path d="M5.90065 0.999939C6.67049 -0.33328 8.59474 -0.333356 9.36452 0.999939L14.9934 10.7499C15.7632 12.0832 14.8014 13.7497 13.262 13.7499H2.00319C0.463717 13.7499 -0.498809 12.0832 0.270767 10.7499L5.90065 0.999939Z"/>
</mask>
<path d="M5.90065 0.999939L5.03466 0.499885L5.03465 0.499891L5.90065 0.999939ZM9.36452 0.999939L10.2306 0.499956L10.2305 0.499939L9.36452 0.999939ZM14.9934 10.7499L14.1274 11.2499L14.1274 11.2499L14.9934 10.7499ZM13.262 13.7499V14.7499H13.2622L13.262 13.7499ZM2.00319 13.7499L2.00315 14.7499H2.00319V13.7499ZM0.270767 10.7499L-0.595231 10.2499L-0.595312 10.25L0.270767 10.7499ZM5.90065 0.999939L6.76664 1.49999C7.15162 0.833288 8.11366 0.833391 8.49849 1.49994L9.36452 0.999939L10.2305 0.499939C9.07582 -1.5001 6.18937 -1.49985 5.03466 0.499885L5.90065 0.999939ZM9.36452 0.999939L8.49848 1.49992L14.1274 11.2499L14.9934 10.7499L15.8595 10.25L10.2306 0.499956L9.36452 0.999939ZM14.9934 10.7499L14.1274 11.2499C14.5124 11.9167 14.0313 12.7498 13.2618 12.7499L13.262 13.7499L13.2622 14.7499C15.5714 14.7495 17.014 12.2496 15.8594 10.2499L14.9934 10.7499ZM13.262 13.7499V12.7499H2.00319V13.7499V14.7499H13.262V13.7499ZM2.00319 13.7499L2.00323 12.7499C1.2333 12.7499 0.752161 11.9163 1.13685 11.2498L0.270767 10.7499L-0.595312 10.25C-1.74978 12.2501 -0.305868 14.7498 2.00315 14.7499L2.00319 13.7499ZM0.270767 10.7499L1.13677 11.25L6.76665 1.49999L5.90065 0.999939L5.03465 0.499891L-0.595231 10.2499L0.270767 10.7499Z" fill="#0068FF" fill-opacity="0.2" mask="url(#path-1-inside-1_1_4)"/>
</svg>
