<svg width="26" height="28" viewBox="0 0 26 28" fill="none" xmlns="http://www.w3.org/2000/svg">
<path d="M1.3 8.27273L11.05 0.636364C11.7 0.127273 11.7 0 13 0V19.0909H11.05C9.75 19.0909 9.1 20.3636 9.1 21.6364V26.7273C9.1 27.7455 8.23333 28 7.8 28H1.3C0.78 28 0 27.3636 0 26.0909V10.8182C0 9.54545 0.65 8.90909 1.3 8.27273Z" fill="#0068FF"/>
<path d="M24.7 8.27273L14.95 0.636364C14.3 0.127273 14.3 0 13 0V19.0909H14.95C16.25 19.0909 16.9 20.3636 16.9 21.6364V26.7273C16.9 27.7455 17.7667 28 18.2 28H24.7C25.22 28 26 27.3636 26 26.0909V10.8182C26 9.54545 25.35 8.90909 24.7 8.27273Z" fill="#0068FF"/>
</svg>
