<svg width="44" height="62" viewBox="0 0 44 62" fill="none" xmlns="http://www.w3.org/2000/svg">
<rect width="44" height="62" fill="white"/>
<path d="M10.2929 30.2929C9.90237 30.6834 9.90237 31.3166 10.2929 31.7071L16.6569 38.0711C17.0474 38.4616 17.6805 38.4616 18.0711 38.0711C18.4616 37.6805 18.4616 37.0474 18.0711 36.6569L12.4142 31L18.0711 25.3431C18.4616 24.9526 18.4616 24.3195 18.0711 23.9289C17.6805 23.5384 17.0474 23.5384 16.6569 23.9289L10.2929 30.2929ZM33 32C33.5523 32 34 31.5523 34 31C34 30.4477 33.5523 30 33 30V31V32ZM11 31V32H33V31V30H11V31Z" fill="#666666"/>
</svg>
