<svg width="30" height="30" viewBox="0 0 30 30" fill="none" xmlns="http://www.w3.org/2000/svg">
<path fill-rule="evenodd" clip-rule="evenodd" d="M9.16299 2.50049H20.8367C25.088 2.50049 27.488 4.91174 27.5005 9.16299V20.838C27.5005 25.088 25.088 27.5005 20.8367 27.5005H9.16299C4.91174 27.5005 2.50049 25.088 2.50049 20.838V9.16299C2.50049 4.91174 4.91174 2.50049 9.16299 2.50049ZM15.0617 22.3255C15.6005 22.3255 16.0492 21.9255 16.0992 21.388V8.65049C16.1492 8.26299 15.963 7.87424 15.6255 7.66299C15.2742 7.45049 14.8492 7.45049 14.513 7.66299C14.1742 7.87424 13.988 8.26299 14.0242 8.65049V21.388C14.088 21.9255 14.5367 22.3255 15.0617 22.3255ZM20.813 22.3255C21.338 22.3255 21.7867 21.9255 21.8505 21.388V17.288C21.8867 16.8867 21.7005 16.513 21.3617 16.3005C21.0255 16.088 20.6005 16.088 20.2505 16.3005C19.9117 16.513 19.7255 16.8867 19.7755 17.288V21.388C19.8255 21.9255 20.2742 22.3255 20.813 22.3255ZM10.2742 21.388C10.2242 21.9255 9.77549 22.3255 9.23674 22.3255C8.69924 22.3255 8.24924 21.9255 8.20049 21.388V12.7505C8.16299 12.3617 8.34924 11.9755 8.68799 11.763C9.02424 11.5505 9.45049 11.5505 9.78799 11.763C10.1242 11.9755 10.313 12.3617 10.2742 12.7505V21.388Z" fill="#C0C0C0"/>
</svg>
