<svg width="30" height="30" viewBox="0 0 30 30" fill="none" xmlns="http://www.w3.org/2000/svg">
<path d="M14.5273 2.54199C14.8423 2.40705 15.229 2.40701 15.5439 2.54199L24.2539 6.29395C24.7123 6.49147 24.996 6.92732 24.9961 7.42578C24.9961 13.0408 24.8032 15.3716 23.8232 18.1729C22.5357 21.8538 19.9746 24.7877 15.6211 27.2764C15.2374 27.4963 14.7548 27.4963 14.3711 27.2764C10.0562 24.8102 7.50582 21.8664 6.20703 18.1729C5.21453 15.3516 4.99609 12.9008 4.99609 7.42578C4.99623 6.92482 5.27736 6.49022 5.73828 6.29395C6.83578 5.8252 13.4286 3.01074 14.5273 2.54199ZM19.3682 10.999C19.2082 10.999 19.0408 11.0526 18.9189 11.1748L13.4775 16.6436C13.3169 16.8046 13.1556 16.7746 13.0293 16.585L11.1562 13.7725C10.965 13.4857 10.5651 13.4054 10.2783 13.5967C9.99206 13.7882 9.91227 14.1886 10.1035 14.4756L11.9756 17.2881C12.5394 18.1338 13.6373 18.2415 14.3555 17.5225L19.8164 12.0732C20.0595 11.8289 20.0595 11.4192 19.8164 11.1748C19.6946 11.0529 19.5274 10.9991 19.3682 10.999Z" fill="#C0C0C0"/>
</svg>
