<svg width="30" height="30" viewBox="0 0 30 30" fill="none" xmlns="http://www.w3.org/2000/svg">
<path d="M14.5273 2.54297C14.8423 2.40798 15.229 2.40797 15.5439 2.54297L24.2539 6.29395C24.7126 6.49147 24.9961 6.92807 24.9961 7.42676C24.9961 13.0417 24.8032 15.3716 23.8232 18.1729C22.5358 21.854 19.9747 24.7876 15.6211 27.2764C15.2373 27.4964 14.7548 27.4964 14.3711 27.2764C10.0562 24.8101 7.50576 21.8665 6.20703 18.1729C5.2146 15.3517 4.99609 12.9016 4.99609 7.42676C4.99611 6.92557 5.27712 6.49022 5.73828 6.29395C6.83578 5.8252 13.4286 3.01172 14.5273 2.54297ZM19.3682 11C19.2082 11 19.0408 11.0536 18.9189 11.1758L13.4775 16.6445C13.3169 16.8055 13.1555 16.7754 13.0293 16.5859L11.1562 13.7734C10.965 13.4865 10.5652 13.4062 10.2783 13.5977C9.99206 13.7892 9.91226 14.1896 10.1035 14.4766L11.9756 17.2891C12.5394 18.1346 13.6374 18.2425 14.3555 17.5234L19.8164 12.0742C20.0595 11.8299 20.0595 11.4201 19.8164 11.1758C19.6946 11.0537 19.5274 11.0001 19.3682 11Z" fill="#0068FF"/>
</svg>
