<svg width="30" height="30" viewBox="0 0 30 30" fill="none" xmlns="http://www.w3.org/2000/svg">
<path d="M24.9873 23.6919C25.6836 23.6919 26.25 24.2658 26.25 24.9712C26.2499 25.6779 25.6836 26.2504 24.9873 26.2505H17.8496C17.1533 26.2505 16.587 25.6779 16.5869 24.9712C16.5869 24.2657 17.1532 23.6919 17.8496 23.6919H24.9873ZM15.3018 4.94678C16.4425 3.48213 18.4321 3.34798 20.0371 4.62451L21.8809 6.08838C22.6369 6.67957 23.141 7.45921 23.3135 8.27881C23.5124 9.18039 23.2999 10.0657 22.7031 10.8315L11.7207 25.0347C11.2167 25.6797 10.4736 26.0427 9.67773 26.0562L5.30078 26.1099C5.06202 26.1099 4.86263 25.9486 4.80957 25.7202L3.81445 21.4067C3.64216 20.6141 3.81537 19.794 4.31934 19.1626L12.1055 9.08545C12.2381 8.9242 12.4766 8.89848 12.6357 9.01807L15.9121 11.6245C16.1242 11.7991 16.4158 11.8932 16.7207 11.853C17.3705 11.7724 17.8083 11.1817 17.7422 10.5503C17.7024 10.2278 17.5433 9.95888 17.3311 9.75732C17.2634 9.70253 14.1475 7.20361 14.1475 7.20361C13.949 7.04236 13.9095 6.74743 14.0684 6.54736L15.3018 4.94678Z" fill="#C0C0C0"/>
</svg>
