<svg width="30" height="30" viewBox="0 0 30 30" fill="none" xmlns="http://www.w3.org/2000/svg">
<path d="M24.9873 23.6914C25.6836 23.6915 26.25 24.2653 26.25 24.9707C26.2499 25.6774 25.6836 26.2499 24.9873 26.25H17.8496C17.1533 26.25 16.587 25.6774 16.5869 24.9707C16.5869 24.2653 17.1532 23.6914 17.8496 23.6914H24.9873ZM15.3018 4.94629C16.4425 3.48164 18.4321 3.34749 20.0371 4.62402L21.8809 6.08789C22.6369 6.67908 23.141 7.45872 23.3135 8.27832C23.5124 9.1799 23.2999 10.0652 22.7031 10.8311L11.7207 25.0342C11.2167 25.6792 10.4736 26.0422 9.67773 26.0557L5.30078 26.1094C5.06202 26.1094 4.86263 25.9482 4.80957 25.7197L3.81445 21.4062C3.64216 20.6136 3.81537 19.7936 4.31934 19.1621L12.1055 9.08496C12.2381 8.92372 12.4766 8.89799 12.6357 9.01758L15.9121 11.624C16.1242 11.7986 16.4158 11.8927 16.7207 11.8525C17.3705 11.7719 17.8083 11.1812 17.7422 10.5498C17.7024 10.2273 17.5433 9.95839 17.3311 9.75684C17.2634 9.70204 14.1475 7.20312 14.1475 7.20312C13.949 7.04187 13.9095 6.74694 14.0684 6.54688L15.3018 4.94629Z" fill="#0068FF"/>
</svg>
