<svg width="30" height="30" viewBox="0 0 30 30" fill="none" xmlns="http://www.w3.org/2000/svg">
<path d="M11.4185 25.9677V22.1455C11.4185 21.1698 12.2152 20.3789 13.198 20.3789H16.7908C17.2627 20.3789 17.7154 20.565 18.0491 20.8963C18.3828 21.2276 18.5703 21.677 18.5703 22.1455V25.9677C18.5674 26.3733 18.7276 26.7633 19.0155 27.0512C19.3033 27.3391 19.6951 27.501 20.1037 27.501H22.5548C23.6995 27.5039 24.7984 27.0545 25.609 26.252C26.4195 25.4494 26.875 24.3597 26.875 23.2233V12.3346C26.875 11.4166 26.4651 10.5458 25.7558 9.95681L17.4175 3.34581C15.9671 2.18668 13.8889 2.2241 12.4817 3.4347L4.33377 9.95681C3.59093 10.5284 3.14694 11.4018 3.125 12.3346V23.2121C3.125 25.5808 5.05923 27.501 7.44522 27.501H9.84036C10.689 27.501 11.3787 26.8212 11.3849 25.9788L11.4185 25.9677Z" fill="#0068FF"/>
</svg>
