<svg width="70" height="70" viewBox="0 0 70 70" fill="none" xmlns="http://www.w3.org/2000/svg">
<circle cx="35" cy="35" r="35" fill="#F1F3F7"/>
<rect width="35" height="35" transform="translate(18 17)" fill="#F1F3F7"/>
<path d="M45.109 19.644H25.382C23.5142 19.644 22 21.1581 22 23.0259V46.6181C22 48.4859 23.5142 50.0001 25.382 50.0001H45.109C46.9768 50.0001 48.491 48.4859 48.491 46.6181V23.0259C48.491 21.1581 46.9768 19.644 45.109 19.644Z" fill="white"/>
<path d="M39.0698 23.4055H31.4181C30.0283 23.4055 28.902 22.2792 28.902 20.8894V18.7686C28.902 18.3451 29.2471 18 29.6706 18H40.8173C41.2408 18 41.5859 18.3451 41.5859 18.7686V20.8894C41.5859 22.2792 40.4596 23.4055 39.0698 23.4055Z" fill="#5A5B63"/>
<path d="M31.9213 35.8055H27.9998V41.7474H31.9213V35.8055Z" fill="#63A2FF"/>
<path d="M37.206 29.8629H33.2844V41.75H37.206V29.8629Z" fill="#0068FF"/>
<path d="M42.1274 33.3231H38.2058V41.7497H42.1274V33.3231Z" fill="#63A2FF"/>
</svg>
