<svg width="70" height="70" viewBox="0 0 70 70" fill="none" xmlns="http://www.w3.org/2000/svg">
<circle cx="35" cy="35" r="35" fill="#F1F3F7"/>
<rect width="35" height="35" transform="translate(17 18)" fill="#F1F3F7"/>
<path d="M47 32.0696C47 37.1798 39.6242 46.0508 36.4392 50.0432C35.7073 50.9599 34.2968 50.9599 33.5649 50.0432C30.3758 46.0508 23 37.1798 23 32.0696C23 25.5523 28.3724 20.2692 35 20.2692C41.6276 20.2692 47 25.5523 47 32.0696Z" fill="#63A2FF"/>
<path d="M36.8358 36.391C39.3861 35.3319 40.5987 32.4043 39.5443 29.8521C38.49 27.2999 35.5679 26.0895 33.0176 27.1487C30.4674 28.2078 29.2548 31.1354 30.3091 33.6876C31.3635 36.2398 34.2856 37.4502 36.8358 36.391Z" fill="white"/>
</svg>
