<svg width="70" height="70" viewBox="0 0 70 70" fill="none" xmlns="http://www.w3.org/2000/svg">
<circle cx="35" cy="35" r="35" fill="#F1F3F7"/>
<rect width="35" height="35" transform="translate(17 18)" fill="#F1F3F7"/>
<g clip-path="url(#clip0_4_309)">
<path d="M24.9006 24C22.7489 24 21.0057 25.75 21.0057 27.91V46.0325C21.0057 46.8275 21.6009 47.48 22.3281 47.48H47.6718C48.399 47.48 48.9942 46.8275 48.9942 46.0325V27.91C48.9942 25.75 47.251 24 45.0993 24H24.9006Z" fill="#0068FF"/>
<path d="M44.2875 27.1275H25.7148C24.836 27.1275 24.1235 27.8427 24.1235 28.725V42.755C24.1235 43.6373 24.836 44.3525 25.7148 44.3525H44.2875C45.1663 44.3525 45.8788 43.6373 45.8788 42.755V28.725C45.8788 27.8427 45.1663 27.1275 44.2875 27.1275Z" fill="white"/>
<g clip-path="url(#clip1_4_309)">
<path d="M37.704 36.3714C39.2753 34.789 39.2753 32.2233 37.704 30.6409C36.1327 29.0585 33.585 29.0585 32.0137 30.6409C30.4424 32.2234 30.4424 34.789 32.0137 36.3714C33.585 37.9538 36.1327 37.9538 37.704 36.3714Z" fill="#A1C7FF"/>
<path d="M38.7391 46.3636H30.9755C29.8409 46.3636 28.9208 45.437 28.9208 44.2944V42.657C28.9208 39.3556 31.579 36.6785 34.8573 36.6785C38.1356 36.6785 40.7938 39.3556 40.7938 42.657V44.2944C40.7938 45.437 39.8736 46.3636 38.7391 46.3636Z" fill="#A1C7FF"/>
</g>
<path d="M38.2336 43.7625C38.2336 44.1175 37.9448 44.4075 37.5912 44.4075H32.4064C32.0527 44.4075 31.7639 44.1175 31.7639 43.7625C31.7639 43.5175 31.5646 43.3175 31.3206 43.3175H18.9239C18.4134 43.3175 18 43.7325 18 44.245V45.635C18 46.9425 19.0559 48.0025 20.3583 48.0025H49.6442C50.9466 48.0025 52.0025 46.9425 52.0025 45.635V44.245C52.0025 43.7325 51.5891 43.3175 51.0786 43.3175H38.6794C38.4354 43.3175 38.2361 43.5175 38.2361 43.7625H38.2336Z" fill="#0068FF"/>
</g>
<defs>
<clipPath id="clip0_4_309">
<rect width="34" height="24" fill="white" transform="translate(18 24)"/>
</clipPath>
<clipPath id="clip1_4_309">
<rect width="11.873" height="16.9091" fill="white" transform="translate(28.9208 29.4545)"/>
</clipPath>
</defs>
</svg>
