<svg width="12" height="9" viewBox="0 0 12 9" fill="none" xmlns="http://www.w3.org/2000/svg">
<path d="M3.97778 7.01005L10.6222 0.248744C10.7839 0.0829146 10.9724 0 11.1878 0C11.4033 0 11.5926 0.0829146 11.7556 0.248744C11.9185 0.414573 12 0.607387 12 0.827186C12 1.04699 11.9214 1.23686 11.7642 1.39681L4.55556 8.75126C4.39393 8.91709 4.20541 9 3.99 9C3.77444 9 3.58519 8.91709 3.42222 8.75126L0.244444 5.51759C0.0814815 5.35176 0 5.15955 0 4.94095C0 4.72236 0.0814815 4.53015 0.244444 4.36432C0.407407 4.19849 0.597556 4.11558 0.814889 4.11558C1.03207 4.11558 1.2197 4.19849 1.37778 4.36432L3.97778 7.01005Z" fill="white"/>
</svg>
