<svg width="30" height="30" viewBox="0 0 30 30" fill="none" xmlns="http://www.w3.org/2000/svg">
<path d="M7.94975 8.94974C10.6834 6.21607 15.1156 6.21607 17.8492 8.94974C20.5829 11.6834 20.5829 16.1156 17.8492 18.8492C15.1156 21.5829 10.6834 21.5829 7.94975 18.8492C5.21608 16.1156 5.21608 11.6834 7.94975 8.94974ZM9.36396 10.364C7.41134 12.3166 7.41134 15.4824 9.36396 17.435C11.3166 19.3876 14.4824 19.3876 16.435 17.435C18.3877 15.4824 18.3877 12.3166 16.435 10.364C14.4824 8.41133 11.3166 8.41133 9.36396 10.364Z" fill="#2C67F6"/>
<path d="M16.435 18.8492C16.0445 18.4587 16.0445 17.8255 16.435 17.435C16.8256 17.0445 17.4587 17.0445 17.8492 17.435L22.0919 21.6777C22.4824 22.0682 22.4824 22.7014 22.0919 23.0919C21.7014 23.4824 21.0682 23.4824 20.6777 23.0919L16.435 18.8492Z" fill="#2C67F6"/>
</svg>
