<svg width="44" height="44" viewBox="0 0 44 44" fill="none" xmlns="http://www.w3.org/2000/svg">
<rect width="44" height="44" fill="white"/>
<path d="M10.2929 21.2929C9.90237 21.6834 9.90237 22.3166 10.2929 22.7071L16.6569 29.0711C17.0474 29.4616 17.6805 29.4616 18.0711 29.0711C18.4616 28.6805 18.4616 28.0474 18.0711 27.6569L12.4142 22L18.0711 16.3431C18.4616 15.9526 18.4616 15.3195 18.0711 14.9289C17.6805 14.5384 17.0474 14.5384 16.6569 14.9289L10.2929 21.2929ZM33 23C33.5523 23 34 22.5523 34 22C34 21.4477 33.5523 21 33 21V22V23ZM11 22V23H33V22V21H11V22Z" fill="#666666"/>
</svg>
